<svg class="tw-mr-4" width="109" height="98" viewBox="0 0 109 98" fill="none" xmlns="http://www.w3.org/2000/svg">
  <path d="M103.679 27.1344C101.927 26.3339 100.087 25.9211 98.1964 25.9211C95.1421 25.9211 89.9973 27.3846 83.751 31.9003C75.965 37.5292 64.2736 51.7141 57.2887 66.2118C57.0759 66.6621 56.6128 67.0123 56.2372 66.7497C55.8116 66.4494 56.0369 65.7364 56.0745 65.6114C60.5183 51.6516 68.6923 37.867 82.5243 23.6445C86.7678 19.279 88.1823 13.0996 86.4298 8.18369C84.7274 3.41786 80.6341 0.490808 75.1013 0.290668C70.9705 0.153072 66.4391 1.56656 61.382 8.27125C59.3166 10.9982 56.8005 16.8147 55.9243 19.304C55.5738 20.3047 55.048 21.8933 54.4472 21.8933C53.9215 21.8933 53.4708 20.4172 53.0703 19.4416C51.443 15.5263 47.0868 7.30808 44.0701 4.55615C39.9017 0.766002 36.7848 -0.184663 33.0045 0.0279857C28.5983 0.278161 24.3423 2.82995 22.2894 7.3456C20.4368 11.4485 20.9249 18.7536 26.3075 24.1824C39.7264 37.6793 48.664 50.6009 52.8825 65.5488C52.92 65.6864 53.0703 66.4369 52.557 66.6621C52.0438 66.8873 51.6057 65.9616 51.6057 65.9616C45.2843 53.0151 35.2827 38.9552 24.8555 31.4249C20.1113 27.9975 15.2795 25.9336 10.6605 25.9336C8.53247 25.9336 6.3544 26.2213 4.41417 27.272C-1.65689 30.5493 -3.04635 44.0838 10.5854 45.5098C11.5492 45.6099 15.0542 45.5974 16.8692 45.4473C17.7079 45.3722 18.2462 45.7224 18.4715 46.2478C18.8345 47.1234 18.0208 48.1116 17.7705 48.3993L17.7455 48.4368L17.7079 48.4619C17.6829 48.4869 15.3671 50.4508 14.4283 52.7899C13.3142 55.5418 13.4018 57.956 14.6661 59.9574C16.719 63.2097 21.4006 64.6982 24.893 64.6982C25.0182 64.6982 25.1309 64.6982 25.2435 64.6982C28.5732 64.5981 31.2144 64.0603 33.1296 63.66C33.5928 63.5599 34.8946 63.3223 35.4204 63.3098C36.6096 63.2847 37.0477 63.7726 37.1603 64.1854C37.298 64.6982 37.273 65.5863 36.2966 66.2993C35.533 66.8497 33.743 67.3251 33.0295 67.6628C31.9905 68.1631 30.914 68.676 29.7749 70.2646C28.9112 71.4655 28.786 73.2292 29.4369 74.7427C30.3132 76.7567 32.3786 78.0701 35.7709 78.2327C42.0547 78.5454 50.2037 71.3154 50.2663 71.2528C50.5417 71.0151 51.8435 69.8268 52.7072 70.4648C53.3832 70.9526 53.0953 72.6038 53.0327 73.0666C52.0313 80.6469 49.6029 88.2647 42.4553 95.3947C41.1535 96.6956 41.4789 97.4336 42.8058 97.4336L66.001 97.4711C67.1526 97.4711 67.7785 97.0083 66.4641 95.5573C59.3541 87.6768 56.9257 80.3091 55.9368 72.7288C55.9243 72.6538 55.6489 70.7399 56.4751 70.3522C57.3012 69.9644 58.2651 70.7149 58.9661 71.2528C62.6087 74.0548 67.6158 78.2327 72.9984 78.2327C73.2237 78.2327 73.4615 78.2202 73.6868 78.2077C76.3906 78.02 78.4561 76.7441 79.3198 74.7427C79.9832 73.2292 79.8455 71.4655 78.9818 70.2646C77.8427 68.676 76.7662 68.1631 75.7272 67.6628C75.0137 67.3251 74.2752 66.9623 73.5992 66.2993C72.7981 65.5113 72.4976 64.7983 72.7355 64.1854C72.8857 63.7851 73.3113 63.3098 74.4754 63.3098C74.7884 63.3098 75.1514 63.3473 75.5269 63.4098C75.8899 63.4724 76.303 63.5599 76.7662 63.66C78.6814 64.0603 81.3226 64.6107 84.6523 64.6982C84.7649 64.6982 84.8901 64.6982 85.0028 64.6982C88.4952 64.6982 93.1893 63.2097 95.2297 59.9574C96.494 57.956 96.5691 55.5418 95.4675 52.7899C94.5287 50.4508 92.2129 48.4744 92.1879 48.4619L92.1504 48.4368L92.1253 48.3993C91.875 48.1116 91.0613 47.1234 91.4243 46.2478C91.6371 45.7099 92.1754 45.4473 93.0266 45.4473C93.0892 45.4473 93.1643 45.4473 93.2394 45.4473C94.704 45.5098 95.5927 45.5473 96.7569 45.5473C97.4578 45.5473 98.259 45.5348 99.3355 45.5098C105.306 45.3472 108.148 41.4194 108.824 37.7919C109.525 34.1143 108.198 29.2234 103.679 27.1344Z" fill="#132D54"></path>
</svg>
