<?xml version="1.0" encoding="utf-8"?>
<!-- Generator: Adobe Illustrator 16.0.0, SVG Export Plug-In . SVG Version: 6.00 Build 0)  -->
<!DOCTYPE svg PUBLIC "-//W3C//DTD SVG 1.1//EN" "http://www.w3.org/Graphics/SVG/1.1/DTD/svg11.dtd">
<svg version="1.1" id="Layer_1" xmlns="http://www.w3.org/2000/svg" xmlns:xlink="http://www.w3.org/1999/xlink" x="0px" y="0px"
	 width="312.822px" height="91.118px" viewBox="0 0 312.822 91.118" enable-background="new 0 0 312.822 91.118"
	 xml:space="preserve">
<g>
	<defs>
		<rect id="SVGID_1_" width="312.822" height="91.118"/>
	</defs>
	<clipPath id="SVGID_2_">
		<use xlink:href="#SVGID_1_"  overflow="visible"/>
	</clipPath>
	<path clip-path="url(#SVGID_2_)" fill="#FFD103" d="M0,69.77v-5.248c0-1.072,0.707-1.788,1.765-1.788h12.582
		c1.176,0,1.763,0.716,1.763,1.788v2.863c0,5.606,2.47,8.706,6.822,8.706c4.351,0,6.702-2.863,6.702-7.991v-2.623
		c0-5.128-4.821-8.469-12.229-14.191C10.114,45.559,0,38.999,0,26.596v-5.248C0,7.991,9.643,0,22.932,0
		C36.22,0,45.745,7.991,45.745,21.348v5.248c0,1.073-0.589,1.79-1.764,1.79H31.399c-1.06,0-1.765-0.717-1.765-1.79v-2.624
		c0-5.844-2.351-8.945-6.702-8.945c-4.352,0-6.822,2.863-6.822,7.992v2.623c0,5.128,4.94,8.348,12.231,14.074
		c7.408,5.724,17.404,12.403,17.404,24.806v5.248c0,13.358-9.525,21.35-22.813,21.35C9.643,91.119,0,83.128,0,69.77"/>
	<path clip-path="url(#SVGID_2_)" fill="#FFD103" d="M55.047,88.498V2.627c0-1.073,0.588-1.789,1.765-1.789h12.582
		c1.058,0,1.763,0.716,1.763,1.789v85.871c0,1.074-0.588,1.789-1.763,1.789H56.812C55.752,90.287,55.047,89.572,55.047,88.498"/>
	<path clip-path="url(#SVGID_2_)" fill="#FFD103" d="M264.23,44.565c7.812-0.041,14.666-5.777,14.863-14.675
		c0.179-7.997-6.582-14.765-14.497-14.882c-8.036-0.12-14.887,6.551-15.004,14.616C249.473,37.664,256.185,44.514,264.23,44.565
		 M234.688,29.767c0.037-16.619,13.322-29.776,29.988-29.692c16.26,0.079,29.378,13.419,29.346,29.888
		c-0.03,16.255-13.089,29.535-29.439,29.59C247.837,59.613,234.653,46.314,234.688,29.767"/>
	<path clip-path="url(#SVGID_2_)" fill="#FFD103" d="M209.845,2.604c0-1.073,0.598-1.79,1.79-1.79H224.4
		c1.071,0,1.79,0.717,1.79,1.79v71.339c0,1.076,0.714,1.79,1.788,1.79h14.437c1.074,0,1.79,0.717,1.79,1.79v10.975
		c0,1.075-0.716,1.789-1.79,1.789h-30.78c-1.075,0-1.79-0.714-1.79-1.789V2.604z"/>
	<path clip-path="url(#SVGID_2_)" fill="#FFD103" d="M154.043,88.499V2.627c0-1.073,0.587-1.789,1.764-1.789h21.167
		c13.288,0,22.813,7.991,22.813,21.349v30.644c0,13.355-9.524,21.347-22.813,21.347h-5.057c-1.059,0-1.763,0.716-1.763,1.79v12.531
		c0,1.073-0.59,1.789-1.767,1.789h-12.582C154.75,90.288,154.043,89.572,154.043,88.499 M176.975,59.151
		c4.47,0,6.702-3.102,6.702-8.944V24.811c0-5.844-2.232-9.063-6.702-9.063h-5.057c-1.059,0-1.763,0.715-1.763,1.788v39.826
		c0,1.073,0.704,1.79,1.763,1.79H176.975z"/>
	<path clip-path="url(#SVGID_2_)" fill="#FFD103" d="M126.02,2.628c0.312-1.073,0.938-1.79,1.875-1.79h13.2
		c1.042,0,1.563,0.717,1.563,1.79v85.871c0,1.074-0.626,1.789-1.563,1.789h-12.992c-1.041,0-1.562-0.715-1.562-1.789V63.546
		c0-0.714-0.833-0.834-1.042-0.118l-5.138,24.963c-0.312,1.073-0.938,1.79-1.875,1.79h-10.94c-0.938,0-1.562-0.717-1.875-1.79
		l-5.082-24.963c-0.208-0.716-1.042-0.596-1.042,0.118v24.953c0,1.074-0.521,1.789-1.562,1.789H85.042
		c-0.939,0-1.564-0.715-1.564-1.789V2.628c0-1.073,0.522-1.79,1.564-1.79h13.151c0.938,0,1.562,0.717,1.875,1.79l12.375,56.357
		c0.312,0.716,0.938,0.716,1.146,0L126.02,2.628z"/>
	<path clip-path="url(#SVGID_2_)" fill="#FFD103" d="M295.993,8.443c0-1.144,0.221-2.225,0.664-3.244
		c0.44-1.02,1.041-1.908,1.799-2.667c0.759-0.759,1.65-1.358,2.674-1.798c1.025-0.44,2.115-0.659,3.273-0.659
		c1.149,0,2.238,0.219,3.264,0.659c1.026,0.44,1.919,1.039,2.683,1.798c0.764,0.759,1.366,1.647,1.809,2.667
		c0.442,1.019,0.664,2.1,0.664,3.244c0,1.153-0.222,2.246-0.664,3.277c-0.442,1.031-1.045,1.928-1.809,2.689
		c-0.764,0.76-1.656,1.363-2.683,1.805c-1.025,0.444-2.114,0.665-3.264,0.665c-1.15,0-2.239-0.221-3.268-0.665
		c-1.027-0.442-1.921-1.045-2.68-1.805c-0.758-0.761-1.358-1.658-1.799-2.689C296.214,10.689,295.993,9.596,295.993,8.443
		 M297.341,8.443c0,0.966,0.188,1.879,0.564,2.738c0.375,0.86,0.882,1.612,1.523,2.255c0.643,0.644,1.391,1.153,2.246,1.53
		c0.857,0.377,1.767,0.566,2.729,0.566c0.963,0,1.873-0.189,2.73-0.566s1.607-0.886,2.249-1.53c0.643-0.643,1.148-1.395,1.517-2.255
		c0.367-0.859,0.551-1.772,0.551-2.738c0-0.959-0.184-1.866-0.551-2.721c-0.368-0.853-0.874-1.6-1.517-2.24
		c-0.642-0.64-1.392-1.143-2.249-1.51c-0.857-0.366-1.768-0.55-2.73-0.55c-0.962,0-1.871,0.184-2.729,0.55
		c-0.855,0.367-1.604,0.87-2.246,1.51c-0.642,0.64-1.148,1.387-1.523,2.24C297.529,6.577,297.341,7.484,297.341,8.443
		 M301.396,12.955V3.918c0-0.109,0.038-0.201,0.117-0.275c0.078-0.074,0.165-0.111,0.26-0.111h3.238
		c0.433,0,0.842,0.084,1.231,0.253c0.389,0.168,0.726,0.396,1.013,0.686c0.287,0.289,0.516,0.626,0.685,1.01
		c0.169,0.384,0.253,0.794,0.253,1.232c0,0.579-0.145,1.105-0.433,1.58c-0.287,0.477-0.667,0.851-1.138,1.125
		c-0.179,0.111-0.312,0.196-0.397,0.255c-0.086,0.06-0.073,0.177,0.035,0.351l1.644,2.746c0.08,0.14,0.088,0.27,0.024,0.39
		s-0.194,0.18-0.395,0.18h-0.537c-0.159,0-0.272-0.031-0.34-0.092c-0.068-0.063-0.142-0.16-0.222-0.291l-1.624-2.783
		c-0.063-0.154-0.184-0.236-0.362-0.244h-1.531c-0.124,0-0.19,0.067-0.198,0.198v2.829c0,0.255-0.126,0.383-0.378,0.383h-0.567
		c-0.096,0-0.182-0.035-0.261-0.105C301.435,13.165,301.396,13.071,301.396,12.955 M302.72,8.397c0,0.124,0.066,0.186,0.198,0.186
		h2.08c0.492,0,0.925-0.157,1.304-0.47c0.377-0.314,0.566-0.773,0.566-1.376c0-0.604-0.189-1.065-0.566-1.381
		c-0.379-0.317-0.812-0.477-1.304-0.477h-2.08c-0.124,0-0.19,0.062-0.198,0.186V8.397z"/>
</g>
</svg>
