<svg width="1496" height="232" viewBox="0 0 1496 232" fill="none" xmlns="http://www.w3.org/2000/svg">
<g clip-path="url(#clip0_6852_2)">
<path d="M-28.8552 223.96L73.287 8.66797H125.104L223.364 223.96H163.333L143.622 178.487H48.7966L29.3836 223.96H-28.8552ZM67.3137 134.951H124.358L95.3876 68.4547L67.4632 134.951H67.3137Z" fill="#1D1D1B"/>
<path d="M374.785 223.96V8.66797H444.671L514.258 162.832L585.638 8.66797H654.926V223.96H603.112V80.3822L536.064 223.96H490.964L426.751 77.8476V223.96H374.934H374.785Z" fill="#1D1D1B"/>
<path d="M797.538 116.463C797.538 82.0225 809.191 54.589 832.634 34.0139C856.077 13.4389 887.438 3.15137 926.86 3.15137C966.282 3.15137 997.495 13.4389 1020.94 34.0139C1044.23 54.589 1055.88 82.0225 1055.88 116.463C1055.88 150.904 1044.23 178.337 1020.94 198.913C997.495 219.338 966.134 229.626 926.86 229.626C887.586 229.626 856.077 219.338 832.634 198.913C809.191 178.337 797.538 150.904 797.538 116.463ZM926.86 185.196C948.364 185.196 965.389 179.083 977.781 166.857C990.179 154.631 996.301 137.784 996.301 116.463C996.301 95.1426 990.179 77.9968 977.781 65.7709C965.389 53.545 948.364 47.4324 926.86 47.4324C905.355 47.4324 888.336 53.5455 875.79 65.9201C863.245 78.2952 857.123 95.1426 857.123 116.612C857.123 138.082 863.398 154.78 875.79 167.006C888.183 179.232 905.208 185.345 927.008 185.345L926.86 185.196Z" fill="#1D1D1B"/>
<path d="M1428.61 140.616C1425.63 167.603 1412.93 189.221 1390.53 205.324C1367.98 221.575 1339.31 229.626 1304.37 229.626C1264.94 229.626 1233.59 219.338 1210.14 198.913C1186.7 178.337 1175.05 150.904 1175.05 116.463C1175.05 82.0225 1186.7 54.589 1210.14 34.0139C1233.59 13.4389 1264.94 3.15137 1304.37 3.15137C1338.72 3.15137 1367.24 10.9043 1389.64 26.4101C1412.18 41.9159 1424.73 62.1928 1427.56 87.2404H1368.73C1365.14 74.1203 1357.98 64.1311 1347.08 57.4215C1336.18 50.7125 1321.99 47.4324 1304.37 47.4324C1282.87 47.4324 1265.84 53.5455 1253.3 65.9201C1240.76 78.2952 1234.63 95.1426 1234.63 116.612C1234.63 138.082 1240.9 154.78 1253.3 167.006C1265.69 179.232 1282.71 185.345 1304.52 185.345C1323.33 185.345 1338.42 181.468 1349.77 173.567C1361.11 165.664 1367.83 154.78 1369.48 140.616H1428.61Z" fill="#1D1D1B"/>
<path d="M294.745 181.916C279.215 181.916 266.671 194.44 266.671 209.945V223.96H322.82V209.945C322.82 194.44 310.276 181.916 294.745 181.916Z" fill="#1D1D1B"/>
<path d="M733.326 181.916C717.796 181.916 705.251 194.44 705.251 209.945V223.96H761.402V209.945C761.402 194.44 748.856 181.916 733.326 181.916Z" fill="#1D1D1B"/>
<path d="M1110.83 181.916C1095.3 181.916 1082.76 194.44 1082.76 209.945V223.96H1138.91V209.945C1138.91 194.44 1126.37 181.916 1110.83 181.916Z" fill="#1D1D1B"/>
<path d="M1491.92 181.916C1476.39 181.916 1463.85 194.44 1463.85 209.945V223.96H1520V209.945C1520 194.44 1507.45 181.916 1491.92 181.916Z" fill="#1D1D1B"/>
</g>
<defs>
<clipPath id="clip0_6852_2">
<rect width="1496" height="232" fill="white"/>
</clipPath>
</defs>
</svg>
