<svg xmlns="http://www.w3.org/2000/svg" xmlns:xlink="http://www.w3.org/1999/xlink" viewBox="0 0 197.98 39.82"><defs><style>.cls-1{fill:none;}.cls-2{opacity:0.8;}.cls-3{clip-path:url(#clip-path);}.cls-4{clip-path:url(#clip-path-2);}.cls-5{fill:#ab2328;}</style><clipPath id="clip-path" transform="translate(0 0)"><rect class="cls-1" width="198" height="39.82"/></clipPath><clipPath id="clip-path-2" transform="translate(0 0)"><rect class="cls-1" width="198" height="39.81"/></clipPath></defs><title>Asset 2</title><g id="Layer_2" data-name="Layer 2"><g id="Layer_1-2" data-name="Layer 1"><g class="cls-2"><g class="cls-3"><g class="cls-4"><path class="cls-5" d="M98.41,13.58h2.72V4.65l7.34,8.93h2.37V0h-2.72V8.94L100.77,0H98.4ZM86,17.41h8.77V14.68h-6V12h6.05V9.25H88.74V6.54h6.07V3.81H86Zm-7.87,3.27c2.63,0,4.38-1.52,4.37-3.93,0-2.25-1.54-3.3-3.6-4-1.81-.6-2.47-.89-2.46-1.74s.61-1.18,1.64-1.18a2,2,0,0,1,2.13,1.73l2.43-1A4.31,4.31,0,0,0,78.1,7.11c-2.63,0-4.38,1.51-4.37,3.92,0,2.25,1.55,3.3,3.6,4,1.82.6,2.48.89,2.46,1.73S79.18,18,78.15,18A2,2,0,0,1,76,16.24l-2.44,1a4.32,4.32,0,0,0,4.55,3.42M62.66,17.19V13.13h3.21A1.93,1.93,0,0,1,68,14.9a2,2,0,0,1,0,.25,1.9,1.9,0,0,1-.91,1.73L66,15.17l-2.27,1.36.4.67ZM71.54,24l-3-4.8a4.65,4.65,0,0,0,2.15-4.06,4.59,4.59,0,0,0-4.46-4.72H60V24h2.7V19.9h3.18L68.4,24Zm-24,3.73H56.3V25h-6V22.27h6V19.56H50.23V16.84H56.3V14.12H47.51ZM35.4,28.6V20.44h2.22a3.84,3.84,0,0,1,3.94,3.75v.31a3.88,3.88,0,0,1-3.67,4.08,2.81,2.81,0,0,1-.29,0Zm-2.72,2.71h4.93a6.54,6.54,0,0,0,6.66-6.42c0-.13,0-.26,0-.39A6.53,6.53,0,0,0,38,17.71H32.68ZM16.31,35.58H19V26.65l7.34,8.93h2.37V22H26v8.93L18.68,22H16.31ZM5.22,34.73l2.33-5,2.3,5Zm6.87,4.87h3L8.8,26H6.29L0,39.59H3l1-2.16h7.15Z" transform="translate(0 0)"/><path class="cls-5" d="M189.13,36.87V28.72h2.21a4.07,4.07,0,0,1,0,8.14Zm-2.72,2.72h4.92a6.79,6.79,0,0,0,0-13.58h-4.92Zm-11.78-6.81V28.72h3.22A2,2,0,0,1,179,32.45L178,30.75,175.7,32.1l.41.66Zm8.89,6.81-3-4.81A4.78,4.78,0,0,0,177.86,26h-5.94V39.59h2.72v-4.1h3.19l2.56,4.11Zm-24.19-4.88,2.31-5,2.31,5Zm6.87,4.88h3L162.9,26h-2.53l-6.28,13.59h3l1-2.16h7.14Zm-22.55,0h8.89V36.87h-6.17V26h-2.73Zm-11.66,0h8.89V36.87H134.7V26H132Zm-6.76,0H128V26h-2.72Zm-12.11-4.88,2.31-5,2.32,5ZM120,39.59h3L116.69,26h-2.52l-6.29,13.59h3l1-2.16H119Zm-31.51,0h2.71v-7.9l4.5,7.9h2.24l4.5-7.9v7.9h2.72V26h-2.62L96.82,36,91.1,26H88.48ZM77.81,37.4c-1.2,0-1.8-.66-1.8-1.58s.47-1.25,1.27-1.77l2.4,2.63a2.81,2.81,0,0,1-1.88.72m.07-6.21-.37-.42A1.63,1.63,0,0,1,77,29.64a.92.92,0,0,1,.88-1h.09a.92.92,0,0,1,1,.85.86.86,0,0,1,0,.16,1.81,1.81,0,0,1-1,1.5m-.13,8.62a5.61,5.61,0,0,0,3.63-1.34l1.13,1.21L84.28,38l-1.23-1.32a14.35,14.35,0,0,0,1.28-2.38l-2-1.19a12.15,12.15,0,0,1-.93,1.79l-1.88-2a3.8,3.8,0,0,0,1.86-3.19,3.1,3.1,0,0,0-3-3.22,2.61,2.61,0,0,0-.4,0,3.19,3.19,0,0,0-3.49,2.87,2.71,2.71,0,0,0,0,.29,3.73,3.73,0,0,0,1.1,2.58l.17.18A4.07,4.07,0,0,0,73.54,36c0,2.32,1.62,3.87,4.22,3.87" transform="translate(0 0)"/></g></g></g></g></g></svg>