<?xml version="1.0" encoding="UTF-8"?>
<svg xmlns="http://www.w3.org/2000/svg" width="230" height="82" viewBox="0 0 230 82" fill="none">
  <g clip-path="url(#clip0_1807_9095)">
    <path fill-rule="evenodd" clip-rule="evenodd" d="M0.964355 53.7456L1.10212 53.6765L3.71967 53.1239C7.37047 52.364 9.71248 51.2587 11.4346 49.6007L10.9524 50.4297L10.4013 51.3969L9.57472 52.8476L7.57711 56.3707C3.51302 60.6538 0.964355 65.2132 0.964355 68.1146C0.964355 68.7364 1.10212 69.0818 1.30877 69.0818C2.4109 69.0818 5.85504 63.4171 9.43695 55.6108C11.2968 54.022 14.3276 52.364 16.1875 52.0186L17.0141 51.8804L17.4274 51.7423L17.4963 51.8804C17.4963 51.9495 17.4274 52.0186 17.3585 52.0186C17.2896 52.0877 17.2207 52.2258 17.083 52.364C16.7385 52.8476 16.6697 53.193 16.6697 53.5384C16.6697 54.091 17.1518 54.5055 17.8407 54.5055C18.1851 54.5055 18.5295 54.4364 19.0117 54.3674L22.2492 53.7456L22.3869 53.6765L22.4558 53.0548L22.3181 53.1239L20.1138 53.5384C19.6316 53.6075 19.3561 53.6765 19.2872 53.6765C18.8739 53.6765 18.4606 53.2621 18.4606 52.8476C18.4606 52.5022 18.805 52.0877 19.425 51.4659C19.5627 51.3969 19.6316 51.2587 19.6316 51.1896C19.6316 51.0514 19.4939 50.9133 19.2872 50.9133H18.8739L18.1162 50.9824C16.1186 51.1205 13.2255 52.364 10.5391 54.022L10.1258 54.2983C11.4346 51.4659 13.0877 48.15 13.7766 47.1138L14.8098 45.5249C15.2231 44.9032 15.4298 44.5578 15.4298 44.2814C15.4298 44.0051 15.2231 43.8669 15.0165 43.8669C14.7409 43.8669 14.5343 44.0051 14.3276 44.3505L13.9143 45.3177C12.1234 49.0481 8.95477 51.3969 4.4085 52.364L1.10212 53.1239L0.964355 53.193V53.7456ZM2.89308 64.8678L2.13536 66.1803L1.79095 66.5948L1.72207 66.5257C1.72207 66.4567 1.72207 66.3876 1.79095 66.2494C1.85983 66.1113 1.85983 65.9731 1.9976 65.7658C2.13536 65.3514 2.34201 64.9369 2.61755 64.5224C3.09973 63.5552 3.44414 62.8644 3.65079 62.519L4.54627 61.1374C4.95956 60.3775 5.30398 59.963 5.51063 59.7557C5.64839 59.4794 5.92392 59.2031 6.26834 58.8577L6.33722 58.9268L6.26834 59.0649C5.99281 59.4103 5.16621 60.9301 3.71967 63.5552L2.89308 64.8678Z" fill="black"></path>
    <path fill-rule="evenodd" clip-rule="evenodd" d="M22.3182 53.1238L22.2493 53.7455L22.387 53.6764L25.9689 52.9165C25.7623 53.1928 25.6245 53.331 25.6245 53.6073C25.6245 54.2981 26.3134 54.7817 27.3466 54.7817C27.8288 54.7817 28.311 54.7126 28.6554 54.5054L29.8264 53.8837L29.9642 53.8146H30.1019C30.1708 53.8146 30.1708 53.8836 30.2397 54.0218C30.2397 54.3672 30.5152 54.5745 30.9285 54.5745C31.3418 54.5745 31.7551 54.5054 32.3062 54.4363L35.337 53.8146L35.4748 53.7455L35.5437 53.1238L35.4059 53.1928L32.3062 53.8146L31.6173 53.8837H31.5485C31.4107 53.8837 31.3418 53.8146 31.3418 53.8146C31.3418 53.6764 31.4107 53.4692 31.4796 53.2619C31.6862 52.8474 31.824 52.6402 31.824 52.5711V52.4329C31.824 52.3639 31.824 52.2948 31.7551 52.2257L31.6862 52.1566L31.6173 52.0875V52.0184C31.6173 51.9494 31.6862 51.9494 31.7551 51.8803C31.824 51.8803 31.8929 51.7421 31.8929 51.7421C31.8929 51.5349 31.6862 51.3967 31.2729 51.3967L30.9285 51.3276L30.5841 51.2585C29.8264 51.2585 28.6554 51.5349 27.7599 51.8803C27.14 52.0875 26.7267 52.2948 26.4511 52.2948L24.5224 52.7093L22.5248 53.1238H22.3182ZM27.0711 53.7455L27.14 53.4692C27.14 53.4001 27.2777 53.2619 27.4844 53.0547L27.9665 52.7093C28.6554 52.2257 29.5509 51.9494 30.4463 51.9494C30.8596 51.9494 31.204 52.0184 31.204 52.0875L31.1352 52.1566C30.9285 52.4329 30.5152 52.7093 30.1708 52.9856C29.2064 53.6073 28.1732 53.9527 27.4844 53.9527C27.2088 53.9527 27.0711 53.8837 27.0711 53.7455Z" fill="black"></path>
    <path fill-rule="evenodd" clip-rule="evenodd" d="M35.3369 53.1238L35.2681 53.7455L35.4058 53.6764C35.888 53.5383 36.3013 53.4001 36.5768 53.2619C36.8524 53.1929 37.4723 52.9856 38.5056 52.5711C39.6077 52.1566 40.1588 51.9494 40.9165 51.9494C41.6053 51.9494 42.0875 52.2948 42.0875 52.7784C42.0875 53.1929 41.9497 53.4692 41.6742 53.6764C40.7787 53.6764 39.8832 53.6073 39.4699 53.5383L38.7811 53.331C38.6433 53.2619 38.5056 53.2619 38.3678 53.2619H38.2989C38.0923 53.4692 38.0234 53.7455 38.0234 53.9527C38.0234 54.6436 38.6433 54.989 39.4699 54.989C40.2965 54.989 40.8476 54.8508 42.0875 54.16L43.2585 54.0909C44.705 53.9528 44.9806 53.9527 46.1516 53.6764L46.2204 53.0547L46.1516 53.1238C45.6694 53.2619 44.154 53.6764 42.8452 53.7455C43.2585 53.331 43.534 52.9856 43.534 52.5711C43.534 51.9494 42.7074 51.3967 41.8119 51.3967C40.8476 51.3967 39.8832 51.5349 37.8167 52.3639C36.9213 52.7093 36.508 52.7784 35.4747 53.1238H35.3369ZM40.9853 54.16C40.3654 54.5745 40.0899 54.6436 39.6766 54.6436C39.2633 54.6436 38.9189 54.5054 38.9189 54.2291C38.9189 54.0909 39.0566 54.0218 39.2633 54.0218C39.3322 54.0218 39.4699 54.0218 39.6766 54.0909C39.8143 54.0909 40.1588 54.16 40.5721 54.16H40.9853Z" fill="black"></path>
    <path fill-rule="evenodd" clip-rule="evenodd" d="M46.0826 53.1238L46.0137 53.7455L46.1514 53.6764C46.6336 53.5383 47.0469 53.4001 47.3224 53.2619C47.598 53.1929 48.2179 52.9856 49.2512 52.5711C50.2844 52.1566 50.9044 51.9494 51.6621 51.9494C52.3509 51.9494 52.8331 52.2948 52.8331 52.7784C52.8331 53.1929 52.6953 53.4692 52.4198 53.6764C51.5243 53.6764 50.6288 53.6073 50.2155 53.5383L49.5267 53.331C49.3889 53.2619 49.2512 53.2619 49.1134 53.2619H49.0445C48.8379 53.4692 48.769 53.7455 48.769 53.9527C48.769 54.6436 49.3889 54.989 50.2155 54.989C51.0421 54.989 51.5932 54.8508 52.8331 54.16L54.0041 54.0909C55.4506 53.9528 55.7262 53.9527 56.8972 53.6764H57.0349L57.1038 53.0547L56.966 53.1238C56.4839 53.2619 54.9684 53.6764 53.6597 53.7455C54.073 53.331 54.3485 52.9856 54.3485 52.5711C54.3485 51.9494 53.5219 51.3967 52.6264 51.3967C51.6621 51.3967 50.6977 51.5349 48.6312 52.3639C47.7357 52.7093 47.3224 52.7784 46.2892 53.1238H46.0826ZM51.7309 54.16C51.111 54.5745 50.8355 54.6436 50.4222 54.6436C50.0089 54.6436 49.6645 54.5054 49.6645 54.2291C49.6645 54.0909 49.8022 54.0218 50.0089 54.0218C50.0778 54.0218 50.2155 54.0218 50.4222 54.0909C50.5599 54.0909 50.9044 54.16 51.3177 54.16H51.7309Z" fill="black"></path>
    <path fill-rule="evenodd" clip-rule="evenodd" d="M56.8284 53.7456L56.9661 53.6765C56.9661 53.6765 59.9281 53.0548 60.548 52.9166C60.7547 52.8476 60.7547 52.8476 60.7547 53.0548C60.7547 53.1239 60.6858 53.193 60.6169 53.3311C60.548 53.4693 60.4792 53.6075 60.4792 53.7456C60.4792 54.2292 60.7547 54.5746 61.168 54.5746C61.3058 54.5746 61.5813 54.5055 62.0635 54.4364L64.8877 53.9529L65.9209 53.7456L66.0587 53.6765L66.1276 53.0548L65.9898 53.1239C65.6454 53.262 64.7499 53.4002 61.7191 53.9529C61.2369 54.0219 61.2369 53.8147 61.2369 53.8147C61.2369 53.6765 61.4435 53.5384 61.7191 53.3311C61.8568 53.262 62.0635 53.0548 62.4768 52.7094C62.6834 52.5712 62.8212 52.4331 62.8212 52.2258C62.8212 52.0877 62.6834 52.0877 62.2012 52.0877C61.7191 52.1567 61.4435 52.2258 61.0302 52.2949L56.9661 53.1239L56.8284 53.193V53.7456ZM63.8544 48.7717C63.3034 48.7717 62.8212 49.7389 62.8212 50.9133C62.8212 50.9133 62.8901 50.9823 62.959 50.9823L63.0967 51.0514C63.1656 51.0514 63.2345 50.9823 63.3034 50.9133C63.9233 50.2915 64.3366 49.6698 64.3366 49.3244C64.3366 48.979 64.13 48.7717 63.8544 48.7717Z" fill="black"></path>
    <path fill-rule="evenodd" clip-rule="evenodd" d="M66.0586 53.1238L65.9897 53.7455L66.1275 53.6764C66.1275 53.6764 68.7451 53.0547 69.6405 52.8474C69.6405 52.8474 69.5717 52.9856 69.5717 53.1238C69.5717 54.16 70.3294 54.989 71.2937 54.989C71.9137 54.989 72.6714 54.5745 73.0158 54.0909L73.1536 54.16L73.2913 54.2291L73.7735 54.16L76.1155 53.8146L76.2533 53.7455L76.3222 53.1238L76.1844 53.1928L74.1179 53.5382H73.7735C73.5669 53.5382 73.4291 53.4692 73.4291 53.4001C73.4291 53.4001 73.498 53.331 73.498 53.1928V52.7783C73.498 51.8112 73.0158 51.2585 71.9826 51.2585C71.6381 51.2585 71.2937 51.3276 70.7427 51.673C69.365 52.502 67.7807 52.8474 67.1608 52.9856L66.1964 53.1928L66.0586 53.1238ZM72.6025 53.6073C72.1892 54.0218 71.8448 54.2291 71.5693 54.2291C71.156 54.2291 70.8115 53.8146 70.8115 53.331C70.8115 52.6402 71.5004 51.9494 72.2581 51.9494C72.6714 51.9494 72.878 52.0875 72.878 52.502C72.6714 52.7783 72.6025 52.9856 72.6025 53.331V53.6073Z" fill="black"></path>
    <path fill-rule="evenodd" clip-rule="evenodd" d="M76.1155 53.7456L76.2533 53.6765L77.9754 53.3311C78.1131 53.262 79.6286 52.9166 79.5597 53.262C79.5597 53.3311 79.4908 53.4002 79.4219 53.5384L79.1464 54.1601C79.0775 54.2983 78.9397 54.5055 78.9397 54.5746C78.9397 54.7818 79.0775 54.92 79.2842 54.92C79.2842 54.92 79.7663 54.8509 79.973 54.8509L87.5501 53.1239H87.8256L87.9634 53.3311V53.7456C87.9634 54.2292 88.3078 54.5055 88.79 54.5055C89.0655 54.5055 89.4099 54.4364 89.6855 54.4364L92.5097 53.8147L92.6474 53.7456L92.7163 53.1239L92.5786 53.193L90.0988 53.6765L89.6166 53.7456C89.4788 53.7456 89.41 53.6765 89.41 53.5384C89.41 53.4693 89.4788 53.3311 89.4788 53.193C89.7544 52.7094 89.6855 52.7094 89.6855 52.4331C89.6855 52.2258 89.6166 52.1567 89.2722 52.1567C88.9278 52.1567 88.1012 52.2949 87.0679 52.5712L81.4884 53.8147L81.0751 53.8838L80.9374 53.8147C80.7996 53.7456 80.9373 53.6765 81.0751 53.4693C81.2129 53.262 81.3506 52.8476 81.3506 52.6403C81.3506 52.4331 81.2129 52.2258 80.9374 52.2258C80.6618 52.2258 80.5929 52.2949 80.4552 52.2949L76.1155 53.193L75.9778 53.262L76.1155 53.7456Z" fill="black"></path>
    <path fill-rule="evenodd" clip-rule="evenodd" d="M92.5786 53.1238L92.5098 53.7455L92.6475 53.6764L95.1273 53.1929C95.6095 54.16 96.5739 54.5745 98.1582 54.5745C99.2603 54.5745 100.776 54.2982 103.255 53.7455L103.393 53.6764L103.462 53.0547L103.324 53.1238L102.704 53.262C100.913 53.7455 99.6047 53.8837 98.5026 53.8837C97.3316 53.8837 96.7116 53.6074 96.3672 52.9165C99.7425 52.2948 100.5 51.9494 100.5 50.8441C100.5 50.3605 99.8802 49.877 99.1914 49.877C97.1249 49.877 95.2651 51.1204 94.9895 52.6402L92.7164 53.1238H92.5786ZM96.2294 52.2948C96.2983 51.8112 96.505 51.4658 96.9183 51.2586C97.5382 50.8441 98.4337 50.5678 98.847 50.5678C98.9159 50.5678 99.0536 50.6369 99.1914 50.6369C99.2603 50.7059 99.3981 50.8441 99.3981 50.9132C99.3981 51.3968 98.3648 51.8112 96.2294 52.2948Z" fill="black"></path>
    <path fill-rule="evenodd" clip-rule="evenodd" d="M113.106 53.7455L113.243 53.6764C114.414 53.4001 114.759 53.2619 115.999 52.8474L116.688 52.6402C116.55 52.9165 116.55 53.0547 116.55 53.1237C116.55 53.8836 117.17 54.5054 118.065 54.5054C119.925 54.5054 122.198 53.331 123.369 51.7421C123.507 53.1237 124.816 54.229 126.193 54.229C126.951 54.229 127.571 54.16 129.155 53.7455L129.293 53.6764L129.362 53.0547L129.224 53.1237C128.122 53.4001 127.502 53.5382 126.813 53.5382C125.091 53.5382 124.471 52.7092 124.471 50.7059V50.5677C128.191 44.8339 129.155 43.0378 129.155 41.7943C129.155 41.3798 129.018 41.1035 128.742 41.1035C128.122 41.1035 126.951 42.6233 125.711 45.0412C123.989 48.2189 123.714 48.9788 123.231 50.844C122.336 50.6368 121.923 50.5677 121.165 50.5677C119.856 50.5677 118.616 50.9822 117.514 51.6039C116.55 52.2257 115.517 52.502 113.243 53.1237L113.106 53.1928V53.7455ZM123.231 51.3276C122.818 52.0184 122.06 52.6402 121.096 53.1237C120.27 53.6073 119.305 53.8836 118.616 53.8836C118.134 53.8836 117.79 53.7455 117.79 53.4001C117.79 52.9856 118.203 52.502 118.961 52.0184C119.925 51.4658 121.165 51.1204 122.06 51.1204C122.474 51.1204 122.68 51.1894 123.231 51.3276ZM125.298 48.0117C125.367 47.8735 125.436 47.8044 125.436 47.7354C125.505 47.6663 125.574 47.39 125.78 47.0445C126.125 46.2156 126.951 44.7648 127.502 43.8668C127.847 43.245 127.984 43.1069 128.122 43.1069C128.191 43.1069 128.191 43.176 128.191 43.245V43.3832C128.053 43.8668 127.984 44.0049 127.847 44.2122L127.433 44.9721L126.676 46.2156C126.538 46.4228 126.331 46.7682 125.987 47.2518C125.642 47.7354 125.574 47.8044 125.436 48.0808L125.298 48.0117Z" fill="black"></path>
    <path fill-rule="evenodd" clip-rule="evenodd" d="M133.22 53.1238L133.151 53.7455L133.288 53.6764L135.768 53.1929C136.25 54.16 137.215 54.5745 138.799 54.5745C139.832 54.5745 141.417 54.2982 143.896 53.7455L144.034 53.6764L144.103 53.0547L143.965 53.1238L143.345 53.262C141.554 53.7455 140.246 53.8837 139.143 53.8837C137.972 53.8837 137.352 53.6074 137.008 52.9165C140.383 52.2948 141.141 51.9494 141.141 50.8441C141.141 50.3605 140.521 49.877 139.763 49.877C137.697 49.877 135.837 51.1204 135.562 52.6402L133.288 53.1238H133.22ZM136.939 52.2948C137.008 51.8112 137.215 51.4658 137.628 51.2586C138.248 50.8441 139.143 50.5678 139.557 50.5678C139.626 50.5678 139.763 50.6369 139.901 50.6369C139.97 50.7059 140.108 50.8441 140.108 50.9132C140.108 51.3968 139.075 51.8112 136.939 52.2948Z" fill="black"></path>
    <path fill-rule="evenodd" clip-rule="evenodd" d="M143.965 53.1238L143.896 53.7455L144.034 53.6764C144.516 53.5383 144.93 53.4001 145.205 53.2619C145.481 53.1929 146.101 52.9856 147.134 52.5711C148.236 52.1566 148.787 51.9494 149.545 51.9494C150.234 51.9494 150.716 52.2948 150.716 52.7784C150.716 53.1929 150.578 53.4692 150.303 53.6764C149.407 53.6764 148.512 53.6073 148.098 53.5383L147.41 53.331C147.272 53.2619 147.134 53.2619 146.996 53.2619H146.927C146.721 53.4692 146.652 53.7455 146.652 53.9527C146.652 54.6436 147.272 54.989 148.098 54.989C148.925 54.989 149.476 54.8508 150.716 54.16L151.887 54.0909C153.333 53.9528 153.609 53.9527 154.78 53.6764H154.918L154.987 53.0547L154.849 53.1238C154.367 53.2619 152.851 53.6764 151.543 53.7455C151.956 53.331 152.231 52.9856 152.231 52.5711C152.231 51.9494 151.405 51.3967 150.509 51.3967C149.545 51.3967 148.581 51.5349 146.514 52.3639C145.619 52.7093 145.205 52.7784 144.172 53.1238H143.965ZM149.614 54.16C148.994 54.5745 148.718 54.6436 148.305 54.6436C147.892 54.6436 147.547 54.5054 147.547 54.2291C147.547 54.0909 147.685 54.0218 147.892 54.0218C147.961 54.0218 148.098 54.0218 148.305 54.0909C148.443 54.0909 148.787 54.16 149.2 54.16H149.614Z" fill="black"></path>
    <path fill-rule="evenodd" clip-rule="evenodd" d="M154.711 53.7456L154.849 53.6765L157.466 53.1239C161.117 52.364 163.459 51.2587 165.181 49.6007L164.768 50.3606L164.217 51.3278L163.39 52.7785L161.393 56.3016C157.328 60.5847 154.78 65.1441 154.78 68.0455C154.78 68.6673 154.918 69.0127 155.124 69.0127C156.226 69.0127 159.671 63.348 163.252 55.5417C165.112 53.9529 168.143 52.2949 170.003 51.9495L170.83 51.8113L171.243 51.6732L171.312 51.8113C171.312 51.8804 171.243 51.9495 171.174 51.9495C171.105 52.0186 171.036 52.1567 170.898 52.2949C170.554 52.7785 170.485 53.1239 170.485 53.4693C170.485 54.0219 170.967 54.4364 171.656 54.4364C172.001 54.4364 172.345 54.3674 172.827 54.2983L176.065 53.6765L176.202 53.6075L176.271 52.9857L176.134 53.0548L173.929 53.4693C173.447 53.5384 173.172 53.6075 173.103 53.6075C172.689 53.6075 172.276 53.193 172.276 52.7785C172.276 52.4331 172.62 52.0186 173.24 51.3968C173.378 51.3278 173.447 51.1896 173.447 51.1205C173.447 50.9823 173.309 50.8442 173.103 50.8442H172.689L171.932 50.9133C169.934 51.0514 167.041 52.2949 164.355 53.9529L163.941 54.2292C165.25 51.3968 166.903 48.0809 167.592 47.0447L168.625 45.4558C169.039 44.8341 169.245 44.4887 169.245 44.2123C169.245 43.936 169.039 43.7979 168.832 43.7979C168.556 43.7979 168.35 43.936 168.143 44.2814L167.73 45.2486C166.008 48.979 162.839 51.3278 158.293 52.2949L154.986 53.0548L154.849 53.1239L154.711 53.7456ZM156.64 64.8678L155.882 66.1803L155.538 66.5948H155.469L155.4 66.5257C155.4 66.4567 155.4 66.3876 155.469 66.2494C155.538 66.1112 155.538 65.9731 155.675 65.7658C155.813 65.3513 156.02 64.9369 156.295 64.5224C156.777 63.5552 157.122 62.8644 157.397 62.519L158.293 61.1374C158.706 60.3775 159.051 59.963 159.257 59.7557C159.395 59.4794 159.671 59.2031 160.015 58.8577L160.084 58.9268L160.015 59.0649C159.808 59.5485 158.913 61.0683 157.466 63.6934L156.64 64.8678Z" fill="black"></path>
    <path fill-rule="evenodd" clip-rule="evenodd" d="M175.996 53.7456L176.134 53.6765C178.476 53.1238 179.44 52.7093 180.542 51.7422C181.093 52.0185 181.231 52.0185 181.575 52.0185C181.851 52.0185 181.989 51.9494 182.333 51.8804C182.058 52.5021 181.989 52.7093 181.989 53.0547C181.989 53.8146 182.609 54.2982 183.642 54.2982C184.055 54.2982 184.4 54.2291 184.813 54.1601L187.155 53.7456L187.499 53.6765L187.637 53.6074L187.706 52.9857L187.568 53.0547L185.708 53.4692C185.639 53.4692 185.088 53.6074 184.813 53.6074L184.331 53.6765C183.573 53.6765 183.022 53.5383 183.091 53.1238C183.229 52.7093 183.435 52.1567 183.711 51.8804C183.986 51.604 184.193 51.3277 184.193 51.1895C184.193 51.1205 184.193 51.0514 184.055 51.0514C183.711 51.1205 183.091 51.2586 183.091 51.2586C182.746 51.3277 182.126 51.4659 181.851 51.4659C181.506 51.4659 181.231 51.3277 181.024 51.1205C181.093 50.9823 181.093 50.9132 181.093 50.706C181.093 50.3606 180.955 50.0842 180.68 50.0842C180.404 50.0842 180.198 50.4296 180.198 50.8441L180.267 51.1205L180.335 51.2586C179.716 51.8804 178.82 52.2948 176.822 52.7784L176.34 52.9166L176.203 52.9857L175.996 53.7456Z" fill="black"></path>
    <path fill-rule="evenodd" clip-rule="evenodd" d="M187.43 53.1238L187.362 53.7455L187.499 53.6764L189.979 53.1929C190.461 54.16 191.426 54.5745 193.01 54.5745C194.043 54.5745 195.628 54.2982 198.107 53.7455L198.245 53.6764L198.314 53.0547L198.176 53.1238L197.556 53.262C195.765 53.7455 194.457 53.8837 193.354 53.8837C192.183 53.8837 191.563 53.6074 191.219 52.9165C194.594 52.2948 195.352 51.9494 195.352 50.8441C195.352 50.3605 194.732 49.877 194.043 49.877C191.977 49.877 190.117 51.1204 189.841 52.6402L187.568 53.1238H187.43ZM191.15 52.2948C191.219 51.8112 191.426 51.4658 191.839 51.2586C192.459 50.8441 193.354 50.5678 193.768 50.5678C193.837 50.5678 193.974 50.6369 194.112 50.6369C194.181 50.7059 194.319 50.8441 194.319 50.9132C194.319 51.3968 193.286 51.8112 191.15 52.2948Z" fill="black"></path>
    <path fill-rule="evenodd" clip-rule="evenodd" d="M198.176 53.1238L198.107 53.7455L198.245 53.6764C198.727 53.5383 199.14 53.4001 199.416 53.2619C199.691 53.1929 200.311 52.9856 201.345 52.5711C202.447 52.1566 202.998 51.9494 203.756 51.9494C204.444 51.9494 204.927 52.2948 204.927 52.7784C204.927 53.1929 204.789 53.4692 204.513 53.6764C203.618 53.6764 202.722 53.6073 202.309 53.5383L201.62 53.331C201.482 53.2619 201.345 53.2619 201.207 53.2619H201.138C200.931 53.4692 200.862 53.7455 200.862 53.9527C200.862 54.6436 201.482 54.989 202.309 54.989C203.136 54.989 203.687 54.8508 204.927 54.16L206.098 54.0909C207.544 53.9528 207.82 53.9527 208.991 53.6764H209.128L209.197 53.0547L209.06 53.1238C208.577 53.2619 207.062 53.6764 205.753 53.7455C206.166 53.331 206.442 52.9856 206.442 52.5711C206.442 51.9494 205.615 51.3967 204.72 51.3967C203.756 51.3967 202.791 51.5349 200.725 52.3639C199.829 52.7093 199.416 52.7784 198.383 53.1238H198.176ZM203.824 54.16C203.205 54.5745 202.929 54.6436 202.516 54.6436C202.102 54.6436 201.758 54.5054 201.758 54.2291C201.758 54.0909 201.896 54.0218 202.102 54.0218C202.171 54.0218 202.309 54.0218 202.516 54.0909C202.653 54.0909 202.998 54.16 203.411 54.16H203.824Z" fill="black"></path>
    <path fill-rule="evenodd" clip-rule="evenodd" d="M208.991 53.1238L208.922 53.7455L209.06 53.6764C209.542 53.5383 209.955 53.4001 210.231 53.2619C210.506 53.1929 211.126 52.9856 212.159 52.5711C213.262 52.1566 213.813 51.9494 214.57 51.9494C215.259 51.9494 215.741 52.2948 215.741 52.7784C215.741 53.1929 215.604 53.4692 215.328 53.6764C214.433 53.6764 213.537 53.6073 213.124 53.5383L212.435 53.331C212.297 53.2619 212.159 53.2619 212.022 53.2619H211.953C211.746 53.4692 211.677 53.7455 211.677 53.9527C211.677 54.6436 212.297 54.989 213.124 54.989C213.95 54.989 214.501 54.8508 215.741 54.16L216.912 54.0909C218.359 53.9528 218.634 53.9527 219.805 53.6764H219.943L220.012 53.0547L219.874 53.1238C219.392 53.2619 217.877 53.6764 216.568 53.7455C216.981 53.331 217.257 52.9856 217.257 52.5711C217.257 51.9494 216.43 51.3967 215.535 51.3967C214.57 51.3967 213.606 51.5349 211.539 52.3639C210.644 52.7093 210.231 52.7784 209.197 53.1238H208.991ZM214.639 54.16C214.019 54.5745 213.744 54.6436 213.33 54.6436C212.917 54.6436 212.573 54.5054 212.573 54.2291C212.573 54.0909 212.71 54.0218 212.917 54.0218C212.986 54.0218 213.124 54.0218 213.33 54.0909C213.468 54.0909 213.813 54.16 214.226 54.16H214.639Z" fill="black"></path>
    <path fill-rule="evenodd" clip-rule="evenodd" d="M219.736 53.1238L219.667 53.7455L219.805 53.6764C219.805 53.6764 222.423 53.0547 223.318 52.8474C223.318 52.8474 223.249 52.9856 223.249 53.1238C223.249 54.16 224.007 54.989 224.971 54.989C225.591 54.989 226.349 54.5745 226.694 54.0909L226.831 54.16L226.969 54.2291L227.451 54.16L229.793 53.8146L229.931 53.7455L230 53.1238L229.862 53.1928L227.796 53.5382H227.451C227.245 53.5382 227.107 53.4692 227.107 53.4001C227.107 53.4001 227.176 53.331 227.176 53.1928V52.7783C227.176 51.8112 226.694 51.2585 225.66 51.2585C225.316 51.2585 224.971 51.3276 224.42 51.673C223.043 52.502 221.458 52.8474 220.838 52.9856L219.874 53.1928L219.736 53.1238ZM226.349 53.6073C225.936 54.0218 225.591 54.2291 225.316 54.2291C224.903 54.2291 224.558 53.8146 224.558 53.331C224.558 52.6402 225.247 51.9494 226.005 51.9494C226.418 51.9494 226.625 52.0875 226.625 52.502C226.418 52.7783 226.349 52.9856 226.349 53.331V53.6073Z" fill="black"></path>
    <path d="M133.426 43.5216C133.426 43.038 133.22 42.4163 132.737 42.4163C132.255 42.4163 131.911 42.8998 131.911 43.4525C131.911 43.7288 132.049 44.0742 132.324 44.0742C132.393 44.0742 132.531 44.0051 132.6 44.0051C132.737 44.0051 132.806 44.1433 132.806 44.2815C132.806 44.696 132.462 45.4559 132.255 45.7322C131.98 46.2158 131.635 46.4921 131.222 46.8375C131.153 46.9066 131.084 46.9757 131.084 47.0447C131.084 47.1138 131.153 47.1829 131.222 47.1829C131.498 47.1829 132.049 46.5612 132.186 46.3539C132.875 45.7322 133.426 44.6269 133.426 43.5216Z" fill="black"></path>
    <path d="M70.9494 5.94103C70.5361 5.94103 70.5361 6.35552 70.5361 6.35552V8.77338C70.5361 9.18787 70.9494 9.18787 70.9494 9.18787H150.371V37.7186H160.979V9.18787H165.112V37.7186H175.72V9.18787H178.682C179.096 9.18787 179.096 8.77338 179.096 8.77338V6.35552C179.096 5.94103 178.682 5.94103 178.682 5.94103H175.72V3.10868H178.682C179.096 3.10868 179.096 2.69419 179.096 2.69419V0.41449C179.096 0 178.682 0 178.682 0H165.595C165.595 0 165.181 0 165.181 0.41449V5.94103H160.979V3.10868H164.079C164.079 3.10868 164.492 3.10868 164.492 2.69419V0.41449C164.492 0.41449 164.492 0 164.079 0H150.785C150.785 0 150.371 0 150.371 0.41449V5.94103H70.9494Z" fill="#E40521"></path>
    <path fill-rule="evenodd" clip-rule="evenodd" d="M130.051 25.6983L131.98 32.0539C131.98 32.0539 132.531 33.85 134.528 33.2973C136.595 32.6756 135.975 30.8795 135.975 30.8795L134.046 24.5239C134.046 24.5239 133.495 22.7278 131.497 23.3496C129.5 23.8331 130.051 25.6983 130.051 25.6983ZM124.471 12.9182H140.934C142.037 13.1255 142.381 14.2308 142.381 14.2308L148.58 37.6495H138.11C138.11 37.6495 137.628 35.9224 137.628 35.9915C136.733 36.8896 134.735 37.9258 131.015 37.8567C127.296 37.8567 122.198 36.1297 122.198 28.1853C122.198 19.481 130.602 19.2737 130.602 19.2737L132.668 19.2046C132.668 19.2046 132.117 17.2704 131.911 16.7177C131.704 16.1651 131.153 16.1651 131.153 16.1651H124.471C124.058 16.1651 124.058 15.7506 124.058 15.7506V13.2636C124.058 12.9182 124.471 12.9182 124.471 12.9182Z" fill="#E40521"></path>
    <path d="M70.9494 12.9182C70.9494 12.9182 70.5361 12.9182 70.5361 13.3327V15.7506C70.5361 15.7506 70.5361 16.096 70.9494 16.1651C71.3627 16.2341 73.0159 16.4414 73.0848 17.3394V37.7185H84.1749V16.1651H85.2082C85.2082 16.1651 87.2747 16.1651 87.2747 18.0303V21.9679C87.2747 21.9679 87.2747 22.3824 87.688 22.3824H94.0941C94.0941 22.3824 94.5074 22.3824 94.5074 21.9679V15.8196C94.5074 15.8196 94.5074 12.9873 91.5454 12.9873C91.5454 12.9182 70.9494 12.9182 70.9494 12.9182Z" fill="#E40521"></path>
    <path fill-rule="evenodd" clip-rule="evenodd" d="M44.0851 25.1457H52.2133L48.0115 13.1946L44.0851 25.1457ZM36.3014 0H59.6527C60.066 0 60.066 0.41449 60.066 0.41449V3.52317C60.066 3.93766 59.6527 3.93766 59.6527 3.93766H58.895C58.5505 3.93766 58.6194 4.28307 58.6194 4.28307L69.5029 33.2283H71.1561C71.5694 33.2283 71.5694 33.6428 71.5694 33.6428V37.6495H51.3867V33.6428C51.3867 33.2283 51.8 33.2283 51.8 33.2283H54.8309L53.7287 29.7742H42.5008L41.3298 33.2974H44.3607C44.774 33.2974 44.774 33.7119 44.774 33.7119V37.7186H24.6602V33.7119C24.6602 33.2974 25.0735 33.2974 25.0735 33.2974H26.7266C26.7266 33.2974 37.1968 4.69756 37.3346 4.35215C37.4724 3.93766 37.0591 4.00674 37.0591 4.00674H36.3014C35.8881 4.00674 35.8881 3.59225 35.8881 3.59225V0.41449C35.8881 0 36.3014 0 36.3014 0Z" fill="#E40521"></path>
    <path fill-rule="evenodd" clip-rule="evenodd" d="M188.464 17.7541V22.3135H192.597V17.7541C192.597 17.7541 192.597 15.958 190.53 15.958C188.533 16.0271 188.464 17.7541 188.464 17.7541ZM203.411 26.5275H188.395V32.883C188.739 33.5738 189.91 33.9883 190.943 33.9883C194.319 33.9883 197.281 31.156 198.383 29.2908C198.589 28.9454 198.934 29.1526 198.934 29.1526L201.758 30.8796C201.896 31.0178 202.034 31.225 201.896 31.5014C200.931 33.5047 197.074 38.2714 190.668 38.2023C182.333 38.2023 177.442 31.3632 177.442 25.284C177.442 18.3758 182.677 11.9512 190.668 12.0203C198.796 12.0203 203.48 19.343 203.48 24.1096C203.549 26.1821 203.411 26.5275 203.411 26.5275Z" fill="#E40521"></path>
    <path d="M191.632 5.2503C191.632 5.2503 191.288 5.04305 191.081 5.45754L190.048 7.52999C190.048 7.52999 189.841 7.8754 190.255 8.08265L201.551 13.8855C201.551 13.8855 201.896 14.0928 202.102 13.6783L203.136 11.6058C203.136 11.6058 203.342 11.2604 202.929 11.0532L191.632 5.2503Z" fill="#E40521"></path>
    <path d="M120.889 23.6951C120.889 23.6951 119.581 12.8493 108.146 12.3657C100.431 12.0203 94.8517 18.9285 94.9206 25.4912C94.9894 32.3994 100.362 38.4786 108.146 38.4786C115.999 38.4786 120.752 31.2941 120.889 26.942H110.213V32.3303C110.213 32.3303 110.213 34.3337 108.215 34.3337C106.217 34.3337 106.217 32.3303 106.217 32.3303V18.4449C106.217 18.4449 106.217 16.4415 108.215 16.4415C110.213 16.4415 110.213 18.4449 110.213 18.4449V23.626H120.889V23.6951Z" fill="#E40521"></path>
    <g clip-path="url(#clip1_1807_9095)">
      <mask id="mask0_1807_9095" style="mask-type:luminance" maskUnits="userSpaceOnUse" x="0" y="75" width="231" height="8">
        <path d="M0.826595 75.0227C0.413297 75.0227 0 75.3681 0 75.8517V81.2401C0 81.6545 0.344415 82.069 0.826595 82.069H229.242C229.656 82.069 230.069 81.7236 230.069 81.2401V75.8517C230.069 75.4372 229.724 75.0227 229.242 75.0227H0.826595Z" fill="white"></path>
      </mask>
      <g mask="url(#mask0_1807_9095)">
        <path d="M76.6667 75.0227H0V82H76.6667V75.0227Z" fill="#009640"></path>
      </g>
      <mask id="mask1_1807_9095" style="mask-type:luminance" maskUnits="userSpaceOnUse" x="0" y="75" width="231" height="8">
        <path d="M0.826595 75.0227C0.413297 75.0227 0 75.3681 0 75.8517V81.2401C0 81.6545 0.344415 82.069 0.826595 82.069H229.242C229.656 82.069 230.069 81.7236 230.069 81.2401V75.8517C230.069 75.4372 229.724 75.0227 229.242 75.0227H0.826595Z" fill="white"></path>
      </mask>
      <g mask="url(#mask1_1807_9095)">
        <path d="M153.333 75.0227H76.6667V82H153.333V75.0227Z" fill="white"></path>
      </g>
      <mask id="mask2_1807_9095" style="mask-type:luminance" maskUnits="userSpaceOnUse" x="0" y="75" width="231" height="8">
        <path d="M0.826595 75.0227C0.413297 75.0227 0 75.3681 0 75.8517V81.2401C0 81.6545 0.344415 82.069 0.826595 82.069H229.242C229.656 82.069 230.069 81.7236 230.069 81.2401V75.8517C230.069 75.4372 229.724 75.0227 229.242 75.0227H0.826595Z" fill="white"></path>
      </mask>
      <g mask="url(#mask2_1807_9095)">
        <path d="M230 75.0227H153.333V82H230V75.0227Z" fill="#E30613"></path>
      </g>
    </g>
    <rect x="0.5" y="75.5227" width="229.069" height="6.04633" stroke="black"></rect>
  </g>
  <defs>
    <clipPath id="clip0_1807_9095">
      <rect width="230" height="82" fill="white"></rect>
    </clipPath>
    <clipPath id="clip1_1807_9095">
      <rect y="75.0227" width="230.069" height="7.04633" fill="white"></rect>
    </clipPath>
  </defs>
</svg>
