<svg
  version="1.1"
  xmlns="http://www.w3.org/2000/svg"
  xmlns:xlink="http://www.w3.org/1999/xlink"
  x="0px"
  y="0px"
  viewBox="0 0 216.93 195.89"
  style="enable-background: new 0 0 216.93 195.89"
  xml:space="preserve"
>
  <style type="text/css">
    .st0 {
      fill: #001d85;
    }
    .st1 {
      fill: #ffffff;
    }
    .st2 {
      display: none;
    }
    .st3 {
      display: inline;
    }
  </style>
  <g id="Layer_1">
    <path
      class="st0"
      d="M3.86,0C1.73,0,0,1.75,0,3.92v188.05c0,2.16,1.73,3.92,3.86,3.92h209.21c2.13,0,3.86-1.75,3.86-3.92V3.92
		c0-2.16-1.73-3.92-3.86-3.92H3.86z"
    ></path>
    <path
      class="st1"
      d="M174,17.07h-4.04c-1.06,0-1.9,0.83-1.9,1.9v56.27c0,1.06,0.83,1.9,1.9,1.9H174c1.06,0,1.9-0.83,1.9-1.9V52.65
		c0-1.43,1-2.46,2.38-2.46h3.49c1.78,0.24,2.14,2.25,2.15,2.34l3.86,22.55c0.18,1.22,1.12,2.06,2.3,2.06h3.46c1.12,0,2-0.88,2-2
		l-3.72-21.6c-0.25-1.63-0.81-3.62-1.62-4.36l-0.01-0.01l-0.64-0.64c-0.56-0.56-0.82-1.11-0.82-1.72c0-0.64,0.29-1.2,0.86-1.68
		l0.59-0.59c1.06-1.03,1.5-3.04,1.64-3.86l3.73-21.66c0-1.06-0.88-1.94-2.01-1.94h-3.46c-1.18,0-2.12,0.84-2.3,2.05l-3.8,21.69
		c-0.3,1.44-1.13,2.24-2.54,2.45l-3.08,0c-0.14,0-0.28-0.01-0.41-0.03c-0.08-0.01-0.16-0.03-0.23-0.04
		c-1.14-0.24-1.82-1.1-1.82-2.31V18.97C175.89,17.9,175.06,17.07,174,17.07z"
    ></path>
    <path
      class="st1"
      d="M49.36,30.93c0-9.57-6.8-13.85-13.54-13.85H23.77c-1.06,0-1.88,0.83-1.88,1.88v55.94
		c0,1.06,0.83,1.88,1.88,1.88h11.97c8.15,0,13.62-5.54,13.62-13.78v-5.51c0-4.62-0.43-5.8-3.04-8.42l-0.63-0.63
		c-0.56-0.55-0.82-1.1-0.82-1.71c0-0.61,0.32-1.04,0.78-1.59l0.64-0.72c2.49-2.8,3.07-3.97,3.07-9.08V30.93z M35.34,69.55h-3.23
		c-1.35,0-2.45-1.06-2.45-2.37V52.63c0-1.44,1.01-2.45,2.45-2.45h3.23c1.65,0,5.56,0.63,6.07,6.49l0,5.23
		C41.42,69,36.77,69.55,35.34,69.55z M41.42,35.62c0,7.1-4.65,7.65-6.07,7.65h-3.23c-1.35,0-2.45-1.06-2.45-2.37V26.67
		c0-1.46,1-2.37,2.61-2.37h3.15c2.89,0,5.99,2.02,5.99,6.47V35.62z"
    ></path>
    <path
      class="st1"
      d="M66.44,17.07h-4.02c-1.06,0-1.88,0.83-1.88,1.88v55.94c0,1.06,0.83,1.88,1.88,1.88h19.16
		c1.06,0,1.88-0.83,1.88-1.88v-3.78c0-1.06-0.83-1.88-1.88-1.88H70.77c-1.42,0-2.45-1.03-2.45-2.45V18.95
		C68.33,17.9,67.5,17.07,66.44,17.07z"
    ></path>
    <path
      class="st1"
      d="M113.33,76.78h3.94c1.06,0,1.88-0.83,1.88-1.88V31c0-8.8-5.35-14.49-13.62-14.49c-6.62,0-13.7,3.81-13.7,14.49
		v43.89c0,1.06,0.83,1.88,1.88,1.88h4.02c1.06,0,1.88-0.83,1.88-1.88V55c0-1.17,0.92-2.37,2.45-2.37h6.85
		c1.35,0,2.45,1.06,2.45,2.37v19.9C111.37,75.93,112.25,76.78,113.33,76.78z M108.92,45.63h-6.85c-1.53,0-2.45-1.21-2.45-2.37V31.95
		c0-5.44,1.99-8.2,5.91-8.2c3.87,0,5.84,2.76,5.84,8.2v11.31C111.37,44.57,110.27,45.63,108.92,45.63z"
    ></path>
    <path
      class="st1"
      d="M157.53,31.07c0-8.8-5.35-14.49-13.62-14.49c-6.62,0-13.7,3.81-13.7,14.49l0.01,31.89
		c0.14,10.45,7.16,14.17,13.68,14.17c8.27,0,13.62-5.69,13.62-14.49V61c0-1.07-0.84-1.91-1.91-1.91h-3.91
		c-1.09,0-1.98,0.85-1.98,1.91v1.14c-0.1,5.16-2.06,7.77-5.83,7.77c-3.92,0-5.91-2.76-5.91-8.2V32.02c0-5.44,1.99-8.2,5.91-8.2
		c3.77,0,5.73,2.61,5.83,7.76v1.15c0,1.05,0.89,1.91,1.98,1.91h3.91c1.07,0,1.91-0.84,1.91-1.91V31.07z"
    ></path>
    <path
      class="st1"
      d="M136.72,88.38c0-1.07-0.84-1.91-1.91-1.91H119c-1.07,0-1.91,0.84-1.91,1.91v55.75c0,1.07,0.84,1.91,1.91,1.91
		h3.6c1.07,0,1.91-0.84,1.91-1.91v-21.35c0-1.15,0.83-1.98,1.98-1.98h7.84c1.07,0,1.91-0.84,1.91-1.91v-3.32
		c0-1.07-0.84-1.91-1.91-1.91h-7.84c-1.15,0-1.98-0.83-1.98-1.98V95.65c0-1.15,0.83-1.98,1.98-1.98h8.33
		c1.14-0.13,1.91-0.88,1.91-1.91V88.38z"
    ></path>
    <path
      class="st1"
      d="M96.15,122.77c0-1.15,0.83-1.98,1.98-1.98h7.84c1.07,0,1.91-0.84,1.91-1.91v-3.32c0-1.07-0.84-1.91-1.91-1.91
		h-7.84c-1.15,0-1.98-0.83-1.98-1.98V95.65c0-1.15,0.83-1.98,1.98-1.98h8.33c1.14-0.13,1.91-0.88,1.91-1.91v-3.39
		c0-1.07-0.84-1.91-1.91-1.91H90.64c-1.07,0-1.91,0.84-1.91,1.91v55.75c0,1.07,0.84,1.91,1.91,1.91h3.6c1.07,0,1.91-0.84,1.91-1.91
		V122.77z"
    ></path>
    <path
      class="st1"
      d="M46.31,99.18c0-9.74-6.42-13.21-12.43-13.21c-6.04,0-12.5,3.47-12.5,13.21v34.21c0,9.69,6.46,13.14,12.5,13.14
		c6.01,0,12.43-3.45,12.43-13.14v-3.6c0-1.07-0.84-1.91-1.91-1.91h-3.53c-1.09,0-1.98,0.85-1.98,1.91v3.46
		c0,5.53-3.14,6.36-5.02,6.36c-3.23,0-5.09-2.32-5.09-6.36V99.32c0-4.09,1.85-6.43,5.09-6.43c3.19,0,5.02,2.34,5.02,6.43v2.75
		c0,1.05,0.89,1.91,1.98,1.91h3.53c1.07,0,1.91-0.84,1.91-1.91V99.18z"
    ></path>
    <path
      class="st1"
      d="M54.85,99.18v34.21c0,9.69,6.46,13.14,12.5,13.14c7.67,0,12.43-5.03,12.43-13.14V99.18
		c0-9.74-6.42-13.21-12.43-13.21C59.64,85.97,54.85,91.04,54.85,99.18z M72.36,99.32v33.92c0,5.53-3.14,6.36-5.01,6.36
		c-3.23,0-5.09-2.32-5.09-6.36V99.32c0-5.59,3.19-6.43,5.09-6.43C68.85,92.89,72.36,93.52,72.36,99.32z"
    ></path>
    <path
      class="st1"
      d="M195.08,102.62c0-10.11-4.23-16.64-10.79-16.64c-6.63,0-10.91,6.6-10.91,16.83v26.88
		c0,12.41,5.64,16.83,10.91,16.83c6.55,0,10.79-6.5,10.79-16.55v-0.64c0-1.33-0.69-2.41-1.53-2.41h-3.09
		c-0.96,0-1.53,0.73-1.53,1.95v0.65c0,6.66-0.67,9.63-4.64,9.63c-4.4,0-4.77-5.21-4.77-10.1v-10.39c0-1.5,0.83-2.55,2.01-2.55h11.63
		c1.1,0,1.92-1.56,1.92-2.96V102.62z M188.94,106.34c0,2.37-1.33,2.64-2.33,2.64h-5.08c-0.75,0-2.01-0.33-2.01-2.55v-5.11
		c0-7.33,2.99-8.42,4.77-8.42c2.12,0,4.64,1.53,4.64,8.79V106.34z"
    ></path>
    <path
      class="st1"
      d="M165.07,102.62c0-10.11-4.23-16.64-10.79-16.64c-6.63,0-10.91,6.6-10.91,16.83v26.88
		c0,12.41,5.64,16.83,10.91,16.83c6.55,0,10.79-6.5,10.79-16.55v-0.64c0-1.33-0.69-2.41-1.53-2.41h-3.09
		c-0.96,0-1.53,0.73-1.53,1.95v0.65c0,6.66-0.67,9.63-4.64,9.63c-4.4,0-4.77-5.21-4.77-10.1v-10.39c0-1.5,0.83-2.55,2.01-2.55h11.63
		c1.1,0,1.92-1.56,1.92-2.96V102.62z M158.92,106.34c0,2.37-1.33,2.64-2.33,2.64h-5.08c-0.75,0-2.01-0.33-2.01-2.55v-5.11
		c0-7.33,2.99-8.42,4.77-8.42c2.12,0,4.64,1.53,4.64,8.79V106.34z"
    ></path>
    <g>
      <path
        class="st1"
        d="M42.08,157.08h-5.09c-0.58,0-1.06,0.36-1.06,0.8v20.55c0,0.44,0.48,0.8,1.06,0.8h1.24
			c0.58,0,1.03-0.35,1.03-0.8v-8.19c0-0.27,0.27-0.47,0.64-0.47h2.12c0.82,0,1.57,0.23,2.1,0.66c0.55,0.44,0.79,1.14,0.79,2.28v5.73
			c0,0.44,0.48,0.8,1.06,0.8h1.24c0.58,0,1.03-0.35,1.03-0.8v-5.73c0-1.23-0.18-2.62-1.51-3.59l-0.28-0.21
			c-0.2-0.15-0.23-0.25-0.23-0.31c0-0.07,0.03-0.16,0.23-0.31l0.28-0.21c1.33-0.97,1.51-2.36,1.51-3.59v-2.33
			c0-1.59-0.48-2.7-1.57-3.61C45.54,157.59,43.95,157.08,42.08,157.08z M44.91,162.42v2.04c0,1.14-0.25,1.84-0.79,2.28
			c-0.51,0.4-1.27,0.63-2.1,0.63h-2.09c-0.6,0-0.67-0.24-0.67-0.44v-6.97c0-0.12,0-0.44,0.78-0.44h2.05c0.82,0,1.56,0.22,2.07,0.63
			C44.69,160.57,44.91,161.23,44.91,162.42z"
      ></path>
      <path
        class="st1"
        d="M62.16,156.89c-1.88,0-3.49,0.51-4.65,1.47c-1.07,0.93-1.57,2.07-1.57,3.61v12.38c0,1.54,0.5,2.68,1.57,3.61
			l0,0c1.16,0.96,2.77,1.46,4.65,1.46s3.49-0.51,4.65-1.47c1.07-0.93,1.57-2.07,1.57-3.61v-12.38c0-1.54-0.5-2.68-1.57-3.61
			C65.65,157.4,64.04,156.89,62.16,156.89z M59.26,162.15c0-1.16,0.25-1.84,0.83-2.28c0.53-0.42,1.22-0.63,2.07-0.63
			s1.54,0.21,2.07,0.63c0.58,0.43,0.83,1.12,0.83,2.27v12.01c0,1.16-0.25,1.84-0.83,2.27l0,0c-0.53,0.42-1.22,0.63-2.07,0.63
			s-1.54-0.21-2.07-0.63c-0.58-0.43-0.83-1.12-0.83-2.27V162.15z"
      ></path>
      <path
        class="st1"
        d="M82.24,156.89c-1.88,0-3.49,0.51-4.65,1.47c-1.07,0.93-1.57,2.07-1.57,3.61v16.47c0,0.44,0.48,0.8,1.06,0.8
			h1.24c0.58,0,1.03-0.35,1.03-0.8v-7.96c0-0.24,0.29-0.44,0.64-0.44h4.53c0.34,0,0.64,0.21,0.64,0.44v7.96
			c0,0.45,0.45,0.8,1.03,0.8h1.24c0.58,0,1.06-0.36,1.06-0.8v-16.47c0-1.54-0.5-2.68-1.57-3.61
			C85.73,157.4,84.12,156.89,82.24,156.89z M79.34,162.15c0-1.16,0.25-1.84,0.83-2.28c0.53-0.42,1.22-0.63,2.07-0.63
			s1.54,0.21,2.07,0.63c0.58,0.43,0.83,1.12,0.83,2.27v5.04c0,0.24-0.3,0.44-0.64,0.44h-4.53c-0.34,0-0.64-0.2-0.64-0.44V162.15z"
      ></path>
      <path
        class="st1"
        d="M104.52,167.77l-2.79-0.95c-1.02-0.37-1.54-0.66-1.86-1.03c-0.35-0.36-0.49-0.85-0.49-1.76v-1.96
			c0-1.1,0.24-1.78,0.75-2.22c0.56-0.4,1.28-0.61,2.07-0.61c0.77,0,1.47,0.21,2.03,0.6c0.54,0.46,0.8,1.16,0.8,2.23v1.3
			c0,0.46,0.46,0.8,1.06,0.8h1.2c0.6,0,1.06-0.35,1.06-0.8v-1.46c0-1.59-0.47-2.7-1.53-3.58c-1.08-0.93-2.7-1.44-4.55-1.44
			c-1.54,0-2.95,0.36-4.07,1.03c-1.43,0.89-2.15,2.23-2.15,3.97v2.25c0,1.4,0.31,2.31,1.06,3.15c0.68,0.73,1.63,1.3,2.82,1.71
			l2.79,0.93c0.99,0.35,1.54,0.64,1.89,1.02c0.36,0.39,0.49,0.88,0.49,1.79v1.51c0,1.1-0.24,1.78-0.76,2.22
			c-0.52,0.39-1.26,0.61-2.04,0.61c-0.95,0-1.63-0.2-2.21-0.63c-0.53-0.44-0.76-1.14-0.76-2.28v-1.43c0-0.45-0.45-0.8-1.03-0.8
			h-1.24c-0.58,0-1.06,0.36-1.06,0.8v1.62c0,1.53,0.5,2.68,1.57,3.61c1.16,0.96,2.77,1.46,4.65,1.46c1.52,0,2.91-0.36,4.03-1.03
			c1.43-0.87,2.15-2.2,2.15-3.97v-1.86c0-1.46-0.31-2.38-1.06-3.17C106.73,168.71,105.85,168.21,104.52,167.77z"
      ></path>
      <path
        class="st1"
        d="M125.55,157.08h-10.78c-0.58,0-1.06,0.36-1.06,0.8v0.85c0,0.44,0.48,0.8,1.06,0.8h3.08
			c0.36,0,0.64,0.21,0.64,0.5v18.4c0,0.46,0.46,0.8,1.06,0.8h1.2c0.61,0,1.06-0.35,1.06-0.8v-18.4c0-0.28,0.27-0.5,0.64-0.5h3.11
			c0.58,0,1.03-0.35,1.03-0.8v-0.85C126.58,157.43,126.13,157.08,125.55,157.08z"
      ></path>
      <path
        class="st1"
        d="M140.55,157.08h-7.42c-0.58,0-1.06,0.36-1.06,0.8v20.55c0,0.44,0.48,0.8,1.06,0.8h7.42
			c0.58,0,1.03-0.35,1.03-0.8v-0.85c0-0.45-0.45-0.8-1.03-0.8h-4.53c-0.37,0-0.64-0.2-0.64-0.47v-6.58c0-0.27,0.27-0.47,0.64-0.47
			h4.53c0.58,0,1.03-0.35,1.03-0.8v-0.85c0-0.45-0.45-0.8-1.03-0.8h-4.53c-0.37,0-0.64-0.2-0.64-0.47V160
			c0-0.27,0.27-0.47,0.64-0.47l4.55,0c0.64-0.1,1-0.4,1-0.8v-0.85C141.58,157.43,141.13,157.08,140.55,157.08z"
      ></path>
      <path
        class="st1"
        d="M154.8,157.08h-5.09c-0.58,0-1.06,0.36-1.06,0.8v20.55c0,0.44,0.48,0.8,1.06,0.8h1.24
			c0.58,0,1.03-0.35,1.03-0.8v-8.19c0-0.27,0.27-0.47,0.64-0.47h2.12c0.82,0,1.57,0.23,2.1,0.66c0.55,0.44,0.79,1.14,0.79,2.28v5.73
			c0,0.44,0.48,0.8,1.06,0.8h1.24c0.58,0,1.03-0.35,1.03-0.8v-5.73c0-1.23-0.18-2.62-1.51-3.59l-0.28-0.21
			c-0.2-0.15-0.23-0.25-0.23-0.31c0-0.07,0.03-0.16,0.23-0.31l0.28-0.21c1.33-0.97,1.51-2.36,1.51-3.59v-2.33
			c0-1.59-0.48-2.7-1.57-3.61C158.26,157.59,156.67,157.08,154.8,157.08z M157.63,162.42v2.04c0,1.14-0.25,1.84-0.79,2.28
			c-0.51,0.4-1.27,0.63-2.1,0.63h-2.09c-0.6,0-0.67-0.24-0.67-0.44v-6.97c0-0.12,0-0.44,0.78-0.44h2.05c0.82,0,1.56,0.22,2.07,0.63
			C157.41,160.57,157.63,161.23,157.63,162.42z"
      ></path>
      <path
        class="st1"
        d="M179.93,169.4c-0.65-0.69-1.53-1.19-2.85-1.63l-2.79-0.95c-1.02-0.37-1.54-0.66-1.86-1.03
			c-0.35-0.36-0.49-0.85-0.49-1.76v-1.96c0-1.1,0.24-1.78,0.75-2.22c0.56-0.4,1.28-0.61,2.07-0.61c0.77,0,1.47,0.21,2.03,0.6
			c0.54,0.46,0.8,1.16,0.8,2.23v1.3c0,0.46,0.46,0.8,1.06,0.8h1.2c0.6,0,1.06-0.35,1.06-0.8v-1.46c0-1.59-0.47-2.7-1.53-3.58
			c-1.08-0.93-2.7-1.44-4.55-1.44c-1.54,0-2.95,0.36-4.07,1.03c-1.43,0.89-2.15,2.23-2.15,3.97v2.25c0,1.4,0.31,2.31,1.06,3.15
			c0.68,0.73,1.63,1.3,2.82,1.71l2.79,0.93c0.99,0.35,1.54,0.64,1.89,1.02c0.36,0.39,0.49,0.88,0.49,1.79v1.51
			c0,1.1-0.24,1.78-0.76,2.22c-0.52,0.39-1.26,0.61-2.04,0.61c-0.95,0-1.63-0.2-2.21-0.63c-0.53-0.44-0.76-1.14-0.76-2.28v-1.43
			c0-0.45-0.45-0.8-1.03-0.8h-1.24c-0.58,0-1.06,0.36-1.06,0.8v1.62c0,1.53,0.5,2.68,1.57,3.61c1.16,0.96,2.77,1.46,4.65,1.46
			c1.52,0,2.91-0.36,4.03-1.03c1.43-0.87,2.15-2.2,2.15-3.97v-1.86C181,171.12,180.69,170.2,179.93,169.4z"
      ></path>
    </g>
  </g>
  <g id="Layer_3" class="st2"></g>
  <g id="Layer_2" class="st2">
    <g class="st3">
      <path
        class="st1"
        d="M192.73,48.92l-0.64-0.64c-0.49-0.49-0.72-0.95-0.72-1.47c0-0.53,0.24-0.99,0.74-1.41l0.62-0.62
			c1.24-1.2,1.66-3.6,1.74-4.05l3.73-21.66c0-1.33-1.03-2.36-2.36-2.36h-3.46c-1.33,0-2.44,0.93-2.65,2.36l-3.8,21.68
			c-0.32,1.52-1.26,2.01-2.24,2.16l-3.03,0c-0.13,0-0.25-0.01-0.37-0.03c-0.07-0.01-0.14-0.02-0.21-0.04
			c-0.96-0.2-1.53-0.91-1.53-1.96V18.97c0-1.26-0.99-2.25-2.25-2.25h-4.04c-1.26,0-2.25,0.99-2.25,2.25v56.27
			c0,1.26,0.99,2.25,2.25,2.25h4.04c1.26,0,2.25-0.99,2.25-2.25V52.65c0-1.22,0.85-2.11,2.03-2.11h3.49c1.49,0.2,1.8,2.04,1.8,2.04
			l3.86,22.55c0.21,1.43,1.32,2.36,2.65,2.36h3.46c1.33,0,2.36-1.03,2.36-2.36l-3.73-21.66C194.32,52.57,193.81,49.9,192.73,48.92z"
      ></path>
      <path
        class="st1"
        d="M52,30.93c0-9.82-6.98-14.21-13.9-14.21H26.06c-1.25,0-2.24,0.98-2.24,2.24V74.9c0,1.25,0.98,2.24,2.24,2.24
			h11.97C46.39,77.13,52,71.45,52,63v-5.51c0-4.7-0.47-5.99-3.15-8.67l-0.63-0.63c-0.49-0.48-0.71-0.95-0.71-1.46
			c0-0.49,0.28-0.86,0.7-1.36l0.63-0.71c2.52-2.83,3.16-4.12,3.16-9.31V30.93z M43.35,61.9c0,6.77-4.38,7.29-5.72,7.29h-3.23
			c-1.15,0-2.09-0.9-2.09-2.02V52.63c0-1.25,0.84-2.09,2.09-2.09h3.23c1.56,0,5.23,0.6,5.72,6.17l0,0.02V61.9z M43.35,35.62
			c0,6.77-4.38,7.29-5.72,7.29h-3.23c-1.15,0-2.09-0.9-2.09-2.02V26.67c0-1.26,0.84-2.02,2.25-2.02h3.15c2.72,0,5.64,1.91,5.64,6.11
			V35.62z"
      ></path>
      <path
        class="st1"
        d="M68.73,16.72h-4.02c-1.25,0-2.24,0.98-2.24,2.24V74.9c0,1.25,0.98,2.24,2.24,2.24h19.16
			c1.25,0,2.24-0.98,2.24-2.24v-3.78c0-1.25-0.98-2.24-2.24-2.24H73.06c-1.21,0-2.09-0.88-2.09-2.09V18.95
			C70.97,17.7,69.99,16.72,68.73,16.72z"
      ></path>
      <path
        class="st1"
        d="M115.63,77.13h3.94c1.25,0,2.24-0.98,2.24-2.24V31c0-9.01-5.49-14.84-13.97-14.84
			c-6.79,0-14.05,3.9-14.05,14.84V74.9c0,1.25,0.98,2.24,2.24,2.24h4.02c1.25,0,2.24-0.98,2.24-2.24V55c0-0.99,0.78-2.02,2.09-2.02
			h6.85c1.16,0,2.09,0.9,2.09,2.02v19.9C113.31,76.13,114.35,77.13,115.63,77.13z M111.22,45.28h-6.85c-1.31,0-2.09-1.03-2.09-2.02
			V31.95c0-5.28,1.82-7.85,5.56-7.85c3.69,0,5.48,2.57,5.48,7.85v11.31C113.31,44.37,112.37,45.28,111.22,45.28z"
      ></path>
      <path
        class="st1"
        d="M154,34.98h3.91c1.27,0,2.26-0.99,2.26-2.26v-1.65c0-9.01-5.49-14.84-13.97-14.84
			c-6.79,0-14.05,3.9-14.05,14.84v1.97v29.61v0.18c0,0.05,0.01,0.09,0.01,0.14c0.14,10.69,7.31,14.52,14.04,14.52
			c8.49,0,13.97-5.83,13.97-14.84V61c0-1.27-0.99-2.26-2.26-2.26H154c-1.27,0-2.33,0.99-2.33,2.26v1.14
			c-0.1,4.98-1.89,7.41-5.47,7.41c-3.74,0-5.56-2.57-5.56-7.85v-6.64v-4.67v-7.07v-4.67v-5.61v-1.03c0-5.28,1.82-7.85,5.56-7.85
			c3.59,0,5.37,2.43,5.47,7.41v1.14C151.67,33.99,152.73,34.98,154,34.98z"
      ></path>
      <path
        class="st1"
        d="M119.03,88.38c0-1.27,0.99-2.26,2.26-2.26h15.82c1.27,0,2.26,0.99,2.26,2.26v3.39c0,1.27-0.99,2.12-2.26,2.26
			h-8.33c-0.99,0-1.62,0.71-1.62,1.62v16.03c0,0.92,0.64,1.62,1.62,1.62h7.84c1.27,0,2.26,0.99,2.26,2.26v3.32
			c0,1.27-0.99,2.26-2.26,2.26h-7.84c-0.99,0-1.62,0.71-1.62,1.62v21.35c0,1.27-0.99,2.26-2.26,2.26h-3.6
			c-1.27,0-2.26-0.99-2.26-2.26V88.38z"
      ></path>
      <path
        class="st1"
        d="M90.67,88.38c0-1.27,0.99-2.26,2.26-2.26h15.82c1.27,0,2.26,0.99,2.26,2.26v3.39c0,1.27-0.99,2.12-2.26,2.26
			h-8.33c-0.99,0-1.62,0.71-1.62,1.62v16.03c0,0.92,0.64,1.62,1.62,1.62h7.84c1.27,0,2.26,0.99,2.26,2.26v3.32
			c0,1.27-0.99,2.26-2.26,2.26h-7.84c-0.99,0-1.62,0.71-1.62,1.62v21.35c0,1.27-0.99,2.26-2.26,2.26h-3.6
			c-1.27,0-2.26-0.99-2.26-2.26V88.38z"
      ></path>
      <path
        class="st1"
        d="M40.84,129.79c0-1.27,1.06-2.26,2.33-2.26h3.53c1.27,0,2.26,0.99,2.26,2.26v3.6
			c0,9.18-5.86,13.49-12.78,13.49c-6.99,0-12.85-4.31-12.85-13.49V99.18c0-9.11,5.79-13.56,12.85-13.56
			c6.99,0,12.78,4.45,12.78,13.56v2.9c0,1.27-0.99,2.26-2.26,2.26h-3.53c-1.27,0-2.33-0.99-2.33-2.26v-2.76
			c0-4.31-1.98-6.07-4.66-6.07c-2.76,0-4.73,1.84-4.73,6.07v33.92c0,3.89,1.7,6,4.73,6c2.54,0,4.66-1.55,4.66-6V129.79z"
      ></path>
      <path
        class="st1"
        d="M82.42,133.39c0,8.9-5.44,13.49-12.78,13.49c-6.99,0-12.85-4.31-12.85-13.49V99.18
			c0-9.11,5.72-13.56,12.85-13.56c6.99,0,12.78,4.45,12.78,13.56V133.39z M64.9,133.25c0,4.17,1.98,6,4.73,6
			c2.54,0,4.66-1.55,4.66-6V99.32c0-4.45-2.12-6.07-4.66-6.07c-2.83,0-4.73,1.84-4.73,6.07V133.25z"
      ></path>
      <path
        class="st1"
        d="M184.2,116.46h11.63c1.34,0,2.27-1.75,2.27-3.32v-10.52c0-10.33-4.37-17-11.14-17
			c-6.84,0-11.27,6.74-11.27,17.18v26.88c0,12.67,5.82,17.18,11.27,17.18c6.77,0,11.14-6.64,11.14-16.91v-0.64
			c0-1.55-0.83-2.77-1.88-2.77h-3.09c-1.06,0-1.88,0.75-1.88,2.3v0.65c0,7.02-0.79,9.28-4.29,9.28c-3.98,0-4.42-4.62-4.42-9.74
			v-10.39C182.55,117.34,183.21,116.46,184.2,116.46z M182.55,101.32c0-7.02,2.77-8.07,4.42-8.07c1.96,0,4.29,1.46,4.29,8.44v4.65
			c0,2.01-1,2.29-1.97,2.29h-5.08c-0.75,0-1.65-0.38-1.65-2.19V101.32z"
      ></path>
      <path
        class="st1"
        d="M153.81,116.46h11.63c1.34,0,2.27-1.75,2.27-3.32v-10.52c0-10.33-4.37-17-11.14-17
			c-6.84,0-11.27,6.74-11.27,17.18v26.88c0,12.67,5.82,17.18,11.27,17.18c6.77,0,11.14-6.64,11.14-16.91v-0.64
			c0-1.55-0.83-2.77-1.88-2.77h-3.09c-1.06,0-1.88,0.75-1.88,2.3v0.65c0,7.02-0.79,9.28-4.29,9.28c-3.98,0-4.42-4.62-4.42-9.74
			v-10.39C152.16,117.34,152.82,116.46,153.81,116.46z M152.16,101.32c0-7.02,2.77-8.07,4.42-8.07c1.96,0,4.29,1.46,4.29,8.44v4.65
			c0,2.01-1,2.29-1.97,2.29h-5.08c-0.75,0-1.65-0.38-1.65-2.19V101.32z"
      ></path>
    </g>
    <g class="st3">
      <path
        class="st1"
        d="M43.22,157.08h-5.09c-0.58,0-1.06,0.36-1.06,0.8v20.55c0,0.44,0.48,0.8,1.06,0.8h1.24
			c0.58,0,1.03-0.35,1.03-0.8v-8.19c0-0.27,0.27-0.47,0.64-0.47h2.12c0.82,0,1.57,0.23,2.1,0.66c0.55,0.44,0.79,1.14,0.79,2.28v5.73
			c0,0.44,0.48,0.8,1.06,0.8h1.24c0.58,0,1.03-0.35,1.03-0.8v-5.73c0-1.23-0.18-2.62-1.51-3.59l-0.28-0.21
			c-0.2-0.15-0.23-0.25-0.23-0.31c0-0.07,0.03-0.16,0.23-0.31l0.28-0.21c1.33-0.97,1.51-2.36,1.51-3.59v-2.33
			c0-1.59-0.48-2.7-1.57-3.61C46.68,157.59,45.1,157.08,43.22,157.08z M46.05,162.42v2.04c0,1.14-0.25,1.84-0.79,2.28
			c-0.51,0.4-1.27,0.63-2.1,0.63h-2.09c-0.6,0-0.67-0.24-0.67-0.44v-6.97c0-0.12,0-0.44,0.78-0.44h2.05c0.82,0,1.56,0.22,2.07,0.63
			C45.83,160.57,46.05,161.23,46.05,162.42z"
      ></path>
      <path
        class="st1"
        d="M63.3,156.89c-1.88,0-3.49,0.51-4.65,1.47c-1.07,0.93-1.57,2.07-1.57,3.61v12.38c0,1.54,0.5,2.68,1.57,3.61
			l0,0c1.16,0.96,2.77,1.46,4.65,1.46c1.88,0,3.49-0.51,4.65-1.47c1.07-0.93,1.57-2.07,1.57-3.61v-12.38c0-1.54-0.5-2.68-1.57-3.61
			C66.79,157.4,65.19,156.89,63.3,156.89z M60.4,162.15c0-1.16,0.25-1.84,0.83-2.28c0.53-0.42,1.22-0.63,2.07-0.63
			c0.85,0,1.54,0.21,2.07,0.63c0.58,0.43,0.83,1.12,0.83,2.27v12.01c0,1.16-0.25,1.84-0.83,2.27l0,0c-0.53,0.42-1.22,0.63-2.07,0.63
			c-0.85,0-1.54-0.21-2.07-0.63c-0.58-0.43-0.83-1.12-0.83-2.27V162.15z"
      ></path>
      <path
        class="st1"
        d="M83.38,156.89c-1.88,0-3.49,0.51-4.65,1.47c-1.07,0.93-1.57,2.07-1.57,3.61v16.47c0,0.44,0.48,0.8,1.06,0.8
			h1.24c0.58,0,1.03-0.35,1.03-0.8v-7.96c0-0.24,0.29-0.44,0.64-0.44h4.53c0.34,0,0.64,0.21,0.64,0.44v7.96
			c0,0.45,0.45,0.8,1.03,0.8h1.24c0.58,0,1.06-0.36,1.06-0.8v-16.47c0-1.54-0.5-2.68-1.57-3.61
			C86.87,157.4,85.26,156.89,83.38,156.89z M80.48,162.15c0-1.16,0.25-1.84,0.83-2.28c0.53-0.42,1.22-0.63,2.07-0.63
			s1.54,0.21,2.07,0.63c0.58,0.43,0.83,1.12,0.83,2.27v5.04c0,0.24-0.3,0.44-0.64,0.44h-4.53c-0.34,0-0.64-0.2-0.64-0.44V162.15z"
      ></path>
      <path
        class="st1"
        d="M105.67,167.77l-2.79-0.95c-1.02-0.37-1.54-0.66-1.86-1.03c-0.35-0.36-0.49-0.85-0.49-1.76v-1.96
			c0-1.1,0.24-1.78,0.75-2.22c0.56-0.4,1.28-0.61,2.07-0.61c0.77,0,1.47,0.21,2.03,0.6c0.54,0.46,0.8,1.16,0.8,2.23v1.3
			c0,0.46,0.46,0.8,1.06,0.8h1.2c0.6,0,1.06-0.35,1.06-0.8v-1.46c0-1.59-0.47-2.7-1.53-3.58c-1.08-0.93-2.7-1.44-4.55-1.44
			c-1.54,0-2.95,0.36-4.07,1.03c-1.43,0.89-2.15,2.23-2.15,3.97v2.25c0,1.4,0.31,2.31,1.06,3.15c0.68,0.73,1.63,1.3,2.82,1.71
			l2.79,0.93c0.99,0.35,1.54,0.64,1.89,1.02c0.36,0.39,0.49,0.88,0.49,1.79v1.51c0,1.1-0.24,1.78-0.76,2.22
			c-0.52,0.39-1.26,0.61-2.04,0.61c-0.95,0-1.63-0.2-2.21-0.63c-0.53-0.44-0.76-1.14-0.76-2.28v-1.43c0-0.45-0.45-0.8-1.03-0.8
			h-1.24c-0.58,0-1.06,0.36-1.06,0.8v1.62c0,1.53,0.5,2.68,1.57,3.61c1.16,0.96,2.77,1.46,4.65,1.46c1.52,0,2.91-0.36,4.03-1.03
			c1.43-0.87,2.15-2.2,2.15-3.97v-1.86c0-1.46-0.31-2.38-1.06-3.17C107.87,168.71,106.99,168.21,105.67,167.77z"
      ></path>
      <path
        class="st1"
        d="M127.36,157.08h-10.78c-0.58,0-1.06,0.36-1.06,0.8v0.85c0,0.44,0.48,0.8,1.06,0.8h3.08
			c0.36,0,0.64,0.21,0.64,0.5v18.4c0,0.46,0.46,0.8,1.06,0.8h1.2c0.61,0,1.06-0.35,1.06-0.8v-18.4c0-0.28,0.27-0.5,0.64-0.5h3.11
			c0.58,0,1.03-0.35,1.03-0.8v-0.85C128.39,157.43,127.94,157.08,127.36,157.08z"
      ></path>
      <path
        class="st1"
        d="M143.31,157.08h-7.42c-0.58,0-1.06,0.36-1.06,0.8v20.55c0,0.44,0.48,0.8,1.06,0.8h7.42
			c0.58,0,1.03-0.35,1.03-0.8v-0.85c0-0.45-0.45-0.8-1.03-0.8h-4.53c-0.37,0-0.64-0.2-0.64-0.47v-6.58c0-0.27,0.27-0.47,0.64-0.47
			h4.53c0.58,0,1.03-0.35,1.03-0.8v-0.85c0-0.45-0.45-0.8-1.03-0.8h-4.53c-0.37,0-0.64-0.2-0.64-0.47V160
			c0-0.27,0.27-0.47,0.64-0.47l4.55,0c0.64-0.1,1-0.4,1-0.8v-0.85C144.33,157.43,143.88,157.08,143.31,157.08z"
      ></path>
      <path
        class="st1"
        d="M157.55,157.08h-5.09c-0.58,0-1.06,0.36-1.06,0.8v20.55c0,0.44,0.48,0.8,1.06,0.8h1.24
			c0.58,0,1.03-0.35,1.03-0.8v-8.19c0-0.27,0.27-0.47,0.64-0.47h2.12c0.82,0,1.57,0.23,2.1,0.66c0.55,0.44,0.79,1.14,0.79,2.28v5.73
			c0,0.44,0.48,0.8,1.06,0.8h1.24c0.58,0,1.03-0.35,1.03-0.8v-5.73c0-1.23-0.18-2.62-1.51-3.59l-0.28-0.21
			c-0.2-0.15-0.23-0.25-0.23-0.31c0-0.07,0.03-0.16,0.23-0.31l0.28-0.21c1.33-0.97,1.51-2.36,1.51-3.59v-2.33
			c0-1.59-0.48-2.7-1.57-3.61C161.01,157.59,159.43,157.08,157.55,157.08z M160.38,162.42v2.04c0,1.14-0.25,1.84-0.79,2.28
			c-0.51,0.4-1.27,0.63-2.1,0.63h-2.09c-0.6,0-0.67-0.24-0.67-0.44v-6.97c0-0.12,0-0.44,0.78-0.44h2.05c0.82,0,1.56,0.22,2.07,0.63
			C160.16,160.57,160.38,161.23,160.38,162.42z"
      ></path>
      <path
        class="st1"
        d="M182.68,169.4c-0.65-0.69-1.53-1.19-2.85-1.63l-2.79-0.95c-1.02-0.37-1.54-0.66-1.86-1.03
			c-0.35-0.36-0.49-0.85-0.49-1.76v-1.96c0-1.1,0.24-1.78,0.75-2.22c0.56-0.4,1.28-0.61,2.07-0.61c0.77,0,1.47,0.21,2.03,0.6
			c0.54,0.46,0.8,1.16,0.8,2.23v1.3c0,0.46,0.46,0.8,1.06,0.8h1.2c0.6,0,1.06-0.35,1.06-0.8v-1.46c0-1.59-0.47-2.7-1.53-3.58
			c-1.08-0.93-2.7-1.44-4.55-1.44c-1.54,0-2.95,0.36-4.07,1.03c-1.43,0.89-2.15,2.23-2.15,3.97v2.25c0,1.4,0.31,2.31,1.06,3.15
			c0.68,0.73,1.63,1.3,2.82,1.71l2.79,0.93c0.99,0.35,1.54,0.64,1.89,1.02c0.36,0.39,0.49,0.88,0.49,1.79v1.51
			c0,1.1-0.24,1.78-0.76,2.22c-0.52,0.39-1.26,0.61-2.04,0.61c-0.95,0-1.63-0.2-2.21-0.63c-0.53-0.44-0.76-1.14-0.76-2.28v-1.43
			c0-0.45-0.45-0.8-1.03-0.8h-1.24c-0.58,0-1.06,0.36-1.06,0.8v1.62c0,1.53,0.5,2.68,1.57,3.61c1.16,0.96,2.77,1.46,4.65,1.46
			c1.52,0,2.91-0.36,4.03-1.03c1.43-0.87,2.15-2.2,2.15-3.97v-1.86C183.75,171.12,183.44,170.2,182.68,169.4z"
      ></path>
    </g>
  </g>
</svg>
