<svg xmlns="http://www.w3.org/2000/svg" viewBox="0 0 209.72 13.71">
  <defs>
    <style>
      .cls-1 {
        fill: #1d1d1b;
      }
    </style>
  </defs>
  <g id="Layer_2" data-name="Layer 2">
    <g id="Layer_1-2" data-name="Layer 1">
      <path
        class="cls-1"
        d="M32.3,1.78a3.33,3.33,0,0,1,.59,2,2.89,2.89,0,0,1-.6,1.91,3,3,0,0,1-1,.74,2.92,2.92,0,0,1,1.5,1.14,3.41,3.41,0,0,1,.5,1.9,3.83,3.83,0,0,1-.57,2.07,3.74,3.74,0,0,1-.92,1,3.67,3.67,0,0,1-1.46.65,9.64,9.64,0,0,1-1.83.17H0V.4H28.94A4,4,0,0,1,32.3,1.78ZM2.58,2.65V5.5H28.41a2.55,2.55,0,0,0,1.37-.32A1.22,1.22,0,0,0,30.31,4a1.16,1.16,0,0,0-.7-1.19,4.73,4.73,0,0,0-1.53-.2Zm0,5V11.1H28.41a2.93,2.93,0,0,0,1.31-.23,1.62,1.62,0,0,0,.85-1.61,1.4,1.4,0,0,0-.82-1.39,3.21,3.21,0,0,0-1.3-.22Z"
      />
      <path
        class="cls-1"
        d="M45.61,12.2a5.66,5.66,0,0,1-4.25,1.51,5.63,5.63,0,0,1-4.24-1.51,7,7,0,0,1-2-5.34,6.87,6.87,0,0,1,2-5.35A5.63,5.63,0,0,1,41.36,0a5.66,5.66,0,0,1,4.25,1.51,6.9,6.9,0,0,1,2,5.35A7,7,0,0,1,45.61,12.2Zm-1.69-2a5.28,5.28,0,0,0,.94-3.37,5.28,5.28,0,0,0-.94-3.37,3.08,3.08,0,0,0-2.56-1.2A3.13,3.13,0,0,0,38.8,3.48a5.25,5.25,0,0,0-1,3.38,5.22,5.22,0,0,0,1,3.37,3.35,3.35,0,0,0,5.12,0Z"
      />
      <path
        class="cls-1"
        d="M110.32,1.78a3.27,3.27,0,0,1,.6,2,2.89,2.89,0,0,1-.6,1.91,3.2,3.2,0,0,1-1,.74,2.85,2.85,0,0,1,1.49,1.14,3.41,3.41,0,0,1,.51,1.9,3.76,3.76,0,0,1-.58,2.07,3.59,3.59,0,0,1-.92,1,3.67,3.67,0,0,1-1.46.65,9.49,9.49,0,0,1-1.83.17H49.68V.4H107A4,4,0,0,1,110.32,1.78Zm-58.06.87V5.5h54.17a2.59,2.59,0,0,0,1.38-.32A1.22,1.22,0,0,0,108.33,4a1.15,1.15,0,0,0-.69-1.19,4.76,4.76,0,0,0-1.54-.2Zm0,5V11.1h54.17a2.93,2.93,0,0,0,1.31-.23,1.63,1.63,0,0,0,.86-1.61,1.39,1.39,0,0,0-.83-1.39,3.19,3.19,0,0,0-1.29-.22Z"
      />
      <path
        class="cls-1"
        d="M119.9,1.75a5.31,5.31,0,0,1,4-1.6,5.37,5.37,0,0,1,4.73,2.14,4.8,4.8,0,0,1,.89,2.42h-2.71a3.73,3.73,0,0,0-.66-1.4,2.94,2.94,0,0,0-4.43.34A5.81,5.81,0,0,0,120.86,7a5.1,5.1,0,0,0,.89,3.27A2.75,2.75,0,0,0,124,11.37a2.55,2.55,0,0,0,2.12-.93,4.05,4.05,0,0,0,.67-1.5h2.69a5.82,5.82,0,0,1-1.78,3.44A5.14,5.14,0,0,1,124,13.71a5.5,5.5,0,0,1-4.35-1.79A7.2,7.2,0,0,1,118.1,7,7.16,7.16,0,0,1,119.9,1.75Z"
      />
      <path
        class="cls-1"
        d="M139.44,12.18a5.26,5.26,0,0,1-7.36,0,5.54,5.54,0,0,1-1.21-3.61A5.58,5.58,0,0,1,132.08,5a5.21,5.21,0,0,1,7.36,0,5.59,5.59,0,0,1,1.22,3.59A5.55,5.55,0,0,1,139.44,12.18Zm-2-1.38A3.7,3.7,0,0,0,138,8.57a3.61,3.61,0,0,0-.59-2.21,2,2,0,0,0-1.69-.78,2,2,0,0,0-1.69.78,3.61,3.61,0,0,0-.59,2.21,3.7,3.7,0,0,0,.59,2.23,2,2,0,0,0,1.69.78A2,2,0,0,0,137.44,10.8Z"
      />
      <path
        class="cls-1"
        d="M146.41.28l.53,0v2c-.14,0-.37,0-.71,0a.78.78,0,0,0-.68.22.75.75,0,0,0-.19.51v.81H147V5.63h-1.64v7.72h-2.49V5.63h-1.4V3.86h1.37V3.24a3.18,3.18,0,0,1,.52-2.11c.36-.58,1.24-.87,2.62-.87Z"
      />
      <path
        class="cls-1"
        d="M152.41.28l.53,0v2c-.14,0-.38,0-.71,0a.81.81,0,0,0-.69.22.8.8,0,0,0-.19.51v.81H153V5.63h-1.65v7.72h-2.48V5.63h-1.41V3.86h1.37V3.24a3.18,3.18,0,0,1,.52-2.11c.36-.58,1.24-.87,2.63-.87Z"
      />
      <path
        class="cls-1"
        d="M160.68,4a3.88,3.88,0,0,1,1.66,1.41,4.79,4.79,0,0,1,.76,2,11.15,11.15,0,0,1,.08,1.9h-7a2.28,2.28,0,0,0,1,2,2.53,2.53,0,0,0,1.38.36,2.14,2.14,0,0,0,1.39-.44,2.24,2.24,0,0,0,.52-.66h2.55a3.1,3.1,0,0,1-.93,1.73,4.65,4.65,0,0,1-3.6,1.4,5.27,5.27,0,0,1-3.38-1.18,4.67,4.67,0,0,1-1.46-3.84A5.2,5.2,0,0,1,155,4.84a4.63,4.63,0,0,1,3.43-1.32A5.45,5.45,0,0,1,160.68,4Zm-3.75,2.16a2.6,2.6,0,0,0-.66,1.48h4.31a2.06,2.06,0,0,0-.67-1.51,2.14,2.14,0,0,0-1.48-.52A2,2,0,0,0,156.93,6.13Z"
      />
      <path
        class="cls-1"
        d="M170.69,4a3.88,3.88,0,0,1,1.66,1.41,4.79,4.79,0,0,1,.76,2,11.15,11.15,0,0,1,.08,1.9h-7a2.31,2.31,0,0,0,1,2,2.53,2.53,0,0,0,1.38.36,2.14,2.14,0,0,0,1.39-.44,2.24,2.24,0,0,0,.52-.66h2.55a3,3,0,0,1-.93,1.73,4.65,4.65,0,0,1-3.6,1.4,5.24,5.24,0,0,1-3.37-1.18,4.65,4.65,0,0,1-1.47-3.84A5.2,5.2,0,0,1,165,4.84a4.65,4.65,0,0,1,3.43-1.32A5.45,5.45,0,0,1,170.69,4ZM167,6.13a2.55,2.55,0,0,0-.67,1.48h4.31a2.05,2.05,0,0,0-.66-1.51,2.18,2.18,0,0,0-1.49-.52A2,2,0,0,0,167,6.13Z"
      />
      <path class="cls-1" d="M179.66.4h2.71V11h6.47v2.33h-9.18Z" />
      <path
        class="cls-1"
        d="M194.25,7.52a3.49,3.49,0,0,0,1-.22.75.75,0,0,0,.54-.71.85.85,0,0,0-.41-.81,2.63,2.63,0,0,0-1.22-.22,1.6,1.6,0,0,0-1.27.43,1.82,1.82,0,0,0-.36.88h-2.42a3.71,3.71,0,0,1,.71-2.06,4.1,4.1,0,0,1,3.43-1.27,6,6,0,0,1,2.8.63,2.38,2.38,0,0,1,1.23,2.35v4.4c0,.3,0,.67,0,1.1a1.24,1.24,0,0,0,.15.67.81.81,0,0,0,.36.29v.37h-2.72a2.51,2.51,0,0,1-.16-.54c0-.17-.05-.37-.07-.58a5.29,5.29,0,0,1-1.2.95,3.65,3.65,0,0,1-1.84.47,3.2,3.2,0,0,1-2.16-.74,2.65,2.65,0,0,1-.85-2.11,2.72,2.72,0,0,1,1.37-2.56,6.21,6.21,0,0,1,2.21-.61Zm1.53,1.17a2.69,2.69,0,0,1-.48.24,4,4,0,0,1-.68.18l-.57.1a4.22,4.22,0,0,0-1.15.34,1.16,1.16,0,0,0-.59,1.07,1.13,1.13,0,0,0,.36.93,1.38,1.38,0,0,0,.88.28,2.64,2.64,0,0,0,1.51-.47,2,2,0,0,0,.72-1.74Z"
      />
      <path
        class="cls-1"
        d="M208.65,4.92a5.55,5.55,0,0,1,1.07,3.52,6.14,6.14,0,0,1-1.06,3.7,3.44,3.44,0,0,1-3,1.47,3.4,3.4,0,0,1-1.91-.48,3.7,3.7,0,0,1-.94-1v1.2h-2.47V.41h2.5V5a3.51,3.51,0,0,1,1.06-1,3.15,3.15,0,0,1,1.73-.44A3.58,3.58,0,0,1,208.65,4.92Zm-2.1,5.84a3.56,3.56,0,0,0,.54-2.06A4.58,4.58,0,0,0,206.83,7a2,2,0,0,0-3.75,0,4.55,4.55,0,0,0-.27,1.7,3.6,3.6,0,0,0,.55,2,1.9,1.9,0,0,0,1.68.81A1.73,1.73,0,0,0,206.55,10.76Z"
      />
    </g>
  </g>
</svg>
