<svg xmlns="http://www.w3.org/2000/svg" fill="none" viewBox="0 0 160 16">
  <path fill="#4C4341" d="M107.242 8.68v4.702h5.803v1.98h-8.165V.638h8v1.98h-5.638V6.7h5.306v1.98h-5.306Zm37.865 3.712L147.76.639h2.507l-3.731 14.722h-3.005L140.049.64h2.508l2.508 11.753h.042Zm-9.08 2.97V.638h2.363v14.722h-2.363ZM124.931 2.618V.639h9.347v1.98h-3.462V15.36h-2.362V2.62h-3.523Zm-4.916-.165c-2.389.207-2.403.982-2.403 5.578 0 4.597.014 5.307 2.403 5.514.981.04 2.143-.133 2.743-.29l.429 1.916c-1.353.263-2.279.367-3.151.343-4.469-.12-4.786-1.877-4.786-7.447v-.135c0-5.57.317-7.328 4.786-7.448.872-.023 1.798.08 3.151.344l-.429 1.916a10.66 10.66 0 0 0-2.743-.29Zm34.182 10.928H160v1.979h-8.166V.639h8v1.98h-5.637V6.7h5.306v1.98h-5.306v4.701ZM97.492.639v12.743h5.72v1.98h-8.083V.638h2.363Zm-9.574 0v12.743h5.72v1.98h-8.083V.638h2.363Zm-9.301 13.238c1.48 0 2.655-.887 2.655-5.939 0-4.948-1.176-5.814-2.655-5.814-1.48 0-2.655.866-2.655 5.814 0 5.052 1.175 5.939 2.655 5.939Zm0-13.526c3.568 0 5.136 2.391 5.136 7.649s-1.568 7.65-5.136 7.65c-3.569 0-5.136-2.392-5.136-7.65 0-5.258 1.567-7.65 5.136-7.65Zm-9.118 2.103c-2.39.207-2.403.982-2.403 5.578 0 4.597.013 5.307 2.403 5.514.982.04 2.143-.133 2.743-.29l.43 1.916c-1.353.263-2.28.367-3.152.343-4.468-.12-4.786-1.877-4.786-7.447v-.135c0-5.57.317-7.328 4.786-7.448.872-.023 1.798.08 3.152.344l-.43 1.916a10.65 10.65 0 0 0-2.743-.29ZM53.195 8.68v4.702H59v1.98h-8.166V.638h8v1.98h-5.638V6.7h5.306v1.98h-5.306ZM43.23 2.62V13.38h5.804v1.98h-8.166V.64h8v1.98h-5.638Zm5.306 3.69-3.113 3.097V6.308h3.114ZM30.992 15.36V.64h7.896v1.98h-5.533V6.7h5.201v1.98h-5.201v6.68h-2.363Zm-9.875 0V.64h7.896v1.98H23.48V6.7h5.201v1.98H23.48v6.68h-2.363Zm-7.213-1.485c1.48 0 2.655-.886 2.655-5.938 0-4.948-1.175-5.814-2.655-5.814-1.48 0-2.655.866-2.655 5.814 0 5.052 1.175 5.938 2.655 5.938Zm0-13.525C17.473.35 19.04 2.742 19.04 8s-1.567 7.65-5.135 7.65c-3.568 0-5.136-2.392-5.136-7.65 0-5.258 1.568-7.65 5.136-7.65ZM4.766 2.454c-2.39.207-2.404.982-2.404 5.578 0 4.597.014 5.307 2.404 5.514.98.04 2.141-.132 2.742-.29l.43 1.916c-1.354.263-2.28.367-3.151.343C.317 15.396 0 13.638 0 8.069v-.135C0 2.363.317.605 4.787.484c.871-.023 1.797.08 3.15.344l-.43 1.916a10.66 10.66 0 0 0-2.741-.29Z"/>
</svg>
