<svg id="Layer_1" data-name="Layer 1" xmlns="http://www.w3.org/2000/svg" viewBox="0 0 394.68 126.03">
  <defs>
    <style>
      .cls-1{fill:#020000}
    </style>
  </defs>
  <path class="cls-1" d="M26.74 1.44c12.14 0 21.38 7.7 21.38 18.64v28.39h-17.1V21.28c0-2.39-2.05-3.59-4.28-3.59s-4.28 1.2-4.28 3.59v83.47c0 2.39 2.05 3.59 4.28 3.59s4.28-1.2 4.28-3.59V75.84h17.1v30.1c0 10.95-9.24 18.64-21.38 18.64S4.5 116.88 4.5 105.94V20.08C4.5 9.13 14.6 1.44 26.74 1.44ZM54.1 20.08c0-10.95 10.43-18.64 22.58-18.64s22.58 7.7 22.58 18.64v61.49c0 10.95-10.43 18.64-22.58 18.64S54.1 92.51 54.1 81.57V20.08Zm22.58-2.39c-2.22 0-4.62 1.2-4.62 3.59v59.09c0 2.39 2.39 3.59 4.62 3.59s4.62-1.2 4.62-3.59V21.28c0-2.39-2.39-3.59-4.62-3.59ZM106.09 3.15h31.47V19.4h-13.51v36.09h13.51v16.25h-13.51v51.14h-17.96V3.15ZM143.55 3.15h31.47V19.4h-13.51v36.09h13.51v16.25h-13.51v51.14h-17.96V3.15ZM181.01 3.15h31.47V19.4h-13.51v34.89h13.51v16.25h-13.51v36.09h13.51v16.25h-31.47V3.15ZM218.46 3.15h31.47V19.4h-13.51v34.89h13.51v16.25h-13.51v36.09h13.51v16.25h-31.47V3.15ZM54.1 106.63h45.16v16.25H54.1v-16.25ZM255.92 3.15h17.96v103.48h13.51v16.25h-31.47V3.15ZM291.66 88.16l11.12-85.01h25.31l10.95 85.01v34.72h-13.68l-2.22-21.55h-15.39l-2.22 21.55h-13.85V88.16Zm29.93-3.08-6.16-60.21-6.16 60.21h12.32ZM345.02 3.15h22.58c12.14 0 22.58 8.55 22.58 19.5v28.39c0 4.28-1.54 8.21-4.28 11.29 2.74 3.25 4.28 7.18 4.28 11.46v29.59c0 10.95-10.43 19.5-22.58 19.5h-22.58V3.15Zm22.58 51.14c2.22 0 4.62-1.37 4.62-4.45v-26c0-3.08-2.39-4.45-4.62-4.45h-4.62v34.9h4.62Zm0 52.34c2.22 0 4.62-1.37 4.62-4.45v-27.2c0-3.08-2.39-4.45-4.62-4.45h-4.62v36.09h4.62Z"/>
</svg>
