<svg width="1581" height="755" viewBox="0 0 1581 755" fill="none" xmlns="http://www.w3.org/2000/svg">
  <path
    d="M40 42C40 40.8954 40.8954 40 42 40H1539C1540.1 40 1541 40.8954 1541 42V713C1541 714.105 1540.1 715 1539 715H42C40.8955 715 40 714.105 40 713V42Z"
    fill="black"
    fill-opacity="0.988235"
  />
  <path
    d="M42 40V41H1539V40V39H42V40ZM1541 42H1540V713H1541H1542V42H1541ZM1539 715V714H42V715V716H1539V715ZM40 713H41V42H40H39V713H40ZM42 715V714C41.4477 714 41 713.552 41 713H40H39C39 714.657 40.3432 716 42 716V715ZM1541 713H1540C1540 713.552 1539.55 714 1539 714V715V716C1540.66 716 1542 714.657 1542 713H1541ZM1539 40V41C1539.55 41 1540 41.4477 1540 42H1541H1542C1542 40.3431 1540.66 39 1539 39V40ZM42 40V39C40.3432 39 39 40.3431 39 42H40H41C41 41.4477 41.4477 41 42 41V40Z"
    fill="white"
    fill-opacity="0.1"
  />
  <path
    d="M191.831 198.179C168.046 198.179 151.433 214.042 151.433 236.752V385.808C151.433 408.335 168.046 424.066 191.831 424.066C215.804 424.066 232.541 408.335 232.541 385.808V353.073H206.736V385.808C206.736 397.036 198.705 401.02 191.831 401.02C182.967 401.02 177.238 395.044 177.238 385.808V236.752C177.238 227.47 183.104 221.233 191.831 221.233C199.248 221.233 206.736 226.03 206.736 236.752V269.172H232.541V236.752C232.541 214.042 215.804 198.179 191.831 198.179Z"
    fill="white"
  />
  <path
    d="M335.647 199.407H254.228V222.461H307.262L254.385 408.028L254.228 422.841H335.647V399.787H282.912L335.49 214.217L335.647 199.407Z"
    fill="white"
  />
  <path
    d="M412.087 342.011H388.683L400.497 253.944L412.087 342.011ZM385.281 199.408L352.096 422.838H378.337L386.327 365.062H414.144L422.436 422.838H448.661L415.48 199.408H385.281Z"
    fill="white"
  />
  <path
    d="M495.242 222.459H508.915C518.379 222.459 524.735 229.065 524.735 238.9V289.917C524.735 299.718 518.526 306.054 508.915 306.054H495.242V222.459ZM550.545 289.917V238.9C550.545 215.646 533.425 199.405 508.915 199.405H469.432V422.839H495.242V329.1H505.437L530.936 422.839H557.775L528.764 323.921C542.484 318.469 550.545 306.041 550.545 289.917Z"
    fill="white"
  />
  <path
    d="M636.586 335.222L601.555 199.407H578.216V422.841H603.406V287.03L638.44 422.841H661.78V199.407H636.586V335.222Z"
    fill="white"
  />
  <path
    d="M729.465 300.563L706.963 199.409H680.864L716.386 347.576V422.839H742.193V347.585L778.353 199.409H752.239L729.465 300.563Z"
    fill="white"
  />
  <path
    d="M863.99 222.459H878.584C888.045 222.459 894.404 229.065 894.404 238.9V383.656C894.404 393.457 888.191 399.785 878.584 399.785H863.99V222.459ZM878.584 199.405H838.177V422.839H878.584C903.09 422.839 920.211 406.723 920.211 383.656V238.9C920.211 215.646 903.09 199.405 878.584 199.405Z"
    fill="white"
  />
  <path
    d="M942.076 422.84H1018.58V399.786H967.889V319.884H1012.43V296.834H967.889V222.46H1018.58V199.406H942.076V422.84Z"
    fill="white"
  />
  <path
    d="M1089.29 299.123C1075.21 292.737 1066.59 288.176 1066.59 275.475V237.06C1066.59 227.446 1072.56 221.234 1081.8 221.234C1089.52 221.234 1097.32 226.126 1097.32 237.06V269.172H1123.12V237.06C1123.12 214.167 1106.13 198.18 1081.8 198.18C1057.65 198.18 1040.78 214.167 1040.78 237.06V275.475C1040.78 303.899 1059.81 312.513 1075.08 319.434C1089.06 325.762 1097.62 330.277 1097.62 342.779V384.883C1097.62 394.684 1091.41 401.02 1081.8 401.02C1072.37 401.02 1066.28 394.684 1066.28 384.883V353.074H1040.47V384.883C1040.47 407.958 1057.47 424.066 1081.8 424.066C1106.31 424.066 1123.43 407.958 1123.43 384.883V342.779C1123.43 314.613 1104.5 306.023 1089.29 299.123Z"
    fill="white"
  />
  <path
    d="M1225.5 199.407H1144.08V222.461H1197.11L1144.24 408.028L1144.08 422.841H1225.5V399.787H1172.77L1225.34 214.217L1225.5 199.407Z"
    fill="white"
  />
  <path
    d="M1288.11 198.179C1264.33 198.179 1247.71 214.042 1247.71 236.752V385.808C1247.71 408.335 1264.33 424.066 1288.11 424.066C1312.08 424.066 1328.82 408.335 1328.82 385.808V353.073H1303.01V385.808C1303.01 397.036 1294.98 401.02 1288.11 401.02C1279.25 401.02 1273.52 395.044 1273.52 385.808V236.752C1273.52 227.47 1279.39 221.233 1288.11 221.233C1295.53 221.233 1303.01 226.03 1303.01 236.752V269.172H1328.82V236.752C1328.82 214.042 1312.08 198.179 1288.11 198.179Z"
    fill="white"
  />
  <path
    d="M1432.7 214.218L1432.85 199.408H1351.44V222.458H1404.46L1351.59 408.029L1351.44 422.838H1432.85V399.788H1380.12L1432.7 214.218Z"
    fill="white"
  />
  <path
    d="M588.856 516.675C593.037 516.675 596.4 513.887 596.4 509.004V487.63C596.4 482.746 593.037 479.841 588.856 479.841H582.117V516.675H588.856ZM575.497 474.265H588.856C596.637 474.265 603.024 479.144 603.024 487.63V509.004C603.024 517.484 596.637 522.252 588.856 522.252H582.117V555.595H575.497V474.265Z"
    fill="white"
  />
  <path
    d="M631.913 528.177L625.878 482.279H625.641L619.484 528.177H631.913ZM621.342 474.267H630.059L642.136 555.591H635.398L632.262 533.754H619.024L616 555.591H609.264L621.342 474.267Z"
    fill="white"
  />
  <path
    d="M667.305 550.018C671.487 550.018 674.85 547.229 674.85 542.35V487.631C674.85 482.747 671.487 479.842 667.305 479.842H660.221V550.018H667.305ZM653.601 474.266H667.305C675.086 474.266 681.476 479.145 681.476 487.631V542.35C681.476 550.83 675.086 555.595 667.305 555.595H653.601V474.266Z"
    fill="white"
  />
  <path
    d="M714.656 528.177L708.621 482.279H708.384L702.228 528.177H714.656ZM704.088 474.267H712.802L724.883 555.591H718.141L715.005 533.754H701.767L698.743 555.591H692.008L704.088 474.267Z"
    fill="white"
  />
  <path
    d="M760.035 542.813C760.035 547.696 763.407 550.484 767.474 550.484C771.655 550.484 775.018 547.696 775.018 542.813V487.164C775.018 482.281 771.655 479.38 767.474 479.38C763.407 479.38 760.035 482.281 760.035 487.164V542.813ZM781.642 487.164V542.813C781.642 551.297 775.251 556.058 767.474 556.058C759.687 556.058 753.415 551.297 753.415 542.813V487.164C753.415 478.683 759.687 473.803 767.474 473.803C775.251 473.803 781.642 478.683 781.642 487.164Z"
    fill="white"
  />
  <path
    d="M809.48 550.018C813.661 550.018 817.031 547.229 817.031 542.35V487.631C817.031 482.747 813.661 479.842 809.48 479.842H802.399V550.018H809.48ZM795.779 474.266H809.48C817.267 474.266 823.651 479.145 823.651 487.631V542.35C823.651 550.83 817.267 555.595 809.48 555.595H795.779V474.266Z"
    fill="white"
  />
  <path
    d="M854.98 540.84C854.98 523.294 876.002 521.209 876.002 507.382V490.071C876.002 485.191 872.636 482.282 868.454 482.282C864.5 482.282 861.252 484.955 861.252 489.602V498.2H854.632V489.602C854.632 481.353 860.904 476.706 868.454 476.706C876.232 476.706 882.622 481.585 882.622 490.071V507.382C882.622 524.922 861.601 526.898 861.601 540.84V550.017H882.622V555.594H854.98V540.84Z"
    fill="white"
  />
  <path
    d="M902.45 542.813C902.45 547.696 905.822 550.484 909.879 550.484C914.06 550.484 917.43 547.696 917.43 542.813V490.069C917.43 485.189 914.06 482.28 909.879 482.28C905.822 482.28 902.45 485.189 902.45 490.069V542.813ZM924.05 490.069V542.813C924.05 551.296 917.666 556.058 909.879 556.058C902.101 556.058 895.829 551.296 895.829 542.813V490.069C895.829 481.583 902.101 476.704 909.879 476.704C917.666 476.704 924.05 481.583 924.05 490.069Z"
    fill="white"
  />
  <path d="M935.399 483.675L946.204 477.173H952.824V555.594H946.204V483.563L935.399 490.069V483.675Z" fill="white" />
  <path
    d="M986.935 534.448V484.606H986.708L971.261 534.448H986.935ZM965.101 534.448L983.223 477.17H993.328V534.448H996.343V540.025H993.328V555.594H986.935V540.025H965.101V534.448Z"
    fill="white"
  />
  <path d="M523.429 521.141H149.829V508.26H523.429V521.141Z" fill="white" />
  <path d="M1433.73 521.141H1065.32V508.26H1433.73V521.141Z" fill="white" />
</svg>
