<svg class="logo-img" preserveAspectRatio="xMinYMin meet" xmlns="http://www.w3.org/2000/svg" height="32" version="1.1" viewBox="0 0 154 32" width="154">
<title>Hayb Coffe</title>
<path d="M131.213 23.546v-4.579h3.055c1.923 0 2.653 0.921 2.653 2.275 0 1.357-0.727 2.276-2.653 2.276l-3.055 0.028zM58.115 13.953h0.461l2.515 8.697h-5.549l2.573-8.697zM136.47 10.753c0 1.382-0.727 2.276-2.656 2.276h-2.599v-4.576h2.604c1.923 0 2.653 0.921 2.653 2.276zM148.583 15.53c2.924-1.089 4.579-3.603 4.579-7.375-0.031-4.877-3.309-8.156-8.944-8.156h-29.479v32h29.94c5.633 0 8.912-3.279 8.912-8.455 0-3.603-1.409-6.253-5.040-7.532l0.032-0.483zM91.657 0h-17.367l12.111 19.833v12.167h17.367v-12.060l10.295-19.94h-11.895l-4.849 9.645-5.661-9.645zM40.911 32h11.889l1.002-3.441h8.967l1.008 3.441h17.367l-10.052-32h-20.129l-10.052 32zM17.367 10.973v-10.973h-17.367v32h17.367v-11.431h4.579v11.431h17.367v-32h-17.367v10.973h-4.579z"></path>
</svg>
