<svg version="1.1" id="Layer_1" xmlns="http://www.w3.org/2000/svg" x="0" y="0" viewBox="0 0 1125 1125" xml:space="preserve"><style type="text/css">.st0{fill-rule:evenodd;clip-rule:evenodd}</style><path class="st0" d="M155.8 548.6c15.7-1.8 32.7 14.6 31.6 29.5-1.6 22.8-15.1 36.6-39.4 36-19.1-.5-38.1-3.6-57.2-4.7-15.8-.8-42.7-2.8-56.5 8.6-5.4 4.4-9.7 2.4-12.4-4.2-8.6-20.9-2.3-53.3 19.7-59.1 7.2-1.8 15-2.3 22.5-2.2 10.9.1 23.6-1.7 25.8-12.1 7.4-33.7 14.9-48.9 23-82.6 8.4-35 17.7-69.9 26.4-104.9.5-2-.2-5.1-1.6-6.7-.8-.9-4.2-.3-6.1.4-8.7 3.3-17.2 7.4-26 10.1-14.9 4.5-43.3-1.1-51.9-13.6-6.2-9.1-13.7-24.4-4.9-36.8 4.3-6.2 14.2-22.6 44.4-18.1-.1 4-8.9 6.7-9.6 9.1-1.6 4.1.1 8.5 2.1 9.9 2.7 1.7 7.7 1.7 10.9.3 12.2-5.2 23.8-11.7 36.1-16.8 15.4-6.3 30.8-12.7 46.8-17.2 11.3-3.3 23.4-3.9 33.9 3.9 7.7 5.7 12.4 31.2 9.3 40.1-1.9 4.9-4.9 5.4-10 4.5-7.2-1.3-15-1.8-22.1-.3-3.8.8-8.4 6.2-9.5 10.3-16.2 65.3-32.1 130.7-48.1 196.1-2.9 12-5.5 24.1-8.7 36.1-1.9 7.2 1.1 10.3 7.5 11.2 6.1 1 12.3 1.7 18.4 2.2 9.7.6 15.6-10.8 10.7-20.4-1.2-2.7-3-5.1-5.1-8.6m826.7-6.3c-15.5-1.5-36.1 10.2-43 23.8-2.3 4.5-2.1 7.7 3.5 8.8 5 .9 5.9 3.8 4.8 8-7.9 30.2-14.8 60.8-24.3 90.5-2.9 8.9-12.7 16-20.3 22.8-2.2 2-8.4 1.2-11.5-.5-1.8-1-2.6-6.5-1.8-9.6 2.6-13 6.1-25.7 9.2-38.5 4.9-21.2 10.2-42.2 14.1-63.5 2.4-13.3-6.6-20.3-19.5-16.3-17.4 5.6-29.1 19-41.2 31.5-5.8 6.1-7.2 6.8-9.9-.8-2.3-6.4-6.8-9.2-12.9-8.7-15 1-28 6.1-36.2 19.7-5.7 9.4-4.5 16.4 3.2 24.3 2.1 2.1 4.7 5.7 4.1 8.2-4.6 26.5-10 52.9-23.5 76.4-4.8 8.6-13.7 15.3-21.6 21.8-2.3 2-8.2 1.5-11.5-.1-1.7-.7-2.5-6.4-1.9-9.4 2.5-11.9 5.8-23.5 8.6-35.3 5.1-21.9 10.4-43.8 15.1-65.8 1.8-8.8-2.5-13.9-11.3-15.6-12.8-2.4-35.7 10.1-40 22-1.5 3.8-1.7 7.5 3.8 8.1 8 .5 8.1 5.3 6.5 11.3-1.9 7.6-3.8 15.3-5.9 22.9-5.2 20.4-10.3 40.9-16.3 61.2-3.6 12.4-13.5 20-24.6 25.4-2.9 1.5-7.7.5-11-.9-1.4-.6-2.4-5.1-1.8-7.4 4.5-18.3 9.6-36.5 14.1-54.8 3.9-16.1 8.3-32.2 10.7-48.5 1.8-12.7-6.8-19.2-19.2-15.3-21 6.6-33.8 22.6-44.3 40.7-.3.5-.6 1.1-.5 1.6.4 1.7 1 3.5 1.5 5.3 1.7-.6 3.9-.6 5.1-1.8 2.8-3 5-6.9 8-9.7 2-2.1 5.1-3.1 7.9-4.5.3 2.8 1.4 5.9.8 8.4-6 24.6-12.4 49.1-18.7 73.7-4.5 18.1-7.7 37-24.4 48.8-3.9 2.6-10.7 4.7-14 3-3.4-1.8-5.4-8.6-5.6-13.4-.3-5.4 2.1-10.9 3.4-16.4 7.3-31.6 15-63 22.1-94.7 2.8-12.2-5.7-20.3-17.7-16.6-7 2.2-13.8 6.2-19.7 10.6-5.3 4.1-10.3 6.3-17 5.4-20.8-2.8-37.5 5.3-49.3 21.7-14.8 20.9-23.6 44.7-27.8 70.1-.8 5.2-2.1 10.2-3.8 17.8-3.4-4.1-5.2-6-6.9-8.1-2.7-3.2-5-6.8-8-9.7-1.7-1.8-4.5-2.6-6.9-3.9-.9 2.4-2.2 4.8-2.7 7.3-.8 4.7-.8 9.6-1.7 14.2-2.8 14.3-16.6 24.6-31 23-13.9-1.5-25-8.4-33.8-18.9-14.4-17.4-26.2-36.6-35.1-57.5-3.7-8.5-3-11.4 6.1-13.1 13.9-2.9 22.9-11.3 30.7-22.1 6.7-9.4 13.5-18.9 21.6-27.1 16.4-16.9 50.9-19.7 61.7 7.2.5 1.3 1.1 2.8 2.1 3.5 2 1.4 4.5 3.5 6.3 3 1.7-.2 4.3-3.3 4.3-5.2.4-5.8.8-12.1-.9-17.5-7.9-23.2-41.6-40.5-65.2-33.9-24 6.7-40.8 23.1-54.6 42.9-6 8.7-11.2 17.9-16.8 26.8-1.4-.4-2.7-.8-4-1.1 1.1-7.1 2.1-14.1 3.3-21 2.5-16.1 5.9-32.1 7.4-48.2.6-6.8 2.9-10.5 8.9-11 8.3-.6 16.7.2 25.1-.3 2.8-.1 7.3-1.3 8.2-3.1 7-17.9-7.7-38.1-26.8-36.1-10.9 1.1-21.9 3.1-32.2 6.7-22.3 7.9-44.1 17.2-66.3 25.5-3.8 1.4-9.5 2-12.6.2-2-1.4-.7-7.7-1-11.8-.1-1.6.2-4.2-.6-4.5-1.6-.6-4.2-.9-5.3.1-2.8 2.7-5.4 5.6-7.6 8.9-7.8 11.8-7.6 27.3-.1 37.4 7.2 9.5 21 13.7 34.4 10 5.2-1.4 10.2-3.6 15.3-4.9 3.7-.9 7.5-.9 11.2-1.4.2 4.1 1 8.2.4 12.1-4.9 27.1-10.9 54.1-15.2 81.3-6.2 38.6-10.9 77.4-17.2 116-3.3 20-9.7 38.9-24.4 54-7.2 7.4-15.7 9.4-25.3 5.6-15.1-6.1-27.1-29.3-23.9-45.7 2.5-12.1 7.9-22.4 19.5-28 3.1-1.4 7.8-1.8 10.8-.5 1.4.7.4 6.4.8 9.7.6 3.2 1.6 6.5 2.5 9.7 2.8-2.1 6.9-3.7 8.2-6.6 4.6-10.2 2.2-19.6-5.8-25.9-6.4-5.1-14.6-4.1-24.1 2.6-22.5 16.1-32.9 44.6-26.4 71.8 4.5 18.6 11.7 36.1 23.8 51.1 14.1 17.7 38.2 23.1 57 9 18.9-14.2 30.9-32.8 38.8-54.2 13.5-36.8 15.9-75.9 22.7-114.1.5-3 2.1-5.9 3.4-8.8 2.7 2.1 5.8 3.7 8 6.4 10.2 12.5 19.2 26.4 30.5 37.8 16.6 16.9 34.6 32.4 58.9 37.9 22.6 5 52.2 3.3 60.9-23.1 1.4-4.6 4.7-5.6 9.3-2.5 15.8 10.8 30.6 9.1 45.4-3.5 3.2-2.8 8.8-3.4 13.5-4.1 4.7-.7 9.5.4 14.1-.6 17.2-4 32-12.5 43.5-26.1 4.9-5.9 9.4-7.4 16.4-2.7 7 4.7 15.1 5 23.6 2.7 15.1-4 27.1-12.5 37.2-23.8 4.7-5.2 9-7.3 15.2-2.6 6.2 4.7 13.4 5.4 20.9 3.4 33.1-9 58.4-27.9 76-57.7 15.1-25.6 23.3-53.7 31.6-81.8 2-6.4 4.7-12.9 8.7-17.9 7-8.7 15.4-16.1 23.4-24 1.1-1.1 3.6-1.6 5.2-1.2.9.3 1.9 2.7 1.9 4.1 0 2.2-.8 4.3-1.4 6.6-8.4 33.9-17.2 67.7-25.2 101.7-3.9 16.5 6.2 27.7 22.8 24 10.9-2.3 21.1-8.7 31.5-13.1 3.2-1.4 6.5-2.3 9.8-3.5.3 3.2 1.4 6.5.8 9.6-2.4 13.3-5.8 26.4-7.6 39.8-1.2 8.2-5.1 12.2-12.5 13.7-15.4 3.4-661.2 215-671.6 223.1-31.1 23.9-11.5 69.3-9.9 72.1 3.1-1.1 6.3-1.9 9.3-3.2.9-.4 1.6-1.6 2.1-2.6 11.3-19.1 642.8-266.3 663-274.1 3.4-1.3 7.3-1.1 11-1.5.2 3.7.9 7.4.4 11-1.3 7.4-.6 14.3 5.6 19.1 10.4 7.9 26.5 6.6 36-2.5 10.9-10.2 11.6-19.4 3.6-33.2-2.1-3.6-4-8.8-3.1-12.6 9.7-40.2 20-80.4 30-120.5 8.4-33.5 17-67.2 25.1-100.8 2.3-10-.9-14-10.5-14.9M559.8 726.8c-5 12.8-10 25.5-16 37.9-3 6-3.5 9.7 3 13 2.1 1 4.9 4.4 4.5 6-2.3 9.2-4.7 18.6-8.9 27-2 3.7-8.3 6.8-12.8 7.2-6.9.6-12.3-3.5-14.1-10.9-.5-2.2-1.4-4.3-2.6-8.1-6.1-15.5-1-32.4 2.9-48.9 2.5-10.3 6.7-20.2 11.5-29.8 2.1-4.4 6.5-8.4 10.9-11 5.9-3.4 12.6-4 18.4.7 5.7 4.5 5.5 10.9 3.2 16.9"/><path class="st0" d="M1060 343.8c-33.3 3.1-171.6 66.5-171.6 66.5-18.2 5.1-281.2 119.9-281.1 117.7 0-3.4.2-6.7 1-9.7 9.8-37.2 18.9-74.8 28.3-112.2 8.4-33.3 16.7-66.6 24.8-100 2.3-9.3-.1-12.6-9.1-14.1-15-2.8-39.3 10.3-44.8 24.5-.7 1.9 1.5 7 3 7.3 5.8 1.3 6.6 4.3 5.3 9.2-7.7 29.4-15.4 58.9-23.2 88.3-3 11.8-12.2 18.7-21.8 24.7-2.7 1.7-8.2 1-10.8-.8-2-1.3-2.6-6.5-1.9-9.6 3.7-17.3 8.3-34.5 12.4-51.8 4-17.2 8.3-34.5 11.3-51.9 1.9-10.8-6.6-18.3-17.2-15.2-7 2.2-14.2 5.6-19.9 10.3-7.7 6.4-13.8 14.7-21.1 21.6-2.3 2.2-6.2 2.8-9.3 4-.2-3-1.4-6.2-.7-8.9 4.7-21.2 9.8-42.2 14.6-63.3 3.5-15.5-10.3-19.8-20.3-16.2-19.9 7.2-32.8 22.3-43.4 39.7-.8 1.2 0 3.5.1 5.3 2.1-.3 4.6.1 6-1 2.6-1.9 4.3-5.4 6.9-7.3 2.4-1.8 5.5-2.6 8.4-3.8.3 2.9 1.5 6 .8 8.6-3.6 14.5-8.9 28.6-11.4 43.3-2.4 14.4-8.8 22.6-23.6 24.8-15.7 2.4-25.5 10.7-25.9 28-.1 6.4-14.9 18-21.4 17.8-1.7-.1-3.9-1-5.1-2.3-11-11.6-18.4-11.3-7.4-31.2.5-.9 1-2 1.4-3 2.5-7.3-1.2-11.9-8.8-10.2-5.5 1.3-11 3.1-16.1 5.2-18 7.3-21.3 21.7-9.7 37 2.9 3.8 4.9 10.3 3.6 14.5-2.1 7.1-7.2 13.1-11.1 19.7-1.3 2.2-2.7 4.4-4 6.4.9 1 1.8 1.7 2.7 2.5 2.3-2 5-3.7 6.7-6.2 3.5-5 6.1-10.8 9.9-15.7 1.4-1.7 6.7-3 7.5-2 3.7 4 6 9 1.9 14.5-2.6 3.6-5.7 6.9-8.2 10.7-8.9 13.4-18.3 26.5-26 40.5-3.7 6.6-3.6 15.2-6.1 22.7-2.9 9.1-15.1 16.3-21.7 13.9-6.3-2.4-8.5-10.8-5.7-21.7 4.6-18.5 9.3-37.1 13.7-55.8 3.8-16.7 7.7-33.4 10.5-50.3 1.6-9.8-7-16.9-16.6-14-6.1 1.7-12.3 4.6-17.1 8.7-9.2 7.8-17.6 16.6-26.1 25.1-4 4.1-7 5.5-9.7-1.4-4.2-11.1-8.8-13.2-20.1-9.8-14.6 4.2-24.2 14.9-33.5 26-3.2 3.9-6.1 8.2-8.3 12.7-1.1 2.2-.1 5.4.1 8.3 2.2-1.3 4.9-2 6.6-3.8 2.9-2.7 4.9-6.2 7.8-8.9 1.7-1.6 4-2.2 6.2-3.3.5 2.4 2 5.2 1.4 7.4-7.9 31.4-16.3 62.6-24.3 94-2.1 8.4-5.4 16.8-1.1 25.7 3 6.3 11.1 10.7 19.8 10 7.1-.5 8.9-5.4 10.4-11.4 7.8-30.6 15.5-61.1 23.8-91.6 2.4-8.7 5.4-17.9 10.3-25.6 6-9.4 14.1-17.4 21.6-25.9 1.6-1.8 4.5-2.3 6.9-3.4.6 2.5 2.3 5.2 1.8 7.4-4.4 18.3-9.3 36.6-13.9 54.8-4.7 18.5-9.4 37.2-13.7 55.8-2.6 10.7 2.1 17.5 13.1 19.3 4 .6 8.5.3 12.4-.6 17.5-4 32-13.2 44.3-26.6 3.2-3.4 6.6-9.2 12.6-4.9 18.6 13.6 50.7 1.4 62.4-18.2 13.3-22.2 17.7-44.8 6.9-69.2-2.6-5.7-2.8-11.6 3.4-14.8 7.4-3.7 15.4-6.8 23.4-8.5 8-1.6 9.5-2.3 7.2-10-.5-1.6-1.7-3.2-1.5-4.7.2-2.1.9-5.1 2.2-5.7 2.3-.9 5.5-.9 7.8.1 1.3.6 2.1 4 1.7 5.9-2.1 9-4.8 17.8-6.9 26.8-4.3 19.2-8.5 38.5-12.6 57.7-1.4 6.3 1.2 11.7 7.2 13.8 5.6 1.8 12.1 3.1 17.9 2.4 16.6-2 29.9-11.2 41.6-22.7 3.8-3.7 7.2-6.2 12.5-3.6 18.2 8.7 33.2.9 48-8.9 3-2 6.8-2.9 10.3-4.3.3 3.7 1.4 7.5.9 11.1-2.1 11.9-5.9 23.7-7 35.6-.9 10.9-22.5 37.7-23 40.2-3.5 16.2.5 24.5 16.5 27.4 11.9 2.2 19.9 5.1 27.1-4.3 5.7-7.4 11.2-16.1 10.8-24.8 1.8-4.8 314.6-102.9 318.8-104.4 60.8-21.4 142.1-50.7 161.1-47.8 6.3 1 32.7 4.5 32.7 4.5.8-17.6 5.6-68.2-56.5-62.6M371.4 509.1c-.3.1-.4.2-.7.4-7.8 2.7-16.5-5.1-12.8-12.9 5.6-11.6 13.8-21.7 21.3-32.2.6-.9 5.8-.2 6.7 1.2 6 9.4-4.2 39.2-14.5 43.5m153.1-85.3c-2.8 11.5-6.1 22.8-9 34.2-2.6 10.2-8.5 17.6-17.7 22-8.2 2.6-14.8-2.8-13.8-11.9.9-8 3.1-16 5.1-23.9 4-17 7.9-33.9 12.6-50.6 1-3.7 5.3-6.5 8.3-9.4 3.4-3.4 7.7-6.2 10.4-10.1 4.5-6.8 7.8-14.3 12.2-21.1 1.3-2 4.8-2.7 7.4-3.9.5 2.6 1.9 5.3 1.4 7.6-5.5 22.4-11.2 44.8-16.9 67.1"/><path class="st0" d="M980.6 325.9c-4.4 4.4-9.7 7.5-15.9 3.8-6.2-3.8-5.6-10-4.1-16 5.4-23.2 10.9-46.5 17.1-69.6.9-3.6 4.9-7.3 8.3-9.2 7.3-3.9 14-12.5 12.9-20.6-.4-3.5-3.1-7.9-6.1-9.6-4.9-2.8-5-5.3-3.8-10.2 5.4-21 10.2-42.1 15-63.2 3.7-16.5-10.8-20.5-21.6-16.2-19 7.6-31.7 22-42.1 38.9-.8 1.5.2 4 .4 6 2-.4 4.6-.4 6-1.5 2.8-2.3 4.7-5.7 7.4-8 2-1.5 4.8-2 7.2-3 .6 2.6 2.1 5.4 1.6 7.6-3 12.9-7.9 25.5-9.8 38.4-2.8 19.7-12.9 29.8-32.4 33.3-13.4 2.5-18 10.4-18.3 23.8-.3 8.1 4.1 10.6 11.3 7.1 5-2.4 10.1-5 15.5-6.3 5.9-1.4 8.5 1.8 7.1 7.8-4.3 17.5-8.5 35.1-12.9 52.4-1.5 5.7-2.1 12.3-5.5 16.6-7.6 9.9-16.6 18.3-25 27.4-4.3 4.8-9.5 5.9-15.2 3.1-5.9-2.9-6.4-8.3-5.2-13.8 4.2-18.5 8.7-36.8 13.1-55.1 4.3-18.3 8.9-36.6 13.1-55 2.1-10.1-2.4-16.1-12.2-17.4-13.7-1.9-34.4 10-39.6 22.7-1.6 3.9-1.6 8.3 3.4 8.1 9.6-.3 8.4 5.2 6.9 11-6.7 26.8-13.2 53.7-20.5 80.2-3.8 14.1-14.7 23-26.7 30.4-2.7 1.7-7.8 1.3-10.9-.3-1.8-.9-2.8-6.1-2.1-8.8 5.4-23 11.5-45.9 17-68.8 2.8-12.3 5.8-24.7 7-37.2 1-9.6-7.4-16.1-16.7-13.4-7.1 2.1-14.5 5.3-20.1 10.1-8.4 7.3-15.7 16.1-23 24.6-3.7 4.3-7.4 6-12.5 3.6-5.2-2.6-2.4-6.3-1.4-10.2 4.9-20.7 10.4-41.4 14.2-62.4 2.5-13.9-6.7-20.8-19.9-16.2-20.1 6.9-32.9 22.2-43.6 39.5-.8 1.3 0 3.6.1 5.4 2-.2 4.6.2 5.9-.8 3.1-2.5 5.2-6.1 8.2-8.6 1.9-1.5 4.8-1.8 7.2-2.7.5 2.6 1.9 5.4 1.4 7.7-4.6 18-10 35.8-14.2 53.9-1.8 7.3-5.7 11.2-12.8 12.5-2.5.5-4.9 1.5-7.3 2.2-3 .9-6 1.8-8.9 2.8-12 3.9-17.3 11.2-17.5 23.8-.2 8.1 4.1 10.8 11.3 7.2 4.4-2.1 8.5-4.5 13-5.9 2.6-.8 6.9-.7 8.5 1 1.4 1.5.9 5.6.3 8.4-6 27.2-12.2 54.4-18.3 81.5-1.3 6.4 1.2 11.7 7.2 13.7 5.7 1.9 12.1 3.3 17.9 2.5 18.1-2.5 32.5-12.5 44.4-25.7 4.5-5.1 8-7.3 15-3 5.2 3.1 12.4 4.7 18.5 4.1 17.5-1.8 31.8-10.9 43.1-24.2 3.7-4.5 7.2-5.7 12.3-2.7 8.5 5.4 17.3 5.1 26.7 2.2 19.3-5.9 34.6-17.3 46.7-33.2 2.9-4 6.5-7.8 10.6-2.3 7.8 10.2 17.7 11 28.8 8.1 25.5-6.6 42.9-23.9 56.5-45.4 1.3-2.1 1-5 1.4-7.5-2.5 1-5.7 1.4-7.4 3.2-5.6 5.6-10.5 11.8-16 17.4m-208.7-10.5c-5.6 20.9-10.6 42.1-16.7 62.8-3.7 12.6-12.2 22.1-23.1 28.3-6.9 2.3-13-.9-14.1-7.4-.5-2.9-.4-6.2.3-9.2 5.4-23.3 10.9-46.6 17-69.7.8-3.5 4.8-6.2 7.6-9.1 3.5-3.6 7.8-6.6 11-10.5 6.9-8.3 13.1-16.9 19.9-25.2 1-1.2 3.9-1 5.8-1.5.4 2.3 1.5 4.9 1 7.1-2.6 11.4-5.7 22.9-8.7 34.4m-237.3 795.9c-20-2.5-40.1-4.5-60-7.6-47.5-7.4-93.5-20.9-140.9-42.1 16.2-8.4 30.1-15.6 43.8-22.8 13.5-7 26.3-7.9 41.9-4 185.3 46.3 344.2-3.4 477.2-137.4 76.7-77.2 121.4-171.7 134.2-279.9 4.3-37.2 2.4-75.1 1.2-112.6-.9-27.4 23.2-59.6 50.5-62.8 7.2-.8 11.9.9 13.2 9.5 5.6 36.9 11.6 73.9 17.4 110.8.7 4.6 1.6 9.1 2.3 13.6v63.4c-.7 3.7-1.9 7.3-2.2 10.9-2.7 45.8-11.1 90.4-27.1 133.2-72.4 193.1-220.2 288.4-416.6 320.1-22.8 3.7-46 5.1-69 7.7h-65.9z"/><path class="st0" d="M587.9 12.7c25.4 3.3 51.1 5.7 76.3 10.2C751.7 39 830 74.9 901.4 132.5c-8.3 8.3-15.5 16.2-23.6 23.2-1.8 1.4-7.2.6-9.6-1.1-68-46.1-144.3-68.5-225-75.6-45.4-3.9-91.3-7.3-136.5-4.3-94.9 6.4-180.3 40.9-255.5 99.2-24.3 18.8-45.6 41.4-68.5 62-4.8 4.3-10.4 8.4-16.3 11.1-17.6 8-35.7 15.2-54.1 22.9-3-3.7-6.9-8.4-11.1-13.7 42.1-62.3 94.6-114.2 158-154.9 78.8-50.8 164.7-80 258.4-86.4 3.2-.3 6.4-1.4 9.6-2.2h60.7zM7 548c2.5-23.4 3.3-47.1 7.9-70 7.3-37 16.8-73.4 25-108.5 18.6 4.4 33.7 7.9 48.2 11.3-7.9 27.2-17.1 54.7-23.7 82.7-4.8 20.3-6.8 41.4-9 62.3-.9 8.3-3.2 11.1-11.8 12.6-9.2 1.4-17.8 6.7-26.6 10.3-3.4 1.5-6.7 3-10 4.5V548zm140.5 378C78.2 848.8 33.5 757.3 16 656.2c15.1-6.7 28.7-12.7 41.5-18.3 8.1 28.2 15 56.7 24.4 84.4 15.7 45.8 39.3 87.5 67.6 126.7 2.7 3.6 4.6 8.9 4.1 13.3-1.5 21.5-3.9 42.9-6.1 63.7m47-25.1c4.3 5.6 8.7 11.1 13.9 17.7-.9 1.3-2.9 4.2-6.9 9.8-3.8-9.9-6.7-17.6-9.5-25.3.8-.7 1.7-1.6 2.5-2.2"/></svg>