<?xml version="1.0" encoding="UTF-8" standalone="no"?>
<!-- Generator: Adobe Illustrator 14.0.0, SVG Export Plug-In . SVG Version: 6.00 Build 43363)  -->

<svg
   xmlns:dc="http://purl.org/dc/elements/1.1/"
   xmlns:cc="http://creativecommons.org/ns#"
   xmlns:rdf="http://www.w3.org/1999/02/22-rdf-syntax-ns#"
   xmlns:svg="http://www.w3.org/2000/svg"
   xmlns="http://www.w3.org/2000/svg"
   xmlns:sodipodi="http://sodipodi.sourceforge.net/DTD/sodipodi-0.dtd"
   xmlns:inkscape="http://www.inkscape.org/namespaces/inkscape"
   version="1.2"
   id="Layer_1"
   x="0px"
   y="0px"
   width="321.41458"
   height="139.50719"
   viewBox="0 0 321.41457 139.50718"
   xml:space="preserve"
   sodipodi:docname="logo-black.svg"
   inkscape:version="0.92.2 (5c3e80d, 2017-08-06)"><metadata
     id="metadata79"><rdf:RDF><cc:Work
         rdf:about=""><dc:format>image/svg+xml</dc:format><dc:type
           rdf:resource="http://purl.org/dc/dcmitype/StillImage" /><dc:title></dc:title></cc:Work></rdf:RDF></metadata><defs
     id="defs77" /><sodipodi:namedview
     pagecolor="#ffffff"
     bordercolor="#666666"
     borderopacity="1"
     objecttolerance="10"
     gridtolerance="10"
     guidetolerance="10"
     inkscape:pageopacity="0"
     inkscape:pageshadow="2"
     inkscape:window-width="997"
     inkscape:window-height="674"
     id="namedview75"
     showgrid="false"
     fit-margin-top="5"
     fit-margin-left="5"
     fit-margin-right="5"
     fit-margin-bottom="5"
     inkscape:zoom="1.5857387"
     inkscape:cx="165.48851"
     inkscape:cy="71.273516"
     inkscape:window-x="282"
     inkscape:window-y="138"
     inkscape:window-maximized="0"
     inkscape:current-layer="Layer_1" /><path
     d="m 240.84109,82.240188 c 0.012,-0.012 -0.012,-0.168 0,-0.17 0.81,-0.144 -0.799,1.084 0,0.17 z"
     id="path2"
     inkscape:connector-curvature="0"
     style="fill-rule:evenodd" /><g
     id="g16"
     transform="translate(-137.25491,-350.67581)"><path
       d="m 262.703,440.662 c -0.758,0.471 -1.042,1.408 -0.73,2.191 -0.621,-0.631 -0.891,0.469 -1.607,0.584 -0.917,-0.738 -1.801,-1.508 -3.357,-1.605 -1.149,-0.75 -2.086,-1.711 -3.213,-2.484 -0.99,-1.631 -2.33,-3.791 -3.212,-5.984 -0.311,-0.773 -0.4,-1.668 -0.729,-2.482 -0.326,-0.805 -0.881,-1.453 -1.022,-2.189 -0.065,-0.336 0.078,-0.699 0,-1.021 -0.412,-1.688 -1.123,-3.389 -1.459,-5.258 -0.092,-0.5 -0.047,-1.031 -0.148,-1.605 -0.926,-5.287 -1.503,-11.713 -2.19,-17.957 -0.659,-6.004 -1.471,-12.359 -1.751,-18.396 -0.386,-8.292 0.6,-16.338 0,-23.068 -0.574,-0.548 -1.895,-1.122 -1.751,-1.899 -0.077,-0.708 0.789,-0.476 1.168,-0.73 0.238,-0.248 0.241,-0.732 0.583,-0.875 0.765,0.098 0.549,0.307 1.314,0.292 0.195,-0.279 -0.042,-0.522 0.438,-0.729 1.173,0.145 2.312,0.016 3.651,0.438 0.123,0.039 0.532,0.257 0.73,0.292 0.358,0.065 0.824,-0.116 1.167,0 1.226,0.415 1.813,1.631 2.774,2.19 -0.219,0.588 0.864,1.249 0.292,2.19 0.15,0.336 0.502,0.471 0.438,1.022 0.229,0.111 0.22,0.462 0.585,0.438 0.701,1.751 1.715,3.871 2.336,6.277 0.277,1.081 0.566,2.336 0.875,3.504 0.46,1.732 1.131,3.393 0.292,4.817 0.429,3.069 0.305,6.823 0.438,10.513 0.071,1.961 0.204,3.229 0.292,5.694 2.17,-0.13 4.018,-0.949 5.986,-1.606 1.835,-0.612 3.679,-1.701 5.548,-2.19 0.443,-0.116 0.993,-0.02 1.46,-0.146 1.241,-0.336 2.489,-1.06 3.941,-1.021 -0.983,-7.004 -0.5,-16.299 -0.145,-23.944 0.074,-1.613 0.133,-3.295 0,-4.672 -0.311,-0.518 -1.176,-0.479 -1.169,-1.314 -0.041,-0.467 0.64,-0.53 0.876,-0.292 0.463,-0.169 0.36,-0.905 0.875,-1.022 0.695,-0.16 0.539,0.532 1.169,0.438 0.611,0.174 0.26,-0.615 0.583,-0.73 1.805,-0.009 2.944,0.043 3.942,0.73 0.732,0.504 1.261,1.158 2.189,1.314 -0.059,0.74 0.347,1.016 0.585,1.46 -0.317,1.164 -0.377,1.931 0.583,2.628 -0.45,1.656 0.587,3.151 0.876,4.672 0.14,0.736 0.029,1.568 0.146,2.336 0.257,1.688 0.933,3.293 1.022,4.818 0.019,0.337 -0.144,0.666 -0.146,1.021 -0.004,1.417 0.498,3.014 0.73,4.525 0.267,1.748 0.348,3.199 0.73,4.673 0.218,0.841 0.369,1.606 0.583,2.336 0.267,0.913 0.646,1.907 1.022,3.358 0.222,0.857 0.377,1.785 0.584,2.628 0.076,0.311 0.348,0.44 0.438,0.729 0.078,0.244 -0.053,0.652 0,0.877 0.2,0.856 0.257,1.257 0.438,2.48 0.167,1.118 0.695,2.154 0.877,3.213 0.34,1.98 0.363,4.034 0.583,6.132 0.13,1.229 0.193,2.702 0.439,3.941 0.088,0.452 0.389,0.888 0.438,1.314 0.162,1.407 -0.6,2.837 0,4.234 -0.108,0.428 -0.443,0.628 -0.73,0.876 0.529,1.397 0.097,1.861 0,3.503 -0.056,0.543 0.703,0.27 0.73,0.73 0.072,2.637 -0.413,4.564 0.292,7.008 -0.025,0.412 -0.267,0.607 -0.292,1.021 0.825,2.182 0.478,5.732 3.066,5.84 0.521,0.125 0.017,0.361 0.146,0.877 0.117,0.418 0.98,0.092 0.875,0.729 -0.41,0.467 -1.049,0.705 -2.043,0.584 -0.515,0.412 -1.001,0.85 -1.314,1.461 0.457,0.523 0.921,0.008 1.459,-0.145 -0.061,0.691 -10e-4,1.266 0.292,1.605 -1.501,0.467 -1.966,-0.197 -3.65,-1.023 -0.74,-0.363 -1.7,-0.551 -2.335,-0.877 -0.245,-0.123 -0.338,-0.438 -0.584,-0.584 -0.3,-0.176 -0.689,-0.158 -0.875,-0.291 -0.643,-0.453 -1.025,-1.219 -1.752,-1.314 -1.631,-2.32 -3.431,-4.508 -4.526,-7.445 -1.5,-4.021 -2.198,-8.703 -3.066,-13.431 -1.182,-6.441 -2.12,-13.082 -3.212,-19.127 -1.132,-0.021 -2.07,0.767 -3.212,1.168 -0.461,0.162 -0.958,0.262 -1.459,0.438 -3.512,1.229 -7.957,2.368 -12.411,2.919 -0.311,2.59 0.646,4.673 0.438,6.863 -0.03,0.32 -0.359,0.359 -0.438,0.73 -0.067,0.317 0.207,0.618 0.146,0.875 -0.246,1.052 -0.783,2.018 0.146,3.066 -0.116,1.945 -0.4,3.045 -0.292,4.965 0.018,0.566 0.717,0.451 0.73,1.021 0.05,0.714 -0.473,1.018 -0.438,1.313 0.692,1.14 0.018,2.355 0.292,3.65 0.017,0.08 -0.065,0.225 0,0.438 0.094,0.307 0.386,0.525 0.438,0.877 0.087,0.582 -0.095,1.256 0,1.898 0.191,1.275 0.626,2.52 0.73,3.65 0.087,0.934 -0.15,1.82 0,2.629 0.107,0.574 0.337,1.346 0.585,2.043 0.257,0.725 0.349,1.537 0.146,2.336 -0.279,0.102 0.158,0.229 0.144,0 0.124,0.544 0.025,1.581 0.587,2.044 z"
       id="path4"
       inkscape:connector-curvature="0"
       style="fill-rule:evenodd" /><path
       d="m 440.732,369.543 c -0.188,-0.402 -0.525,0.031 -1.078,0.064 -0.674,0.039 -2.406,-0.343 -2.943,0.672 1.145,0.386 2.336,0.686 2.846,2.082 -1.199,1.168 -3.34,0.498 -4.926,0.762 -2.238,0.377 -3.141,1.912 -5.049,2.613 -0.836,0.906 -1.586,1.869 -2.678,2.615 -0.037,0.521 -0.398,0.839 -0.203,1.505 -3.236,3.008 -4.537,7.229 -7.02,10.712 -0.361,1.205 -0.607,2.483 -1.402,3.416 -0.234,3.231 -0.756,7.569 1.414,10.97 2.305,-2.507 3.391,-5.779 4.49,-9.042 1.502,-0.341 1.611,-1.557 1.309,-3.031 0.777,-0.685 1.566,-1.268 1.816,-2.418 0.111,-0.528 -0.133,-1.469 0.043,-2.197 0.148,-0.623 0.934,-1.356 1.16,-2.086 0.105,-0.334 -0.158,-0.836 -0.064,-1.078 0.152,-0.39 0.752,-0.592 0.881,-0.93 0.174,-0.463 0.275,-1.23 0.469,-1.929 0.494,-1.785 0.225,-3.167 0.449,-5.202 1.066,-0.732 2,-0.692 2.705,-1.711 1.811,0.771 5.193,-0.094 6.961,-1.412 1.66,-0.047 3.174,0.139 4.377,0.821 0.145,0.733 -0.482,0.982 -0.336,1.716 0.984,2.886 2.291,5.838 3.004,9.146 1.063,4.939 1.158,6.038 1.602,7.529 0.861,2.895 -0.191,2.783 0.646,5.524 0.281,0.918 0.795,1.624 1.113,2.477 0.754,2.021 1.195,4.085 1.906,5.938 0.432,1.125 1.471,1.913 1.445,3.13 -1.27,-0.657 -1.611,-2.021 -2.816,-3.546 0.859,2.194 0.172,4.256 1.504,6.576 -0.445,-0.016 -0.459,0.974 -0.146,0.945 -0.65,0.579 -1.154,1.252 -2.186,1.592 -2.15,-2.478 -3.959,-5.497 -6.039,-8.088 -1.104,-2.021 -1.934,-4.477 -3.369,-5.968 -1.217,-3.575 -2.748,-7.233 -3.467,-10.406 -1.361,2.701 -1.953,5.888 -3.527,8.456 0.184,0.625 0.389,0.61 0.277,1.214 -0.529,0.964 -1.016,2.164 -1.617,3.282 -0.521,0.971 -0.762,2.321 -1.574,3.456 -0.549,0.765 -0.898,0.841 -1.629,1.647 -0.215,0.238 -0.15,0.621 -0.361,0.811 -1.342,1.222 -3.361,2.379 -5.314,3.037 -1.83,0.618 -3.801,0.956 -5.006,0.419 -0.422,-0.189 -0.783,-0.838 -1.393,-1.321 -0.957,-0.762 -1.631,-1.012 -2.365,-2.374 -0.438,-0.01 -0.846,-0.068 -1.422,0.144 -3.014,-1.595 -5.898,-5.058 -5.375,-9.151 -1.254,-2.691 -0.879,-5.545 -0.529,-7.891 0.176,-1.176 0.539,-2.005 0.924,-3.126 0.701,-2.045 1.066,-3.828 1.926,-5.904 0.215,-0.514 0.486,-1.104 0.725,-1.623 0.256,-0.567 0.492,-1.208 0.719,-1.622 0.813,-1.47 2.307,-2.411 2.672,-4.253 0.32,-0.436 0.201,0 0.557,0.054 0.416,-1.073 0.883,-2.114 1.059,-3.337 1.67,-1.619 2.691,-3.648 4.029,-5.475 0.273,-0.459 0.564,-0.107 0.904,-0.025 0.721,-1.276 1.955,-2.232 2.867,-3.388 1.77,0.595 3.299,0.763 5.533,1.101 0.463,-0.106 0.924,-0.211 1.385,-0.317 2.17,1.896 6.141,0.924 8.033,3.262 1.006,-0.702 2.206,-0.04 2.084,1.163 z"
       id="path6"
       inkscape:connector-curvature="0"
       style="fill-rule:evenodd" /><path
       d="m 165.175,444.166 c -0.524,0.209 -0.9,0.563 -1.459,0.73 0.186,0.666 -0.513,1.361 0.146,1.605 -0.65,0.346 -2.03,0.012 -2.045,1.316 -0.386,0.17 -0.858,-0.281 -0.875,0 -0.899,-0.902 -2.198,-1.404 -2.919,-2.482 -1.5,-0.645 -2.314,-1.363 -4.234,-1.752 -0.218,-0.738 -1.535,-1.051 -1.314,-1.752 -0.973,-0.041 -1.245,-0.859 -1.605,-1.9 -0.126,-0.359 -0.424,-0.645 -0.438,-0.729 -0.019,-0.117 0.22,-0.33 0.146,-0.584 -0.335,-1.166 -1.063,-2.211 -1.459,-3.066 0.549,-0.963 -0.905,-1.955 -0.438,-2.336 -0.826,-0.543 -0.642,-2.133 -0.584,-3.65 -0.143,0.006 -0.114,0.18 -0.147,0.293 -0.695,-0.756 -0.203,-1.771 -0.583,-2.336 -0.028,-0.043 -0.445,-0.168 -0.439,-0.146 -0.048,-0.164 0.296,-0.1 0.292,-0.145 -0.022,-0.313 -0.263,-0.18 -0.292,-0.293 -0.133,-0.541 0.279,-1.393 0,-2.191 -0.197,-0.063 -0.374,-0.082 -0.73,-0.291 -0.309,-1.576 0.14,-2.679 -0.73,-4.088 0.442,-0.297 -0.023,-0.597 0.292,-1.021 -0.075,-0.058 -0.215,-0.711 -0.292,-0.293 -0.293,-0.505 0.149,-1.487 -0.438,-2.045 0.162,-0.557 -0.053,-1.324 0,-1.896 0.017,-0.184 0.291,-0.336 0.292,-0.293 -0.007,-0.191 -0.271,-0.231 -0.292,-0.438 -0.022,-0.215 0.19,-0.289 0.146,-0.438 -0.1,-0.341 -0.509,-0.702 -0.583,-1.313 -0.102,-0.83 -0.198,-1.543 -0.146,-2.336 -0.488,-0.252 0.055,-0.628 -0.583,-0.73 -0.136,-1.29 0.313,-2.535 0.146,-3.796 -0.039,-0.292 -0.254,-0.571 -0.292,-0.876 -0.274,-2.25 0.011,-4.387 -0.146,-6.424 -0.025,-0.318 -0.235,-0.273 -0.292,-0.438 -0.062,-0.178 0.182,-0.512 0.146,-0.73 -0.047,-0.291 -0.265,-0.529 -0.292,-0.875 -0.092,-1.178 -0.025,-2.805 0,-3.797 0.006,-0.198 0.288,-0.334 0.292,-0.292 -0.016,-0.179 -0.919,-0.709 -0.292,-1.314 -0.217,-0.079 -0.227,-0.089 -0.438,-0.438 0.062,-0.279 0.053,-0.628 0.438,-0.585 -0.377,-1.164 -0.566,-3.078 -0.146,-4.379 -0.475,-0.129 -0.114,-0.762 -0.291,-1.314 -0.256,-0.795 -0.062,-1.861 0,-3.212 0.035,-0.811 -0.486,-1.854 0.146,-2.19 -0.206,-0.506 -0.614,-1.418 -0.146,-1.752 -0.551,-1.852 0.356,-3.663 0.146,-5.84 -0.021,-0.222 -0.291,-0.395 -0.292,-0.438 -0.041,-1.514 0.356,-3.041 0.292,-4.672 -0.049,-1.252 -0.479,-2.432 0,-3.65 -0.036,-0.159 -0.291,-0.1 -0.292,-0.292 0.701,-1.761 -0.37,-2.893 -0.292,-4.817 1.279,-1.059 4.5,-0.171 5.257,-1.753 2.417,-0.194 3.353,1.413 4.963,1.753 0.495,0.528 0.497,1.546 1.022,2.043 -0.182,1.522 -0.481,4.103 0.439,5.403 0.259,1.043 0.019,2.023 0.145,3.065 0.054,0.437 0.4,0.884 0.438,1.315 0.049,0.549 -0.169,1.113 -0.146,1.605 0.047,0.949 0.373,2.268 0.585,3.357 0.035,0.18 -0.15,0.268 -0.148,0.292 0.021,0.14 0.287,0.099 0.293,0.146 0.02,0.14 -0.295,0.13 -0.293,0.146 0.188,1.326 0.918,2.813 0.148,4.234 1.198,2.648 0.681,5.253 1.46,8.03 -0.083,0.354 -0.126,0.751 -0.584,0.729 0.116,0.322 0.293,0.583 0.73,0.584 -0.289,1.743 0.488,3.292 0.584,4.964 0.235,-0.041 0.252,0.138 0.438,0.146 0.235,0.042 0.251,-0.139 0.438,-0.146 0.425,-0.938 1.146,-1.579 1.459,-2.627 1.116,-0.554 1.51,-2.395 2.191,-2.921 0.243,-0.29 -0.015,-0.186 0,-0.584 0.479,-0.498 1.078,-0.861 0.875,-1.314 0.537,0.051 0.441,-0.531 0.584,-0.875 1.681,-1.727 2.032,-3.893 3.941,-5.402 0.235,-0.734 0.081,-1.055 0.875,-1.314 -0.221,-0.527 0.397,-0.916 0.876,-1.168 0.124,-0.67 0.773,-1.842 1.023,-2.043 0.25,-0.205 0.095,-0.038 0.438,-0.585 0.285,-0.456 1.106,-0.559 1.022,-1.46 1.104,-0.792 1.615,-2.182 2.774,-2.92 -0.122,-0.412 0.206,-0.378 0.146,-0.73 1.206,-1.031 2.219,-2.259 3.065,-3.649 0.279,-0.063 0.367,-0.314 0.73,-0.292 0.526,-1.189 1.77,-1.847 2.629,-2.629 0.267,-0.242 0.418,-0.679 0.73,-0.875 1.939,-1.229 4.704,-0.462 7.446,-0.73 1.529,-0.149 2.914,-0.795 4.234,-0.875 0.214,0.184 1.013,0.627 1.167,1.313 -0.197,0.582 -0.996,0.562 -1.315,1.022 0.515,0.462 2.398,0.326 2.629,0.584 0.234,0.026 -0.237,0.695 0.438,0.583 -0.636,0.484 -1.393,0.847 -1.752,1.607 0.194,0.341 0.652,0.418 1.022,0.583 0.084,1.15 0.677,2.141 0.146,3.213 -0.19,0.383 -1.025,0.807 -1.461,1.459 -0.032,0.049 0.22,0.231 0.147,0.293 -1.461,1.211 -2.18,3.904 -4.381,4.525 0.295,1.646 -1.478,2.387 -1.752,3.942 -1.344,0.991 -1.818,2.854 -3.211,3.796 -0.471,2.303 -2.681,2.867 -3.067,5.256 -0.194,0.146 -0.44,0.24 -0.583,0.438 0.228,0.502 0.579,0.881 0.875,1.314 1.847,0.52 2.655,2.753 4.235,3.795 0.188,0.125 0.649,0.189 0.875,0.439 0.277,0.308 0.358,0.793 0.584,1.168 3.859,2.924 6.085,7.335 9.489,10.365 -0.12,0.413 0.207,0.379 0.146,0.73 0.692,0.588 0.586,1.137 1.605,1.46 -0.404,0.277 0.176,0.243 0.292,0.438 0.045,0.074 -0.211,0.184 -0.146,0.291 0.222,0.362 0.87,0.618 0.878,1.314 0.695,0.326 1.114,0.93 1.752,1.314 0,0.146 0,0.292 0,0.438 1.013,0.883 1.766,2.028 2.773,2.92 -0.192,0.524 0.01,0.535 -0.146,1.022 0.375,0.208 0.696,0.472 1.313,0.438 0.002,0.259 0.38,0.864 0.438,0.583 0.09,0.381 0.382,1.248 0.44,1.754 0.36,0.563 1.223,0.625 1.604,1.167 -0.516,0.479 -0.053,1.715 0.293,1.606 0.328,0.408 -0.465,0.958 0.146,1.458 -0.014,0.377 -0.571,0.211 -0.585,0.584 0.115,1.33 1.188,2.035 1.169,3.068 0.61,0.615 1.798,1.066 1.313,2.334 -0.707,0.357 -1.061,-0.285 -1.751,0 -0.288,0.916 1.293,1.373 0.583,1.752 0.557,0.57 0.842,0.516 1.022,1.461 -0.195,0.146 -0.44,0.24 -0.584,0.439 -3.001,-0.406 -5.791,-1.023 -7.592,-2.629 -3.037,-0.664 -4.401,-2.998 -6.57,-4.527 -0.005,-0.982 -1.018,-1.332 -1.607,-2.043 -0.191,-0.232 0.096,-0.283 0,-0.439 -0.052,-0.088 -0.45,-0.275 -0.583,-0.438 -1.608,-1.95 -4.016,-5.208 -5.548,-6.569 -0.548,-0.487 -1.146,-1.667 -1.897,-2.482 -0.097,-0.104 -0.211,-0.175 -0.438,-0.146 0.117,-0.528 -0.249,-0.604 -0.73,-1.168 -0.297,-0.347 -1.139,-1.231 -1.461,-1.751 -0.19,-0.308 -0.107,-0.941 -0.584,-1.314 -0.185,-0.145 -0.539,-0.105 -0.729,-0.293 0.018,0.018 -0.056,-0.35 -0.146,-0.438 -0.622,-0.609 -1.166,-1.818 -1.897,-2.336 -0.305,-0.813 -1.313,-2.059 -2.189,-2.773 0.242,-0.459 -0.544,-0.598 -0.146,-0.73 -1.019,-0.636 -1.395,-1.915 -2.337,-2.628 -0.195,0 -0.389,0 -0.584,0 -0.75,0.952 -1.227,2.179 -2.19,2.921 -0.3,1.256 -1.036,2.077 -1.897,2.772 -0.166,1.372 -1.004,1.966 -1.607,3.067 -0.108,0.199 -0.369,0.442 -0.438,0.583 -0.183,0.376 0.01,0.892 -0.584,1.022 -0.147,0.842 -0.452,1.764 -0.875,2.482 -0.12,0.203 -0.468,0.232 -0.584,0.438 -0.234,0.416 -0.343,1.004 -0.583,1.314 -0.208,0.268 -0.633,0.314 -0.876,0.584 -0.325,0.362 -0.432,0.959 -0.73,1.313 -0.468,0.557 -1.135,0.86 -1.605,1.314 -0.118,0.112 -0.068,0.361 0,0.291 -0.526,0.538 -0.81,0.604 -1.168,1.022 0.207,0.433 0.028,1.115 0.146,1.46 0.117,0.35 0.375,0.276 0.436,0.583 0.097,0.485 -0.085,0.955 0,1.46 0.023,0.127 0.426,0.639 0.439,1.168 0.008,0.332 -0.198,0.596 -0.146,1.021 0.162,0.422 0.27,0.898 0.73,1.023 0.267,1.406 0.291,2.516 1.022,3.65 -0.543,0.006 0.647,2.184 0.146,3.064 0.024,0.172 0.266,0.123 0.438,0.148 -0.021,0.551 -0.256,3.424 0.146,3.502 0.166,0.027 0.081,0.146 0,0.146 -0.104,1.771 0.526,3.002 -0.584,3.795 -0.109,1.27 0.604,2.375 0.292,3.506 0.086,0.305 0.732,0.047 0.579,0.59 z"
       id="path8"
       inkscape:connector-curvature="0"
       style="fill-rule:evenodd" /><path
       d="m 325.191,364.503 c 0.204,0.965 -0.003,1.758 0,2.226 0.043,0.336 0.141,0.634 0.291,0.858 0.367,0.546 1.021,0.729 1.46,1.198 0.325,0.35 0.609,1.076 1.022,1.713 0.546,0.848 0.953,1.389 1.459,2.4 0.466,0.926 1.188,2.574 1.315,4.109 0.28,0.357 0.46,0.832 0.729,1.201 0.266,2.68 0.433,5.092 1.021,7.023 -0.285,2.268 -0.468,3.998 0.584,5.483 -0.061,1.781 -0.086,2.819 0.146,4.112 0.037,0.613 -0.438,0.627 -0.438,1.198 -0.18,0.781 0.512,0.541 0.584,1.028 -0.628,1.862 0.221,3.66 -0.584,5.139 0.268,0.427 0.469,0.934 0.729,1.371 -0.333,1.916 -0.853,4.514 -0.438,6.512 0.045,0.215 0.284,0.36 0.438,0.685 0.434,0.914 0.296,2.082 1.167,2.228 0.122,0.484 -0.204,0.443 -0.145,0.856 0.215,0.432 0.563,0.708 1.021,0.856 -0.437,0.736 -1.344,0.428 -2.189,0.343 0.006,0.736 0.189,1.262 0.438,1.713 -0.143,0.568 -0.289,-0.19 -0.438,-0.171 -0.814,0.012 -0.661,1.089 -0.73,1.543 -1.406,-0.979 -2.373,-2.471 -3.358,-3.941 -2.866,-2.834 -4.405,-7.8 -5.257,-13.192 -0.637,-4.046 -0.496,-8.985 -1.313,-12.679 -1.418,0.91 -1.051,2.988 -1.607,4.627 -0.176,0.519 -0.66,0.822 -0.875,1.369 -0.361,0.92 -0.348,1.797 -0.438,2.742 -0.877,1.369 -1.396,3.158 -2.336,4.454 -0.578,2.938 -3.857,5.832 -6.133,7.368 -0.247,0.166 -0.369,0.549 -0.584,0.685 -0.151,0.097 -0.43,-0.091 -0.584,0 -1.127,0.661 -4.099,1.242 -4.672,-0.856 -2.472,0.721 -3.852,-1.297 -4.674,-3.084 -5.364,-0.805 -5.264,-11.799 -3.94,-16.791 0.18,-0.554 -0.473,-0.13 -0.292,-0.686 0.891,-3.66 2.697,-8.664 4.381,-12.506 0.371,-0.852 0.575,-1.666 1.021,-2.398 0.389,-0.639 1.108,-1.002 1.021,-1.885 0.372,-0.101 0.337,-1.125 0.73,-0.686 -0.016,-0.427 -0.273,-0.53 0,-0.856 0.641,-0.799 1.189,-0.651 1.314,-2.057 0.629,-0.294 1.621,-1.062 1.461,-1.713 1.95,-1.234 3.223,-3.525 5.109,-5.14 1.148,-0.983 2.33,-1.917 4.086,-2.74 0.462,-0.217 2.113,-1.182 3.213,-1.201 1.377,-0.022 2.743,0.922 4.088,1.542 1.081,0.498 2.152,0.687 2.774,1.713 0.118,0.593 -0.272,0.723 0,1.027 0.157,0.501 1.011,0.185 1.168,0.685 -0.284,1.206 -0.823,2.116 -1.745,2.575 z m -11.535,11.822 c -0.846,1.177 -1.487,2.595 -2.481,3.598 -0.575,1.545 -1.962,2.711 -2.45,4.344 -0.523,1.747 -1.103,4.02 -1.625,5.785 -1.035,3.498 -1.813,7.09 -0.688,8.465 0.717,0.17 2.276,-0.379 2.684,-1.067 1.158,-1.956 2.129,-2.655 3.004,-5.308 1.643,-4.98 4.217,-14.012 3.732,-18.875 -0.032,-0.134 -1.713,2.688 -1.885,2.716 -10e-4,0.225 -0.256,0.155 -0.291,0.342 z m 18.981,40.261 c 0.318,-0.024 0.313,-0.432 0.293,-0.857 -0.244,0 -0.488,0 -0.73,0 0.015,0.438 0.027,0.883 0.437,0.857 z"
       id="path10"
       inkscape:connector-curvature="0"
       style="fill-rule:evenodd" /><path
       d="m 410.297,357.05 c 0.289,0.591 -0.703,1.151 -1.012,1.687 -0.098,0.548 0.115,0.785 0.17,1.18 -1.197,1.561 -1.871,3.422 -2.699,5.226 -2.012,4.394 -3.082,9.821 -3.709,15.005 -0.139,1.141 -0.15,2.369 -0.336,3.541 -0.086,0.528 -0.416,1.027 -0.506,1.517 -0.164,0.874 0.066,1.783 0,2.697 -0.064,0.864 -0.428,1.706 -0.506,2.529 -0.051,0.526 0.189,1.118 0.168,1.685 -0.029,0.741 -0.479,1.475 -0.506,2.193 -0.016,0.396 0.32,0.775 0.338,1.18 0.021,0.521 -0.295,1.174 -0.338,1.854 -0.16,2.466 -0.141,4.134 -0.168,6.575 -0.035,3.172 -0.641,6.559 -0.842,9.777 -0.133,2.078 -0.074,4.096 -0.338,6.07 -0.186,1.379 -0.469,2.341 -0.676,4.382 -0.5,4.969 -2.146,8.986 -5.73,11.127 -1.057,-0.248 -1.984,0.563 -3.035,0.506 -1.502,-0.082 -2.641,-1.652 -3.879,-2.359 -0.955,-0.549 -2.4,-0.656 -3.201,-1.182 -0.283,-0.186 -0.648,-0.648 -1.012,-1.012 -0.131,-0.129 -0.137,-0.535 -0.34,-0.674 -0.221,-0.154 -0.508,0.023 -0.672,-0.168 -0.523,-0.611 -0.623,-1.432 -1.18,-1.854 -0.178,-0.135 -1.236,-0.23 -1.52,-0.676 -0.648,1.355 -0.275,2.811 -0.674,4.047 -0.43,1.328 -1.607,2.346 -1.518,3.877 -1.186,0.836 -1.879,2.168 -2.863,3.203 -2.053,1.129 -4.541,1.898 -7.25,1.518 -1.518,-0.215 -3.01,-0.84 -4.214,-1.518 -1.959,0.332 -2.433,-1.545 -4.049,-1.012 -0.585,-0.875 -1.59,-1.332 -2.695,-1.686 -0.117,-0.896 -1.106,-0.918 -1.181,-1.855 -0.512,-0.219 -0.973,-0.488 -1.518,-0.674 -0.493,-1.98 -2.229,-2.717 -2.697,-4.721 -0.775,-0.291 -0.707,-1.428 -1.518,-1.686 0.153,-1.16 -0.75,-1.541 -0.674,-3.035 -1.16,-0.986 -1.277,-2.37 -1.855,-4.382 -0.513,-1.784 -1.552,-4.389 -1.348,-6.744 -1.291,-1.877 -1.037,-4.877 -1.35,-7.586 -0.07,-0.613 -0.399,-1.209 -0.505,-1.854 -0.244,-1.483 -0.166,-3.174 -0.339,-4.721 -0.182,-1.644 -0.595,-3.116 -0.842,-4.72 -0.086,-0.557 0.072,-1.268 0,-1.854 -0.182,-1.486 -0.658,-3.713 -0.676,-5.563 -0.059,-6.57 0.277,-13.05 0,-20.063 -0.045,-1.139 0.096,-2.296 0,-3.372 -0.085,-0.993 -0.652,-1.948 -0.167,-2.865 2.533,-1.042 4.357,0.667 6.407,0.506 1.98,0.897 3.234,2.561 4.381,4.721 0.408,0.765 0.93,1.577 1.012,2.022 0.184,0.979 -0.073,2.176 0,3.203 0.352,4.898 2.127,10.081 1.855,14.161 0.151,0.19 0.407,-0.04 0.506,0.506 -0.309,4.356 1.596,7.71 0.842,10.789 1.333,2.397 0.729,5.08 1.182,7.419 0.186,0.967 0.844,1.855 1.012,2.865 0.072,0.437 -0.205,0.875 -0.168,1.35 0.061,0.813 0.566,1.704 0.673,2.528 0.196,1.497 -0.172,3.095 0.169,4.384 0.184,0.705 0.781,1.229 1.18,1.854 0.287,2.354 1.045,4.237 2.023,5.902 0.316,0.32 -0.1,0.305 0,0.842 0.786,1.35 2.045,2.225 2.528,3.877 1.058,0.967 1.894,2.154 3.54,2.529 0.619,-8.119 0.064,-23.203 -0.168,-30.871 0.186,-0.545 0.455,-1.006 0.674,-1.518 -0.83,-2.984 1.201,-3.471 2.529,-4.889 3.773,0.09 5.615,-2.16 8.936,-2.022 0.043,2.754 1.361,5.239 2.023,7.923 0.332,1.352 0.617,8.591 1.01,9.966 0.348,1.212 0.92,2.477 1.182,3.709 0.184,0.872 0.08,1.828 0.336,2.698 0.209,0.711 0.789,1.33 1.014,2.022 0.148,0.468 0.055,1.04 0.168,1.517 0.365,1.568 1.232,3.311 1.854,4.552 0.234,0.467 0.336,1.078 0.844,1.35 0.682,-0.957 -1.23,-2.148 -1.145,-3.204 0.141,-1.691 0.645,-3.364 0.676,-5.058 0.033,-1.933 -0.094,-3.843 0,-5.732 0.098,-1.947 -0.25,-3.76 -0.17,-5.563 0.049,-1.09 0.594,-2.244 0.676,-3.373 0.148,-2.067 -0.768,-4.256 0.674,-6.068 -0.809,-2.178 0.314,-5.396 -0.17,-7.587 0.521,-0.744 0.717,-1.392 0.846,-2.697 0.059,-0.61 -0.084,-1.143 0,-1.687 0.164,-1.082 0.756,-2.049 0.842,-3.539 0.098,-1.725 0.285,-3.646 0.842,-5.733 0.285,-1.065 0.566,-2.143 1.012,-3.202 0.326,-0.771 0.928,-2.259 1.18,-3.371 0.256,-1.13 0.133,-2.281 0.508,-3.036 0.285,-0.575 0.891,-0.936 1.348,-1.348 0.051,-0.791 0.51,-1.176 0.506,-2.023 1.178,-1.412 2.639,-2.843 3.541,-4.046 0.527,-0.188 1.926,-0.079 2.322,0.168 0.684,-1.282 2.482,-0.668 3.539,-0.168 1.91,-0.322 3.01,-0.453 4.891,-0.168 z"
       id="path12"
       inkscape:connector-curvature="0"
       style="fill-rule:evenodd" /><path
       d="m 227.581,368.059 c -0.232,0.314 -0.36,0.074 -0.721,0.115 0.338,1.408 1.481,1.707 2.552,2.108 -0.011,0.647 0.567,1.063 0.251,1.585 0.169,0.412 0.866,0.099 0.979,0.585 0.17,1.187 -0.304,1.905 -0.598,2.755 0.188,2.333 1.939,5.303 2.122,7.794 0.091,0.167 0.231,0.267 0.479,0.22 -0.286,0.977 0.71,2.398 0.837,3.416 -0.028,0.332 0.278,1.945 0.326,2.171 0.461,1.559 0.685,2.663 1.236,6.084 0.288,1.785 1.595,5.161 2.014,6.333 0.539,1.498 0.315,3.532 1.863,4.138 0.221,0.629 -0.312,0.709 -0.417,1.102 0.887,0.984 0.796,1.832 0.457,2.885 -1.757,-0.156 -3.05,-0.953 -4.645,-1.334 -0.762,-1.117 -2.06,-1.498 -3.394,-1.826 -0.41,-0.725 -1.109,-1.051 -1.839,-1.334 -1.572,-1.533 -2.263,-3.203 -3.609,-5.047 -0.01,-0.465 -1.813,-4.925 -2.013,-5.521 -0.862,0.526 -1.044,1.576 -1.531,2.459 -0.849,1.531 -2.078,3.307 -3.398,4.678 -1.005,1.043 -1.964,2.059 -3.55,2.781 -0.146,0.066 -0.518,0.023 -0.721,0.115 -1.124,0.494 -3.179,0.854 -4.925,0.631 -0.074,-0.008 -0.385,-0.105 -0.767,-0.174 -1.147,-0.203 -3.178,-0.686 -4.48,-1.213 -1.326,-0.535 -2.765,-1.363 -3.553,-2.836 -0.14,0.027 -0.085,0.195 -0.098,0.313 -0.375,-0.07 -0.285,-0.779 -0.835,-0.607 -0.474,-0.928 -1.096,-1.654 -1.954,-2.055 -0.321,-0.818 -0.896,-1.381 -1.276,-2.459 -0.603,-1.711 -0.976,-4.092 -0.931,-6.8 0.035,-2.081 0.846,-3.743 1.362,-5.39 0.562,-0.309 0.736,-1.459 1.261,-1.382 0.397,-1.249 1.228,-2.37 1.971,-3.417 2.188,-3.081 4.945,-5.873 7.629,-8.75 0.587,-0.627 1.236,-1.289 1.89,-2.072 0.69,-0.828 2.18,-1.656 3.307,-2.446 1.103,-0.773 2.31,-1.585 3.929,-2.249 0.146,-0.023 0.289,-0.046 0.435,-0.069 0.197,0.255 0.548,0.299 0.813,0.462 2.719,-0.531 4.418,-0.759 6.869,-0.499 0.667,0.78 1.395,1.477 1.998,2.344 -0.436,1.058 0.399,1.422 0.675,2.406 z m -11.593,8.935 c -0.643,0.511 -0.899,1.302 -1.812,1.618 -0.555,1.129 -1.388,2.055 -2.351,2.885 -1.694,2.389 -3.234,5.055 -4.739,7.404 -0.205,0.319 -0.567,0.537 -0.751,0.857 -0.806,1.406 -0.885,3.137 -1.956,4.449 0.235,0.973 -0.054,1.678 0.389,2.451 0.529,0.42 1.255,0.781 1.382,1.26 4.085,-1.84 5.521,-5.602 7.273,-9.136 0.707,-4.095 2.014,-7.638 2.998,-11.858 -0.145,0.024 -0.289,0.047 -0.433,0.07 z"
       id="path14"
       inkscape:connector-curvature="0"
       style="fill-rule:evenodd" /></g><g
     id="g72"
     transform="translate(-137.25491,-350.67581)"><g
       id="g20"><path
         d="m 181.135,481.13 -3.649,-12.189 3.187,-5.938 h -2.726 l -3.649,8.053 v -8.053 h -2.409 v 18.127 h 2.409 v -6.35 l 1.801,-3.139 2.239,9.488 c 2.797,10e-4 2.797,10e-4 2.797,10e-4 z"
         id="path18"
         inkscape:connector-curvature="0" /></g><g
       id="g24"><path
         d="m 198.914,481.13 -3.648,-18.127 h -2.556 l -3.602,18.127 h 2.289 l 0.754,-4.354 h 3.382 l 0.73,4.354 c 2.651,0 2.651,0 2.651,0 z m -3.601,-6.276 h -2.993 l 1.534,-7.936 c 1.459,7.936 1.459,7.936 1.459,7.936 z"
         id="path22"
         inkscape:connector-curvature="0" /></g><g
       id="g28"><path
         d="m 216.136,481.13 3.041,-18.127 h -2.531 l -1.801,14.43 -2.019,-14.43 h -2.483 l -2.068,14.479 -1.849,-14.479 h -2.58 l 3.018,18.127 h 2.603 l 2.117,-14.574 2.191,14.574 c 2.361,0 2.361,0 2.361,0 z"
         id="path26"
         inkscape:connector-curvature="0" /></g><g
       id="g32"><path
         d="m 233.914,481.13 -3.65,-18.127 h -2.556 l -3.601,18.127 h 2.287 l 0.754,-4.354 h 3.382 l 0.73,4.354 c 2.654,0 2.654,0 2.654,0 z m -3.601,-6.276 h -2.993 l 1.534,-7.936 c 1.459,7.936 1.459,7.936 1.459,7.936 z"
         id="path30"
         inkscape:connector-curvature="0" /></g><g
       id="g36"><path
         d="m 269.915,481.13 v -18.127 h -2.409 v 18.127 c 2.409,0 2.409,0 2.409,0 z"
         id="path34"
         inkscape:connector-curvature="0" /></g><g
       id="g40"><path
         d="m 313.033,481.13 -3.649,-12.189 3.187,-5.938 h -2.725 l -3.65,8.053 v -8.053 h -2.408 v 18.127 h 2.408 v -6.35 l 1.801,-3.139 2.239,9.488 c 2.797,10e-4 2.797,10e-4 2.797,10e-4 z"
         id="path38"
         inkscape:connector-curvature="0" /></g><g
       id="g44"><path
         d="m 321.555,475.825 c 0.268,4.09 0.997,5.623 4.21,5.623 3.31,0 4.502,-1.754 4.502,-4.867 0,-3.992 -1.923,-5.037 -3.868,-6.133 -1.291,-0.777 -2.191,-1.557 -2.191,-3.455 0,-1.484 0.291,-2.408 1.946,-2.408 1.654,0 1.752,0.875 1.875,2.457 l 1.921,-0.268 c -0.122,-2.287 -0.535,-4.088 -3.82,-4.088 -3.236,0 -4.233,1.654 -4.233,4.232 0,3.018 1.63,4.357 3.357,5.379 1.655,0.998 2.579,1.826 2.579,4.186 0,2.02 -0.34,3.041 -2.067,3.041 -1.606,0 -2.021,-1.047 -2.142,-4.111 -2.069,0.412 -2.069,0.412 -2.069,0.412 z"
         id="path42"
         inkscape:connector-curvature="0" /></g><g
       id="g48"><path
         d="m 344.615,481.13 v -18.127 h -2.41 v 18.127 c 2.41,0 2.41,0 2.41,0 z"
         id="path46"
         inkscape:connector-curvature="0" /></g><g
       id="g52"><path
         d="m 365.813,481.13 -3.648,-18.127 h -2.556 l -3.602,18.127 h 2.288 l 0.754,-4.354 h 3.383 l 0.729,4.354 c 2.652,0 2.652,0 2.652,0 z m -3.602,-6.276 h -2.992 l 1.533,-7.936 c 1.459,7.936 1.459,7.936 1.459,7.936 z"
         id="path50"
         inkscape:connector-curvature="0" /></g><g
       id="g56"><path
         d="m 382.316,481.13 v -1.873 h -5.354 l 5.086,-14.697 v -1.557 h -6.766 v 1.922 h 4.381 l -5.158,14.6 v 1.605 c 7.811,0 7.811,0 7.811,0 z"
         id="path54"
         inkscape:connector-curvature="0" /></g><g
       id="g60"><path
         d="m 400.533,481.13 -3.65,-12.189 3.189,-5.938 h -2.727 l -3.648,8.053 v -8.053 h -2.41 v 18.127 h 2.41 v -6.35 l 1.799,-3.139 2.238,9.488 c 2.799,10e-4 2.799,10e-4 2.799,10e-4 z"
         id="path58"
         inkscape:connector-curvature="0" /></g><g
       id="g64"><path
         d="m 418.314,481.13 -3.65,-18.127 h -2.557 l -3.6,18.127 h 2.287 l 0.754,-4.354 h 3.381 l 0.73,4.354 c 2.655,0 2.655,0 2.655,0 z m -3.601,-6.276 h -2.994 l 1.533,-7.936 c 1.461,7.936 1.461,7.936 1.461,7.936 z"
         id="path62"
         inkscape:connector-curvature="0" /></g><g
       id="g68"><polygon
         points="362.237,485.183 360.668,483.614 365.027,479.251 366.598,480.819 "
         id="polygon66" /></g><rect
       x="377.302"
       y="456.965"
       width="2.2190001"
       height="2.2190001"
       id="rect70" /></g></svg>