<?xml version="1.0" encoding="UTF-8"?>
<svg id="Layer_1" xmlns="http://www.w3.org/2000/svg" baseProfile="tiny" version="1.2" viewBox="0 0 201.36 34.14">
  <!-- Generator: Adobe Illustrator 29.1.0, SVG Export Plug-In . SVG Version: 2.1.0 Build 142)  -->
  <g>
    <path d="M19.78,33.26h8.1l-9.36-18.59c3.41-3.55,5.52-8.36,5.52-13.66h-7.23c0,5.63-3.76,10.35-8.89,11.91V1.01H.68v32.25h7.23v-12.85c1.63-.3,3.18-.81,4.65-1.49l7.22,14.34Z"/>
    <path d="M68.42.99c-6.44,0-11.67,5.24-11.67,11.67v8.93c0,6.44,5.24,11.67,11.67,11.67s11.67-5.24,11.67-11.67v-8.93c0-6.44-5.24-11.67-11.67-11.67ZM72.86,21.6c0,2.45-1.99,4.44-4.44,4.44s-4.44-1.99-4.44-4.44v-8.93c0-2.45,1.99-4.44,4.44-4.44s4.44,1.99,4.44,4.44v8.93Z"/>
    <path d="M117.39.87c-6.44,0-11.67,5.24-11.67,11.67v8.93c0,6.44,5.24,11.67,11.67,11.67s11.67-5.24,11.67-11.67v-8.93c0-6.44-5.24-11.67-11.67-11.67ZM121.83,21.47c0,2.45-1.99,4.44-4.44,4.44s-4.44-1.99-4.44-4.44v-8.93c0-2.45,1.99-4.44,4.44-4.44s4.44,1.99,4.44,4.44v8.93Z"/>
    <polygon points="104.58 1.53 81.23 1.53 81.23 8.1 89.6 8.1 89.6 33.26 96.84 33.26 96.84 8.1 104.58 8.1 104.58 1.53"/>
    <path d="M45.53,1.01v6.4c0,2.45-1.99,4.44-4.44,4.44s-4.44-1.99-4.44-4.44V1.01h-7.23v6.4c0,6.44,5.24,11.68,11.67,11.68,1.57,0,3.07-.32,4.44-.89v3.4c0,2.45-1.99,4.44-4.44,4.44-2.22,0-4.06-1.64-4.38-3.77h-7.26c.35,6.12,5.43,11,11.64,11s11.67-5.24,11.67-11.67V1.01h-7.23Z"/>
  </g>
  <g>
    <path d="M134.03,11.63v-5.39c0-1.87,1.54-3.4,3.4-3.4h1.4c1.9,0,3.4,1.52,3.4,3.4v.96h-2.27v-.96c0-.63-.49-1.12-1.13-1.12h-1.4c-.63,0-1.13.51-1.13,1.12v5.39c0,.61.52,1.12,1.13,1.12h1.4c.63,0,1.13-.51,1.13-1.12v-.96h2.27v.96c0,1.89-1.52,3.42-3.4,3.42h-1.4c-1.87,0-3.4-1.55-3.4-3.42Z"/>
    <path d="M143.96,11.63v-5.39c0-1.87,1.61-3.4,3.54-3.4h1.47c1.97,0,3.54,1.52,3.54,3.4v5.39c0,1.89-1.59,3.42-3.54,3.42h-1.47c-1.94,0-3.54-1.55-3.54-3.42ZM147.51,12.74h1.47c.66,0,1.24-.51,1.24-1.12v-5.39c0-.63-.54-1.12-1.24-1.12h-1.47c-.7,0-1.24.51-1.24,1.12v5.39c0,.61.58,1.12,1.24,1.12Z"/>
    <path d="M154.58,2.83h7.16v2.29h-4.89v3.04h4.24v2.29h-4.24v4.61h-2.27V2.83Z"/>
    <path d="M163.36,2.83h7.16v2.29h-4.89v3.04h4.24v2.29h-4.24v4.61h-2.27V2.83Z"/>
    <path d="M172.15,2.83h7.51v2.29h-5.24v2.39h4.57v2.27h-4.57v2.98h5.24v2.29h-7.51V2.83Z"/>
    <path d="M181.59,2.83h7.51v2.29h-5.24v2.39h4.57v2.27h-4.57v2.98h5.24v2.29h-7.51V2.83Z"/>
    <path d="M137.9,26.97h-1.47v4.35h-2.27v-12.22h4.8c1.9,0,3.4,1.52,3.4,3.4v1.05c0,1.43-.86,2.65-2.09,3.16l2.09,4.61h-2.5l-1.97-4.35ZM138.97,24.68c.65,0,1.13-.49,1.13-1.13v-1.05c0-.63-.49-1.12-1.13-1.12h-2.53v3.3h2.53Z"/>
    <path d="M144.03,27.89v-5.39c0-1.87,1.61-3.4,3.54-3.4h1.47c1.97,0,3.54,1.52,3.54,3.4v5.39c0,1.89-1.59,3.42-3.54,3.42h-1.47c-1.94,0-3.54-1.55-3.54-3.42ZM147.58,29.01h1.47c.66,0,1.24-.51,1.24-1.12v-5.39c0-.63-.54-1.12-1.24-1.12h-1.47c-.7,0-1.24.51-1.24,1.12v5.39c0,.61.58,1.12,1.24,1.12Z"/>
    <path d="M154.11,27.42l3.14-8.33h2.13l3.12,8.33v3.89h-2.27v-2.41h-3.86v2.41h-2.27v-3.89ZM159.82,26.74l-1.5-3.95-1.52,3.95h3.02Z"/>
    <path d="M163.85,27.8v-.58h2.27v.58c0,.68.56,1.22,1.24,1.22h1.17c.75,0,1.26-.44,1.26-1.05,0-2.08-5.76-2.22-5.76-5.73,0-1.85,1.47-3.16,3.51-3.16h.82c1.96,0,3.53,1.57,3.53,3.51v.4h-2.27v-.4c0-.68-.56-1.22-1.26-1.22h-.82c-.82,0-1.24.33-1.24.87,0,1.36,5.76,2.01,5.76,5.73,0,1.89-1.54,3.33-3.53,3.33h-1.17c-1.94,0-3.51-1.57-3.51-3.51Z"/>
    <path d="M175.74,21.38h-2.97v-2.29h8.21v2.29h-2.97v9.93h-2.27v-9.93Z"/>
    <path d="M182.5,19.09h7.51v2.29h-5.24v2.39h4.57v2.27h-4.57v2.98h5.24v2.29h-7.51v-12.22Z"/>
    <path d="M195.68,26.97h-1.47v4.35h-2.27v-12.22h4.8c1.9,0,3.4,1.52,3.4,3.4v1.05c0,1.43-.86,2.65-2.09,3.16l2.09,4.61h-2.5l-1.97-4.35ZM196.75,24.68c.65,0,1.13-.49,1.13-1.13v-1.05c0-.63-.49-1.12-1.13-1.12h-2.53v3.3h2.53Z"/>
  </g>
</svg>