<?xml version="1.0" encoding="utf-8"?>
<!-- Generator: Adobe Illustrator 24.2.0, SVG Export Plug-In . SVG Version: 6.00 Build 0)  -->
<svg version="1.1" id="Warstwa_1" xmlns="http://www.w3.org/2000/svg" xmlns:xlink="http://www.w3.org/1999/xlink" x="0px" y="0px"
	 viewBox="0 0 296.8 108.6" style="enable-background:new 0 0 296.8 108.6;" xml:space="preserve">
<style type="text/css">
	.st0{fill:#683C11;}
	.st1{fill:#D7603C;}
</style>
<g>
	<path class="st0" d="M16.2,77C9,53.2,17.6,31.9,43.4,17.8c-1.9-2-2.2-2.1-4.6-3.5c0,0,18.3-9.2,40.2,1.4
		c-4.7,18.7-16.9,29.7-16.9,29.7s-0.4-1.4-0.8-2.5c-0.5-1.2-1.3-2.3-1.3-2.3c-3.8,2.8-7.1,4.7-8.8,5.6c-0.7,0.4-1,0.6-1,0.6
		s-1.1,0.6-1.6,0.9C34.3,55.2,20.1,65.3,16.2,77z M40.5,64.3L40.5,64.3c0,0-11.3,5.3-19.2,13.8c-0.1,0.1-0.1,0.2-0.2,0.3
		c-2.3,2.6-6,7.5-9.8,15.7c15.2,9.7,39.6,3.8,39.6,3.8c-1.1-2.1-1.9-3.4-3.2-5.5C73.5,79.1,81.7,60.9,75,37.5
		C67.9,47.7,55.5,57,40.5,64.3z"/>
	<path d="M230,41.9c0,3.4-0.6,5.3-2.1,6.9c-1.7,1.8-4.2,2.9-7.1,2.9c-2.8,0-5.3-1-7-2.9c-1.6-1.7-2.1-3.6-2.1-6.9V28h3.9v13.5
		c0,2.2,0.2,3.3,0.7,4.3c0.8,1.5,2.5,2.4,4.5,2.4c2,0,3.7-0.9,4.5-2.4c0.5-0.9,0.7-2.1,0.7-4.3V28h4V41.9z"/>
	<path d="M235.1,28h4v2.8c2-2.4,3.8-3.3,6.7-3.3c2.8,0,5.3,1.2,6.6,3.2c0.9,1.4,1.3,3.2,1.3,6.2v14.3h-4V37.5c0-2.4-0.2-3.6-0.8-4.5
		c-0.7-1.2-2.2-1.9-4.1-1.9c-4,0-5.7,2.6-5.7,8.5v11.5h-4V28z"/>
	<path d="M270.4,27.5c6.8,0,12.2,5.3,12.2,12.1c0,6.8-5.3,12.1-12.3,12.1c-6.8,0-12.1-5.4-12.1-12.3
		C258.2,32.9,263.7,27.5,270.4,27.5z M270.3,48.2c4.8,0,8.2-3.6,8.2-8.5c0-4.9-3.4-8.5-8.2-8.5c-4.6,0-8.1,3.6-8.1,8.4
		C262.2,44.5,265.6,48.2,270.3,48.2z"/>
	<g>
		<path d="M124.6,80.1c-2.6,4.5-6,6.6-10.6,6.6c-6.7,0-11.4-5-11.4-12.1c0-7.2,4.6-12.2,11.2-12.2c6.6,0,11,4.8,11,12.2v0.7h-18
			c0.2,4.7,3.2,7.8,7.3,7.8c3.1,0,4.9-1.3,7.1-4.8L124.6,80.1z M120.6,72c-0.7-3.6-3.4-6-6.8-6c-3.3,0-6.2,2.5-6.8,6H120.6z"/>
		<path d="M132.6,79.4c1.3,2.8,2.5,3.7,4.6,3.7c2.2,0,3.8-1.6,3.8-3.7c0-1.7-0.8-2.6-3.7-3.8c-5.3-2.3-6.7-3.7-6.7-6.7
			c0-3.7,2.9-6.4,6.7-6.4c2.8,0,4.9,1.3,6.3,4.2l-3.3,1.7c-0.8-1.6-1.8-2.3-3.2-2.3c-1.5,0-2.8,1.2-2.8,2.6c0,1.3,0.8,2.1,3.7,3.3
			c2.6,1.1,3.3,1.4,4.4,2.2c1.7,1.2,2.6,3,2.6,5.1c0,4.2-3.5,7.5-7.9,7.5c-3.8,0-6.6-2-8.1-5.9L132.6,79.4z"/>
		<path d="M154.6,99.1h-3.9V62.9h3.9l0,3.3c2.3-2.7,4.8-3.8,8-3.8c6.4,0,11.1,5.2,11.1,12.2c0,7-4.7,12.1-11,12.1
			c-3.3,0-5.8-1.2-8.1-3.9V99.1z M162.1,83.1c4.3,0,7.6-3.6,7.6-8.4c0-5.1-3.2-8.7-7.6-8.7c-4.5,0-7.7,3.6-7.7,8.6
			C154.3,79.5,157.6,83.1,162.1,83.1z"/>
		<path d="M178.6,62.9h4v2.5c2.1-2.4,3.1-3.1,5.2-3.1c1.3,0,2.1,0.2,3.5,1l-1.8,3.6c-1-0.6-1.5-0.8-2.3-0.8c-1.5,0-3,0.8-3.7,2.1
			c-0.6,1.1-0.9,2.8-0.9,5.6V86h-4V62.9z"/>
		<path d="M214.8,80.1c-2.6,4.5-6,6.6-10.6,6.6c-6.7,0-11.4-5-11.4-12.1c0-7.2,4.6-12.2,11.2-12.2c6.6,0,11,4.8,11,12.2v0.7h-18
			c0.2,4.7,3.2,7.8,7.3,7.8c3.1,0,4.9-1.3,7.1-4.8L214.8,80.1z M210.8,72c-0.7-3.6-3.4-6-6.8-6c-3.3,0-6.2,2.5-6.8,6H210.8z"/>
		<path d="M222.7,79.4c1.3,2.8,2.5,3.7,4.6,3.7c2.2,0,3.8-1.6,3.8-3.7c0-1.7-0.8-2.6-3.7-3.8c-5.3-2.3-6.7-3.7-6.7-6.7
			c0-3.7,2.9-6.4,6.7-6.4c2.8,0,4.9,1.3,6.3,4.2l-3.3,1.7c-0.8-1.6-1.8-2.3-3.2-2.3c-1.5,0-2.8,1.2-2.8,2.6c0,1.3,0.8,2.1,3.7,3.3
			c2.6,1.1,3.3,1.4,4.4,2.2c1.7,1.2,2.6,3,2.6,5.1c0,4.2-3.5,7.5-7.9,7.5c-3.8,0-6.6-2-8.1-5.9L222.7,79.4z"/>
		<path d="M242.6,79.4c1.3,2.8,2.5,3.7,4.6,3.7c2.2,0,3.8-1.6,3.8-3.7c0-1.7-0.8-2.6-3.7-3.8c-5.3-2.3-6.7-3.7-6.7-6.7
			c0-3.7,2.9-6.4,6.7-6.4c2.8,0,4.9,1.3,6.3,4.2l-3.3,1.7c-0.8-1.6-1.8-2.3-3.2-2.3c-1.5,0-2.8,1.2-2.8,2.6c0,1.3,0.8,2.1,3.7,3.3
			c2.6,1.1,3.3,1.4,4.4,2.2c1.7,1.2,2.6,3,2.6,5.1c0,4.2-3.5,7.5-7.9,7.5c-3.8,0-6.6-2-8.1-5.9L242.6,79.4z"/>
		<path d="M271.2,62.4c6.8,0,12.2,5.3,12.2,12.1c0,6.8-5.3,12.1-12.3,12.1c-6.8,0-12.1-5.4-12.1-12.3
			C258.9,67.8,264.4,62.4,271.2,62.4z M271,83.1c4.8,0,8.2-3.6,8.2-8.5c0-5-3.5-8.5-8.2-8.5c-4.6,0-8.1,3.6-8.1,8.4
			C263,79.5,266.3,83.1,271,83.1z"/>
	</g>
	<g>
		<path class="st1" d="M116.6,39.9c-0.9-0.9-2.3-1.8-4.4-2.6c-2.1-0.8-3.3-1.5-3.8-1.9c-0.5-0.4-0.7-1-0.7-1.7
			c0-0.7,0.3-1.2,0.8-1.7c0.5-0.5,1.2-0.7,1.9-0.7c1.2,0,2.3,0.7,3,2.2l3.1-1.6c-1.4-2.7-3.3-4-5.9-4c-1.9,0-3.5,0.6-4.7,1.8
			c-1.2,1.2-1.9,2.6-1.9,4.4c0,1.5,0.4,2.7,1.3,3.5c0.8,0.8,2.2,1.7,4.2,2.5c2,0.8,3.2,1.5,3.7,2c0.5,0.5,0.7,1.2,0.7,2
			c0,1-0.3,1.9-1,2.5c-0.7,0.6-1.5,1-2.6,1s-1.9-0.3-2.5-0.8c-0.7-0.5-1.3-1.5-1.9-2.8l-3.4,1.4c1.4,3.8,4,5.7,7.8,5.7
			c2.1,0,3.9-0.7,5.3-2.1c1.5-1.4,2.2-3.1,2.2-5.1C117.9,42.1,117.4,40.8,116.6,39.9z"/>
		<path class="st1" d="M129.4,37.7l9.4-9.4h-5.1l-8,8.1V22.6H122v27.8h3.8v-9.1l1-1l8.9,10l5,0L129.4,37.7z"/>
		<path class="st1" d="M143.4,22.6v27.8h3.8V22.6H143.4z"/>
		<path class="st1" d="M173.2,39.4c0-3.5-1-6.3-2.9-8.4c-1.9-2.1-4.5-3.2-7.6-3.2S157,28.8,155,31c-2,2.1-3,4.9-3,8.3
			c0,3.5,1,6.3,3,8.5c2,2.2,4.6,3.2,7.8,3.2c4.4,0,7.8-2.1,10.2-6.2l-3.2-1.8c-1.1,1.7-2.1,2.9-3.1,3.6c-1,0.7-2.2,1-3.7,1
			c-2,0-3.7-0.7-5-2c-1.3-1.4-2-3.1-2-5.4h17.2V39.4z M156.2,36.9c0.3-1.7,1-3,2.2-4.1c1.2-1.1,2.6-1.6,4.3-1.6c1.6,0,3,0.5,4.2,1.5
			c1.2,1,1.9,2.4,2.3,4.1H156.2z"/>
		<path class="st1" d="M197.1,31.1c-2-2.2-4.5-3.4-7.6-3.4c-3.1,0-5.6,1.2-7.7,3.7v-3.1H178V55h3.8v-7.7c2.1,2.4,4.7,3.7,7.7,3.7
			c3.1,0,5.6-1.1,7.6-3.2c2-2.2,3-4.9,3-8.1C200.1,36.2,199.1,33.3,197.1,31.1z M194.2,45.2c-1.4,1.5-3.1,2.3-5.1,2.3
			c-2.2,0-4-0.8-5.4-2.2c-1.4-1.5-2.1-3.4-2.1-5.7c0-2.5,0.7-4.5,2.1-6c1.4-1.5,3.1-2.3,5.4-2.3c2.1,0,3.9,0.8,5.2,2.3
			c1.3,1.6,2,3.6,2,6C196.2,41.8,195.5,43.7,194.2,45.2z"/>
		<path class="st1" d="M207.5,46.4c-0.5-0.5-1.1-0.8-1.9-0.8c-0.7,0-1.3,0.3-1.8,0.8c-0.5,0.5-0.8,1.1-0.8,1.9
			c0,0.8,0.2,1.4,0.7,1.9c0.5,0.5,1.1,0.8,1.9,0.8c0.8,0,1.4-0.3,1.9-0.8c0.5-0.5,0.8-1.1,0.8-1.9C208.3,47.6,208,47,207.5,46.4z"/>
	</g>
</g>
</svg>
