<svg width="7496" height="1647" viewBox="0 0 7496 1647" fill="none" xmlns="http://www.w3.org/2000/svg">
<path d="M801.906 434.108C798.105 435.657 794.182 432.375 794.989 428.372C796.449 421.004 797.56 409.922 796.596 394.278C783.045 176.127 281.592 -43.9816 4.16459 7.59647C-1.12579 8.57858 -1.48164 16.0316 3.70522 17.53C72.9465 37.4246 293.336 121.651 362.849 400.455C380.802 472.461 445.528 486.887 501.145 484.957C506.826 484.768 508.429 492.647 503.161 494.779C353.939 555.064 293.263 621.935 157.168 656.493C155.628 656.877 154.336 657.969 153.717 659.447L131.307 712.421C129.328 717.126 134.683 721.519 138.892 718.616C156.701 706.258 189.941 686.972 237.25 675.176C387.494 637.716 577.456 690.06 751.015 646.787C884.242 613.57 926.25 522.979 1000.18 523.151C1000.92 523.157 1001.41 522.41 1001.05 521.753C996.767 513.628 971.743 472.914 908.928 446.941C849.872 422.533 817.145 427.853 801.906 434.108Z" fill="#242B2B"/>
<path d="M1130.09 1004.44V554.751H1324.75C1406.98 554.751 1464.79 608.714 1464.79 690.943C1464.79 772.53 1406.98 826.493 1324.75 826.493H1187.91V1004.44H1130.09ZM1187.91 778.311H1313.83C1371.64 778.311 1404.41 743.621 1404.41 690.943C1404.41 637.622 1371.64 603.574 1313.83 603.574H1187.91V778.311ZM1449.05 1004.44L1616.73 554.751H1691.25L1859.56 1004.44H1798.53L1754.84 884.953H1553.77L1510.08 1004.44H1449.05ZM1571.11 837.414H1737.5L1654.63 610.641L1571.11 837.414ZM1916.8 1004.44V554.751H1974.62V956.261H2193.04V1004.44H1916.8ZM2418.08 1012.79C2291.53 1012.79 2206.73 920.285 2206.73 779.596C2206.73 637.622 2291.53 546.399 2418.08 546.399C2544.64 546.399 2629.44 638.265 2629.44 779.596C2629.44 920.285 2544.64 1012.79 2418.08 1012.79ZM2267.12 779.596C2267.12 885.595 2322.36 962.685 2418.08 962.685C2513.16 962.685 2569.05 885.595 2569.05 779.596C2569.05 672.313 2513.16 596.508 2418.08 596.508C2322.36 596.508 2267.12 672.313 2267.12 779.596ZM2705.39 1004.44V554.751H2794.69L2932.17 940.843L3069 554.751H3157.66V1004.44H3101.77V624.774L2963 1004.44H2900.69L2761.28 624.774V1004.44H2705.39ZM3214.44 1004.44L3382.11 554.751H3456.63L3624.95 1004.44H3563.92L3520.23 884.953H3319.16L3275.47 1004.44H3214.44ZM3336.5 837.414H3502.89L3420.02 610.641L3336.5 837.414Z" fill="#242B2B"/>
<path d="M4472.27 1012.79C4350.85 1012.79 4269.26 920.285 4269.26 779.596C4269.26 639.55 4352.78 546.399 4472.27 546.399C4576.98 546.399 4642.51 611.283 4655.36 708.288H4594.97C4583.41 649.186 4545.5 596.508 4472.27 596.508C4382.97 596.508 4329.65 674.882 4329.65 779.596C4329.65 883.668 4384.26 962.685 4472.27 962.685C4548.72 962.685 4589.83 908.079 4598.82 848.977H4659.85C4641.87 958.83 4570.56 1012.79 4472.27 1012.79ZM4923.54 1012.79C4796.98 1012.79 4712.18 920.285 4712.18 779.596C4712.18 637.622 4796.98 546.399 4923.54 546.399C5050.09 546.399 5134.89 638.265 5134.89 779.596C5134.89 920.285 5050.09 1012.79 4923.54 1012.79ZM4772.57 779.596C4772.57 885.595 4827.82 962.685 4923.54 962.685C5018.61 962.685 5074.5 885.595 5074.5 779.596C5074.5 672.313 5018.61 596.508 4923.54 596.508C4827.82 596.508 4772.57 672.313 4772.57 779.596ZM5210.85 1004.44V554.751H5510.21V603.574H5268.66V746.191H5493.51V794.372H5268.66V1004.44H5210.85ZM5575.97 1004.44V554.751H5875.34V603.574H5633.79V746.191H5858.63V794.372H5633.79V1004.44H5575.97ZM5941.09 1004.44V554.751H6243.03V603.574H5998.91V745.548H6222.47V792.445H5998.91V956.261H6243.03V1004.44H5941.09ZM6320.64 1004.44V554.751H6622.58V603.574H6378.46V745.548H6602.02V792.445H6378.46V956.261H6622.58V1004.44H6320.64ZM4292.39 1582.44V1132.75H4489.61C4568.63 1132.75 4626.45 1180.93 4626.45 1262.52C4626.45 1328.05 4589.19 1371.73 4533.3 1386.5L4633.51 1582.44H4569.27L4472.27 1392.29H4350.21V1582.44H4292.39ZM4350.21 1344.11H4479.98C4534.58 1344.11 4566.06 1313.91 4566.06 1262.52C4566.06 1211.13 4534.58 1181.57 4479.98 1181.57H4350.21V1344.11ZM4893.42 1590.79C4766.87 1590.79 4682.07 1498.29 4682.07 1357.6C4682.07 1215.62 4766.87 1124.4 4893.42 1124.4C5019.98 1124.4 5104.78 1216.26 5104.78 1357.6C5104.78 1498.29 5019.98 1590.79 4893.42 1590.79ZM4742.45 1357.6C4742.45 1463.59 4797.7 1540.68 4893.42 1540.68C4988.5 1540.68 5044.39 1463.59 5044.39 1357.6C5044.39 1250.31 4988.5 1174.51 4893.42 1174.51C4797.7 1174.51 4742.45 1250.31 4742.45 1357.6ZM5119.51 1582.44L5287.18 1132.75H5361.7L5530.02 1582.44H5468.99L5425.3 1462.95H5224.23L5180.54 1582.44H5119.51ZM5241.57 1415.41H5407.96L5325.09 1188.64L5241.57 1415.41ZM5739.82 1590.79C5620.97 1590.79 5554.16 1523.98 5550.3 1443.04H5610.05C5620.33 1504.07 5668.51 1540.04 5739.82 1540.04C5807.91 1540.04 5857.38 1514.99 5857.38 1460.38C5857.38 1425.05 5834.25 1402.57 5784.78 1391.64L5691.63 1370.44C5635.1 1357.6 5567.65 1333.18 5567.65 1248.39C5567.65 1175.15 5635.1 1124.4 5734.68 1124.4C5839.39 1124.4 5899.13 1181.57 5902.99 1257.38H5843.24C5833.61 1205.99 5796.99 1173.87 5731.46 1173.87C5669.79 1173.87 5629.32 1202.77 5629.32 1245.17C5629.32 1281.15 5652.45 1301.06 5704.48 1313.27L5800.85 1335.11C5877.93 1353.1 5918.41 1392.29 5918.41 1455.89C5918.41 1539.4 5850.31 1590.79 5739.82 1590.79ZM6089.96 1582.44V1181.57H5940.28V1132.75H6298.11V1181.57H6148.42V1582.44H6089.96ZM6362.05 1582.44V1132.75H6663.99V1181.57H6419.87V1323.55H6643.43V1370.44H6419.87V1534.26H6663.99V1582.44H6362.05ZM6741.6 1582.44V1132.75H6938.82C7017.84 1132.75 7075.66 1180.93 7075.66 1262.52C7075.66 1328.05 7038.4 1371.73 6982.51 1386.5L7082.73 1582.44H7018.48L6921.48 1392.29H6799.42V1582.44H6741.6ZM6799.42 1344.11H6929.19C6983.79 1344.11 7015.27 1313.91 7015.27 1262.52C7015.27 1211.13 6983.79 1181.57 6929.19 1181.57H6799.42V1344.11ZM7263.98 1582.44V1408.35L7096.95 1132.75H7161.83L7292.89 1353.1L7423.94 1132.75H7488.82L7321.8 1408.35V1582.44H7263.98Z" fill="#242B2B"/>
</svg>
