<?xml version="1.0" encoding="UTF-8"?>
<svg id="Layer_1" data-name="Layer 1" xmlns="http://www.w3.org/2000/svg" viewBox="0 0 510.24 510.24">
  <defs>
    <style>
      .cls-1 {
        fill: #e7000e;
      }
    </style>
  </defs>
  <path class="cls-1" d="M112.43,297.67c.33.34.68.52,1.01.68.51.24,1.03.43,1.5.67.47.24.87.51,1.15.84,0,.01.05.12.08.29.06.28.08.69.15,1.15.03.23.08.47.17.73s.21.53.43.79c.23.28.49.48.75.67.39.28.8.53,1.14.75.34.22.61.44.64.48.54.64.8,1.18.98,1.61.09.22.15.41.22.6.03.1.07.2.12.31.06.12.13.26.29.43.44.45,1.08,1.27,1.7,2.05.32.39.63.78.95,1.12.33.34.63.64,1.02.88.58.35,1.13.53,1.64.53.34,0,.59-.07.75-.1.16-.03.23-.05.34-.05h.1s.19.02.19.02c.45,0,.82-.14,1.15-.31.58-.29,1.09-.72,1.59-1.19,1.27-1.22,2.44-2.8,2.75-3.23l.2-.13c.09-.03.22-.05.42-.05.39,0,.98.09,1.72.1.52,0,1.11-.06,1.73-.28.62-.22,1.25-.6,1.85-1.17.06-.07.43-.27.96-.41.79-.23,1.86-.38,2.83-.71.48-.17.97-.38,1.4-.75.22-.19.42-.43.56-.72.14-.29.22-.63.22-.96,0-.6-.22-1.16-.56-1.74h0s0,0,0-.01c0,0,0-.01,0-.02h0c-.08-.13-.15-.23-.24-.35-.32-.44-.82-1.04-1.26-1.63-.22-.29-.42-.58-.56-.81-.07-.11-.13-.22-.17-.29l-.04-.08v-.02c-.12-.46-.13-.89-.23-1.47-.09-.57-.37-1.3-.98-1.87-.26-.24-.52-.41-.79-.57-.41-.24-.84-.45-1.22-.67-.37-.21-.69-.42-.79-.53-.25-.25-.64-.83-1.03-1.43-.4-.61-.78-1.23-1.3-1.73-.55-.51-1.05-.98-1.45-1.38-.4-.4-.71-.75-.85-.98-.16-.23-.31-.73-.47-1.42-.17-.68-.39-1.53-.91-2.39-.26-.42-.6-.73-.93-.96-.5-.33-.99-.51-1.34-.65-.17-.07-.31-.13-.39-.18l-.06-.04-.02-.03-.05-.05c-.18-.18-.38-.34-.6-.53-.67-.55-1.54-1.34-1.86-1.95-.18-.3-.33-1.08-.47-1.93-.08-.43-.16-.88-.3-1.33-.14-.45-.33-.91-.68-1.33-.66-.76-1.47-1.05-2.06-1.28-.3-.11-.54-.21-.69-.28l-.14-.09h0c-.5-.82-1.13-1.58-1.73-2.33-.61-.76-1.18-1.51-1.54-2.21-.48-.92-1.01-1.89-1.67-2.91-.57-.87-1.34-1.33-1.94-1.75-.61-.41-1.03-.75-1.25-1.16-.19-.34-.42-.56-.64-.76-.33-.29-.67-.52-.94-.73-.13-.1-.25-.19-.32-.26l-.08-.08h-.01c-.2-.33-.27-.65-.44-1.19-.16-.53-.46-1.24-1.13-1.86-.67-.62-1.45-1.18-2.1-1.75-.66-.56-1.12-1.12-1.23-1.49l-.02-.04-.02-.04c-.09-.2-.14-.36-.17-.46.1-.09.26-.23.45-.45l.13-.16.06-.21c.05-.16.11-.26.22-.38.16-.18.46-.4.85-.73.38-.33.85-.84,1.07-1.58.02-.04.02-.07.17-.18.22-.17.72-.36,1.28-.64.28-.14.59-.32.88-.57.3-.25.58-.6.76-1.03.07-.16.14-.26.28-.38.21-.19.58-.39,1.04-.7.23-.16.47-.35.7-.62.23-.27.43-.61.55-1l.05-.17v-.18s0-.02,0-.02c0-.18-.01-.42-.02-.73,0-.16-.01-.33-.02-.49.02,0,.04.02.07.03.18.07.36.14.56.2.2.06.4.12.69.12.11,0,.25-.01.41-.06.16-.05.36-.14.52-.31l.04-.04.04-.05c.29-.36.62-.84.93-1.32.24-.37.47-.73.64-1.02.11-.07.23-.13.39-.22.23-.12.54-.27.87-.52l.27-.2.11-.32c.07-.22.08-.36.09-.52,0-.15.01-.3.01-.47,0-.6-.05-1.35-.05-1.95,0-.25,0-.47.03-.61l.02-.11v-.02s.05-.1.05-.1c.08-.23.2-.41.38-.6.26-.28.68-.57,1.16-.94.48-.37,1.04-.84,1.42-1.58l.03-.06.03-.07c.19-.56.63-1.14,1.18-1.76.5-.58,1.09-1.2,1.58-1.95.05-.03.17-.1.35-.19.23-.12.53-.25.85-.56l.11-.11.08-.13c.13-.23.18-.49.18-.7,0-.29-.07-.5-.15-.68-.13-.31-.3-.54-.46-.76-.25-.33-.5-.63-.67-.87-.04-.06-.08-.11-.11-.16.07-.16.2-.33.41-.59.29-.36.73-.85,1-1.6v-.03s.02-.02.02-.02c.19-.61.55-1.68.9-2.78.34-1.08.67-2.18.82-3.03,0,0,0-.02,0-.03,0-.01,0-.03,0-.04.06-.3.09-.61.09-.9,0-.82-.18-1.57-.33-2.27-.16-.69-.29-1.33-.28-1.78,0-.27.04-.47.11-.61l.02-.04.02-.05c1.32-3.91,2.83-8.19,3.6-12.55h0c.04-.2.06-.4.06-.6,0-.86-.27-1.7-.62-2.6-.53-1.34-1.29-2.78-1.96-4.12-.67-1.33-1.24-2.59-1.38-3.32-.08-.38-.26-.67-.45-.9-.34-.4-.73-.67-1.14-.94-.61-.39-1.27-.75-1.75-1.07-.1-.06-.18-.12-.25-.18.26-.15.59-.32.94-.57.2-.15.41-.33.6-.59.19-.26.34-.64.33-1.04,0-.1-.01-.2-.03-.3h0s0-.02,0-.03c0,0,0,0,0,0h0c-.09-.57-.34-1.03-.61-1.44-.42-.62-.93-1.15-1.37-1.67-.43-.51-.78-1.01-.94-1.46-.73-2.45-1.39-4.1-2.45-5.42-.53-.66-1.14-1.21-1.86-1.71-.72-.5-1.53-.95-2.48-1.44l-.1-.05-.08-.02s-.18-.08-.36-.22c-.58-.41-1.59-1.34-2.54-2.96l-.02-.03-.02-.03c-.13-.2-.31-.48-.6-.76-.28-.27-.7-.51-1.18-.59h0c-.81-.19-1.87-.34-2.9-.5-1.02-.15-2.03-.32-2.56-.47h-.04s-.04-.02-.04-.02c-.21-.04-.42-.06-.62-.06-.67,0-1.2.19-1.66.33-.42.13-.77.23-1.09.26-.21-.04-.54-.14-.86-.24-.41-.13-.79-.26-1.06-.34l-.2-.06-.21.02c-.59.05-1.1.28-1.49.56-.59.41-.97.9-1.27,1.24-.15.17-.27.3-.35.37l-.04.03h-.03c-.18-.04-.6-.24-1.08-.48-.49-.22-1.06-.5-1.81-.51-.41,0-.88.11-1.28.37-.4.26-.72.64-.97,1.09l-.03.05-.02.05c-.05.13-.07.23-.08.3-.04-.02-.06-.03-.1-.04-.34-.14-.7-.29-1.23-.3-.28,0-.62.06-.93.27-.25.16-.42.39-.54.63-.14.2-.23.39-.28.57-.09.35-.1.63-.12.85-.02.34-.07.55-.09.56h0s-.09.05-.27.07h0c-.62.03-1.15.14-1.61.33-.73.29-1.21.74-1.57,1.09-.36.34-.64.6-1.04.84-.93.33-1.62.46-2.39.72-.75.25-1.52.68-2.33,1.45-.07-.02-.16-.05-.27-.08-.2-.06-.45-.15-.82-.15-.27,0-.62.07-.93.27-.24.16-.41.38-.54.61h0c-1.42,1.94-3.81,4.45-5.66,6.06l-.03.03-.02.03s-.07.06-.2.11c-.2.08-.55.14-.95.22-.4.08-.87.16-1.37.43l-.05.03-.04.03c-.73.52-1.35,1.25-1.95,1.94-.3.35-.58.68-.84.96-.23.25-.43.44-.57.55-.16.07-.5.15-.96.23-.26.05-.54.11-.86.22-.28.1-.59.28-.87.53h0s-.03.03-.05.04c0,0-.02.01-.03.02h0c-1.04.88-1.77,2.08-2.44,3.26-.68,1.21-1.28,2.42-1.85,3.17l-.03.05-.02.03s-.12.16-.27.34c-.55.68-1.68,2.03-2.68,3.55-.5.76-.98,1.56-1.34,2.37-.36.81-.62,1.63-.63,2.48,0,.33.04.66.15.99.44,1.45,1,2.8,1.43,4.12.43,1.32.73,2.6.73,3.93,0,.69-.08,1.4-.27,2.16-.05.18-.05.33-.05.46,0,.53.14,1,.33,1.54.29.79.72,1.64,1.23,2.36.26.36.54.69.88.97.17.14.36.26.58.36.22.1.48.17.78.17.13,0,.27-.02.4-.05.03,0,.13-.03.26-.05.47-.08,1.35-.19,2.14-.29.39-.05.76-.1,1.05-.13.15-.02.28-.04.38-.05.11-.02.18-.03.29-.05l.27-.06.2-.18c1.22-1.1,1.86-1.43,2.76-1.92.89-.48,1.99-1.08,3.66-2.45.03-.02.06-.04.08-.06.15-.11.22-.19.3-.27.13-.14.25-.29.39-.44.2-.23.43-.46.61-.6l.14-.09h0c0,.17-.06.49-.18.87-.18.58-.49,1.31-.76,2.07-.27.77-.52,1.56-.53,2.42,0,.24.02.48.08.73v.02s-.01.17-.08.35c-.1.28-.29.65-.48,1.03-.09.19-.19.39-.27.6-.06.18-.12.37-.15.59h0c-.01.06-.02.11-.02.15,0,.05,0,.09,0,.11.01.48.17.78.3,1.06.14.27.3.51.44.72-.04.02-.09.04-.13.07-.15.09-.31.25-.42.43l-.03.05-.03.05c-.13.29-.17.58-.17.83,0,.37.08.68.17.96.13.42.29.8.41,1.11.08.21.13.38.15.5-.08.07-.18.17-.32.31-.11.12-.23.3-.34.51h0s0,.02-.01.04c-.03.06-.06.1-.08.16h.01c-.12.27-.18.54-.17.75,0,.56.17.97.28,1.34.11.33.18.6.21.8h-.01c-.08.11-.22.24-.37.48-.16.23-.32.6-.32,1.02,0,.1,0,.19.02.27v.06s.02.05.02.05c.09.33.21.51.34.73.19.32.41.64.59.93.02.03.03.04.04.07,0,0,0,0-.01.02-.2.24-.47.54-.71.91-.23.37-.48.82-.49,1.44,0,.1.02.2.04.3h0c0,.06.02.1.03.15,0,.01,0,.02,0,.03h0c.05.31.13.6.23.88.18.49.4.97.57,1.4.12.28.19.54.23.71-.09.06-.23.16-.41.35-.13.14-.25.34-.32.55-.08.21-.1.43-.1.65v.24s.02.08.02.08l.02.08c.03.13.07.22.11.34.15.41.41,1.04.63,1.62.11.28.21.53.28.73-.02.02-.03.03-.04.04-.15.16-.4.38-.65.73-.24.35-.46.86-.45,1.44v.13s0,.08,0,.08c0,.08-.03.3-.1.56-.11.4-.29.89-.48,1.35-.18.46-.35.87-.46,1.27-.09.31-.22.47-.42.66-.3.28-.83.51-1.45.87-.3.18-.64.41-.93.75-.26.29-.45.69-.55,1.12h0c-.02.06-.03.12-.05.18,0,0,0,.02,0,.03h0c-.07.26-.11.51-.11.74,0,.62.16,1.21.36,1.8.31.89.75,1.8,1.17,2.67.42.87.82,1.7,1.03,2.33.2.58.37.99.55,1.33.14.25.29.46.42.62.2.24.33.38.52.66.19.28.44.7.8,1.44.38.79.53,1.43.8,2.07.14.32.32.68.69.99.15.13.34.23.53.3-.23.43-.57.96-.88,1.52-.16.28-.31.58-.43.88-.12.31-.23.62-.25,1,0,.07-.03.17-.09.31-.09.22-.28.53-.48.93-.19.4-.39.94-.39,1.58v.17s.01.11.01.11l.03.11c.15.57.37,1.05.56,1.48.19.43.36.8.44,1.13.07.25.08.41.08.55,0,.13-.02.26-.04.45-.02.19-.05.44-.05.74,0,.38.06.83.19,1.36,0,.07,0,.15,0,.2,0,.44.08.85.21,1.17.1.24.21.43.29.57.13.21.2.33.27.53.07.19.14.49.17.98-.02.07-.05.22-.11.39-.13.37-.33.89-.5,1.45-.17.56-.33,1.17-.34,1.84,0,.52.12,1.11.5,1.62h0s.03.04.04.06c0,0,.01.02.02.03h0c.11.15.23.28.33.37l.21.17.05.04h0s.05.12.05.12c.09.22.15.46.19.68-.09.04-.18.08-.29.15-.17.11-.36.3-.47.53-.11.23-.15.47-.15.67,0,.1,0,.2.02.29.13.74.21,1.33.21,1.81,0,.36-.04.67-.14.97-.1.3-.26.61-.54.98l-.02.03v.02c-.15.19-.23.44-.22.68,0,.31.09.5.17.63.13.24.26.36.37.48.09.09.17.17.24.24-.12.57-.2,1.17-.2,1.82,0,1.79.48,3.86,1.53,5.98-.09.08-.18.17-.25.29l-.21.34.06.39c.05.34.16.6.27.87.17.4.37.8.51,1.15.07.17.13.33.17.44v.04c-.1.1-.32.28-.56.47-.17.14-.36.3-.55.53-.18.23-.4.58-.4,1.07l.02.23c.14.93.54,1.66.87,2.29.28.53.49.99.59,1.38-.07.14-.11.26-.13.36-.02.13-.03.24-.03.34v.19s0,.11,0,.11c0,.45-.12,1.28-.26,2.17-.13.84-.26,1.74-.28,2.6-.28.23-.36.47-.41.62-.04.16-.04.27-.04.37,0,.27.04.49.11.82.19.85.67,1.44,1.08,1.94.21.24.4.45.56.61l.17.19c0,.06.02.17.02.34,0,.25-.01.56-.01.91s.01.68.09,1.07c.08.38.25.82.62,1.18.41.39.84.56,1.33.71.48.14,1,.22,1.53.22.36,0,.73-.04,1.1-.14s.75-.28,1.08-.6c.14-.14.22-.25.31-.39.33-.46.77-1.2,1.2-1.91.22-.35.43-.7.6-.98.18-.28.33-.51.39-.59.45-.59.87-.91,1.22-1.08.35-.18.63-.22.76-.22h.02c.06.03.15.09.28.24.22.26.48.76.78,1.34.31.58.69,1.26,1.27,1.87.56.59.86,1.03,1.01,1.33.15.31.17.46.17.62,0,.11-.02.24-.05.42-.03.18-.08.42-.09.74,0,.3.06.65.22.98.16.33.38.63.68.93.53.53,1.05.97,1.59,1.29.53.32,1.09.54,1.73.55.39,0,.79-.1,1.14-.3.53-.31.89-.79,1.14-1.34.25-.55.42-1.19.53-1.94.03-.18.05-.34.07-.48.07-.07.11-.14.15-.19.1-.18.12-.27.14-.34.05-.21.04-.32.05-.46,0-.11,0-.21-.03-.36-.02-.08-.03-.17-.11-.33-.01-.03-.03-.06-.05-.09.03-.46.16-1.05.34-1.72.19-.76.41-1.61.42-2.55,0-.13,0-.25-.02-.38h0v-.03s0-.02,0-.03v-.02h0c0-.28-.08-.51-.14-.69-.11-.28-.23-.49-.29-.63l-.05-.11v-.09s-.02-.2-.02-.2c0-.69.19-1.62.19-2.73,0-.21-.03-.43-.04-.66.01-.03.03-.07.04-.1.14-.45.26-.99.27-1.56,0-.13-.01-.26-.04-.41-.03-.91-.17-1.87-.31-2.8-.15-.96-.28-1.88-.29-2.6h0s0-.04,0-.04c-.19-3.48-.12-6.63-.62-10.42v-.03s0-.02,0-.02c-.03-.18-.05-.36-.05-.53,0-.53.14-1.03.33-1.62.19-.58.44-1.25.5-2.07h0c.02-.1.04-.21.04-.31,0-.38-.09-.69-.18-.97-.14-.42-.33-.78-.46-1.1-.14-.32-.22-.58-.22-.68v-.06s-.02-.06-.02-.06c-.03-.13-.04-.26-.04-.39,0-.23.03-.49.08-.8.05-.31.1-.68.1-1.12,0-.21-.02-.45-.06-.69h0c-.08-.81-.23-1.65-.37-2.46-.13-.81-.24-1.58-.24-2.19,0-.33.03-.61.09-.82l.03-.1v-.1c.04-.52.19-1.15.35-1.86.16-.71.33-1.5.33-2.36,0-.22-.01-.44-.04-.67v-.03s0-.01,0-.01c-.19-1.25-.28-2.08-.28-2.76,0-.14.01-.27.02-.4.05.01.11.02.17.04.07.05.19.17.36.35.77.82,2.1,2.53,3.36,4.16.63.82,1.26,1.62,1.81,2.31.55.68,1,1.23,1.38,1.61,1.03,1.16,1.64,1.78,2.24,2.37.61.6,1.21,1.16,2.31,2.3.15.14.49.63.85,1.26.56.94,1.25,2.22,2,3.48.76,1.26,1.56,2.5,2.45,3.44ZM106.96,213.03c-.12.23-.24.49-.25.9,0,.01,0,.02,0,.03-.01.08-.05.24-.09.44-.23.93-.79,2.64-1.32,4.17-.27.77-.53,1.5-.74,2.07-.16.43-.3.79-.38.99-.08.1-.17.2-.25.32-.2.27-.42.59-.62.87-.04.06-.08.11-.12.17-.1-.01-.21-.02-.36-.03-.15,0-.32,0-.56.09-.19.06-.42.23-.59.45h-.02c-2.31,2.82-4.25,4.89-5.68,6.33-.71.72-1.3,1.28-1.74,1.71-.08.07-.13.12-.19.19,0-.12,0-.25-.01-.37-.01-.37-.02-.73-.03-1.02,0-.15-.01-.28-.02-.4-.01-.13-.01-.21-.06-.39v-.03s-.01-.02-.01-.02c0-.02-.04-.24-.05-.53-.02-.3-.03-.68-.02-1.14,0-2.21.19-5.92.4-9.18.1-1.63.22-3.15.32-4.33.05-.58.09-1.08.13-1.46.02-.19.04-.36.05-.48.08-.06.23-.16.42-.37.25-.26.44-.71.46-1.14h0c.01-.07.03-.14.03-.21,0-.4-.12-.65-.22-.88-.15-.34-.33-.62-.44-.85-.02-.04-.03-.07-.05-.1.01-.02.03-.03.05-.05.15-.15.49-.47.67-.99l.08-.22-.02-.23h0c-.01-.21-.05-.34-.08-.45-.04-.13-.08-.22-.11-.3h0s-.03-.37-.03-.37c-.06-.85-.12-2.06-.12-3.29,0-.88.03-1.76.11-2.51.07-.75.21-1.38.34-1.66.29-.66.63-1.07,1.1-1.6.38-.43.83-.95,1.25-1.64.11-.04.21-.09.34-.14.88-.38,2.41-1.13,3.96-1.8.77-.33,1.54-.63,2.2-.85.65-.22,1.22-.33,1.44-.33h.04c.66.39,1.45.88,2.03,1.37.31.25.55.51.69.7l.13.23.02.05h0v.02c0,.12-.01.23-.01.35,0,1,.18,2.71.35,4.37.09.83.17,1.63.24,2.3.06.66.1,1.22.1,1.43v.07s-.02.17-.06.37c-.12.74-.39,2.22-.64,3.66-.12.72-.24,1.44-.32,2.05-.08.63-.14,1.13-.15,1.55v.04c-.04.08-.15.24-.29.42-.24.3-.56.66-.85,1.03-.15.19-.28.38-.41.61Z"/>
  <path class="cls-1" d="M198.72,281.12c.49-.08.81-1.6,1.31-1.94.73-.5,2.78.25,3.48-.44.78-.76,4.32-5.84,4.46-6.42.44-1.82.7-4.79-1.35-6.31-2.04-1.52-2.83,2.04-4.92-.21-1.66-1.78.97-3.65,1.46-4.8.52-1.22,1.92-2.28,3-3.59.46-.56.88-2.48,1.12-3.05.66-1.52-1.38-.93-1.64-2.28-.52-1.51-1.15-.88-3.93-.95-.36.1-3.23.39-4.35.97-3.95,2.45-4.1.35-7.79,3.55-.75.48-3.35.66-3.96,1.37-2.33,2.01-5.16,1.61-6.52,2.81-.54.14-1.89-1.69-1.97-2.49-.42-2.36-.54-4.25-.6-6.72.1-.85.53-1.52.62-2.37-.1-1.01.83-1.97.58-2.99-.51-2.1-2.29-4.25-2.33-6.24-.02-1.34,1.51-2.56,1.9-3.79.31-.98-.51-1.98-.37-2.89.25-1.28-.94-4.4-.82-7.17.1-2.25,1.47-5.39,2.03-6.16,1.96-2.5-.3-3.54,2.36-5.22,2.08-1.29,5.7-2.38,7.7-3.58,1.8-1.08,4.34-1.05,4.75-1.68.92-1.09,3.14-3.59,3.94-4.42.79-.81,2.43,1.33,3.32-.89.2-.5,5.25-3.72,4.39-6.79.2.9-.88-1.39-2.21-3.25-.66-.93-2.53-1.98-3.17-2.94-1.36-2.01-1.26-3.86-.78-4.89.32-1.11.32-3.23.09-5.06-.21-1.61-1.78-1.91-2.32-2.15-.35-.13-1.29.79-3.81,2.01-1.28.62-2.69,1.33-4.03,2.04-2.34,1.24-4.5,1.35-5.63,2.17-1.15.86-1.99,1.01-3.08-.07-.66-.37-.75-2.54-.5-3.17.2-1.71-.13-3.26.21-4.74.45-2.32-.41-5.15-.21-7.95.07-.92,1.43-4.05,1.65-4.96.44-1.87-.1-3.75-.02-5.44.2-1.71-.83-4.62-.3-6.14.53-1.52,3.42-4.17,4.17-4.65.68-.66,2.38-1.46,4.82-2.61.63-.29,1.28.66,2.01.08.73-.58,1.53-2.63,2.35-3.45.23-.26.93.06,1.91-.84.45-.41.98-2.16,1.51-2.41.88-.42,1.83.49,2.8.05.65-.31,1.31-.61,1.93-.9,1.93-.91,3.53-1.71,3.9-2.12.37-.28.96.71,1.53.25.89-.72,3.08-2.34,2.77-3.82-.1-.49-.53-2.12-.93-2.52-1.09-1.08.26-4.95-1.36-6.69-1.62-1.74-5.96-1.35-6.79-1.67-1.31-.74-4.33,1.53-7.76,1.06-1.46-.2-2.84-2.22-1.52-4.5.92-1.9,2.98-1.64,1.47-5.08,0,0-.03.28-.18.05-1.86-1.97-3.07-.54-5.42.1-.57.15-1.2,1.6-1.82,1.66-1.32.14-2.7-1.14-4.09-.55-.85.36-1.71,2.05-2.51,2.27-1.34.37-2.65-.41-4,.3-1.41.73-2.86,3.3-4.33,4.5-1.47,1.19-2.95,1.01-4.5,1.72-.3.08-1.45-.73-2.75-.09-1.81.88-3.88,3.27-4.09,3.33-.36.1-3.92,1.08-4.68,1.57-2.97,3.01-6.15,3.32-8.43,6.42-1.89,2.72-7.63,4-4.25,9.41.73,1.18,1.65,2.3,2.92,3.33.47.42,2.74.35,3.29.21,1.88.31,1.18-1.15,3.44.44,0,0,.03-.28.18-.04l-.04.28c.53,2.89-2.08,5.5-2.17,7.73-.24,2.01.62,5.65.81,10.05-.1.85.6,2.31.53,2.89-.35,1.47-1.21,1.43-1.38,2.84-.35,1.48.28,3.51.58,5.35-.1.86-.78.76-.89,1.62-.1.86.71,2.84.91,4.16.34,1.56-1.1,1.95-1.42,3.14.05,1.09,1.11,2.44,1.3,3.77.16,1.61-1.37,4.23-1.39,5.89-.15,2.79.64,2.61.01,4.98-.13,1.13-6.68,4.39-7.98,7-1.53,3.07,1.97,3.85,1.37,6.52q-.62,2.73.38,4.66c.4.98-.58,3.76,2.49,4.92,1.65.62,1.29.13,2.49.77,1.54.83,1.65.72,1.6,2.66-.09,2.23.12,5.78-.27,10.56-.21.33-.54,4.55-.57,4.83.37,1.28-1.47,2.05,0,3.03.65.37,1.32,6.52,1.38,8.98.02,5.78-.46,6.9,1.02,13.65.68,3.12-2.83,7.04-2.64,8.36.5,3.17-.66,3.69,1.18,7.31.55,1.23.83,4.24,1.53,5.71.12.51.73,1.17.84,1.69.63,2.03,1.88,1.75,3.13,4.44.67,1.74,4.57-.27,6.2.66,2.1,1.34,3.8,1.26,5.68,1.57,1.7.36,3.06-3.72,5.02-2.59,1.16.51,3.77-4.18,6.12-4.81,1.08-.29,4.55-.68,5.48-1.21,3.23-2.26,5.7-2.56,8.6-5,.59-.51,1.34-.04,3.95-1.33,1.6-.8,1.55-.43,2.84-.63Z"/>
  <path class="cls-1" d="M270.13,236.67c.88,0,1.52,1,1.49,1.35-1.01,3.75-5.55,6.67-8.72,10.78-.98,1.34-4.03,4.05-1.65,6,1.96,1.74,3.25,1.66,5.63,1.22,1.1-.37,2.12-2.06,3.85-2.29,1.51-.15,3.76.81,5.04.73,2.39-.45,4.14-3.07,5.27-3.78.95-1,2.64-.87,3.59-1.87,2.41-2.42,1.43-3.19,3.77-6.21.46-.59,3.42-2.33,4.09-2.9.95-.81,1.95-2.76,2.54-3.52.8-.98,1.41-3.2,1.93-4.32.45-.97,1.98-1.81,2.35-2.62.62-1.38.05-2.68.87-4.3,2.72-5.31,1.5-5.89,2.84-9.51.6-1.63,2.18-3.17,2.38-4.7.22-1.64,1.46-6.73,1.47-8.44.02-1.52,1.08-2.84.98-4.03-.18-1.96-1.56-3.55-1.41-5.05.2-2.08,1.42-4,.98-6.53-.34-1.4.13-3.79-.58-6.48-.36-1.37-1.88-2.82-2.21-4.26-.48-2.13,0-4.24-1.03-6.05-.64-1.21-1.16-3.21-2.73-5.03-1.07-1.24-.94-2.4-1.55-3.16-1.42-1.61-1.67-4.09-2.93-5.19-.56-.49-3.41-.94-3.91-1.35-2.61-2.14-5.38-2.09-4.64-2.97,3.06-4.59,5.98-9.08,8.61-13.64,1.73-3,3.33-4.88,4.76-8,.43-.93.84-3.04,1.24-3.99.65-1.55,2.4-1.96,2.96-3.56.23-.68-.69-2.52-.48-3.21.49-1.57,2.09-3.18,2.49-4.81.56-2.34-.26-4.74-.1-7.23.18-2.76,1.64-5.62,1.81-8.6.15-2.58-.96-5.25-1.19-8.03-.3-1.26.3-5.21.22-6.54-.27-2.84-.21-6.24-1.9-9.53-.49-.97-2.48-1.92-3.36-2.85-.88-.93-.64-1.84-1.32-2.7-1.7-2.18-3.64-3.2-5.74-5.33-1.93-2.1.1-3.26-1.24-4.88-2.45-3.28-5.29-2.69-7.76-3.59-.63-.13,2.4.25-5.04-4.27-2.64-1.61-5.83-1.35-9.08-1.52-1.39-.07-2.8,1.38-4.17,1.58-.68.1-1.35-1.14-2.02-.96-.98.26-3.32-1.86-4.23-1.39-2.05,1.07-2.5,3.81-3.93,4.34-1.79.66-2.95-1.32-3.12-1.18-.95.99-2.39.44-3.05.67-1.5.16-2.59,1.14-3.5,1.78-.69.35-1.43-.75-2.17-.48-.67.24-1.34,2.3-1.98,2.97-.5.53-.98-.31-1.42.03-.26.17-.62,2.04-1.05,2.38-1.38,1.08-3.52.1-5.67,1.29-1.32.74-2.65,1.32-3.82,2.2-1.41,1.07-2.57,2.27-3.18,2.95-1.25,1.38-3.77,2.62-4.87,3.78-1.32,1.4-1.18-.79-2.41.46-1.03,1.05-.68,2.09-1.77,3.16-1.04,1.04-3.51,2.12-4.69,3.3-1.53,1.53-2.73,2.88-3.67,4.09-1.45,1.85-3.67,3.38-4.15,4.67-1.08,2.92,1.12,4.68,1.12,6.45,0,5.72,7.24,4.66,3.1,12.16-1.56,2.9-1.39,2.73.53,4.83.37.55,1.8.22,2.29.22,2.18,0,5.27-1.31,12.76-7.06.39-.3,3.28-.38,3.25-.03-.83,1.99-3.35,3.21-2.74,5.74.08,1.34-4.1,5.55-3.77,6.46.77,5.2.97,5.31.77,9.46.15.63.71,1.48.86,2.11-.14,1.4-1.24,1.77-1.16,3.1.68,8.3,2.3,16.67,1.13,24.21-.36,1.49.35,2.96.21,4.37-1.11,4.8-12.19,9.13-9.57,15.08,1.23,2.67,2.14,4.93,2.94,7.74.55,2.28,3.4,1.79,3.81,5.97.15,1.54,3.74,4.23,3.87,5.8.32,3.31-3.75,8.24-3.43,11.55.13,3.02-.99,5.78-.42,8.66.33.91,1.12,1.68,1.26,2.31.3,1.26-.3,2.83.04,3.74-.03.34.78.77.74,1.12-.07.7-.54,1.2-.42,2.19-.04.34.55.83.74,1.11.33.91-1.6,6.19-1.89,6.97-.07.71,1.15,1.33,1.08,2.03-.07.71-.95,1-1.2,1.42-.58,1.56.21,7.31,1.63,10.25.15.64-1.29.08-1.32.44-.11,1.05,1.19,3.02,1.09,4.07-.11,1.06-.61,1.9-.72,2.96.05,1.69,1.6,3.22,2.06,5.11-.1,1.06-.68,2.61-.78,3.66.2,2.32.45,7.15.87,9.4-.11,1.05-.9,2.68.02,4.08.71,1.33,2.61,3.81,5.15,4.05,1.34.12,1.7-5.53,3.31-6.52,2.7-1.66,3.58-3.22,5.59-4.36,2.16-1.23,4.12,7.42,5.96,7.35,3.09-.12,5.3-5.34,5.19-6.25-.05-1.7.68-10.69.82-12.1.1-1.06-.86-2.1-1.16-3.37-.38-2.6-.12-7.28.31-9.46.56-3.6-.06-8.17-.49-12.46-.2-2.32,1.26-4.16,1.69-6.34.17-1.77-1.47-4.64-1.3-6.4.03-.35-.35-.57-.28-1.27.06-2.75-1.29-6.4-.64-8.66.07-.7.73-.92.8-1.63.49-2.89,0-6.47-.33-9.78-.2-2.31,1.26-4.17,1.65-6,.43-2.19-1.89-4.79,1.28-6.39,1.9-.96,4.08-4.44,6.67-5.61,3.73-1.69,5.1-4.51,8.64-3.64,1.03.34,2.25-.45,3.21.59,2.35,3.17,4.46,7.09,4.72,10.9.14,2.12-1.35,4.2-1.8,6.1-.48,2.05.06,3.88-.19,5.3-.61,1.91-.48,4.93-1.1,6.83-.68,2.22,0,3.89-.5,5.39-.65,2-2.89,3.71-4.39,6.05-1.04,1.61-1.13,3.52-2.57,6.02-1.54,2.46-1.43,4.31-2.26,5.85-1.48,2.78-3.42,4.6-5.06,7.32-.51.85-2.25,3.94-1.44,4.35,1.44.55,2.47,2.22,4.81,2.22,2.8,0,3.67-4.67,7.25-4.67ZM277.13,109.44c-.46,1.79-2.27,3.43-3.11,5.11-.87,1.75-.16,3.55-1.08,5.62-.33.75-1.88,1.53-2.38,2.36-.66,1.2-.14,2.32-.78,3.41-1.35,2.3-3.87,4.45-5.55,6.86-.46.68-1.36,3.14-2.47,4.6-2.5,3.29-6.04,6.2-7.91,5.64-.22.08-.84-.06-.77-.77-.34-5.34.15-11.7.85-16.7,1.81-9.8-1.38-15.86.44-25.67.53-3.24-.63-7.21-.32-10.39.17-1.76,4.75-5.64,5.73-6.98.7-.56,8.18-2.62,8.85-2.81,3.69-1.07,6.69,2.01,8.17,4.24,3.82,4.54,3.19,11.95,2.07,14.71-1.39,4.56-.98,7.87-1.73,10.78Z"/>
  <path class="cls-1" d="M352.87,219.58c.7-.37,1.41-.74,2.13-1.12.28-.15.56-1.64.84-1.78.55-.29,1.1.75,1.65.47.49-.27.98-1.87,1.47-2.13.72-.38,1.44.57,2.15.19,1.15-.62,2.28-1.23,3.38-1.84,1-.55,1.98-2.44,2.92-2.97.91-.51,1.79.37,2.62-.05,1.25-.63,2.4-1.31,3.42-1.97,2.13-1.39,3.66.62,4.29-.21,1.58-2.12,3.82-1.74,5.65-3.75s1-4.18.9-6.93c-.1-.84.25-3.47-.87-4.59-1.31-1.31-1.32-.59-4.65-.59-.84,0-1.96-.62-1.93-2.48.02-.97,4.62-5.46,4.85-6.56.39-1.82.74-1.29.74-2.02,0-.55-1.98-3.78-2.51-3.89-1.55-.59-3.54-.51-5.45.61-1.13.66-4.47,2.45-5.45,2.66-1.69.4-3.23.13-4.69,1.06-1.35.86-2.64,2.9-3.93,3.57-.91.48-1.82-.28-2.76.03-1.82.59-3.72,2.11-5.9,2.83-.76.24-1.93-.83-2.16-2.21-.4-3.38-.36-5.73-.75-9.11-.11-2.59,1.07-5.32.95-7.91.02-.8-.03-2.97-.05-5.56-.01-1.57-1.14-3.3-1.11-4.97.01-.78,1.15-1.56,1.18-2.3.11-2.7-.75-4.93-.3-5.6.25-.67,1.12-4.04,1.56-4.76.19-.06,2.11-.54,2.14-.84,1.18-2.73,3.45-1.61,5.49-3.73,2.78-2.77,3.97-1.13,7-5.14,1.93-2.97,5.71-1.95,8.87-5.12,2.53-2.54,2.01-6.98,1.5-7.4-2.85-2.57-1.94.55-4.78-.27-.54-.11-.35.38-2.58-1.86-1.47-1.47-.61-3.94,3.46-6.28,4.64-2.67,3.59-4.19,2.85-5.99-.18-.62-4.3-1.81-7.76.05-1.51.5-4.5,1.75-6.2,2.31-1.32.43-2.42.5-3.8,1.54-1.6,1.4-3.88.92-5.52.87-1.07-.23-.38-.05-.42-1.51-.31-4.28-.39-1.58-.23-5.14-.08-2.89.88-5.26.8-8.15.02-5.85-2.49-4.63.16-9.3.87-1.46-1.17-7.4-.14-8.61.59-.49,1.42-2.65,2.2-3.2,1.35-.73,4.15-.99,5.3-1.67,1.19-.98,1.62-.77,2.62-1.69,1.79-1.47,5.24-2.67,6.86-4.38,1.57-1.1,5.34-2.08,6.56-3.36,1.28-1.89,2.6-.98,3.7-2.8.21-.36.18-1.8.39-2.17,1.32-2.18,4.54-8.2,1.15-10.88-3.01-2.8-6.09,2.13-8.88-.66-4.11-1.64,1.36-4.54-1.47-7.41-1.32-1.46-.48-.57-1.82-.31-1.35.26-2.72-1.21-4.15-.59-5.63,2.57-6.26,3.98-12.07,6.58-1.3.58-4.03.21-6.1,1.22-2.48,1.11-4.68,2.45-6.74,4.88-.22.36-4.73,1.7-4.95,2.06-1.63,1.7-4.31,1.13-6.16,3.2-3.72,4.44-9.75,8.18-10.5,13.97-.45,2.78,3.05,7.29,3.6,9.16.42,1.32,4.27-.63,3.61,3.41-.19,1.16.45,2.43-.77,3.71-1.22,1.28,0,3.64.98,6.82,1.22,4.27-.78,7.78-.45,11.76.12,2.59-.44,4.53-.14,7.06.35,1.93-.76,4.05-1.1,5.62-.31,1.27,1.13,3.42.82,4.69.01,1.75-.55.85-.86,2.12-.12,1.21-6.46,4.73-6.39,5.88-.08,2.65,2.15,4.92,1.89,7.63-.12,1.2,4.48,2.77,4.17,4.04-.05.6-.95.31-1,.92-.62.79.71,2.11.94,3.49.13.55-1.72,2.61-.73,3.75.98,1.13.14,2.29,1.1,3.73.16.23-1.05,3.26-1.24,3.33,0,1.74.17,1.98-.01,3.8-.09.91.02,3.5.31,4.28.11.84.74,1.8,1.03,2.59.1.84-1.13.37-1.21,1.28,0,1.75-1.24,3.33-1.04,5.02.2,1.69.23,5.19.26,6.63.06,4.95,1.5,7.55,2.11,12.61.1.84.58,1.56.86,2.34.07,1.15-3.01,2.3-3.1,3.21.17,1.98,1.26,3.97,1.62,5.9.43,3.07-1.73,1.98.82,5.81.63.96,2.72,2.02,3.48,1.78,1.97-.65,3.76.21,1.13,2.85-.56.56-1.49.09-2.35.83-.5.43.27.88-.38,1.37-.6.48-.31,1.27.86,2.34.83.9.8,1.2,1.97,2.27.76.55,1.79.93,2.88,1.15.68.13.28,0,.97.01,1.42.04,2.75,1.18,3.59.77.73-.33,2.09-2.31,3.88-3.16,1.7-.82,3.8-.5,6.12-1.65,1.29-.64,2.65.02,4.06-.69.91-.46,1.84-2.29,2.79-2.78Z"/>
  <path class="cls-1" d="M227.31,322.91c.25-.42.52-.76.66-.87.53-.28,1.46-.5,2.39-.7.95-.22,1.89-.41,2.57-.78l.04-.02.03-.03c.53-.42.84-.56,1.19-.73.35-.16.77-.37,1.28-.82h0c.77-.62,1.98-1.23,3.2-1.86,1.19-.63,2.39-1.29,3.24-2.13.64-.44,1.89-.92,3.1-1.41,1.23-.5,2.43-1,3.14-1.72l.03-.03.03-.03c.2-.29.37-.41.51-.48.14-.07.28-.09.46-.09.22,0,.48.04.81.05.27,0,.59-.04.9-.2.31-.16.59-.44.82-.82.09-.16.11-.27.14-.39.08-.42.12-1.05.16-1.64.02-.29.05-.57.07-.78.01-.1.03-.19.04-.25v-.04c.44-.7,1.09-1.81,1.63-3.1.55-1.3,1-2.76,1.01-4.18,0-1.31-.42-2.63-1.57-3.56h0c-.44-.41-.82-.7-1.19-.88-.37-.19-.73-.28-1.05-.27-.42,0-.74.13-.99.22-.25.1-.43.15-.59.15-.13,0-.27-.03-.49-.15-.15-.08-.33-.23-.54-.41.27-.42.41-.87.41-1.34,0-.76-.33-1.49-.86-2.26-.53-.78-1.27-1.61-2.2-2.58-.39-.45-.9-.69-1.38-.68-.66,0-1.18.33-1.64.61-.46.29-.89.54-1.19.58l-.19.02c-.33,0-.76-.15-1.24-.34-.49-.19-1.03-.42-1.67-.42-.29,0-.59.05-.89.18-2.68,1.18-4.2,2.12-5.69,3.03-1.5.91-2.97,1.81-5.68,2.98-.45.21-1.38.27-2.42.35-1.05.09-2.23.22-3.32.73-1.1.48-2.19.76-3.3,1.23-1.09.46-2.18,1.11-3.21,2.29l-.05.03c-.17.09-.54.23-.97.39-.66.24-1.48.51-2.16.75-.34.12-.65.24-.89.34-.12.05-.23.1-.33.16l-.15.1s-.07.06-.1.1h0c-.64.65-1.53.89-2.59,1.19-1.04.29-2.24.66-3.23,1.74-1.73,2.01-4.03,3.9-6.02,5.97-1.98,2.07-3.68,4.36-4.1,7.23h0s0,.02,0,.02c-.03.2-.05.41-.05.61,0,1.5.77,3.14,1.54,4.65.39.75.79,1.47,1.12,2.09.33.62.58,1.15.67,1.48.08.28.27.5.47.63.36.22.72.26,1.07.31.53.05,1.05.1,1.36.26.15.08.25.17.34.31.08.15.15.37.15.74,0,.21-.02.45-.07.74-.04.23-.05.45-.05.66,0,.34.03.65.03.94-.01.59-.07,1.03-.59,1.58-.47.48-.65,1.12-.65,1.75,0,.73.2,1.5.46,2.36s.59,1.8.89,2.82c.23.84.32,1.66.32,2.46.01,2.51-.91,4.91-.92,7.64,0,.25,0,.5.03.76,0,.16,0,.31,0,.46,0,1.68-.28,3.12-.29,4.82,0,.43.02.89.07,1.36h0s0,.03,0,.03c.03.2.05.39.05.59,0,.71-.19,1.48-.44,2.24-.24.76-.54,1.5-.7,2.21-.04.16-.06.33-.06.51,0,.67.23,1.33.43,1.97.2.63.38,1.24.38,1.64,0,.11,0,.2-.03.27v.06s-.02.07-.02.07c0,.77-.12,1.1-.27,1.45-.15.34-.39.74-.56,1.41v.04s-.01.04-.01.04c0,.02-.07.19-.21.39-.48.73-1.66,1.95-2.69,3.08-.52.57-1.01,1.12-1.39,1.61-.19.25-.35.47-.47.69-.12.23-.22.43-.22.72v.02c0,.12,0,.24,0,.35,0,1,.19,1.66.36,2.21.17.55.31.97.31,1.73,0,.23-.01.48-.05.78h0v.11c0,.3.12.54.26.74.26.35.61.63,1.01.92.6.43,1.3.85,1.83,1.24.26.19.48.38.61.53l.13.18.02.04c-.06.02-.17.05-.34.12-.11.05-.25.12-.38.26-.1.11-.17.26-.2.41-.13.21-.2.44-.2.66.01.57.27,1.03.49,1.52.22.47.44.93.5,1.34-.03.14-.27.57-.5,1.03-.23.48-.48,1.03-.48,1.65,0,.37.11.78.39,1.11.17.2.25.38.3.58.08.31.06.7.1,1.19.03.44.14.97.45,1.52-.03.1-.08.3-.15.51-.15.43-.37.98-.56,1.42-.1.22-.19.41-.25.53l-.02.04-.19.06v.38s-.02.19-.02.19c0,.89.05,1.35.05,1.88,0,.37-.02.79-.09,1.45-.03.27-.04.63-.04,1.04,0,.55.02,1.18.07,1.76.05.53.11.97.21,1.33,0,0,0,.02,0,.03,0,.03.01.07.02.09.07.45.24.88.42,1.28.17.37.33.7.44.99-.09.03-.23.07-.39.14-.14.06-.31.16-.46.33-.15.17-.24.4-.26.64v.02s0,.03,0,.03c0,.64-.24,1.31-.5,2.03-.26.72-.55,1.48-.55,2.35,0,.12,0,.25.02.37.16,1.52.15,4.8.16,6.16,0,2.36.34,4.18.73,5.97.39,1.8.84,3.56,1.09,5.89.11.91.54,1.6.77,2.23,0,.11-.06.26-.19.45-.21.32-.57.69-.92,1.06-.17.19-.34.38-.48.59-.14.21-.26.44-.3.73v.05s0,.05,0,.05c.13,1.82.4,3.56.39,5.27v.46c0,.4.01.72.07,1.02.08.45.31.83.61,1.17.3.35.7.71,1.28,1.3.25.25.53.32.83.38.3.06.64.08,1.01.08.93,0,2.07-.14,3.05-.29.49-.08.93-.16,1.3-.23.36-.07.63-.13.79-.18.34-.11.67-.16.94-.16.28,0,.49.06.58.12.08.07.08.06.09.17.02.18-.23.79-1.08,1.62h0s-.19.11-.38.2c-.7.32-2.03.8-3.26,1.27-.62.23-1.21.46-1.71.68-.25.11-.47.21-.66.31-.19.1-.35.19-.49.31-.17.15-.24.3-.31.46-.19.47-.27,1.1-.27,1.83,0,.54.06,1.12.19,1.66.14.52.35,1.01.73,1.39h0c.36.41.52.65.76.97.24.31.53.67,1.09,1.19l.02.02.02.02c.32.24.69.31,1,.31.61-.01,1.12-.19,1.57-.18.12,0,.22,0,.33.03.23.05.35.07.49.07.13,0,.23-.03.23-.03.01,0,.03,0,.14,0h.13c.36.02.71.03,1.06.03.95,0,1.83-.06,2.55-.39.15-.08.63-.1,1.27-.15.64-.06,1.46-.18,2.37-.6,1.58-.73,3.56-1.49,5.77-2.55.11-.05.2-.07.32-.07.26,0,.63.14,1.07.33.43.19.93.42,1.54.43.28,0,.59-.06.88-.2.91-.45,1.79-1.06,2.64-1.49.67-.34,1.33-.68,2-1.02.18-.1.24-.2.31-.29.1-.15.16-.31.23-.48.09-.25.18-.52.27-.73.01-.03.03-.06.04-.09.07.05.17.11.29.19.18.12.41.28.79.29.13,0,.29-.03.42-.1.29-.16.42-.36.56-.56.2-.31.38-.67.55-.96.08-.14.16-.27.23-.36l.08-.09h0s.08-.03.08-.03c.07,0,.24.05.46.14.22.09.5.22.87.23.18,0,.39-.04.58-.14,1.08-.56,2.15-1.13,3.19-1.68,1-.53,1.92-1.24,2.76-1.69.12-.06.21-.08.33-.08.15,0,.34.04.57.1.23.06.5.13.82.13.22,0,.47-.04.7-.16.39-.19.68-.47.9-.77.33-.45.53-.93.73-1.32.2-.4.39-.68.61-.81.91-.58,1.64-.66,2.29-.71.33-.02.63-.02.95-.08.31-.05.68-.2.92-.52.23-.3.4-.47.51-.54.11-.07.13-.07.16-.07.03,0,.1.01.24.07.14.05.35.13.62.13.24,0,.52-.07.78-.22.27-.15.53-.38.83-.7,1.73-1.85,3.2-3.95,3.2-6.66v-.19s0-.03,0-.03c0-.06-.02-.23-.02-.45,0-.25,0-.58,0-.93,0-.69-.02-1.5-.13-2.27-.12-.76-.3-1.48-.79-2.01-.54-.54-.85-1.2-1.5-1.81-.32-.3-.74-.56-1.27-.74-.49-.16-1.08-.26-1.82-.28-.03-.07-.07-.18-.1-.34-.15-.7-.19-1.96-.19-2.92,0-.62.02-1.11.02-1.31v-.12c-.01-.09-.02-.19-.04-.32-.08-.6-.28-1.65-.51-2.6-.12-.48-.25-.92-.38-1.27-.07-.18-.14-.33-.23-.48l-.17-.22c-.06-.06-.15-.12-.27-.16h0c-.45-.18-.85-.42-1.29-.64-.43-.21-.92-.41-1.5-.41-.52,0-1.08.16-1.69.51-.6.34-.93.71-1.16.94-.24.23-.31.31-.65.38-.74.17-1.47.19-2.23.28-.76.08-1.56.24-2.34.73-.73.45-1.37,1.15-1.99,1.8-.61.65-1.21,1.24-1.69,1.48-.13.06-.24.08-.38.08-.35.02-.85-.2-1.51-.22-.19,0-.4.03-.61.09-.93.29-1.83.79-2.74,1.29-.92.5-1.85.99-2.81,1.29h-.04c-.1.02-.42-.12-.68-.43-.27-.31-.5-.75-.57-1.22-.33-3.11-.26-5.31-.59-8.49v-.2c0-1.06.23-2.19.48-3.35.25-1.16.51-2.36.51-3.57v-.22c0-.37.01-1,.01-1.82v-1.47c0-.6,0-1.24,0-1.92v-.13c-.03-.8-.28-1.56-.52-2.29-.25-.77-.47-1.5-.46-2.14v-.09c0-.05.03-.16.11-.29.12-.21.34-.47.55-.75.21-.29.44-.61.47-1.08.07-1.25.16-2.39.28-3.28.06-.44.13-.82.21-1.12.07-.29.16-.49.21-.56l.04-.05.02-.06c.06-.16.08-.3.11-.47.08-.57.09-1.44.13-2.26.02-.41.05-.79.1-1.1.02-.15.04-.28.07-.37.22-.06.54-.15.86-.25.24-.08.48-.16.68-.25.1-.05.2-.1.3-.17l.16-.15s.06-.1.09-.17h0c.26-.56.53-.88.85-1.11.46-.35,1.07-.5,1.82-.74.74-.24,1.61-.59,2.41-1.42,1.25-1.2,2.02-1.39,3.03-1.8,1.02-.41,2.15-1.05,3.62-2.96l.02-.02h0c.4-.61.85-.91,1.4-1.12.83-.32,1.91-.35,3.12-.56,1.2-.21,2.54-.65,3.76-1.84.71-.69.97-1.6.97-2.5,0-1.41-.59-2.86-1.2-4.03-.31-.58-.63-1.09-.89-1.49-.13-.2-.25-.36-.36-.49-.11-.13-.18-.22-.28-.32-.18-.17-.26-.38-.27-.77,0-.58.28-1.47.68-2.44.4-.98.91-2.07,1.3-3.18.74-2.07,1.05-4.07,1.06-5.43,0-.55-.05-.98-.18-1.35h0s0-.01-.01-.02c0,0,0-.02,0-.03h0c-.06-.16-.15-.26-.23-.34-.17-.15-.36-.26-.6-.37-.71-.31-1.82-.56-3.13-.57-1.24,0-2.64.24-3.98.92-1.47.47-4.25,1.59-5.81,2.08-.58.18-1.15.29-1.76.48-.61.19-1.27.47-1.97.99h-.01s-.02.02-.02.02c-.73.62-1.61,1.3-2.47,1.81-.86.51-1.71.84-2.29.83h-.01c.05-.2.09-.47.09-.82v-.09c-.15-2.46-.24-3.22-.24-4.17,0-.6.03-1.31.11-2.61v-.02s0-.03,0-.03c-.04-2.72-.2-4.94-.24-7.63v-.15c0-2.18-.75-3.46-1.46-4.33-.35-.44-.68-.78-.89-1.1-.22-.32-.32-.58-.33-.94,0-.41.17-1.02.7-1.92.25-.4.49-1.01.76-1.75.4-1.1.84-2.48,1.27-3.68.22-.6.43-1.15.63-1.6.19-.44.39-.78.5-.91h0c.2-.19.35-.4.51-.65.27-.42.53-.92.8-1.35Z"/>
  <path class="cls-1" d="M454.65,169l-.02-.19c-.07-.77-.24-2.56-1.04-4.4-.41-.95-.94-1.62-1.37-2.16-.59-.74-.83-1.05-.83-1.9,0-.68.29-1.26.63-1.93.52-1.03,1.22-2.43.53-4.12l-.04-.1-.05-.09c-.29-.55-.4-.81-.53-1.15-.18-.44-.37-.94-.91-1.92-.2-.77-.67-1.3-1.43-1.62l-.19-.09c-.12-.06-.25-.14-.37-.21-.59-.35-1.4-.83-2.41-.83s-1.89.47-2.51,1.32l-.03.04-.03.05c-.25.38-.36.43-1.3.62-1.03.21-2.45.5-3.92,1.81l-.06.06-.06.06c-.3.32-.55.4-1.24.59-.75.21-1.78.49-2.84,1.36l-.13.1-.11.12c-.42.47-.88.56-1.86.72-1.23.2-2.91.48-4.37,2.09l-.05.05-.04.06c-.33.42-.79.51-2.02.67-.47.06-.98.13-1.53.24-.12-2.56-.38-5.22-.63-7.81-.1-.93-.18-1.87-.27-2.79-.06-1.3-.37-2.48-.68-3.63-.26-.99-.51-1.93-.53-2.75-.02-.75.19-1.62.4-2.54.25-1.07.53-2.29.51-3.57,0-.73.18-1.59.39-2.49.25-1.1.54-2.35.51-3.69-.03-1.07-.39-2-.71-2.82-.21-.52-.41-1.06-.43-1.4v-.03s0-.03,0-.03c-.08-1.16-.32-2.24-.55-3.29-.26-1.18-.5-2.3-.45-3.29.08-1.31.41-2.66.76-4.09.4-1.62.81-3.29.88-5.06v-.08s0-.07,0-.07c-.03-1.12-.19-2.29-.35-3.43-.19-1.32-.38-2.68-.31-3.74.04-.1.09-.22.15-.35.25-.58.59-1.35.59-2.37.16-1.06.07-2.13-.03-3.17-.03-.38-.07-.74-.08-1.09.27-.34.44-.76.49-1.23.09-.98-.17-1.92-.39-2.68-.08-.29-.18-.65-.21-.85.02-1.81.11-3.66.21-5.46.17-3.26.35-6.62.09-10.06.03-.72-.15-1.39-.31-1.99-.09-.34-.18-.69-.2-.92v-.13s-.03-.13-.03-.13c-.12-.62,0-1.4.13-2.22.11-.69.22-1.41.22-2.16-.01-1.01-.27-1.94-.5-2.76-.14-.5-.33-1.18-.31-1.43.01-.13.07-.32.12-.52.14-.5.33-1.17.24-1.99-.12-1.27-.7-2.57-1.27-3.83-.34-.75-.72-1.59-.81-2.07-.14-.85,0-1.96.17-3.13.37-2.66.83-5.98-1.76-9.39l-.02-.02-.02-.02c-.47-.59-1.35-1.29-2.86-1.29-.39,0-.75.04-1.07.08l-.28.03c-.51-1.2-1.58-1.95-2.81-1.95-1.33,0-2.55.89-3.1,2.27-.27.68-.33,1.56-.41,3.06-.04.63-.1,1.65-.19,2.34-.67-.23-1.56-1.5-2.23-4-.12-.44-.67-1.9-2.89-1.9-.53,0-1.1.07-1.65.15l-.22.03c-.17.02-.33.05-.46.06h-.25c-2.01,0-2.92,2.3-3.05,3.22l.02-.14c-.53,2.66-.5,3.71-.48,4.83.02.84.04,1.71-.22,3.66v.08c-.09.87.07,1.69.22,2.49.09.46.17.9.19,1.26-.04.86-.18,1.73-.34,2.65-.24,1.42-.51,3.02-.38,4.81,0,2.5.15,4.96.29,7.34.14,2.32.29,4.72.28,7.1-.06,1.21-.3,2.57-.55,4.02-.23,1.29-.46,2.62-.57,3.91-1.33,1.1-1.08,2.44-.87,3.05.16.56.39,1.03.58,1.41.07.14.16.32.22.47-.33.39-.8,1.02-.89,1.92-.16,1.63.38,3.27.86,4.72.22.67.43,1.3.56,1.87-1.33,3.25-1.51,4.05-.85,5.06l.06.08.06.08c.27.33.74.92,1.46,1.24-.13.76-.45,1.9-.63,2.53-.45,1.6-.7,2.46-.45,3.31.18.73.5,1.36.78,1.92l.11.23c-.61.47-.86,1.06-.94,1.56-.22,1.08-.03,2.14.13,3.08.1.6.21,1.22.17,1.65v.06s0,.06,0,.06c-.05,1.05-.14,2.12-.23,3.25-.15,1.74-.31,3.53-.29,5.4v.12s.02.12.02.12c.11.93.52,1.85.92,2.73.18.39.45,1,.57,1.38-.65.49-1.94,1.49-1.98,3.63v.06c0,1.16.53,2.26.99,3.23.19.4.49,1.04.56,1.33v.12c-.05.4-.29,1.58-.48,2.53-.29,1.46-.47,2.38-.53,2.95v.12s-.01.12-.01.12c0,1.11.23,2,.42,2.79.11.45.22.88.27,1.32.16,2.62.13,5.29.11,7.87-.02,2.05-.04,4.18.04,6.25v.09s.01.09.01.09c.1.87.3,1.62.48,2.27.15.56.29,1.04.35,1.57.04,1.09-.07,2.14-.18,3.25-.3,3-.64,6.4,1.87,11.13l.06.1.06.09c.71,1.04,2.02,1.52,2.95,1.52.28,0,.56-.04.81-.12,1.42-.47,2.24-1.42,2.75-2.09l.15.12c-.06.15-.13.33-.2.47-.21.47-.47,1.06-.64,1.77v.05c-.07.26-.14.51-.21.76-.31,1.14-.69,2.57-.16,4.37.6,1.98,1.21,2.81,2.53,3.42.22.1.31.14.54.4.28.31,1.19,1.34,2.62,1.34h.23c.7.71,1.72.8,2.45.8.19,0,.36,0,.52-.03h.03c1.29,0,2.09-.58,2.52-.89l.05-.04c2.06-.35,3.96-1.26,5.37-2.56h0c.63-.12,1.31-.35,2.06-1.13.23-.09.7-.26,1.61-.55h.07c.32.07.72.13,1.14.13,1.28,0,2.05-.53,2.49-1.03.71-.59,1.11-1.39,1.41-1.99.07-.13.15-.31.22-.43h.07c.4-.03,1.22-.09,1.86-.67,1.04-.75,1.72-1.75,2.28-2.56.28-.42.61-.89.84-1.1.15-.08.38-.17.6-.25.62-.24,1.43-.55,2.09-1.24.47-.35.78-.38,1.06-.38.26,0,.57.04.86.08.44.06.9.13,1.4.13.89,0,1.68-.21,2.42-.63.59-.34,1.06-.79,1.55-1.27.9-.87,1.75-1.69,3.23-1.85,1.9-.21,3.34-.96,4.29-2.24,1.55-2.1,1.26-5,.82-7.29Z"/>
  <path class="cls-1" d="M345.87,426.31c-.53-2.65-.3-4.92-.66-7.32-.5-4.86-2.26-8.99-2.97-13.77-.08-1.24.46-2.66.18-3.83-.88-5.04-3.43-1.7-2.1-5.28.34-.75,2.5-.32,3.89-3.07.65-1.3,1.14-10.97,1.19-12.09.28-4.08-2.24-4.1-4.58-5.46-1.72-1-3.33-3.69-3.68-4.37-.82-1.61-2.14-6.2-2.36-8.01-.72-6.67-2.7-14.49-3.46-20.84-.3-3.04-1.46-5.17-1.95-8.14-.58-4.29-.65-8.96-1.7-13.68-.52-2.31-2.06-4.64-2.48-6.93-.4-2.21.22-4.39-.23-6.51-.42-1.75-1.3-2.7-1.69-4.78-.48-2.89-.18-5.87-.77-8.89-.29-1.51-1.59-3.02-1.75-4.55-.25-2.31.49-4.64.05-6.97-.33-1.72-1.72-3.44-2.08-5.15-.52-2.44-1.07-4.86-1.66-7.24-.28-1.16-1.34-2.38-1.61-3.54-1.67-6.99-.59-8.71-2.6-14.33-.31-.84-1.72-2.1-2.17-2.01q-1.69.37-3.57,1.61c-1.22.4-3.11,7.45-4.7,7.66-2.2.41-3.32,5.65-5.46,5.41-.98,0-2.69,1.61-3.5,1.88-1.65.86-.58,1.87-1.15,3.62-.3,1.04-1.14,1.63-1.44,2.67-.47.78.7,2.91.6,3.89-.13,1.29-3.4,2.68-3.53,3.98-.46,2.67,1.63,5.43.79,7.9-1.13,3.51-1.28,7.02-2.03,10.71-.3,1.04-2.19,2.29-2.48,3.33-.13,1.3,2.11,2.45,2.16,4,.02,1.88-3.03,2.88-3.39,4.57-.29,2.92.48,5.18.02,7.84-.09.97.39,2.07.09,3.11-.73,2.89-.36,5.96-1,9.13-.6,3-2.28,6.09-2.92,9.22-.65,3.2-2.24,6.45-2.73,9.69-.33,2.19,1.57,4.37,1.43,6.53-.28,4.27-2.46,8.46-3.11,12.42-.39,2.01.7,2.91.5,4.85-.53,1.43-3.37,2.36-3.53,3.99-.22,2.27,1.96,4.06,1.74,6.33.07,1.23-.94,1.56-1.23,2.6-.36,1.69-.45,4.54-.63,6.49-.55,3.63.52.46-2.34,3.6-1.21,1.04-1.85.15-3.43,1.44-1.5,1.23-3.95,1.49-4.75,2.83-.36.6-1.54,4.2-1.39,5.85.14,1.61,1.6,3.36,2.36,4.51.17.26,1.06,2.68,2.07,5.24.28.71.38,1.43.52,2.12.27,1.33,4.59.41,5.13,1.19.49.7,1.98.01,2.34,1.38.28,1.09.6,2.19-1,2.95-1.23.58-2.36,2.02-2.36,2.05.38,2.07-.15,1.41-.3,3.03.03,2.02-.82,3.96-.68,5.85.14,1.89,1.26,3.72,1.07,5.53-.17,1.57.55,3.12.2,4.69-.59,2.63-2.28,5.29-2.36,8.07.25,3.36-1.86,5.01.64,9.51.17.26-.03.32.54.45.75.38,1.65.57,3.06,1.74,2.1,1.74,2.8-2.64,5.55-2.64,4.74,0,2.46,6.09,3.62,7.98.85,1.29,1.57.94,3.29,1.31.41-.13,1.53-.61,1.62-1.58.53-3.31.28-4.39,1.18-5.63.44-.46,1.42-.47,1.49-1.11.3-1.05-.35-2.39-.43-3.63.4-2.02,1.71-3.39,1.89-5.34.3-1.04-.56-2.32-.46-3.3-.08-1.23.77-1.83.89-3.12.42-2.33-.25-7.44.54-9.59.36-1.69,1.37-2.03,1.91-3.45.73-2.21-.59-6.33-.49-10.3.03-1.21,1.25-2.41,1.55-3.53.59-2.25.58-4.2,1.75-5.38,2.39-2.36,5.77-1.91,8.88-3.57,4.35-2.37,11.06-5.73,14.58-5.64,1.15.25,2.21,3.97,2.6,6.05.2,1.98,1.71,4.17,2.28,6.42.57,2.24.18,4.54.75,6.7.4,1.68,1.86,3.69,2.3,5.88.25,1.25-.53,2.56-.27,3.9.22,1.1,1.49,2.21,1.73,3.33.24,1.16-.55,2.32-.29,3.46.57,2.5.14,4.94.82,7.11.71,2.27-.29,5.3.86,6.8.89,1.17.77,2.04,1.55,2.49,1.03.6,3.08,1.18,6.38-2.11,1.49-1.49-1.94-5.06,1.19-8.19,5.14-2.16,4.58,1.61,7.29,2.67,2.72,1.06,5.06-1.11,5.06-2.98,0-2.36-1.87-9-2.87-11.83-1-2.83-1.13-6.03-1.84-9.88ZM312.48,376.41c-1.23,2.61-8.05,6.1-10.89,7.04-.81.27-1.7-.69-1.94-2.19-.33-2.71,1.54-7.72,1.97-10.06.39-2.02,1.53-3.64,1.72-5.59.32-3.24-.43-7.71.61-10.25.07-.65.25-2.59.48-2.98.37-1.69.52-9.28,1.05-10.7.6-2.08,1.24-2.6,1.46-4.87.06-.65.84-.59,1.45-.79,0,0,.38.19.55.44.17.26.34.52.51.78-.24,1.01-.82,3.04-.4,5.38.21,1.17,1.46,2.41,1.55,3.64.23,2.98-.52,5.87-.4,7.38.13,1.68,1.15,3.41,1.2,5.16.05,1.75-.87,3.51-.46,5.26.08.46,1.24,1.01,1.37,1.64.26,1.23-.58,2.72-.46,4.21.21,2.66,1.18,5.32.63,6.52Z"/>
  <path class="cls-1" d="M425.89,249.28v-.06s0-.18,0-.18c0-.46-.13-.85-.24-1.2-.11-.35-.21-.68-.24-1.04.03-.38.05-.75.05-1.12,0-1.57-.25-3-.25-4.46v-.21c.04-.38.19-.74.36-1.15.17-.41.37-.89.38-1.48v-.13s0-.01,0-.01v-.03c-.09-.76-.27-1.4-.42-2.02-.15-.62-.27-1.2-.27-1.87v-.03s0-.02,0-.02c-.23-2.39-.54-4.83-.91-7.41-.02-.22-.02-.48-.02-.75,0-.82.06-1.74.11-2.29v-.06s0-.05,0-.05c-.03-.31-.05-.63-.05-.94,0-1.57.36-3.17.36-4.9,0-1.81-.45-3.78-2.18-5.84,0,0,0,0,0,0-.01-.02-.02-.03-.04-.05h0c-.23-.28-.51-.37-.79-.45-.3-.07-.64-.1-.99-.1-.5,0-1.02.06-1.47.17-.23.06-.44.13-.63.23-.19.1-.38.21-.52.45v.02s-.02.02-.02.02c-.21.42-.5.56-.93.85-.21.14-.45.33-.64.62-.18.28-.28.65-.28,1.07-.01.01-.11.07-.3.1-.29.06-.7.07-1.1.16-.2.05-.42.12-.63.28-.16.12-.27.33-.33.55-.03.05-.05.1-.06.14v.14c0,.15.01.23.04.35.1.4.31,1.04.5,1.82.19.77.35,1.66.35,2.47,0,.71-.13,1.34-.42,1.77-.29.43-.71.74-1.54.85-.14.02-.28.03-.41.03-.87,0-1.6-.36-2.27-.97-1.01-.9-1.81-2.36-2.47-3.64-.33-.64-.63-1.24-.92-1.72-.15-.24-.29-.45-.46-.63-.17-.18-.35-.34-.63-.43-.18-.05-.35-.06-.53-.06-.53,0-1.06.14-1.5.27-.22.06-.41.13-.55.17l-.16.05h-.03c-.1.03-.2.06-.29.12-.18.13-.24.3-.28.43-.03.13-.04.24-.04.35,0,.34.07.72.13,1.13.06.41.12.83.12,1.18,0,.26-.03.47-.08.57-.06.1-.05.09-.12.12-.76.18-1.21.72-1.39,1.17-.17.39-.19.72-.2.86-.11.42-.17.77-.17,1.08,0,.41.11.76.28,1.02.27.38.52.53.66.74.14.21.28.51.29,1.26v.27s0,.02,0,.02c-.03,3.53-.62,6.79-.66,10.46v.02h0s0,.19,0,.19c0,.74-.32,1.55-.43,2.59v.05s0,.05,0,.05c.02.2.03.4.03.59,0,.96-.21,1.95-.42,2.95-.22,1-.44,2.02-.45,3.06v.28c.05.84.38,1.59.68,2.31.3.72.57,1.39.6,1.99v.26c0,.77-.18,1.59-.4,2.44-.2.84-.42,1.71-.43,2.63-.07.75-.15,1.49-.32,1.94l-.04.09v.1c.02,1.05.3,2.04.56,2.96.26.93.51,1.8.51,2.6h0v.02s0,0,0,0c0,.4-.22.92-.51,1.49-.28.57-.63,1.19-.73,1.92-.05.45-.07.9-.07,1.35,0,2.02.42,4.01.49,6.07,0,.1,0,.19,0,.29,0,.97-.21,1.99-.44,3.03s-.48,2.08-.5,3.1v.03s0,.02,0,.02c.28,3.7,1.78,6.76,1.76,10.01v.07c-.14,2.95-.85,6.17-.85,9.41,0,.25,0,.51.02.76.03.75.21,1.46.36,2.12.16.66.29,1.26.29,1.75,0,.3-.04.55-.15.78-.06.13-.15.25-.26.38-.07-.12-.12-.23-.2-.37l-.06-.08-.08-.06c-.37-.24-.9-1.04-1.37-2.12-.72-1.61-1.39-3.83-1.95-5.84-.57-2.02-1.03-3.81-1.38-4.7h0c-.2-.62-.54-1.2-.84-1.73-.32-.54-.59-1.04-.66-1.37v-.02s-.01-.02-.01-.02c-.28-.82-.83-1.54-1.36-2.22-.53-.68-1.06-1.32-1.31-1.88-1.15-2.5-1.44-4.94-2.31-7.56-.33-.97-.42-1.98-.51-3.06-.1-1.08-.19-2.23-.56-3.44v-.03s-.02-.03-.02-.03c-.14-.32-.21-.8-.25-1.33-.04-.53-.07-1.09-.19-1.62-.14-.55-.46-1.25-.8-1.95-.34-.69-.69-1.38-.87-1.78h0c-.2-.57-.61-.97-.95-1.35-.18-.19-.35-.37-.46-.53-.12-.15-.19-.28-.2-.34-.07-.29-.1-.57-.1-.86,0-.78.22-1.62.22-2.59,0-.35-.03-.71-.12-1.08v-.03s-.02-.03-.02-.03c-.52-1.39-1.34-2.63-1.82-3.64h0c-.26-.7-.74-1.32-1.19-1.94-.46-.63-.9-1.27-1.06-1.82-.1-.33-.14-.67-.14-1.04,0-.62.11-1.29.11-2.02,0-.34-.03-.7-.11-1.06,0,0,0,0,0-.01,0-.02,0-.03,0-.04h0c-.22-1.43-.99-2.48-1.72-3.43-.74-.97-1.42-1.86-1.65-2.97-.79-4.79-3.16-7.18-5.17-8.33-.27-.14-.51-.16-.76-.16-.78,0-1.77.3-2.68.69-.45.19-.88.41-1.23.64-.35.24-.64.45-.83.8l-.17.33c-.15.13-.38.31-.75.56-.66.45-1.71,1.1-3.37,2.04-.09.05-.18.07-.33.07-.2,0-.49-.05-.84-.05-.34,0-.75.06-1.15.3-.57.33-1.26.88-1.87,1.61-.61.73-1.15,1.66-1.34,2.75-.06.38-.35.91-.67,1.5-.31.59-.65,1.26-.69,2.03-.05.98-.06,2-.06,3,0,.34,0,.68,0,1.02.02,2.02.08,3.98.08,5.54,0,.85-.02,1.59-.07,2.15-.03.32-.05.63-.05.93,0,.94.11,1.79.11,2.64,0,.28,0,.56-.04.83h0c-.03.12-.05.23-.05.34,0,.54.19,1.04.35,1.53.16.48.3.95.3,1.26v.11c-.03.23-.09.36-.17.47-.12.16-.33.3-.61.48-.14.09-.29.2-.44.35-.14.15-.28.36-.35.6v.04s-.02.04-.02.04v.22c0,.65.24,1.27.46,1.85.22.55.41,1.08.44,1.4-.17,1.74-.52,3.8-.7,5.59-.02.15-.02.3-.02.44,0,.7.12,1.36.12,1.87,0,.15-.02.28-.04.4-.06.03-.15.06-.28.1-.08.03-.18.07-.3.16-.08.06-.16.17-.21.3-.16.23-.24.51-.24.75,0,.47.19.86.36,1.25.16.34.32.68.44,1.02-.03.1-.07.25-.11.42-.07.27-.13.61-.13.98,0,.42.1.9.43,1.3l-.02.05c-.11.21-.49.59-.86.96-.18.19-.36.39-.52.61-.15.22-.29.46-.29.8,0,.18.06.37.16.53,0,0,.06.11.1.25.07.2.14.49.19.75.03.14.05.28.06.39l-.07.02.05.43c.11.86.62,1.6,1.05,2.31.45.7.8,1.36.78,1.76l-.02.16-.02.08v.08s.01.05.01.05l-.02.05s-.17.15-.36.28c-.09.07-.2.15-.3.28-.1.13-.2.31-.22.52l-.02.13.05.12c.26.68.62,1.25.84,1.79-.03.13-.08.36-.14.62-.14.57-.34,1.34-.52,2.02-.09.34-.17.65-.23.91-.06.27-.11.45-.12.61h0c-.03.15-.05.3-.05.45,0,.64.22,1.24.43,1.81.2.54.4,1.05.48,1.46-.03.18-.08.3-.14.39-.12.16-.33.3-.61.48-.14.09-.29.2-.44.35-.15.15-.28.36-.35.6v.03s-.02.03-.02.03v.16c0,.32.08.6.19.9.16.45.39.93.57,1.36.19.42.31.82.29.93v.02h0s0,.04,0,.04c-.04,1.95-.23,3.98-.44,6.01v.02s0,.03,0,.03v.06l-.04.08c-.07.08-.36.18-.69.32-.17.07-.35.16-.52.31-.14.11-.26.28-.35.48-.02.03-.04.07-.05.1v.02s-.01.01-.01.02h0s-.03.16-.03.16c0,.12.03.19.05.25.08.2.18.33.31.52.18.26.42.57.6.84.09.13.16.25.21.34l.02.03c-.05.15-.09.29-.09.43,0,.48.21.88.4,1.28.18.38.38.76.5,1.14-.02.09-.07.28-.16.52-.15.43-.37,1.01-.56,1.59-.18.59-.34,1.17-.34,1.71,0,.32.05.65.31.95.16.18.29.31.43.42.14.1.32.18.51.18,0,0,0,0,.02,0,.02.03.05.08.09.13,0,.07-.03.23-.08.43-.08.31-.21.68-.32,1.01-.06.17-.11.33-.15.47-.04.15-.08.26-.08.44,0,.03,0,.07.01.11-.03.33-.04.66-.04.98,0,.54.03,1.06.03,1.6,0,.4-.02.81-.06,1.25-.02.03-.13.11-.3.24-.09.08-.2.17-.3.31-.1.14-.18.34-.18.56,0,.09.03.18.05.27h0s.02.06.02.09c0,.01,0,.03,0,.04h0c.08.42.24.76.39,1.04.16.32.28.57.31.8v.03s0,.03,0,.03c.09.37.17.71.17,1.04v.21s-.01.05-.01.05v.04c.02.16.02.33.02.49,0,1.11-.28,2.25-.57,3.41-.29,1.16-.6,2.34-.6,3.55v.18c-.01.45-.02.88-.02,1.27,0,1.76.13,3,.34,4.34.21,1.33.5,2.76.83,4.94.02.28.04.58.04.87,0,1.35-.23,2.84-.24,4.3v.07c.09.7.46,1.3.92,1.85.68.83,1.6,1.59,2.32,2.33.36.37.68.73.89,1.08.22.34.33.66.34.94.03.38.04.72.04,1.04,0,1.45-.25,2.67-.61,4.93-.13.82-.27,1.7-.41,2.64-.02.12-.03.24-.03.36,0,.6.18,1.14.33,1.65.16.51.29.98.29,1.39v.18c-.11,1.13-.61,2.33-1.11,3.46-.49,1.14-1,2.19-1.01,3.21,0,.13.01.27.04.4h0c.2,1.7.22,2.87.22,3.8,0,.34,0,.64,0,.93,0,.46,0,.88.06,1.31.07.57,0,1.27.19,2.23.19.96.64,2.16,1.72,3.8l.03.04.03.03c.17.18.36.26.55.32.19.05.39.07.6.07.85,0,1.92-.31,2.86-.82.47-.26.9-.57,1.23-.95.33-.38.58-.85.58-1.39.03-.34.39-2.55,1.12-4.58.36-1.02.82-2.01,1.35-2.7.26-.34.54-.62.82-.79.28-.18.55-.26.84-.26,1,0,1.61.26,2.07.62.68.53,1.01,1.41,1.32,2.24.16.42.3.81.53,1.17.12.18.26.34.46.47.2.13.45.2.7.2.23,0,.46-.06.69-.15.31-.13.57-.17.78-.17.32,0,.56.1.78.26.34.24.62.65.81,1.03.1.19.18.36.26.51l.13.22.13.14c.06.05.18.13.38.14l.14-.02c1.06-.3,1.74-.86,2.07-1.59.32-.72.34-1.5.36-2.36.05-.56.07-.77.07-1.08,0-.23,0-.49-.02-1v-.03s0-.03,0-.03c-.12-.98-.24-1.45-.33-1.81-.08-.36-.13-.61-.14-1.35,0-.17,0-.37.01-.6v-.07s0-.03,0-.03c0-.46.18-1.01.38-1.61.2-.6.44-1.24.44-1.96v-.06c0-.26,0-.51,0-.77,0-4.31-.99-8.62-1.13-12.91v-.03c-.03-.39-.05-.78-.05-1.17,0-2.07.37-4.21.37-6.45,0-.1,0-.21,0-.31-.03-4.46-.67-8.92-.68-13.55.06-3.46.85-8.02.85-11.76,0-.45-.01-.89-.04-1.32v-.03s0-.04,0-.04c-.31-1.66-.66-2.74-.79-4.36v-.17c0-.38.07-.87.15-1.38.08-.51.17-1.04.18-1.54v-.19c-.03-.65-.26-1.23-.45-1.74-.19-.51-.35-.96-.34-1.3l.03-.26v-.04s.01-.04.01-.04c.01-.14.08-.3.17-.52.09-.21.22-.48.26-.83h0c.44-2.89.51-5.8.64-8.78v-.02s0,0,0,0c-.02-1.39-.36-2.46-.35-3.44,0-.14,0-.28.02-.42v-.02s0,0,0,0c.04-1.24.1-2.76.26-3.99.08-.61.19-1.15.32-1.51.06-.18.13-.32.18-.39h0c.04.07.1.17.15.28.33.71.63,2.07.72,3.03v.04s.01.04.01.04c.57,2.34,2.38,7.39,3.87,11.11h0s0,.02,0,.02c1.27,2.79,2.03,4.23,2.45,5.97h0s0,.02,0,.02c.57,2.03,1.49,5.17,2.24,7.18.06.16.08.32.08.51,0,.29-.06.63-.06,1.04,0,.34.06.75.28,1.14.35.62.92,1.13,1.44,1.65.52.5.96,1,1.09,1.37h0c.21.6.68,1.02,1.1,1.45.44.42.86.83.99,1.13.32.65.47,1.36.65,2.17.18.81.38,1.73.85,2.73.4.91.96,1.7,1.47,2.43.51.72.95,1.38,1.16,1.98.18.51.17,1.09.2,1.82.04.71.14,1.56.63,2.48h0c.29.61.75,1.21,1.22,1.81.46.58.92,1.14,1.23,1.6.47.98.8,2.33,1.34,3.46l.02.03.02.03c.28.43.79,1.11,1.27,1.81.48.69.95,1.4,1.09,1.74v.03s.03.03.03.03c.32.55.48,1.22.64,1.98.17.76.37,1.6.83,2.44.38.68.98,1.26,1.53,1.79.54.51,1.04,1,1.19,1.27v.02s.02.02.02.02c.41.62.58,1.25.73,1.94.16.68.29,1.42.71,2.14.73,1.24,1.36,2.28,2,2.92.33.3.73.44,1.14.53.41.09.86.11,1.3.12.61,0,1.24-.06,1.76-.11.51-.05.95-.11,1.11-.11h.18s.06-.04.06-.04c.01,0,.03,0,.04-.01.22-.1.36-.23.57-.39.59-.48,1.52-1.28,2.39-1.63,1.06-.44,2.01-1.39,2.76-2.28.37-.45.69-.88.93-1.22.12-.17.22-.32.29-.44.08-.13.12-.2.17-.32.04-.13.05-.21.06-.3,0-.09.01-.19.01-.3,0-.54-.07-1.38-.14-2.24-.07-.86-.14-1.73-.14-2.27v-.02l.84.21-.77-1.15c.39-1.2.62-2.33.78-3.26.09-.5.16-.95.23-1.31.07-.36.15-.64.21-.78v-.03s.02-.03.02-.03c.16-.48.23-1.01.23-1.58,0-1.46-.41-3.16-.81-4.76-.4-1.6-.8-3.11-.82-4.01v-.08c0-1.33.23-2.46.23-3.92v-.04c.04-.44.14-.81.26-1.21.12-.41.25-.86.3-1.42v-.02s0-.04,0-.04c-.03-1.45-.48-2.85-.91-4.21-.43-1.35-.84-2.67-.86-3.9,0-.11,0-.23,0-.34,0-2.51-.83-5.08-.89-7.29,0-.2-.01-.4-.01-.6,0-2.6.66-5.23,1.34-7.88.68-2.65,1.39-5.33,1.43-8.04.06-1.83.37-4.36.37-6.75,0-.76-.03-1.5-.11-2.21h0s0-.03,0-.03v-.02h0c0-.17-.05-.29-.09-.4-.13-.34-.34-.72-.39-.94v-.05c-.02-.53.25-1.2.26-2.06,0-.28-.04-.57-.13-.88-.1-.63-.26-1.11-.39-1.52-.13-.39-.21-.72-.24-1.11.02-.09.08-.25.22-.46.12-.21.28-.48.35-.84h0c.23-.8.59-1.84.7-2.94v-.06s0-.05,0-.05c-.15-1.25-.58-2.4-.57-3.37,0-.21.02-.42.06-.62v-.03s0-.03,0-.03c.03-.28.04-.57.04-.85,0-2.16-.67-4.31-.72-6.37v-.02h0c0-1.18.49-2.67.49-4.27,0-.18,0-.36-.02-.54h0v-.02s0-.01,0-.01h0c-.03-.71-.26-1.36-.46-1.95-.21-.59-.38-1.14-.4-1.63.11-1.12.68-2.32.69-3.9v-.03c.02-1.28.08-2.44.08-3.64,0-.64-.02-1.29-.06-1.97v-.12c-.02-2.48,1.12-5.01,1.22-7.6v-.1c0-1.77-.47-3.06-.46-4.6Z"/>
  <path class="cls-1" d="M180.89,422.22c0-2.36-.46-4.89-1.1-7.39-.05-.19-.08-.56-.08-1.01,0-.84.1-1.96.1-3.12,0-1.35-.11-2.8-.86-4.08-.37-.64-.43-.87-.55-1.29-.12-.43-.3-1.03-.78-1.9-.47-.84-.94-2.38-1.45-3.89-.26-.76-.54-1.53-.86-2.24-.33-.71-.69-1.36-1.19-1.91-1.03-1.11-2.23-2.05-3.28-2.84-.53-.39-1.02-.75-1.43-1.06-.41-.31-.74-.58-.93-.77-.68-.67-1.41-.99-1.81-1.22-.14-.08-.21-.13-.26-.17,0-.03.02-.08.04-.14.05-.14.15-.35.31-.61v-.03s0,0,0,0c0,0,.1-.11.3-.23.31-.19.81-.42,1.35-.74.54-.32,1.15-.75,1.63-1.41.65-.9.89-1.93,1.13-2.86.22-.92.43-1.76.65-2.11.28-.47.73-.79,1.34-1.16.3-.19.64-.38.98-.63.34-.25.69-.58.95-1.03.28-.51.3-.98.31-1.39,0-.69-.12-1.34-.11-1.73v-.18s.02-.04.02-.04c.38-.97.46-1.91.46-2.76,0-.69-.05-1.33-.05-1.91,0-.38.02-.74.08-1.08.05-.33.3-.84.65-1.43.33-.59.75-1.24.94-2.07.07-.36.39-.89.78-1.52.19-.32.39-.66.56-1.05.17-.39.3-.85.3-1.35,0-.23.14-.74.35-1.36.2-.62.43-1.37.44-2.23,0-.13,0-.26-.02-.39-.1-.92-.49-1.65-.82-2.28-.34-.62-.62-1.16-.64-1.39-.05-.23-.07-.46-.07-.7,0-.59.12-1.26.26-1.99.14-.74.3-1.55.3-2.44,0-.09,0-.19,0-.28-.05-.94-.38-1.71-.67-2.41-.3-.7-.55-1.32-.62-1.83-.03-.2-.04-.39-.04-.59-.01-.92.32-1.89.33-3.13,0-.31-.03-.64-.1-.98-.25-1.15-.79-2.17-1.38-3.25-.59-1.08-1.23-2.2-1.76-3.49-.3-.73-.8-1.55-1.4-2.44-.9-1.33-2.05-2.76-3.12-3.91-.54-.58-1.06-1.08-1.55-1.48-.25-.2-.48-.37-.73-.51-.23-.13-.47-.23-.78-.29h0c-.11-.03-.51-.17-.93-.36-.65-.29-1.46-.72-2.05-1.11-.27-.17-.48-.33-.61-.45,0-.15-.03-.34-.15-.55-.09-.17-.25-.33-.39-.42-.23-.14-.4-.17-.52-.19-.12-.02-.2-.02-.26-.02h-.13c-.19,0-.19.01-.37-.11h-.01s-.02-.02-.02-.02c-.66-.48-1.4-.69-2.05-.69-.72,0-1.31.2-1.79.35-.49.16-.88.26-1.2.26h-.13c-.82-.08-1.58-.31-2.43-.55-.84-.24-1.77-.49-2.85-.49-.38,0-.78.04-1.2.11-2.28.21-4.36.59-6.33,1.34-1.97.74-3.8,1.85-5.56,3.45l-.02.02-.03.03c-.19.19-.31.27-.37.3l-.05.02s-.1,0-.29-.06c-.18-.05-.47-.14-.86-.14-.29,0-.62.06-.93.2-.31.13-.6.34-.89.59h-.01s0,.02,0,.02c-.85.82-2.12,1.57-3.44,2.31-1.26.71-2.56,1.42-3.64,2.3-.09-.02-.24-.07-.41-.12-.28-.09-.63-.21-1.11-.22-.35,0-.81.1-1.18.39l-.04.03-.03.03c-1.44,1.32-2.32,2.02-3.77,3.33-.12.04-.34.1-.64.18-.2.05-.43.12-.68.24-.21.1-.43.25-.63.45h0c-.92.78-1.73,1.73-2.51,2.67-.72.88-1.41,1.75-2.08,2.47-.03,0-.04,0-.07-.01-.12-.02-.29-.05-.53-.05-.22,0-.51.04-.79.18-.29.14-.53.38-.69.64h0c-.21.25-.36.51-.46.75-.19.48-.28.94-.36,1.34-.07.36-.15.66-.2.77-.24.4-.5.61-.89.98-.2.19-.44.44-.62.8-.19.35-.29.79-.29,1.24,0,.34.05.68.14,1.07h0c.28,1.31.69,2.64,1.28,4.06.16.38.38.65.59.9.33.37.69.69.98.98.26.25.45.48.54.63,0,.05,0,.12,0,.23,0,.41-.06,1.08-.13,1.76-.07.68-.14,1.36-.14,1.93,0,.14,0,.28.02.43.02.15.04.29.11.48.1.28.25.54.45.77.35.4.83.58,1.17.64.52.1.86.09,1.07.16.11.03.18.07.27.13.09.06.19.16.32.35l.04.06.05.06c.18.2.38.38.63.51.25.13.55.2.79.2.28,0,.48-.06.62-.1.08-.02.15-.04.21-.05.1,0,.21.03.31.03.7,0,1.28-.24,1.75-.46.47-.23.86-.46,1.2-.59l.08-.04.08-.04c.26-.16.59-.35.91-.48.31-.14.61-.21.74-.2h.04s.01.03.02.07c-.06.12-.23.36-.47.62-.38.43-.89.93-1.33,1.42-.23.25-.43.49-.61.76-.17.28-.37.57-.38,1.1,0,.08.01.15.03.23h0c.06.39.08.72.08.98,0,.46-.06.76-.15,1.03-.13.4-.36.77-.63,1.38-.26.58-.48,1.36-.49,2.37,0,.06,0,.12,0,.15.02.57.21.88.3,1.11.05.11.08.19.1.24-.02.07-.05.13-.18.34-.08.13-.19.31-.29.56-.1.25-.16.56-.16.88,0,.12.02.24.03.37h0c.1,2.19.19,4.38.19,6.52,0,3.29-.2,6.47-.81,9.37v.05s-.02.05-.02.05c-.02.13-.02.26-.02.39,0,.43.06.83.11,1.19.05.36.09.69.09.94,0,.16-.01.28-.03.36v.04s-.02.04-.02.04c-.03.18-.2.53-.57.94-.54.62-1.42,1.31-2.23,2.06-.41.38-.8.78-1.14,1.22-.33.44-.61.94-.72,1.54h0s0,.01,0,.02c0,0,0,.01,0,.02h0c-.03.17-.05.34-.05.49,0,.58.18,1.08.4,1.49.33.62.73,1.08,1.04,1.55.31.46.53.89.61,1.4.02.39.04.83.11,1.32.08.52.23,1.09.56,1.65.02.03.1.18.16.37.1.28.2.66.28.99.07.32.11.64.11.68h0s0,.01,0,.01c0,.03,0,.05,0,.08h0v.07h0c.01.38.12.73.28,1.01.29.52.69.88,1.09,1.22.6.49,1.26.9,1.71,1.26.23.18.39.34.47.43v.02c0,.17-.07.4-.23.69-.27.5-.76,1.11-1.22,1.79-.23.34-.46.7-.63,1.11-.18.4-.31.87-.31,1.38v.14s0,.02,0,.02v.02c.02.59.1,1.08.23,1.47.1.31.22.56.33.75.16.29.26.45.33.64.07.19.13.46.15.98v.04s0,.04,0,.04v.03c-.02.09-.11.32-.23.57-.06.13-.13.27-.19.43-.06.16-.13.33-.16.58h0s0,0,0,.02h0s0,.01,0,.01c-.01.11-.02.21-.02.29,0,.46.13.9.31,1.23.28.5.58.78.75,1.01.08.1.13.19.18.28-.13.1-.29.23-.45.35-.16.13-.32.26-.49.45-.08.09-.17.2-.25.35-.08.15-.17.36-.17.66,0,.13.02.22.03.3v.02s.02.03.02.03c.11.35.17.93.2,1.5.03.58.03,1.17.06,1.65l.02.27.14.23c.03.05.06.09.1.14-.06.04-.12.08-.18.13-.14.11-.32.24-.49.46-.17.21-.35.56-.35.97v.04s0,.03,0,.03h0s0,.02,0,.03v.09h.01c.03.27.1.45.17.58.03.06.06.1.09.14-.01.01-.02.02-.03.03-.09.1-.21.23-.31.42-.1.19-.19.45-.19.74,0,.08.03.14.04.21-.05.09-.13.24-.19.33l-.06.09-.04.1c-.09.23-.08.35-.08.42,0,.32.08.46.13.62.1.27.23.51.38.79.22.4.47.84.65,1.2.07.13.12.25.17.35-.08.1-.18.23-.3.38-.37.44-.88,1.01-1.32,1.67-.44.66-.85,1.43-.87,2.39,0,.3.06.61.17.91h0s.02.06.03.1c0,.03.01.06.03.09h0c.04.09.08.17.12.23.11.17.21.28.32.4.37.38.88.79,1.31,1.17.2.17.38.33.48.44.07.35.17.68.26,1.02.11.4.19.8.19.95v.05s-.03.09-.03.09v.1c-.02.09-.07.26-.17.54-.09.28-.23.68-.23,1.18,0,.12.03.24.04.37v.08c0,.12,0,.3.14.54.09.17.27.34.47.43,0,.02,0,.04,0,.07-.02.2-.03.37-.03.52,0,.14,0,.26.05.47.03.11.07.25.23.45h0c-.02.2-.03.4-.03.61,0,1.53.31,3.87.83,5.94.27,1.03.58,1.99.99,2.77.21.39.44.74.76,1.05.31.3.77.58,1.35.58h.12s.11,0,.11,0c.18,0,.26.03.33.06.1.05.18.12.3.26.06.07.11.15.22.27.06.06.12.14.26.24.13.09.36.23.7.23.28,0,.56-.12.71-.24.24-.2.32-.35.39-.48.07-.13.11-.25.16-.38.14-.39.24-.67.31-.86.04-.11.07-.17.09-.21.05-.02.13-.05.3-.11.82-.3,1.46-.81,2.05-1.22.26-.18.5-.34.69-.45v.08s.1.15.1.15c.17.3.44.45.61.51.18.06.3.06.4.07.2,0,.31-.03.42-.06.36-.1.68-.24.99-.36.04-.02.08-.03.12-.04.29.24.58.45.88.6.46.23.95.36,1.43.36.73,0,1.37-.29,1.85-.67.72-.57,1.18-1.31,1.53-1.98.34-.66.57-1.28.67-1.55.3-.78.48-.98.72-1.46.12-.23.24-.53.31-.87.07-.34.1-.71.11-1.18v-.07c0-.28-.06-.5-.12-.67-.09-.26-.19-.45-.24-.58v-.03c.09-.1.18-.21.24-.33.11-.21.15-.39.18-.57s.03-.35.03-.56h0v-.16l-.03-.12c-.05-.21-.12-.37-.19-.52.08-.02.15-.04.22-.07.34-.15.59-.48.69-.75.11-.28.13-.53.14-.78v-.22c.01-1.89-.43-3.09-.82-4.07-.39-1-.73-1.82-.85-3.65h0s0-.03,0-.03v-.09c0-.47.17-.94.43-1.57.25-.61.59-1.38.6-2.35,0-.12-.02-.24-.03-.37.03-.19.1-.49.18-.83.09-.39.19-.81.19-1.3,0-.09,0-.19-.02-.3v-.03s0-.01,0-.01c-.09-.6-.13-1.2-.13-1.8,0-1.83.35-3.7.35-5.76v-.18s0-.18,0-.18c0-.6.17-1.24.41-1.95.23-.72.52-1.5.62-2.41v-.09s0-.09,0-.09c-.08-1.05-.5-1.98-.85-2.83-.18-.43-.34-.82-.45-1.17-.07-.21-.11-.38-.13-.54.06-.03.11-.05.17-.09.14-.09.29-.23.4-.4l.03-.05.02-.05c.39-.76.44-1.57.45-2.42,0-.86-.09-1.78-.18-2.67-.09-.89-.17-1.76-.17-2.46,0-.37.02-.7.07-.94.04-.25.11-.4.15-.46v-.02s.03-.02.03-.02c.11-.18.19-.3.25-.37.1.02.26.03.45.03.3,0,.68-.06,1.05-.22.38-.16.75-.41,1.17-.76l.03-.02.03-.03c.68-.68,1.08-1.06,1.38-1.27.29-.22.52-.33,1.05-.53h.03s.03-.03.03-.03c.31-.14.57-.24.84-.24.23,0,.5.05.94.36.43.32,1.01.92,1.67,2,.69,1.11,1.62,1.77,2.38,2.5.78.73,1.45,1.49,1.92,2.8.4,1.26.68,2.5.86,3.71.13.9.36,1.62.52,2.24.17.63.28,1.14.28,1.72v.25c-.04.63-.24,1.5-.49,2.37-.25.87-.54,1.75-.73,2.52-.51,2.1-1.27,3.95-2.11,5.43-.67,1.23-1.03,2.16-1.23,2.93-.15.58-.22,1.05-.27,1.43-.08.58-.13.87-.37,1.33-.24.46-.73,1.13-1.77,2.14h0c-.19.19-.25.32-.32.44-.12.23-.22.47-.33.73-.16.39-.33.81-.46,1.1-.03.08-.07.14-.1.19l-.12.1c-.51.47-1.19,1.22-1.79,2.14-.58.92-1.12,1.97-1.13,3.17,0,.11.01.21.02.31v.02s-.05.08-.16.18c-.16.16-.45.38-.74.75-.3.36-.57.94-.56,1.59v.02s0,.21,0,.21c0,1.02-.04,1.45-.09,1.85-.04.4-.1.83-.1,1.59,0,.19,0,.4,0,.65v.03c.03.44.06.91.23,1.44.16.49.47.97.89,1.4h0s.03.03.04.04c.02.02.03.04.05.06h0c.26.28.56.49.85.64.49.25.97.38,1.38.49.4.1.75.2.83.24l.05.02.04.02c.2.07.36.08.5.08.28,0,.49-.06.69-.12.34-.12.66-.27.98-.44.48-.25.98-.54,1.42-.74.25-.13.49-.21.66-.26-.05.15-.13.35-.27.58-.35.62-.94,1.4-1.47,2.15-.27.38-.52.75-.72,1.14-.2.39-.38.78-.39,1.33-.01.38.15.87.49,1.19l.08.08.08.05.02.02c.06.05.19.19.33.36.22.26.49.6.8.91.16.16.33.31.53.46.19.12.42.24.72.3h0s.05.01.07.02c.02,0,.03,0,.04.01h0c.19.03.38.06.56.06.77,0,1.47-.26,2.14-.59,1-.5,1.94-1.21,2.75-1.87.76-.63,1.41-1.21,1.73-1.48,1.24-.74,1.87-1.05,2.52-1.45.33-.2.65-.43.99-.72.34-.29.72-.65,1.19-1.13l.07-.08.06-.09c.95-1.45,1.55-2.25,2.64-3.75,1.9-2.19,3.35-4.1,4.73-6.1.37-.53.99-1.39,1.61-2.29.62-.9,1.25-1.83,1.68-2.59.57-1.03.66-2.07.7-2.96.03-.9.03-1.67.21-2.3.8-3.05,2.19-6.24,2.43-9.87.06-.92.39-1.94.76-3.06.36-1.12.75-2.36.76-3.76v-.04h0v-.02ZM155.99,358.21c-1.01,3.81-1.51,6.48-2.03,8.53-.53,2.06-1.04,3.45-2.12,4.93-.47.64-.89,1.41-1.38,2.25-1.42,2.44-3.38,5.51-7.42,7.53,0-.16-.02-.31-.02-.43,0-.56.07-.75.2-1.17.13-.42.33-1.04.43-1.98v-.03s0-.02,0-.02c.11-1.77.14-2.72.22-3.62.08-.89.21-1.77.51-3.44h0c.04-.23.05-.42.05-.63,0-.52-.07-1.17-.15-1.9-.13-1.1-.32-2.39-.48-3.53-.08-.57-.15-1.09-.2-1.53-.05-.43-.08-.79-.08-.95v-.03c.1-.63.33-1.42.55-2.31.22-.9.43-1.9.43-2.99,0-1.26-.31-2.65-1.18-3.98,0,0,0-.02.02-.03.07-.15.08-.2.1-.25.01-.06.02-.09.02-.12.08-.33.21-.56.41-.8.3-.36.79-.7,1.41-1.08.61-.38,1.34-.79,2.02-1.41l.04-.04.04-.04c.37-.41.78-.71,1.26-1,.48-.29,1.02-.56,1.59-.9l.07-.04.06-.05h0s.15-.08.37-.12c.22-.04.51-.08.84-.07.68,0,1.51.12,2.24.36.73.23,1.34.59,1.62.92.45.51.78,1.2,1,2.02.21.82.31,1.76.3,2.71,0,2.03-.41,4.1-.72,5.2Z"/>
</svg>