<?xml version="1.0" encoding="UTF-8" standalone="no"?>
<!DOCTYPE svg PUBLIC "-//W3C//DTD SVG 1.1//EN" "http://www.w3.org/Graphics/SVG/1.1/DTD/svg11.dtd">
<!-- Created with Vectornator (http://vectornator.io/) -->
<svg height="100%" stroke-miterlimit="10" style="fill-rule:nonzero;clip-rule:evenodd;stroke-linecap:round;stroke-linejoin:round;" version="1.1" viewBox="0 0 84.1262 39.6712" width="100%" xml:space="preserve" xmlns="http://www.w3.org/2000/svg" xmlns:vectornator="http://vectornator.io" xmlns:xlink="http://www.w3.org/1999/xlink">
<defs/>
<g id="Untitled" vectornator:layerName="Untitled">
<path d="M8.18814 31.7734C8.47614 32.0554 8.64614 32.4044 8.64614 32.7814C8.64614 33.3004 8.32314 33.7664 7.81414 34.0784C7.40214 34.3334 6.86714 34.4864 6.28314 34.4864C5.71614 34.4864 5.19614 34.3424 4.78814 34.1014C4.55214 33.9624 4.35514 33.7914 4.20814 33.5974" fill="none" opacity="1" stroke="#000000" stroke-linecap="round" stroke-linejoin="round" stroke-width="0.4927" vectornator:layerName="path"/>
<path d="M42.5901 22.4704C44.9231 20.0374 48.0061 18.7414 51.0341 19.1294" fill="none" opacity="1" stroke="#000000" stroke-linecap="round" stroke-linejoin="round" stroke-width="0.9855" vectornator:layerName="path"/>
<path d="M52.1571 22.6664L49.6641 22.6664L7.37814 22.6664C6.08914 22.6664 5.04414 23.7114 5.04414 25.0004L5.04414 26.7774L5.04414 29.0904" fill="none" opacity="1" stroke="#000000" stroke-linecap="butt" stroke-linejoin="miter" stroke-width="0.657" vectornator:layerName="path"/>
<path d="M59.7841 22.6664L80.5621 22.6664C81.8501 22.6664 82.8961 23.7114 82.8961 25.0004L82.8961 36.2644C82.8961 37.5524 81.8511 38.5984 80.5621 38.5984L7.37814 38.5984C6.08914 38.5984 5.04414 37.5534 5.04414 36.2644L5.04414 36.0044" fill="none" opacity="1" stroke="#000000" stroke-linecap="butt" stroke-linejoin="miter" stroke-width="0.657" vectornator:layerName="path"/>
<path d="M11.4781 29.5284C11.4781 29.4884 11.4791 29.4224 11.4821 29.3294C11.4851 29.2374 11.4861 29.1394 11.4861 29.0374C11.4861 28.9354 11.4871 28.8374 11.4901 28.7454C11.4931 28.6534 11.4941 28.5894 11.4941 28.5544C11.5491 28.4494 11.6351 28.3734 11.7531 28.3254C11.8701 28.2784 11.9981 28.2454 12.1351 28.2284C12.2721 28.2114 12.4071 28.2044 12.5401 28.2094C12.6721 28.2144 12.7811 28.2164 12.8661 28.2164C12.9761 28.2164 13.1051 28.2214 13.2521 28.2314C13.3991 28.2414 13.5471 28.2604 13.6941 28.2874C13.8411 28.3144 13.9881 28.3544 14.1331 28.4074C14.2781 28.4594 14.4071 28.5274 14.5191 28.6094C14.6311 28.6914 14.7211 28.7924 14.7891 28.9094C14.8561 29.0264 14.8901 29.1654 14.8901 29.3254C14.8901 29.5154 14.8451 29.6864 14.7551 29.8394C14.6651 29.9924 14.5541 30.1344 14.4211 30.2664C14.2891 30.3984 14.1441 30.5224 13.9861 30.6374C13.8291 30.7524 13.6841 30.8654 13.5511 30.9744C13.4191 31.0844 13.3071 31.1964 13.2171 31.3114C13.1271 31.4264 13.0821 31.5514 13.0821 31.6864C13.0821 31.6964 13.0861 31.7104 13.0931 31.7274C13.1001 31.7454 13.1041 31.7564 13.1041 31.7614C13.6941 31.9364 14.2671 32.1484 14.8251 32.3984C15.3821 32.6484 15.9311 32.9184 16.4711 33.2084C16.4861 33.2184 16.5021 33.2374 16.5201 33.2644C16.5371 33.2914 16.5541 33.3244 16.5691 33.3614C16.5841 33.3984 16.5991 33.4324 16.6141 33.4624C16.6291 33.4924 16.6361 33.5174 16.6361 33.5374C16.6361 33.5824 16.6241 33.6164 16.5991 33.6384C16.5741 33.6604 16.5441 33.6784 16.5091 33.6904C16.4741 33.7024 16.4391 33.7094 16.4041 33.7094C16.3691 33.7094 16.3391 33.7094 16.3141 33.7094C16.0441 33.7094 15.7751 33.6504 15.5081 33.5334C15.2411 33.4164 14.9721 33.2844 14.7021 33.1394C14.4321 32.9944 14.1581 32.8624 13.8811 32.7424C13.6041 32.6224 13.3151 32.5624 13.0151 32.5624L12.7751 32.5624C12.8551 32.7474 12.9261 32.9124 12.9891 33.0574C13.0511 33.2024 13.1041 33.3424 13.1461 33.4774C13.1881 33.6124 13.2211 33.7484 13.2431 33.8864C13.2651 34.0244 13.2771 34.1724 13.2771 34.3324C13.2771 34.3674 13.2771 34.4084 13.2771 34.4564C13.2771 34.5044 13.2741 34.5524 13.2701 34.6024C13.2651 34.6524 13.2501 34.6974 13.2251 34.7374C13.2001 34.7774 13.1601 34.8044 13.1051 34.8194C12.9001 34.6994 12.7161 34.5134 12.5541 34.2604C12.3921 34.0084 12.2501 33.7194 12.1301 33.3944C12.0101 33.0694 11.9091 32.7244 11.8261 32.3594C11.7441 31.9944 11.6761 31.6354 11.6241 31.2834C11.5721 30.9314 11.5341 30.6014 11.5121 30.2934C11.4901 29.9854 11.4781 29.7334 11.4781 29.5284ZM12.1221 30.0004C12.1221 30.0654 12.1181 30.1494 12.1111 30.2514C12.1041 30.3534 12.1021 30.4584 12.1071 30.5664C12.1121 30.6744 12.1281 30.7764 12.1561 30.8734C12.1831 30.9704 12.2301 31.0544 12.2951 31.1244C12.3051 31.1294 12.3151 31.1314 12.3251 31.1314C12.3301 31.1364 12.3421 31.1384 12.3621 31.1384C12.4521 31.1384 12.5611 31.1114 12.6881 31.0564C12.8151 31.0014 12.9491 30.9294 13.0891 30.8394C13.2291 30.7494 13.3681 30.6454 13.5051 30.5284C13.6421 30.4114 13.7661 30.2894 13.8761 30.1644C13.9861 30.0394 14.0751 29.9134 14.1421 29.7854C14.2091 29.6574 14.2431 29.5414 14.2431 29.4364C14.2431 29.3364 14.2061 29.2504 14.1311 29.1774C14.0561 29.1054 13.9661 29.0464 13.8611 29.0014C13.7561 28.9564 13.6471 28.9244 13.5351 28.9044C13.4231 28.8844 13.3311 28.8744 13.2611 28.8744C13.1761 28.8744 13.0761 28.8734 12.9611 28.8704C12.8461 28.8684 12.7321 28.8754 12.6201 28.8924C12.5081 28.9104 12.4061 28.9414 12.3161 28.9864C12.2261 29.0314 12.1631 29.0984 12.1291 29.1884C12.1291 29.2184 12.1291 29.2704 12.1291 29.3454C12.1291 29.4204 12.1291 29.5014 12.1291 29.5894C12.1291 29.6764 12.1281 29.7584 12.1251 29.8334C12.1241 29.9104 12.1221 29.9654 12.1221 30.0004Z" fill="#000000" fill-rule="nonzero" opacity="1" stroke="#000000" stroke-linecap="butt" stroke-linejoin="miter" stroke-width="0.2464" vectornator:layerName="path"/>
<path d="M17.1091 29.6784C17.1891 29.7384 17.2541 29.8124 17.3041 29.8994C17.3541 29.9864 17.3941 30.0754 17.4241 30.1654C17.4291 30.3554 17.4311 30.5824 17.4311 30.8474C17.4311 31.1124 17.4411 31.3874 17.4611 31.6724C17.4811 31.9574 17.5181 32.2414 17.5731 32.5234C17.6281 32.8054 17.7141 33.0594 17.8321 33.2844C17.9491 33.5094 18.1071 33.6904 18.3041 33.8284C18.5011 33.9664 18.7501 34.0344 19.0501 34.0344C19.3251 34.0344 19.5611 33.9694 19.7591 33.8394C19.9561 33.7094 20.1211 33.5444 20.2541 33.3444C20.3861 33.1444 20.4841 32.9204 20.5461 32.6734C20.6081 32.4264 20.6401 32.1844 20.6401 31.9494C20.6401 31.4944 20.6181 31.0304 20.5731 30.5584C20.5281 30.0864 20.4461 29.6294 20.3261 29.1904C20.3611 29.1004 20.4061 29.0494 20.4611 29.0364C20.5161 29.0244 20.5761 29.0174 20.6411 29.0174C20.7711 29.0174 20.8731 29.0694 20.9481 29.1744C21.0231 29.2794 21.0791 29.4134 21.1171 29.5754C21.1541 29.7374 21.1771 29.9154 21.1841 30.1074C21.1911 30.2994 21.1911 30.4824 21.1841 30.6544C21.1771 30.8264 21.1661 30.9794 21.1541 31.1114C21.1421 31.2434 21.1351 31.3274 21.1351 31.3624C21.1351 31.6224 21.1291 31.8864 21.1161 32.1534C21.1041 32.4204 21.0741 32.6774 21.0261 32.9224C20.9781 33.1674 20.9091 33.3964 20.8161 33.6084C20.7231 33.8214 20.6001 34.0054 20.4451 34.1634C20.2901 34.3204 20.0981 34.4444 19.8681 34.5344C19.6381 34.6244 19.3631 34.6694 19.0431 34.6694C18.6381 34.6694 18.3061 34.5924 18.0461 34.4374C17.7861 34.2824 17.5771 34.0764 17.4201 33.8184C17.2631 33.5614 17.1451 33.2674 17.0681 32.9374C16.9901 32.6074 16.9361 32.2704 16.9031 31.9254C16.8701 31.5804 16.8481 31.2404 16.8361 30.9054C16.8241 30.5704 16.8071 30.2684 16.7871 29.9984L17.1091 29.6784Z" fill="#000000" fill-rule="nonzero" opacity="1" stroke="#000000" stroke-linecap="butt" stroke-linejoin="miter" stroke-width="0.2464" vectornator:layerName="path"/>
<path d="M21.9301 34.4994C21.9101 34.4194 21.8841 34.3044 21.8511 34.1544C21.8181 34.0044 21.7841 33.8394 21.7461 33.6594C21.7091 33.4794 21.6721 33.2904 21.6371 33.0934C21.6021 32.8964 21.5701 32.7034 21.5401 32.5164C21.5101 32.3294 21.4861 32.1564 21.4691 31.9994C21.4511 31.8424 21.4431 31.7134 21.4431 31.6134C21.4431 31.5684 21.4481 31.4914 21.4581 31.3814C21.4681 31.2714 21.4831 31.1564 21.5031 31.0364C21.5231 30.9164 21.5421 30.8044 21.5591 30.6994C21.5761 30.5944 21.5931 30.5224 21.6081 30.4824C21.6231 30.4774 21.6491 30.4754 21.6871 30.4754C21.7241 30.4754 21.7641 30.4734 21.8071 30.4684C21.8491 30.4634 21.8891 30.4594 21.9271 30.4574C21.9641 30.4554 21.9911 30.4534 22.0061 30.4534C22.2461 30.4534 22.4731 30.5014 22.6881 30.5954C22.9031 30.6904 23.1081 30.8104 23.3031 30.9554C23.4981 31.1004 23.6881 31.2624 23.8731 31.4424C24.0581 31.6224 24.2441 31.7974 24.4321 31.9674C24.6191 32.1374 24.8111 32.2914 25.0061 32.4284C25.2011 32.5664 25.4081 32.6694 25.6281 32.7394C25.6281 32.7144 25.6291 32.6754 25.6321 32.6234C25.6341 32.5714 25.6361 32.5144 25.6361 32.4544C25.6361 32.3944 25.6371 32.3384 25.6401 32.2854C25.6421 32.2334 25.6441 32.1944 25.6441 32.1694C25.6441 31.8544 25.6241 31.5474 25.5841 31.2474C25.5441 30.9474 25.4991 30.6474 25.4491 30.3474C25.3991 30.0474 25.3541 29.7464 25.3141 29.4434C25.2741 29.1414 25.2541 28.8294 25.2541 28.5094C25.2891 28.5094 25.3331 28.5104 25.3851 28.5134C25.4371 28.5164 25.4911 28.5234 25.5461 28.5354C25.6011 28.5474 25.6511 28.5684 25.6961 28.5954C25.7411 28.6224 25.7711 28.6644 25.7861 28.7194C25.8061 29.0794 25.8511 29.4404 25.9211 29.8024C25.9911 30.1644 26.0631 30.5274 26.1381 30.8894C26.2131 31.2514 26.2791 31.6144 26.3371 31.9764C26.3941 32.3384 26.4231 32.6974 26.4231 33.0524C26.4231 33.1174 26.4221 33.1874 26.4191 33.2624C26.4161 33.3374 26.4071 33.4084 26.3891 33.4764C26.3711 33.5434 26.3431 33.6004 26.3031 33.6454C26.2631 33.6904 26.2031 33.7124 26.1231 33.7124C25.8631 33.7124 25.6231 33.6534 25.4031 33.5364C25.1831 33.4194 24.9691 33.2724 24.7621 33.0974C24.5551 32.9224 24.3521 32.7304 24.1551 32.5204C23.9571 32.3104 23.7551 32.1184 23.5481 31.9434C23.3411 31.7684 23.1261 31.6214 22.9031 31.5014C22.6811 31.3814 22.4421 31.3214 22.1871 31.3214C22.1871 31.6014 22.2071 31.8704 22.2471 32.1274C22.2871 32.3854 22.3311 32.6414 22.3781 32.8964C22.4251 33.1514 22.4691 33.4054 22.5091 33.6574C22.5491 33.9094 22.5691 34.1664 22.5691 34.4264C22.5691 34.5214 22.5351 34.5864 22.4681 34.6214C22.4011 34.6564 22.3271 34.6734 22.2471 34.6734C22.1821 34.6734 22.1211 34.6674 22.0631 34.6544C22.0041 34.6404 21.9601 34.5894 21.9301 34.4994Z" fill="#000000" fill-rule="nonzero" opacity="1" stroke="#000000" stroke-linecap="butt" stroke-linejoin="miter" stroke-width="0.2464" vectornator:layerName="path"/>
<path d="M29.6451 30.3234C29.6251 30.2534 29.5861 30.2064 29.5291 30.1814C29.4721 30.1564 29.4091 30.1424 29.3421 30.1404C29.2751 30.1384 29.2081 30.1414 29.1431 30.1514C29.0781 30.1614 29.0281 30.1664 28.9931 30.1664C28.9081 30.1614 28.7611 30.1514 28.5511 30.1364C28.3411 30.1214 28.1151 30.1054 27.8721 30.0874C27.6291 30.0704 27.4031 30.0524 27.1931 30.0354C26.9831 30.0184 26.8361 30.0064 26.7511 30.0014C26.7511 29.9914 26.7481 29.9664 26.7441 29.9264C26.7391 29.8864 26.7371 29.8594 26.7371 29.8444C26.7371 29.7744 26.7431 29.7124 26.7561 29.6574C26.7681 29.6024 26.8171 29.5604 26.9021 29.5304C27.3721 29.5404 27.8361 29.5374 28.2931 29.5234C28.7501 29.5084 29.2081 29.4874 29.6651 29.4594C30.1221 29.4324 30.5801 29.4054 31.0371 29.3804C31.4941 29.3554 31.9561 29.3434 32.4201 29.3434C32.4201 29.5334 32.3751 29.6724 32.2851 29.7594C32.1951 29.8464 32.0841 29.9054 31.9511 29.9354C31.8191 29.9654 31.6721 29.9774 31.5121 29.9724C31.3521 29.9674 31.1981 29.9694 31.0511 29.9794C30.9041 29.9894 30.7741 30.0184 30.6611 30.0654C30.5491 30.1134 30.4751 30.1994 30.4401 30.3244C30.4351 30.3544 30.4301 30.4114 30.4251 30.4964C30.4201 30.5814 30.4161 30.6714 30.4141 30.7664C30.4111 30.8614 30.4091 30.9504 30.4071 31.0324C30.4041 31.1144 30.4031 31.1734 30.4031 31.2084C30.4031 31.4934 30.4391 31.7744 30.5121 32.0524C30.5841 32.3294 30.6641 32.6044 30.7521 32.8774C30.8391 33.1504 30.9191 33.4224 30.9921 33.6944C31.0641 33.9674 31.1011 34.2434 31.1011 34.5234C31.1011 34.7334 30.9811 34.8384 30.7411 34.8384C30.5961 34.8384 30.4671 34.7384 30.3551 34.5384C30.2431 34.3384 30.1451 34.0834 30.0631 33.7734C29.9811 33.4634 29.9131 33.1264 29.8611 32.7614C29.8091 32.3964 29.7661 32.0464 29.7341 31.7114C29.7011 31.3764 29.6791 31.0814 29.6671 30.8264C29.6521 30.5704 29.6451 30.4034 29.6451 30.3234Z" fill="#000000" fill-rule="nonzero" opacity="1" stroke="#000000" stroke-linecap="butt" stroke-linejoin="miter" stroke-width="0.2464" vectornator:layerName="path"/>
<path d="M35.2611 30.6384C35.0661 30.5984 34.8711 30.5084 34.6761 30.3684C34.4811 30.2284 34.2951 30.0584 34.1171 29.8584C33.9401 29.6584 33.7721 29.4364 33.6151 29.1914C33.4581 28.9464 33.3211 28.6994 33.2061 28.4494C33.0911 28.1994 33.0011 27.9574 32.9361 27.7224C32.8711 27.4874 32.8391 27.2774 32.8391 27.0924C32.8391 27.0674 32.8401 27.0374 32.8431 27.0024C32.8451 26.9674 32.8501 26.9334 32.8581 26.9014C32.8651 26.8694 32.8821 26.8414 32.9071 26.8194C32.9321 26.7974 32.9641 26.7854 33.0041 26.7854C33.1291 26.7854 33.2361 26.8294 33.3261 26.9164C33.4161 27.0034 33.4981 27.1204 33.5731 27.2654C33.6481 27.4104 33.7181 27.5754 33.7831 27.7604C33.8481 27.9454 33.9141 28.1324 33.9821 28.3224C34.0491 28.5124 34.1211 28.6994 34.1961 28.8844C34.2711 29.0694 34.3551 29.2344 34.4471 29.3794C34.5391 29.5244 34.6461 29.6404 34.7661 29.7284C34.8861 29.8154 35.0231 29.8594 35.1781 29.8594C35.1881 29.8594 35.2021 29.8574 35.2191 29.8524C35.2361 29.8474 35.2501 29.8454 35.2601 29.8454C35.4001 29.7204 35.5261 29.5544 35.6391 29.3464C35.7511 29.1394 35.8551 28.9154 35.9501 28.6754C36.0451 28.4354 36.1371 28.1884 36.2271 27.9334C36.3171 27.6784 36.4111 27.4414 36.5081 27.2214C36.6051 27.0014 36.7081 26.8094 36.8151 26.6444C36.9221 26.4794 37.0461 26.3644 37.1861 26.2994L37.5081 26.6294C37.5481 26.6694 37.5541 26.7504 37.5271 26.8734C37.5001 26.9964 37.4521 27.1484 37.3851 27.3304C37.3181 27.5134 37.2341 27.7154 37.1341 27.9374C37.0341 28.1594 36.9291 28.3914 36.8191 28.6314C36.7091 28.8714 36.5991 29.1104 36.4891 29.3474C36.3791 29.5844 36.2801 29.8084 36.1931 30.0184C36.1061 30.2284 36.0341 30.4154 35.9791 30.5804C35.9241 30.7454 35.8971 30.8754 35.8971 30.9704C35.8971 31.2704 35.9411 31.5604 36.0281 31.8404C36.1151 32.1204 36.2091 32.3994 36.3091 32.6764C36.4091 32.9534 36.5011 33.2314 36.5861 33.5084C36.6711 33.7854 36.7131 34.0694 36.7131 34.3594C36.7131 34.3994 36.7131 34.4504 36.7131 34.5134C36.7131 34.5764 36.7041 34.6344 36.6871 34.6894C36.6691 34.7444 36.6371 34.7864 36.5901 34.8164C36.5421 34.8464 36.4741 34.8484 36.3841 34.8234C36.1991 34.5534 36.0371 34.2474 35.8971 33.9044C35.7571 33.5624 35.6371 33.2064 35.5371 32.8364C35.4371 32.4664 35.3631 32.0934 35.3161 31.7154C35.2701 31.3364 35.2511 30.9784 35.2611 30.6384Z" fill="#000000" fill-rule="nonzero" opacity="1" stroke="#000000" stroke-linecap="butt" stroke-linejoin="miter" stroke-width="0.2464" vectornator:layerName="path"/>
<path d="M40.9521 29.5284C40.9521 29.4884 40.9531 29.4224 40.9561 29.3294C40.9591 29.2374 40.9601 29.1394 40.9601 29.0374C40.9601 28.9354 40.9611 28.8374 40.9641 28.7454C40.9671 28.6534 40.9681 28.5894 40.9681 28.5544C41.0231 28.4494 41.1091 28.3734 41.2271 28.3254C41.3441 28.2784 41.4721 28.2454 41.6091 28.2284C41.7461 28.2114 41.8811 28.2044 42.0141 28.2094C42.1461 28.2144 42.2551 28.2164 42.3401 28.2164C42.4501 28.2164 42.5791 28.2214 42.7261 28.2314C42.8731 28.2414 43.0211 28.2604 43.1681 28.2874C43.3151 28.3144 43.4621 28.3544 43.6071 28.4074C43.7521 28.4594 43.8811 28.5274 43.9931 28.6094C44.1051 28.6914 44.1951 28.7924 44.2631 28.9094C44.3301 29.0264 44.3641 29.1654 44.3641 29.3254C44.3641 29.5154 44.3191 29.6864 44.2291 29.8394C44.1391 29.9924 44.0281 30.1344 43.8951 30.2664C43.7631 30.3984 43.6181 30.5224 43.4601 30.6374C43.3031 30.7524 43.1581 30.8654 43.0251 30.9744C42.8931 31.0844 42.7811 31.1964 42.6911 31.3114C42.6011 31.4264 42.5561 31.5514 42.5561 31.6864C42.5561 31.6964 42.5601 31.7104 42.5671 31.7274C42.5741 31.7454 42.5781 31.7564 42.5781 31.7614C43.1681 31.9364 43.7411 32.1484 44.2991 32.3984C44.8561 32.6484 45.4051 32.9184 45.9451 33.2084C45.9601 33.2184 45.9761 33.2374 45.9941 33.2644C46.0111 33.2914 46.0281 33.3244 46.0431 33.3614C46.0581 33.3984 46.0731 33.4324 46.0881 33.4624C46.1031 33.4924 46.1101 33.5174 46.1101 33.5374C46.1101 33.5824 46.0981 33.6164 46.0731 33.6384C46.0481 33.6604 46.0181 33.6784 45.9831 33.6904C45.9481 33.7024 45.9131 33.7094 45.8781 33.7094C45.8431 33.7094 45.8131 33.7094 45.7881 33.7094C45.5181 33.7094 45.2491 33.6504 44.9821 33.5334C44.7151 33.4164 44.4461 33.2844 44.1761 33.1394C43.9061 32.9944 43.6321 32.8624 43.3551 32.7424C43.0781 32.6224 42.7891 32.5624 42.4891 32.5624L42.2491 32.5624C42.3291 32.7474 42.4001 32.9124 42.4631 33.0574C42.5251 33.2024 42.5781 33.3424 42.6201 33.4774C42.6621 33.6124 42.6951 33.7484 42.7171 33.8864C42.7391 34.0244 42.7511 34.1724 42.7511 34.3324C42.7511 34.3674 42.7511 34.4084 42.7511 34.4564C42.7511 34.5044 42.7481 34.5524 42.7441 34.6024C42.7391 34.6524 42.7241 34.6974 42.6991 34.7374C42.6741 34.7774 42.6341 34.8044 42.5791 34.8194C42.3741 34.6994 42.1901 34.5134 42.0281 34.2604C41.8661 34.0084 41.7241 33.7194 41.6041 33.3944C41.4841 33.0694 41.3831 32.7244 41.3001 32.3594C41.2181 31.9944 41.1501 31.6354 41.0981 31.2834C41.0461 30.9314 41.0081 30.6014 40.9861 30.2934C40.9641 29.9894 40.9521 29.7334 40.9521 29.5284ZM41.5971 30.0004C41.5971 30.0654 41.5931 30.1494 41.5861 30.2514C41.5791 30.3534 41.5771 30.4584 41.5821 30.5664C41.5871 30.6744 41.6031 30.7764 41.6311 30.8734C41.6581 30.9704 41.7051 31.0544 41.7701 31.1244C41.7801 31.1294 41.7901 31.1314 41.8001 31.1314C41.8051 31.1364 41.8171 31.1384 41.8371 31.1384C41.9271 31.1384 42.0361 31.1114 42.1631 31.0564C42.2901 31.0014 42.4241 30.9294 42.5641 30.8394C42.7041 30.7494 42.8431 30.6454 42.9801 30.5284C43.1171 30.4114 43.2411 30.2894 43.3511 30.1644C43.4611 30.0394 43.5501 29.9134 43.6171 29.7854C43.6841 29.6574 43.7181 29.5414 43.7181 29.4364C43.7181 29.3364 43.6811 29.2504 43.6061 29.1774C43.5311 29.1054 43.4411 29.0464 43.3361 29.0014C43.2311 28.9564 43.1221 28.9244 43.0101 28.9044C42.8981 28.8844 42.8061 28.8744 42.7361 28.8744C42.6511 28.8744 42.5511 28.8734 42.4361 28.8704C42.3211 28.8684 42.2071 28.8754 42.0951 28.8924C41.9831 28.9104 41.8811 28.9414 41.7911 28.9864C41.7011 29.0314 41.6381 29.0984 41.6041 29.1884C41.6041 29.2184 41.6041 29.2704 41.6041 29.3454C41.6041 29.4204 41.6041 29.5014 41.6041 29.5894C41.6041 29.6764 41.6031 29.7584 41.6001 29.8334C41.5981 29.9104 41.5971 29.9654 41.5971 30.0004Z" fill="#000000" fill-rule="nonzero" opacity="1" stroke="#000000" stroke-linecap="butt" stroke-linejoin="miter" stroke-width="0.2464" vectornator:layerName="path"/>
<path d="M46.2611 32.7374C46.2611 32.4824 46.2951 32.2234 46.3621 31.9614C46.4291 31.6994 46.5241 31.4474 46.6471 31.2074C46.7691 30.9674 46.9181 30.7434 47.0931 30.5364C47.2681 30.3294 47.4621 30.1494 47.6741 29.9964C47.8861 29.8444 48.1181 29.7244 48.3681 29.6364C48.6181 29.5494 48.8801 29.5054 49.1551 29.5054C49.4301 29.5054 49.6691 29.5594 49.8711 29.6664C50.0731 29.7744 50.2421 29.9174 50.3771 30.0974C50.5121 30.2774 50.6121 30.4834 50.6771 30.7164C50.7421 30.9484 50.7741 31.1854 50.7741 31.4254C50.7741 31.8454 50.7111 32.2594 50.5871 32.6664C50.4621 33.0734 50.2771 33.4384 50.0321 33.7614C49.7871 34.0834 49.4831 34.3434 49.1211 34.5414C48.7591 34.7394 48.3421 34.8374 47.8731 34.8374C47.5931 34.8374 47.3521 34.7734 47.1491 34.6464C46.9471 34.5194 46.7791 34.3544 46.6471 34.1514C46.5151 33.9494 46.4171 33.7244 46.3551 33.4764C46.2921 33.2284 46.2611 32.9824 46.2611 32.7374ZM46.8981 32.9024C46.8981 33.0374 46.9201 33.1794 46.9651 33.3294C47.0101 33.4794 47.0721 33.6174 47.1521 33.7414C47.2321 33.8664 47.3331 33.9714 47.4561 34.0564C47.5781 34.1414 47.7171 34.1834 47.8721 34.1834C48.2071 34.1834 48.5121 34.1074 48.7871 33.9544C49.0621 33.8024 49.2991 33.6044 49.4991 33.3624C49.6991 33.1204 49.8541 32.8484 49.9641 32.5484C50.0741 32.2484 50.1291 31.9514 50.1291 31.6564C50.1291 31.4864 50.1241 31.3114 50.1141 31.1314C50.1041 30.9514 50.0721 30.7874 50.0171 30.6404C49.9621 30.4934 49.8761 30.3734 49.7581 30.2804C49.6411 30.1884 49.4721 30.1414 49.2521 30.1414C49.1821 30.1414 49.0881 30.1444 48.9711 30.1484C48.8541 30.1534 48.7371 30.1674 48.6221 30.1894C48.5071 30.2114 48.4061 30.2454 48.3181 30.2904C48.2311 30.3354 48.1871 30.3984 48.1871 30.4774C48.1871 30.4874 48.1961 30.5084 48.2131 30.5414C48.2301 30.5744 48.2491 30.6074 48.2691 30.6424C48.2891 30.6774 48.3061 30.7114 48.3211 30.7434C48.3361 30.7764 48.3431 30.7974 48.3431 30.8074C48.3431 30.8174 48.3231 30.8434 48.2831 30.8864C48.2431 30.9284 48.2111 30.9554 48.1861 30.9654C47.9361 31.0304 47.7271 31.1114 47.5601 31.2094C47.3921 31.3064 47.2601 31.4334 47.1631 31.5884C47.0661 31.7434 46.9971 31.9284 46.9571 32.1434C46.9181 32.3604 46.8981 32.6124 46.8981 32.9024Z" fill="#000000" fill-rule="nonzero" opacity="1" stroke="#000000" stroke-linecap="butt" stroke-linejoin="miter" stroke-width="0.2464" vectornator:layerName="path"/>
<path d="M52.8521 28.2384C52.8821 28.1484 52.9261 28.0964 52.9831 28.0814C53.0401 28.0664 53.1071 28.0594 53.1821 28.0594C53.2971 28.0594 53.4261 28.1354 53.5681 28.2884C53.7101 28.4414 53.8571 28.6444 54.0071 28.8994C54.1571 29.1544 54.3081 29.4464 54.4611 29.7764C54.6131 30.1064 54.7611 30.4474 54.9031 30.7994C55.0451 31.1514 55.1791 31.5034 55.3041 31.8524C55.4291 32.2024 55.5381 32.5234 55.6301 32.8164C55.7221 33.1084 55.7941 33.3624 55.8441 33.5774C55.8941 33.7924 55.9191 33.9394 55.9191 34.0194C55.9191 34.0994 55.9001 34.1754 55.8631 34.2484C55.8261 34.3204 55.7591 34.3574 55.6641 34.3574C55.6041 34.3574 55.5531 34.3384 55.5101 34.3014C55.4681 34.2644 55.4311 34.2174 55.4011 34.1624C55.3711 34.1074 55.3441 34.0524 55.3191 33.9974C55.2941 33.9424 55.2711 33.8954 55.2521 33.8554C55.2321 33.8004 55.1911 33.6954 55.1281 33.5404C55.0651 33.3854 55.0011 33.2234 54.9331 33.0534C54.8661 32.8834 54.8021 32.7234 54.7421 32.5734C54.6821 32.4234 54.6401 32.3164 54.6151 32.2514C54.2651 32.1914 53.9141 32.1354 53.5621 32.0824C53.2101 32.0294 52.8381 31.9784 52.4491 31.9284L52.3671 31.9284C52.1871 32.7034 52.0281 33.3154 51.8911 33.7654C51.7531 34.2154 51.6391 34.5354 51.5461 34.7254C51.4531 34.9154 51.3811 34.9944 51.3291 34.9614C51.2771 34.9284 51.2421 34.8144 51.2241 34.6164C51.2061 34.4194 51.2091 34.1554 51.2311 33.8254C51.2531 33.4954 51.2961 33.1314 51.3581 32.7344C51.4201 32.3374 51.4971 31.9204 51.5871 31.4864C51.6771 31.0514 51.7861 30.6314 51.9131 30.2264C52.0401 29.8214 52.1831 29.4454 52.3401 29.0984C52.4961 28.7494 52.6671 28.4634 52.8521 28.2384ZM52.6721 30.8784C52.6721 31.0634 52.7321 31.1994 52.8521 31.2874C52.9721 31.3744 53.1171 31.4314 53.2871 31.4564C53.4571 31.4814 53.6361 31.4914 53.8231 31.4864C54.0101 31.4814 54.1721 31.4794 54.3071 31.4794C54.3071 31.2794 54.2741 31.0634 54.2101 30.8304C54.1451 30.5984 54.0631 30.3664 53.9631 30.1364C53.8631 29.9064 53.7571 29.6824 53.6441 29.4654C53.5321 29.2484 53.4281 29.0514 53.3331 28.8764C53.2781 28.9314 53.2191 29.0324 53.1571 29.1804C53.0941 29.3274 53.0321 29.4924 52.9701 29.6754C52.9071 29.8584 52.8511 30.0364 52.8011 30.2114C52.7511 30.3864 52.7141 30.5284 52.6891 30.6384C52.6891 30.6534 52.6861 30.6924 52.6821 30.7544C52.6741 30.8164 52.6721 30.8584 52.6721 30.8784Z" fill="#000000" fill-rule="nonzero" opacity="1" stroke="#000000" stroke-linecap="butt" stroke-linejoin="miter" stroke-width="0.2464" vectornator:layerName="path"/>
<path d="M57.5081 34.4994C57.5331 34.3794 57.5971 34.2804 57.6991 34.2034C57.8011 34.1264 57.9191 34.0544 58.0511 33.9894C58.1831 33.9244 58.3221 33.8634 58.4671 33.8054C58.6121 33.7484 58.7461 33.6864 58.8681 33.6214C58.9901 33.5564 59.0921 33.4804 59.1721 33.3924C59.2521 33.3054 59.2921 33.1984 59.2921 33.0734C59.2921 32.9134 59.2511 32.7814 59.1681 32.6764C59.0861 32.5714 58.9761 32.4814 58.8381 32.4064C58.7001 32.3314 58.5441 32.2694 58.3691 32.2194C58.1941 32.1694 58.0151 32.1184 57.8331 32.0654C57.6501 32.0134 57.4721 31.9554 57.2971 31.8934C57.1221 31.8314 56.9661 31.7524 56.8281 31.6574C56.6901 31.5624 56.5811 31.4474 56.4981 31.3124C56.4161 31.1774 56.3741 31.0104 56.3741 30.8104C56.3741 30.6454 56.4081 30.4894 56.4751 30.3414C56.5421 30.1944 56.6321 30.0544 56.7451 29.9214C56.8571 29.7894 56.9871 29.6674 57.1351 29.5574C57.2821 29.4474 57.4371 29.3554 57.6001 29.2804C57.7621 29.2054 57.9261 29.1464 58.0911 29.1044C58.2561 29.0624 58.4081 29.0404 58.5481 29.0404L58.6301 29.0404C58.6751 29.0554 58.7351 29.0804 58.8101 29.1154C58.8851 29.1504 58.9571 29.1844 59.0271 29.2164C59.0971 29.2494 59.1571 29.2794 59.2071 29.3064C59.2571 29.3334 59.2821 29.3504 59.2821 29.3554L59.2821 29.5274C59.1871 29.5374 59.0651 29.5564 58.9151 29.5834C58.7651 29.6104 58.6081 29.6474 58.4431 29.6924C58.2781 29.7374 58.1111 29.7934 57.9411 29.8614C57.7711 29.9284 57.6191 30.0074 57.4841 30.0974C57.3491 30.1874 57.2391 30.2914 57.1541 30.4084C57.0691 30.5254 57.0271 30.6594 57.0271 30.8094C57.0271 31.0244 57.1021 31.1934 57.2521 31.3154C57.4021 31.4384 57.5891 31.5394 57.8141 31.6194C58.0391 31.6994 58.2851 31.7704 58.5531 31.8334C58.8201 31.8964 59.0671 31.9714 59.2921 32.0584C59.5171 32.1454 59.7041 32.2604 59.8541 32.4034C60.0041 32.5454 60.0791 32.7374 60.0791 32.9774C60.0791 33.1074 60.0401 33.2434 59.9631 33.3864C59.8851 33.5284 59.7831 33.6684 59.6561 33.8064C59.5291 33.9444 59.3851 34.0754 59.2251 34.2004C59.0651 34.3254 58.9011 34.4344 58.7341 34.5264C58.5661 34.6194 58.4031 34.6944 58.2431 34.7514C58.0831 34.8084 57.9411 34.8374 57.8161 34.8374C57.7761 34.8374 57.7341 34.8324 57.6891 34.8224C57.6441 34.8124 57.6051 34.7964 57.5731 34.7734C57.5401 34.7514 57.5161 34.7174 57.4981 34.6724C57.4791 34.6274 57.4831 34.5694 57.5081 34.4994Z" fill="#000000" fill-rule="nonzero" opacity="1" stroke="#000000" stroke-linecap="butt" stroke-linejoin="miter" stroke-width="0.2464" vectornator:layerName="path"/>
<path d="M63.2971 30.3234C63.2771 30.2534 63.2381 30.2064 63.1811 30.1814C63.1241 30.1564 63.0611 30.1424 62.9941 30.1404C62.9271 30.1384 62.8601 30.1414 62.7951 30.1514C62.7301 30.1614 62.6801 30.1664 62.6451 30.1664C62.5601 30.1614 62.4131 30.1514 62.2031 30.1364C61.9931 30.1214 61.7671 30.1054 61.5241 30.0874C61.2811 30.0704 61.0551 30.0524 60.8451 30.0354C60.6351 30.0184 60.4881 30.0064 60.4031 30.0014C60.4031 29.9914 60.4001 29.9664 60.3961 29.9264C60.3911 29.8864 60.3891 29.8594 60.3891 29.8444C60.3891 29.7744 60.3951 29.7124 60.4081 29.6574C60.4201 29.6024 60.4691 29.5604 60.5541 29.5304C61.0241 29.5404 61.4881 29.5374 61.9451 29.5234C62.4021 29.5084 62.8601 29.4874 63.3171 29.4594C63.7741 29.4324 64.2321 29.4054 64.6891 29.3804C65.1461 29.3554 65.6081 29.3434 66.0721 29.3434C66.0721 29.5334 66.0271 29.6724 65.9371 29.7594C65.8471 29.8464 65.7361 29.9054 65.6031 29.9354C65.4711 29.9654 65.3241 29.9774 65.1641 29.9724C65.0041 29.9674 64.8501 29.9694 64.7031 29.9794C64.5561 29.9894 64.4261 30.0184 64.3131 30.0654C64.2011 30.1134 64.1271 30.1994 64.0921 30.3244C64.0871 30.3544 64.0821 30.4114 64.0771 30.4964C64.0721 30.5814 64.0681 30.6714 64.0661 30.7664C64.0631 30.8614 64.0611 30.9504 64.0591 31.0324C64.0561 31.1144 64.0551 31.1734 64.0551 31.2084C64.0551 31.4934 64.0911 31.7744 64.1641 32.0524C64.2361 32.3294 64.3161 32.6044 64.4041 32.8774C64.4911 33.1504 64.5711 33.4224 64.6441 33.6944C64.7161 33.9674 64.7531 34.2434 64.7531 34.5234C64.7531 34.7334 64.6331 34.8384 64.3931 34.8384C64.2481 34.8384 64.1191 34.7384 64.0071 34.5384C63.8951 34.3384 63.7971 34.0834 63.7151 33.7734C63.6331 33.4634 63.5651 33.1264 63.5131 32.7614C63.4611 32.3964 63.4181 32.0464 63.3861 31.7114C63.3531 31.3764 63.3311 31.0814 63.3191 30.8264C63.3031 30.5704 63.2971 30.4034 63.2971 30.3234Z" fill="#000000" fill-rule="nonzero" opacity="1" stroke="#000000" stroke-linecap="butt" stroke-linejoin="miter" stroke-width="0.2464" vectornator:layerName="path"/>
<path d="M66.8281 28.8764C66.8031 28.8764 66.7671 28.8704 66.7191 28.8574C66.6711 28.8454 66.6231 28.8304 66.5731 28.8124C66.5231 28.7954 66.4761 28.7774 66.4311 28.7604C66.3861 28.7434 66.3561 28.7294 66.3411 28.7194C66.3361 28.7094 66.3341 28.6994 66.3341 28.6894C66.3291 28.6794 66.3271 28.6674 66.3271 28.6524C66.3271 28.5824 66.3541 28.5224 66.4091 28.4724C66.4641 28.4224 66.5281 28.3814 66.6001 28.3484C66.6721 28.3164 66.7441 28.2914 66.8141 28.2734C66.8841 28.2564 66.9391 28.2444 66.9791 28.2394L67.0691 28.2394L67.1441 28.2394C67.2641 28.2494 67.4161 28.2644 67.6011 28.2844C67.7861 28.3044 67.9821 28.3254 68.1901 28.3484C68.3971 28.3704 68.6071 28.3934 68.8201 28.4154C69.0321 28.4374 69.2251 28.4604 69.3971 28.4824C69.5691 28.5044 69.7141 28.5224 69.8321 28.5344C69.9491 28.5464 70.0181 28.5534 70.0381 28.5534C70.0781 28.5584 70.1291 28.5674 70.1921 28.5794C70.2541 28.5914 70.3181 28.6124 70.3831 28.6394C70.4481 28.6664 70.5081 28.6994 70.5631 28.7364C70.6181 28.7734 70.6581 28.8204 70.6831 28.8754C70.6431 28.9554 70.6081 29.0164 70.5781 29.0594C70.5481 29.1014 70.5151 29.1344 70.4811 29.1564C70.4461 29.1784 70.4101 29.1904 70.3721 29.1904C70.3341 29.1904 70.2881 29.1904 70.2331 29.1904C70.0231 29.1904 69.8121 29.1834 69.5991 29.1684C69.3861 29.1534 69.1751 29.1384 68.9651 29.1234C68.7551 29.1084 68.5441 29.0934 68.3311 29.0784C68.1181 29.0634 67.9051 29.0564 67.6901 29.0564C67.6901 29.1464 67.6791 29.2814 67.6561 29.4614C67.6331 29.6414 67.6161 29.8314 67.6041 30.0314C67.5921 30.2314 67.5971 30.4304 67.6191 30.6274C67.6411 30.8254 67.6981 30.9914 67.7881 31.1264C67.9631 31.0214 68.1451 30.9664 68.3351 30.9614C68.5251 30.9564 68.7171 30.9544 68.9121 30.9544C68.9971 30.9544 69.1041 30.9544 69.2341 30.9544C69.3641 30.9544 69.4901 30.9694 69.6131 30.9994C69.7351 31.0294 69.8391 31.0794 69.9241 31.1494C70.0091 31.2194 70.0511 31.3244 70.0511 31.4644C70.0511 31.5644 70.0311 31.6394 69.9911 31.6894C69.9511 31.7394 69.8591 31.7644 69.7141 31.7644C69.6991 31.7644 69.6681 31.7574 69.6201 31.7424C69.5721 31.7274 69.5231 31.7104 69.4701 31.6904C69.4181 31.6704 69.3691 31.6534 69.3241 31.6384C69.2791 31.6234 69.2491 31.6164 69.2341 31.6164C69.2291 31.6164 69.2101 31.6154 69.1781 31.6124C69.1451 31.6104 69.1071 31.6084 69.0621 31.6084C69.0171 31.6084 68.9731 31.6074 68.9311 31.6044C68.8891 31.6024 68.8551 31.6004 68.8301 31.6004C68.7151 31.6004 68.6041 31.6074 68.4961 31.6224C68.3881 31.6374 68.2951 31.6674 68.2151 31.7124C68.1351 31.7574 68.0711 31.8224 68.0241 31.9074C67.9761 31.9924 67.9531 32.1024 67.9531 32.2374C67.9531 32.2824 67.9581 32.3604 67.9681 32.4694C67.9781 32.5794 67.9921 32.7004 68.0091 32.8334C68.0261 32.9654 68.0501 33.1024 68.0801 33.2424C68.1101 33.3824 68.1501 33.5114 68.2001 33.6284C68.2501 33.7454 68.3061 33.8434 68.3691 33.9204C68.4311 33.9984 68.5081 34.0364 68.5981 34.0364C68.6081 34.0364 68.6331 34.0334 68.6731 34.0294C68.7131 34.0244 68.7381 34.0224 68.7481 34.0224C68.9181 33.9074 69.0891 33.7824 69.2621 33.6474C69.4351 33.5124 69.6131 33.3864 69.7981 33.2684C69.9831 33.1514 70.1751 33.0514 70.3751 32.9684C70.5751 32.8864 70.7821 32.8444 70.9971 32.8444L70.9971 33.2114C70.9971 33.2314 70.9481 33.2864 70.8511 33.3764C70.7541 33.4664 70.6261 33.5714 70.4691 33.6914C70.3121 33.8114 70.1351 33.9384 69.9401 34.0734C69.7451 34.2084 69.5501 34.3324 69.3551 34.4444C69.1601 34.5564 68.9741 34.6504 68.7961 34.7254C68.6191 34.8004 68.4701 34.8374 68.3501 34.8374C68.1801 34.8374 68.0291 34.7614 67.8961 34.6084C67.7641 34.4564 67.6451 34.2534 67.5401 34.0014C67.4351 33.7494 67.3481 33.4574 67.2781 33.1274C67.2081 32.7974 67.1471 32.4574 67.0941 32.1074C67.0421 31.7574 66.9991 31.4094 66.9671 31.0614C66.9341 30.7144 66.9081 30.3934 66.8881 30.0974C66.8681 29.8024 66.8541 29.5464 66.8471 29.3284C66.8391 29.1124 66.8331 28.9614 66.8281 28.8764Z" fill="#000000" fill-rule="nonzero" opacity="1" stroke="#000000" stroke-linecap="butt" stroke-linejoin="miter" stroke-width="0.2464" vectornator:layerName="path"/>
<path d="M71.3041 29.5284C71.3041 29.4884 71.3051 29.4224 71.3081 29.3294C71.3111 29.2374 71.3121 29.1394 71.3121 29.0374C71.3121 28.9354 71.3131 28.8374 71.3161 28.7454C71.3191 28.6534 71.3201 28.5894 71.3201 28.5544C71.3751 28.4494 71.4611 28.3734 71.5791 28.3254C71.6961 28.2784 71.8241 28.2454 71.9611 28.2284C72.0981 28.2114 72.2331 28.2044 72.3661 28.2094C72.4981 28.2144 72.6071 28.2164 72.6921 28.2164C72.8021 28.2164 72.9311 28.2214 73.0781 28.2314C73.2251 28.2414 73.3731 28.2604 73.5201 28.2874C73.6671 28.3144 73.8141 28.3544 73.9591 28.4074C74.1041 28.4594 74.2331 28.5274 74.3451 28.6094C74.4571 28.6914 74.5471 28.7924 74.6151 28.9094C74.6821 29.0264 74.7161 29.1654 74.7161 29.3254C74.7161 29.5154 74.6711 29.6864 74.5811 29.8394C74.4911 29.9924 74.3801 30.1344 74.2471 30.2664C74.1151 30.3984 73.9701 30.5224 73.8121 30.6374C73.6551 30.7524 73.5101 30.8654 73.3771 30.9744C73.2451 31.0844 73.1331 31.1964 73.0431 31.3114C72.9531 31.4264 72.9081 31.5514 72.9081 31.6864C72.9081 31.6964 72.9121 31.7104 72.9191 31.7274C72.9261 31.7454 72.9301 31.7564 72.9301 31.7614C73.5201 31.9364 74.0931 32.1484 74.6511 32.3984C75.2081 32.6484 75.7571 32.9184 76.2971 33.2084C76.3121 33.2184 76.3281 33.2374 76.3461 33.2644C76.3631 33.2914 76.3801 33.3244 76.3951 33.3614C76.4101 33.3984 76.4251 33.4324 76.4401 33.4624C76.4551 33.4924 76.4621 33.5174 76.4621 33.5374C76.4621 33.5824 76.4501 33.6164 76.4251 33.6384C76.4001 33.6604 76.3701 33.6784 76.3351 33.6904C76.3001 33.7024 76.2651 33.7094 76.2301 33.7094C76.1951 33.7094 76.1651 33.7094 76.1401 33.7094C75.8701 33.7094 75.6011 33.6504 75.3341 33.5334C75.0671 33.4164 74.7981 33.2844 74.5281 33.1394C74.2581 32.9944 73.9841 32.8624 73.7071 32.7424C73.4301 32.6224 73.1411 32.5624 72.8411 32.5624L72.6011 32.5624C72.6811 32.7474 72.7521 32.9124 72.8151 33.0574C72.8771 33.2024 72.9301 33.3424 72.9721 33.4774C73.0141 33.6124 73.0471 33.7484 73.0691 33.8864C73.0911 34.0244 73.1031 34.1724 73.1031 34.3324C73.1031 34.3674 73.1031 34.4084 73.1031 34.4564C73.1031 34.5044 73.1001 34.5524 73.0961 34.6024C73.0911 34.6524 73.0761 34.6974 73.0511 34.7374C73.0261 34.7774 72.9861 34.8044 72.9311 34.8194C72.7261 34.6994 72.5421 34.5134 72.3801 34.2604C72.2181 34.0084 72.0761 33.7194 71.9561 33.3944C71.8361 33.0694 71.7351 32.7244 71.6521 32.3594C71.5701 31.9944 71.5021 31.6354 71.4501 31.2834C71.3981 30.9314 71.3601 30.6014 71.3381 30.2934C71.3161 29.9854 71.3041 29.7334 71.3041 29.5284ZM71.9491 30.0004C71.9491 30.0654 71.9451 30.1494 71.9381 30.2514C71.9311 30.3534 71.9291 30.4584 71.9341 30.5664C71.9391 30.6744 71.9551 30.7764 71.9831 30.8734C72.0101 30.9704 72.0571 31.0544 72.1221 31.1244C72.1321 31.1294 72.1421 31.1314 72.1521 31.1314C72.1571 31.1364 72.1691 31.1384 72.1891 31.1384C72.2791 31.1384 72.3881 31.1114 72.5151 31.0564C72.6421 31.0014 72.7761 30.9294 72.9161 30.8394C73.0561 30.7494 73.1951 30.6454 73.3321 30.5284C73.4691 30.4114 73.5931 30.2894 73.7031 30.1644C73.8131 30.0394 73.9021 29.9134 73.9691 29.7854C74.0361 29.6574 74.0701 29.5414 74.0701 29.4364C74.0701 29.3364 74.0331 29.2504 73.9581 29.1774C73.8831 29.1054 73.7931 29.0464 73.6881 29.0014C73.5831 28.9564 73.4741 28.9244 73.3621 28.9044C73.2501 28.8844 73.1581 28.8744 73.0881 28.8744C73.0031 28.8744 72.9031 28.8734 72.7881 28.8704C72.6731 28.8684 72.5591 28.8754 72.4471 28.8924C72.3351 28.9104 72.2331 28.9414 72.1431 28.9864C72.0531 29.0314 71.9901 29.0984 71.9561 29.1884C71.9561 29.2184 71.9561 29.2704 71.9561 29.3454C71.9561 29.4204 71.9561 29.5014 71.9561 29.5894C71.9561 29.6764 71.9551 29.7584 71.9521 29.8334C71.9501 29.9104 71.9491 29.9654 71.9491 30.0004Z" fill="#000000" fill-rule="nonzero" opacity="1" stroke="#000000" stroke-linecap="butt" stroke-linejoin="miter" stroke-width="0.2464" vectornator:layerName="path"/>
<path d="M2.66914 11.9914C5.17914 5.85439 10.9211 1.29039 17.9591 0.606394C17.9791 0.604394 17.9991 0.602394 18.0191 0.600394C18.0581 0.596394 18.0991 0.592394 18.1381 0.589394C18.1801 0.586394 18.2221 0.582394 18.2641 0.579394C18.3111 0.575394 18.3581 0.571394 18.4051 0.568394C25.4511 0.0513941 31.8861 3.57839 35.3981 9.20639" fill="none" opacity="1" stroke="#000000" stroke-linecap="butt" stroke-linejoin="miter" stroke-width="0.4927" vectornator:layerName="path"/>
<path d="M5.87714 11.4824C7.84514 5.5294 12.3601 1.1794 17.9591 0.607396C17.9791 0.605396 17.9991 0.603396 18.0191 0.601396C18.0581 0.597396 18.0991 0.593396 18.1381 0.590396C18.1801 0.587396 18.2221 0.583396 18.2641 0.580396L18.2711 0.580396C18.3161 0.576396 18.3611 0.573396 18.4061 0.569396C24.0071 0.203396 29.1891 3.7234 32.1391 9.2544" fill="none" opacity="1" stroke="#000000" stroke-linecap="butt" stroke-linejoin="miter" stroke-width="0.4927" vectornator:layerName="path"/>
<path d="M14.6021 10.3994C14.9631 4.7004 16.2641 0.753395 18.1381 0.589395C20.0151 0.425395 21.9841 4.09739 23.3291 9.66139" fill="none" opacity="1" stroke="#000000" stroke-linecap="butt" stroke-linejoin="miter" stroke-width="0.4927" vectornator:layerName="path"/>
<path d="M15.9991 14.5644L15.9921 14.5704L10.5921 18.6794C10.5131 18.7394 10.4031 18.7314 10.3331 18.6624L9.35214 17.6814C9.25714 17.5864 9.09514 17.6124 9.03614 17.7334L7.75114 20.3364C7.69114 20.4574 7.53014 20.4844 7.43514 20.3884L5.63414 18.5874C5.56714 18.5204 5.46214 18.5104 5.38414 18.5634L1.88814 20.9374C1.73414 21.0424 1.53314 20.8934 1.58914 20.7154L3.06414 15.9824L3.06614 15.9744" fill="#000000" fill-rule="nonzero" opacity="1" stroke="#000000" stroke-linecap="butt" stroke-linejoin="miter" stroke-width="0.0821" vectornator:layerName="path"/>
<path d="M37.0111 13.3344L37.5801 15.1444C37.6531 15.3774 37.3951 15.5734 37.1901 15.4404L35.5561 14.3784L35.0441 17.4134C35.0091 17.6214 34.7531 17.7034 34.6041 17.5544L31.5721 14.5224L27.9701 16.2164C27.7591 16.3154 27.5341 16.1084 27.6161 15.8904L28.3591 13.8994L28.3601 13.8974" fill="#000000" fill-rule="nonzero" opacity="1" stroke="#000000" stroke-linecap="butt" stroke-linejoin="miter" stroke-width="0.0821" vectornator:layerName="path"/>
<path d="M26.6981 16.7404C25.9521 16.8054 25.4311 17.8104 25.5341 18.9854C25.5361 19.0044 25.5381 19.0224 25.5401 19.0414C25.5911 19.0004 25.6491 18.9754 25.7121 18.9704C25.9611 18.9484 26.1891 19.2424 26.2231 19.6264C26.2501 19.9384 26.1401 20.2144 25.9651 20.3184C26.2541 20.7654 26.6531 21.0314 27.0701 20.9954C27.8151 20.9304 28.3371 19.9254 28.2341 18.7504C28.1311 17.5754 27.4431 16.6754 26.6981 16.7404Z" fill="#be1622" fill-rule="nonzero" opacity="1" stroke="#000000" stroke-linecap="butt" stroke-linejoin="miter" stroke-width="0.0821" vectornator:layerName="path"/>
<path d="M26.6981 16.7404C25.9521 16.8054 25.4311 17.8104 25.5341 18.9854C25.5361 19.0044 25.5381 19.0224 25.5401 19.0414C25.5911 19.0004 25.6491 18.9754 25.7121 18.9704C25.9611 18.9484 26.1891 19.2424 26.2231 19.6264C26.2501 19.9384 26.1401 20.2144 25.9651 20.3184C26.2541 20.7654 26.6531 21.0314 27.0701 20.9954C27.8151 20.9304 28.3371 19.9254 28.2341 18.7504C28.1311 17.5754 27.4431 16.6754 26.6981 16.7404Z" fill="#000000" fill-rule="nonzero" opacity="1" stroke="#000000" stroke-linecap="round" stroke-linejoin="round" stroke-width="0.0821" vectornator:layerName="path"/>
<path d="M15.1631 17.7494C14.4171 17.8144 13.8961 18.8194 13.9991 19.9944C14.0011 20.0134 14.0031 20.0314 14.0051 20.0504C14.0561 20.0094 14.1141 19.9844 14.1771 19.9794C14.4251 19.9574 14.6541 20.2514 14.6881 20.6354C14.7151 20.9474 14.6051 21.2234 14.4301 21.3274C14.7191 21.7744 15.1181 22.0404 15.5351 22.0044C16.2811 21.9394 16.8021 20.9344 16.6991 19.7594C16.5961 18.5834 15.9081 17.6844 15.1631 17.7494Z" fill="#000000" fill-rule="nonzero" opacity="1" stroke="#000000" stroke-linecap="round" stroke-linejoin="round" stroke-width="0.0821" vectornator:layerName="path"/>
<path d="M21.0841 19.3554C21.4641 19.6934 21.7241 20.1854 21.7731 20.7494C21.7981 21.0364 21.7661 21.3164 21.6861 21.5734" fill="none" opacity="1" stroke="#000000" stroke-linecap="round" stroke-linejoin="round" stroke-width="0.3285" vectornator:layerName="path"/>
<path d="M37.4251 15.2784L37.4251 15.2784C38.0391 15.7724 38.4431 16.4484 38.5111 17.2224C38.6471 18.7764 37.3811 20.1824 35.6031 20.5604" fill="none" opacity="1" stroke="#000000" stroke-linecap="butt" stroke-linejoin="miter" stroke-width="0.4106" vectornator:layerName="path"/>
<path d="M2.66814 20.1924C2.66914 20.2494 2.67214 20.3084 2.67714 20.3664C2.67814 20.3774 2.67914 20.3884 2.68014 20.3994L2.68014 20.4004C2.83014 21.8924 4.23414 23.0194 5.96814 23.1404" fill="none" opacity="1" stroke="#000000" stroke-linecap="butt" stroke-linejoin="miter" stroke-width="0.4106" vectornator:layerName="path"/>
<path d="M7.24714 22.6704C6.60314 21.5124 6.17414 20.2624 5.99814 18.9524C5.98714 18.8674 5.97614 18.7834 5.96714 18.6984" fill="none" opacity="1" stroke="#000000" stroke-linecap="butt" stroke-linejoin="miter" stroke-width="0.4106" vectornator:layerName="path"/>
<path d="M34.6691 22.6664C35.5291 21.1204 36.0061 19.4094 36.0061 17.6094C36.0061 16.5504 35.8411 15.5214 35.5291 14.5404C35.5241 14.5234 35.5181 14.5064 35.5131 14.4884" fill="none" opacity="1" stroke="#000000" stroke-linecap="butt" stroke-linejoin="miter" stroke-width="0.4106" vectornator:layerName="path"/>
<path d="M52.1571 22.6664C52.3471 23.0724 52.6061 23.4024 52.9101 23.6184C53.1641 23.7994 53.4491 23.9004 53.7501 23.9004C54.2761 23.9004 54.7541 23.5914 55.1021 23.0894C55.1911 22.9604 55.2721 22.8194 55.3431 22.6664C55.5561 22.2114 55.6801 21.6604 55.6801 21.0664C55.6801 20.2834 55.4641 19.5754 55.1151 19.0624C54.7661 18.5504 54.2831 18.2334 53.7501 18.2334C52.9151 18.2334 52.2041 19.0124 51.9361 20.1014" fill="none" opacity="1" stroke="#000000" stroke-linecap="butt" stroke-linejoin="miter" stroke-width="0.4927" vectornator:layerName="path"/>
<path d="M55.1151 19.0634C55.4341 18.7584 55.8291 18.5784 56.2561 18.5784C56.8441 18.5784 57.3711 18.9204 57.7241 19.4604C58.0121 19.8974 58.1861 20.4644 58.1861 21.0834C58.1861 21.6834 58.0231 22.2354 57.7511 22.6674C57.5941 22.9174 57.4001 23.1264 57.1811 23.2814C56.9071 23.4764 56.5911 23.5874 56.2561 23.5874C55.8231 23.5874 55.4231 23.4024 55.1011 23.0894" fill="none" opacity="1" stroke="#000000" stroke-linecap="butt" stroke-linejoin="miter" stroke-width="0.4927" vectornator:layerName="path"/>
<path d="M57.7251 19.4594C57.8731 19.4204 58.0271 19.3984 58.1871 19.3984C59.2521 19.3984 60.1171 20.3364 60.1171 21.4924C60.1171 21.9264 59.9951 22.3304 59.7851 22.6664C59.4381 23.2214 58.8511 23.5874 58.1871 23.5874C57.8181 23.5874 57.4751 23.4754 57.1821 23.2814" fill="none" opacity="1" stroke="#000000" stroke-linecap="butt" stroke-linejoin="miter" stroke-width="0.4927" vectornator:layerName="path"/>
<path d="M52.1571 22.6664C51.9441 22.2114 51.8201 21.6604 51.8201 21.0664C51.8201 20.7274 51.8601 20.4024 51.9361 20.1014C51.8061 20.0714 51.6721 20.0554 51.5341 20.0554C50.4681 20.0554 49.6041 20.9934 49.6041 22.1494C49.6041 22.3274 49.6251 22.5004 49.6631 22.6664" fill="none" opacity="1" stroke="#000000" stroke-linecap="butt" stroke-linejoin="miter" stroke-width="0.4927" vectornator:layerName="path"/>
<path d="M4.20714 31.5264C4.43114 31.7104 4.71714 31.8644 5.04514 31.9744C5.41714 32.1014 5.84414 32.1734 6.29714 32.1734C7.61214 32.1734 8.70114 31.5694 8.89514 30.7834C8.89514 30.7824 8.89514 30.7824 8.89514 30.7824C8.91514 30.7014 8.92514 30.6184 8.92514 30.5324C8.92514 29.9694 8.47114 29.4734 7.78014 29.1774C7.77914 29.1774 7.77914 29.1774 7.77814 29.1764L7.77714 29.1764C7.35614 28.9964 6.84614 28.8914 6.29614 28.8914C5.84314 28.8914 5.41614 28.9624 5.04414 29.0904C4.71614 29.2004 4.43114 29.3544 4.20614 29.5384" fill="none" opacity="1" stroke="#000000" stroke-linecap="round" stroke-linejoin="round" stroke-width="0.4927" vectornator:layerName="path"/>
<path d="M7.81314 34.0794C7.85014 34.2104 7.87014 34.3464 7.87014 34.4874C7.87014 35.4284 6.98514 36.1924 5.89414 36.1924C5.89014 36.1924 5.88614 36.1924 5.88214 36.1924C5.38014 36.1894 4.89714 35.9954 4.51714 35.6654L4.25514 35.4384L4.25414 35.4374C3.50014 34.7414 3.01114 33.6284 3.01114 32.3734C3.01114 31.6454 3.17514 30.9654 3.46014 30.3864L3.46014 30.3864C3.18214 29.9974 3.01114 29.4704 3.01114 28.8914C3.01114 27.6904 3.74614 26.7154 4.65314 26.7154C4.78814 26.7154 4.91814 26.7364 5.04314 26.7774" fill="none" opacity="1" stroke="#000000" stroke-linecap="round" stroke-linejoin="round" stroke-width="0.4927" vectornator:layerName="path"/>
<path d="M5.99414 36.1894L5.99614 36.1894" fill="none" opacity="1" stroke="#000000" stroke-linecap="butt" stroke-linejoin="miter" stroke-width="0.3285" vectornator:layerName="line"/>
<path d="M7.77814 29.1764L7.77814 29.1764L7.78014 29.1774" fill="none" opacity="1" stroke="#000000" stroke-linecap="butt" stroke-linejoin="miter" stroke-width="0.3285" vectornator:layerName="polyline"/>
<path d="M37.8051 9.7944C37.8711 10.2104 37.9221 10.6324 37.9591 11.0594C38.0061 11.5964 38.0301 12.1294 38.0301 12.6594" fill="none" opacity="1" stroke="#000000" stroke-linecap="butt" stroke-linejoin="miter" stroke-width="0.4927" vectornator:layerName="path"/>
<path d="M1.15214 12.8084C1.15614 13.2934 1.18014 13.7814 1.22314 14.2724C1.26214 14.7214 1.31714 15.1654 1.38714 15.6024" fill="none" opacity="1" stroke="#000000" stroke-linecap="butt" stroke-linejoin="miter" stroke-width="0.4927" vectornator:layerName="path"/>
<path d="M37.0241 9.3444C37.1301 9.9254 37.2101 10.5184 37.2621 11.1194C37.3241 11.8224 37.3471 12.5194 37.3321 13.2084" fill="none" opacity="1" stroke="#000000" stroke-linecap="butt" stroke-linejoin="miter" stroke-width="0.4927" vectornator:layerName="path"/>
<path d="M1.84714 12.2844C1.83914 12.9204 1.86314 13.5634 1.91914 14.2114C1.97214 14.8244 2.05514 15.4264 2.16314 16.0184" fill="none" opacity="1" stroke="#000000" stroke-linecap="butt" stroke-linejoin="miter" stroke-width="0.4927" vectornator:layerName="path"/>
<path d="M36.1321 9.2164C36.2541 9.8634 36.3451 10.5234 36.4031 11.1944C36.4701 11.9554 36.4931 12.7104 36.4751 13.4544" fill="none" opacity="1" stroke="#000000" stroke-linecap="butt" stroke-linejoin="miter" stroke-width="0.4927" vectornator:layerName="path"/>
<path d="M2.70414 12.0534C2.69314 12.7404 2.71814 13.4354 2.78014 14.1364C2.83814 14.8044 2.92914 15.4604 3.04914 16.1034" fill="none" opacity="1" stroke="#000000" stroke-linecap="butt" stroke-linejoin="miter" stroke-width="0.4927" vectornator:layerName="path"/>
<path d="M3.59914 11.9014C3.59014 12.6114 3.61614 13.3324 3.67914 14.0584C3.73614 14.7134 3.82314 15.3564 3.93614 15.9884" fill="none" opacity="1" stroke="#000000" stroke-linecap="butt" stroke-linejoin="miter" stroke-width="0.4927" vectornator:layerName="path"/>
<path d="M35.2241 9.22039C35.3481 9.89139 35.4421 10.5774 35.5031 11.2744C35.5681 12.0194 35.5941 12.7564 35.5831 13.4854" fill="none" opacity="1" stroke="#000000" stroke-linecap="butt" stroke-linejoin="miter" stroke-width="0.4927" vectornator:layerName="path"/>
<path d="M34.2341 9.2304C34.3611 9.9264 34.4581 10.6364 34.5211 11.3594C34.5841 12.0844 34.6131 12.8034 34.6081 13.5114" fill="none" opacity="1" stroke="#000000" stroke-linecap="butt" stroke-linejoin="miter" stroke-width="0.4927" vectornator:layerName="path"/>
<path d="M4.57414 11.7434C4.56714 12.4774 4.59514 13.2204 4.66114 13.9724C4.71714 14.6134 4.79914 15.2434 4.90614 15.8624" fill="none" opacity="1" stroke="#000000" stroke-linecap="butt" stroke-linejoin="miter" stroke-width="0.4927" vectornator:layerName="path"/>
<path d="M5.38614 11.6174C5.38014 12.3684 5.41114 13.1314 5.47814 13.9014C5.53314 14.5324 5.61214 15.1534 5.71414 15.7624" fill="none" opacity="1" stroke="#000000" stroke-linecap="butt" stroke-linejoin="miter" stroke-width="0.4927" vectornator:layerName="path"/>
<path d="M33.4121 9.2434C33.5411 9.9574 33.6391 10.6884 33.7041 11.4314C33.7661 12.1414 33.7971 12.8434 33.7971 13.5384" fill="none" opacity="1" stroke="#000000" stroke-linecap="butt" stroke-linejoin="miter" stroke-width="0.4927" vectornator:layerName="path"/>
<path d="M32.4661 9.2644C32.5971 9.9984 32.6961 10.7494 32.7621 11.5134C32.8231 12.2074 32.8561 12.8934 32.8611 13.5714" fill="none" opacity="1" stroke="#000000" stroke-linecap="butt" stroke-linejoin="miter" stroke-width="0.4927" vectornator:layerName="path"/>
<path d="M6.32114 11.4764C6.31914 12.2454 6.35114 13.0274 6.42014 13.8174C6.47414 14.4374 6.55014 15.0474 6.64614 15.6474" fill="none" opacity="1" stroke="#000000" stroke-linecap="butt" stroke-linejoin="miter" stroke-width="0.4927" vectornator:layerName="path"/>
<path d="M7.25314 11.3424C7.25414 12.1294 7.28914 12.9284 7.36014 13.7364C7.41314 14.3454 7.48614 14.9464 7.57714 15.5384" fill="none" opacity="1" stroke="#000000" stroke-linecap="butt" stroke-linejoin="miter" stroke-width="0.4927" vectornator:layerName="path"/>
<path d="M31.5231 9.28939C31.6531 10.0414 31.7531 10.8114 31.8221 11.5954C31.8811 12.2734 31.9161 12.9444 31.9251 13.6084" fill="none" opacity="1" stroke="#000000" stroke-linecap="butt" stroke-linejoin="miter" stroke-width="0.4927" vectornator:layerName="path"/>
<path d="M30.6211 9.31839C30.7511 10.0874 30.8521 10.8734 30.9221 11.6744C30.9801 12.3384 31.0161 12.9964 31.0301 13.6474" fill="none" opacity="1" stroke="#000000" stroke-linecap="butt" stroke-linejoin="miter" stroke-width="0.4927" vectornator:layerName="path"/>
<path d="M8.14614 11.2174C8.15014 12.0184 8.18814 12.8324 8.26014 13.6574C8.31314 14.2584 8.38214 14.8524 8.46914 15.4354" fill="none" opacity="1" stroke="#000000" stroke-linecap="butt" stroke-linejoin="miter" stroke-width="0.4927" vectornator:layerName="path"/>
<path d="M9.16014 11.0824C9.17014 11.8974 9.21114 12.7274 9.28414 13.5674C9.33614 14.1604 9.40314 14.7454 9.48414 15.3204" fill="none" opacity="1" stroke="#000000" stroke-linecap="butt" stroke-linejoin="miter" stroke-width="0.4927" vectornator:layerName="path"/>
<path d="M29.6001 9.3554C29.7271 10.1404 29.8281 10.9454 29.9001 11.7644C29.9571 12.4144 29.9941 13.0574 30.0121 13.6934" fill="none" opacity="1" stroke="#000000" stroke-linecap="butt" stroke-linejoin="miter" stroke-width="0.4927" vectornator:layerName="path"/>
<path d="M28.4971 9.4024C28.6221 10.2044 28.7221 11.0254 28.7951 11.8614C28.8511 12.4974 28.8891 13.1264 28.9111 13.7484" fill="none" opacity="1" stroke="#000000" stroke-linecap="butt" stroke-linejoin="miter" stroke-width="0.4927" vectornator:layerName="path"/>
<path d="M10.2541 10.9424C10.2681 11.7714 10.3121 12.6154 10.3871 13.4714C10.4381 14.0574 10.5031 14.6344 10.5801 15.2024" fill="none" opacity="1" stroke="#000000" stroke-linecap="butt" stroke-linejoin="miter" stroke-width="0.4927" vectornator:layerName="path"/>
<path d="M11.3061 10.8144C11.3271 11.6544 11.3751 12.5104 11.4511 13.3784C11.5021 13.9574 11.5641 14.5294 11.6371 15.0914" fill="none" opacity="1" stroke="#000000" stroke-linecap="butt" stroke-linejoin="miter" stroke-width="0.4927" vectornator:layerName="path"/>
<path d="M27.4371 9.4524C27.5591 10.2674 27.6571 11.1034 27.7321 11.9534C27.7861 12.5764 27.8261 13.1944 27.8531 13.8034" fill="none" opacity="1" stroke="#000000" stroke-linecap="butt" stroke-linejoin="miter" stroke-width="0.4927" vectornator:layerName="path"/>
<path d="M26.2151 9.5164C26.3321 10.3454 26.4291 11.1954 26.5041 12.0614C26.5571 12.6724 26.5991 13.2774 26.6291 13.8744" fill="none" opacity="1" stroke="#000000" stroke-linecap="butt" stroke-linejoin="miter" stroke-width="0.4927" vectornator:layerName="path"/>
<path d="M12.5201 10.6714C12.5501 11.5224 12.6011 12.3904 12.6781 13.2704C12.7281 13.8434 12.7871 14.4094 12.8561 14.9674" fill="none" opacity="1" stroke="#000000" stroke-linecap="butt" stroke-linejoin="miter" stroke-width="0.4927" vectornator:layerName="path"/>
<path d="M13.6931 10.5414C13.7291 11.4004 13.7861 12.2774 13.8641 13.1664C13.9141 13.7354 13.9721 14.2974 14.0361 14.8514" fill="none" opacity="1" stroke="#000000" stroke-linecap="butt" stroke-linejoin="miter" stroke-width="0.4927" vectornator:layerName="path"/>
<path d="M25.0351 9.5844C25.1461 10.4264 25.2411 11.2874 25.3171 12.1644C25.3701 12.7644 25.4121 13.3584 25.4461 13.9454" fill="none" opacity="1" stroke="#000000" stroke-linecap="butt" stroke-linejoin="miter" stroke-width="0.4927" vectornator:layerName="path"/>
<path d="M23.9781 9.65139C24.0841 10.5014 24.1771 11.3714 24.2541 12.2584C24.3061 12.8494 24.3501 13.4364 24.3861 14.0144" fill="none" opacity="1" stroke="#000000" stroke-linecap="butt" stroke-linejoin="miter" stroke-width="0.4927" vectornator:layerName="path"/>
<path d="M14.7451 10.4294C14.7891 11.2944 14.8491 12.1774 14.9271 13.0734C14.9761 13.6404 15.0321 14.2004 15.0941 14.7524" fill="none" opacity="1" stroke="#000000" stroke-linecap="butt" stroke-linejoin="miter" stroke-width="0.4927" vectornator:layerName="path"/>
<path d="M15.8771 10.3144C15.9291 11.1834 15.9941 12.0714 16.0731 12.9734C16.1221 13.5384 16.1761 14.0964 16.2341 14.6474" fill="none" opacity="1" stroke="#000000" stroke-linecap="butt" stroke-linejoin="miter" stroke-width="0.4927" vectornator:layerName="path"/>
<path d="M22.8421 9.72739C22.9411 10.5854 23.0311 11.4644 23.1091 12.3584C23.1601 12.9424 23.2051 13.5204 23.2441 14.0914" fill="none" opacity="1" stroke="#000000" stroke-linecap="butt" stroke-linejoin="miter" stroke-width="0.4927" vectornator:layerName="path"/>
<path d="M21.3821 9.8344C21.4721 10.7004 21.5571 11.5854 21.6361 12.4874C21.6861 13.0634 21.7341 13.6334 21.7761 14.1974" fill="none" opacity="1" stroke="#000000" stroke-linecap="butt" stroke-linejoin="miter" stroke-width="0.4927" vectornator:layerName="path"/>
<path d="M17.3341 10.1754C17.3961 11.0474 17.4661 11.9384 17.5461 12.8454C17.5951 13.4104 17.6471 13.9684 17.7011 14.5204" fill="none" opacity="1" stroke="#000000" stroke-linecap="butt" stroke-linejoin="miter" stroke-width="0.4927" vectornator:layerName="path"/>
<path d="M18.5881 10.0624C18.6591 10.9344 18.7341 11.8264 18.8141 12.7334C18.8631 13.3004 18.9141 13.8604 18.9641 14.4134" fill="none" opacity="1" stroke="#000000" stroke-linecap="butt" stroke-linejoin="miter" stroke-width="0.4927" vectornator:layerName="path"/>
<path d="M20.1271 9.9324C20.2081 10.8024 20.2901 11.6924 20.3681 12.5974C20.4181 13.1684 20.4671 13.7334 20.5131 14.2914" fill="none" opacity="1" stroke="#000000" stroke-linecap="butt" stroke-linejoin="miter" stroke-width="0.4927" vectornator:layerName="path"/>
<path d="M25.0361 9.5784C25.4321 9.5544 25.8251 9.5314 26.2151 9.5104C26.6261 9.4874 27.0331 9.4664 27.4371 9.4464C27.7931 9.4284 28.1471 9.4124 28.4971 9.3964C28.8681 9.3804 29.2351 9.3644 29.6001 9.3494C29.9441 9.3364 30.2841 9.3244 30.6221 9.3124C30.9251 9.3014 31.2261 9.2914 31.5241 9.2834C31.8411 9.2734 32.1561 9.2654 32.4671 9.2584C32.7861 9.2504 33.1011 9.2434 33.4131 9.2374C33.6901 9.2324 33.9641 9.2284 34.2351 9.2244C34.5691 9.2204 34.8991 9.2164 35.2251 9.2134C35.5311 9.2114 35.8341 9.2104 36.1321 9.2104L36.2491 9.2104C36.5211 9.2104 36.7821 9.2554 37.0251 9.3384C37.3081 9.4334 37.5651 9.5804 37.7841 9.7674C37.7911 9.7744 37.7991 9.7804 37.8061 9.7874C38.2001 10.1344 38.4621 10.6104 38.5121 11.1494C38.5651 11.7134 38.3771 12.2424 38.0321 12.6514C37.8431 12.8764 37.6051 13.0644 37.3331 13.2024C37.0741 13.3344 36.7851 13.4204 36.4761 13.4484C36.4201 13.4544 36.3641 13.4574 36.3071 13.4594C36.0681 13.4654 35.8271 13.4714 35.5841 13.4784C35.2621 13.4864 34.9371 13.4954 34.6091 13.5064C34.3401 13.5134 34.0701 13.5224 33.7981 13.5324C33.4881 13.5424 33.1761 13.5534 32.8621 13.5654C32.5521 13.5764 32.2411 13.5894 31.9271 13.6024C31.6311 13.6144 31.3321 13.6274 31.0311 13.6414C30.6941 13.6564 30.3541 13.6714 30.0131 13.6874C29.6491 13.7054 29.2821 13.7234 28.9131 13.7424C28.5631 13.7604 28.2101 13.7794 27.8541 13.7984C27.4491 13.8204 27.0411 13.8444 26.6301 13.8694C26.2381 13.8914 25.8451 13.9164 25.4481 13.9404C25.0971 13.9624 24.7431 13.9844 24.3881 14.0084C24.0091 14.0334 23.6281 14.0584 23.2461 14.0854C22.7601 14.1194 22.2701 14.1534 21.7781 14.1904C21.3591 14.2204 20.9381 14.2524 20.5151 14.2854C20.0021 14.3244 19.4841 14.3654 18.9651 14.4074C18.9311 14.4094 18.8981 14.4134 18.8651 14.4154C18.4761 14.4474 18.0881 14.4794 17.7021 14.5134C17.2101 14.5554 16.7211 14.5984 16.2351 14.6414C15.8531 14.6754 15.4731 14.7104 15.0951 14.7454C14.7401 14.7784 14.3881 14.8114 14.0361 14.8444C13.6411 14.8824 13.2481 14.9204 12.8571 14.9604C12.4481 15.0004 12.0411 15.0424 11.6371 15.0834C11.2831 15.1204 10.9311 15.1574 10.5811 15.1954C10.2131 15.2344 9.84814 15.2744 9.48514 15.3134C9.14414 15.3514 8.80614 15.3894 8.47014 15.4274C8.17014 15.4614 7.87314 15.4954 7.57814 15.5304C7.26514 15.5674 6.95514 15.6034 6.64714 15.6414C6.33414 15.6784 6.02314 15.7164 5.71514 15.7544C5.44414 15.7884 5.17414 15.8214 4.90714 15.8554C4.58114 15.8964 4.25814 15.9384 3.93814 15.9804C3.66714 16.0154 3.39814 16.0514 3.13014 16.0874C3.10414 16.0904 3.07714 16.0944 3.05014 16.0964C2.74214 16.1264 2.44214 16.0954 2.16514 16.0114C1.87614 15.9244 1.61214 15.7824 1.38814 15.5954C0.991139 15.2654 0.721139 14.7974 0.671139 14.2594C0.620139 13.7144 0.806139 13.1964 1.15314 12.8014C1.34114 12.5854 1.57714 12.4064 1.84914 12.2774C2.02814 12.1924 2.22314 12.1294 2.43014 12.0934C2.52114 12.0774 2.61314 12.0614 2.70614 12.0454C3.00014 11.9944 3.29814 11.9434 3.60114 11.8934C3.92114 11.8404 4.24614 11.7874 4.57614 11.7354C4.84414 11.6924 5.11514 11.6504 5.38814 11.6094C5.69614 11.5614 6.00714 11.5154 6.32314 11.4694C6.63014 11.4244 6.94114 11.3794 7.25614 11.3344C7.55114 11.2924 7.84814 11.2514 8.14914 11.2094C8.48314 11.1644 8.82114 11.1194 9.16214 11.0744C9.52314 11.0264 9.88814 10.9804 10.2571 10.9344C10.6041 10.8904 10.9551 10.8474 11.3091 10.8054C11.7101 10.7574 12.1151 10.7104 12.5231 10.6634C12.9111 10.6194 13.3021 10.5754 13.6971 10.5324C14.0451 10.4944 14.3961 10.4564 14.7491 10.4204C15.1231 10.3814 15.5001 10.3434 15.8811 10.3054C16.1591 10.2774 16.4391 10.2504 16.7211 10.2234L16.7461 10.2214C16.9421 10.2024 17.1401 10.1844 17.3381 10.1664C17.7541 10.1274 18.1721 10.0904 18.5921 10.0544C19.0331 10.0154 19.4771 9.9774 19.9241 9.9414C19.9931 9.9354 20.0621 9.9304 20.1311 9.9254C20.5511 9.8914 20.9701 9.8584 21.3871 9.8264C21.8761 9.7884 22.3631 9.7534 22.8461 9.7194C22.9231 9.7134 23.0011 9.7084 23.0781 9.7034L23.0801 9.7034C23.3821 9.6824 23.6831 9.6624 23.9831 9.6434L25.0361 9.5784Z" fill="none" opacity="1" stroke="#000000" stroke-linecap="butt" stroke-linejoin="miter" stroke-width="0.4927" vectornator:layerName="path"/>
</g>
</svg>
