<?xml version="1.0" encoding="UTF-8"?> <svg xmlns="http://www.w3.org/2000/svg" id="Layer_2" viewBox="0 0 161.14 44"><defs><style>.cls-1{fill:#1d1d1b;stroke-width:0px;}</style></defs><g id="Warstwa_4"><path class="cls-1" d="M160.41,1.95c-.02.28-.55.48-1.51.66-.96.17-2.36.32-4.2.42-1.81.05-4.01.12-6.53.19-.64.02-1.31.03-2.01.02-.68-.01-1.38-.03-2.09-.04-1.42-.04-2.92-.07-4.49-.11-.76-.02-1.62-.03-2.47-.08-.84-.04-1.69-.11-2.53-.17-1.7-.13-3.31-.22-5.08-.17-1.76.03-3.65.14-5.62.11-1.85-.02-3.78.06-5.81.09-2,.02-4.03.03-6.09.05-1.04,0-2.03.04-3.13.02-1.09-.02-2.15-.09-3.2-.15-1.05-.06-2.08-.12-3.09-.13-1.06,0-2.12,0-3.18-.01-1.07,0-2.15,0-3.22,0-1.1,0-2.1,0-3.15.09-1.87.13-3.91.39-5.94.37-1.96,0-3.91,0-5.85,0-.94,0-2.03.02-3-.03-.97-.04-1.93-.09-2.89-.13-.95-.04-1.8-.06-2.74-.03-.95.02-1.89.04-2.83.05-3.75.06-7.41.17-10.92.26-3.52.05-7.69,0-10.87.01-1.59,0-3.13.02-4.62.03-1.49,0-2.92-.02-4.29-.03-1.35,0-2.72-.03-3.88-.02-1.18.01-2.33.06-3.43.09-1.11.04-2.18.06-3.18.05-.9,0-1.73,0-2.5.01-1.53.03-2.77.05-3.6.04-.44,0-.88-.01-1.33-.02-.46-.01-.91-.04-1.35-.07-.87-.07-1.69-.16-2.46-.25-.77-.09-1.49-.18-2.18-.25-.68-.07-1.31-.11-2.04-.15-1.4-.08-2.71-.17-3.93-.26-1.23-.1-1.51-.08-2.58-.22-2.09-.3-3.62-.66-4.68-.94C.85.95.28.71.29.49c.01-.22.64-.39,1.78-.48,1.14-.09,3.06.22,5.01.22.94,0,2.11-.05,3.31-.06,1.22-.02,2.53-.03,3.92-.03.67,0,1.48,0,2.27.05.79.04,1.57.11,2.34.18.77.07,1.53.14,2.28.19.37.02.75.04,1.11.05.39,0,.79.01,1.19.02.77,0,1.93,0,3.49-.01.78,0,1.66,0,2.64.02.87.02,1.84.02,2.91,0,1.07-.02,2.25-.05,3.54-.04,1.32.01,2.27-.22,3.64-.19,1.35.03,2.77.07,4.23.11,1.47.02,2.99.04,4.56.06,3.14.05,6.48.06,9.97.09,3.48-.02,7.11-.05,10.84-.03.93,0,1.87,0,2.81,0,.91,0,1.99.02,2.96.08,1.98.12,3.79.3,5.64.3,1.94.04,3.88.08,5.84.13,1.01.03,1.87.03,2.82-.02l2.91-.17c.55-.03,1.11-.06,1.68-.07h.86s.81,0,.81,0c1.08.02,2.16.03,3.23.05,1.07.01,2.14.02,3.21.04,1.13,0,2.23.06,3.29.12,1.06.06,2.09.13,3.09.15.96.02,2.04-.02,3.07-.04,2.06-.05,4.08-.09,6.07-.14,1.95-.05,3.91-.18,5.9-.21,1.89,0,3.67-.15,5.55-.23,1.85-.1,3.81-.06,5.52.03.86.04,1.69.09,2.48.12.79.03,1.52.02,2.34.04,1.59.02,3.11.04,4.55.06.72.01,1.42.02,2.1.03.65,0,1.29,0,1.92,0,1.26-.02,2.47-.04,3.61-.03.57,0,1.14.02,1.65.05.49.02.96.04,1.4.06,1.79.06,3.26.14,4.25.31,1,.17,1.51.4,1.49.68Z"></path><path class="cls-1" d="M22.45,3.3c-.44,0-.88-.01-1.32-.02-.46-.02-.91-.04-1.35-.07-.87-.07-1.69-.16-2.46-.25l-.4-.05c-.62-.07-1.21-.14-1.78-.2-.67-.07-1.28-.11-2.04-.15-1.4-.08-2.71-.17-3.93-.26l-.72-.06c-.92-.07-1-.05-1.85-.16-2.15-.3-3.7-.68-4.67-.93C.49.75.39.55.39.5c0,0,.06-.26,1.69-.38.68-.06,1.54-.07,2.62-.07l2.38.28c.49,0,1.05-.01,1.64-.03.54-.01,1.1-.03,1.67-.03,1.17-.02,2.43-.03,3.77-.03h.43c.73,0,1.4.02,1.99.05.79.04,1.57.11,2.34.18h.1c.74.07,1.47.14,2.19.19.38.02.75.04,1.12.05l1.19.02h.63c.56,0,1.25,0,2.07,0h1.47c.6,0,1.25,0,1.96.01.4.01.82.01,1.26.01.52,0,1.07,0,1.65-.02h.76c.76-.03,1.57-.04,2.43-.04h.34c.86,0,1.4-.25,2.25-.23l5.63.14,4.57.06c2.09.03,4.27.05,6.52.06,1.13,0,2.28.01,3.45.02h2.63c1.95-.03,3.94-.04,5.95-.04.75,0,5.36.01,5.36.01.94,0,1.89.03,2.67.08.56.03,1.1.07,1.63.11,1.38.1,2.68.19,4.02.19l5.84.13c.41.01.8.02,1.19.02.55,0,1.08-.01,1.64-.04l2.91-.17c.55-.03,1.11-.06,1.68-.07h.86s4.04.05,4.04.05l3.21.04c1.18,0,2.27.06,3.29.12l.4.02c.93.05,1.82.11,2.69.13.2,0,.4,0,.6,0,.49,0,1.01-.01,1.52-.02.32,0,7.02-.16,7.02-.16.87-.02,1.75-.06,2.63-.1,1.08-.05,2.17-.09,3.27-.11,1.33,0,2.59-.08,3.91-.15.54-.03,1.09-.06,1.64-.09.73-.04,1.51-.06,2.32-.06,1.03,0,2.1.03,3.19.1l.41.02c.72.04,1.41.07,2.07.1.54.02,1.04.02,1.57.03h.77s4.55.07,4.55.07l2.1.03h.53c.47,0,.93,0,1.39,0h.65c.76-.02,1.51-.03,2.23-.03.25,0,.49,0,.73,0,.56,0,1.14.02,1.64.05l1.4.06c1.83.07,3.26.14,4.24.31,1.06.18,1.42.41,1.4.58-.01.14-.27.36-1.43.57-.75.13-2.09.31-4.19.42l-6.53.19c-.56.01-1.14.02-1.74.02h-.27s-2.09-.04-2.09-.04l-5.26-.13c-.55-.01-1.12-.03-1.69-.06-.83-.04-1.65-.1-2.48-.17-1.22-.1-2.63-.19-4.14-.19-.33,0-.66,0-1,.01-.6.01-1.21.03-1.83.05-1.02.03-2.08.07-3.16.07-.21,0-1.2,0-1.2,0-.98,0-1.97.02-3,.05-.73.02-1.48.03-2.24.04l-6.09.05c-.38,0-.76,0-1.13.01-.46,0-.92.01-1.4.01-.19,0-.39,0-.59,0-.98-.02-1.96-.08-2.9-.14l-.29-.02c-1.05-.06-2.08-.12-3.1-.13h-3.18s-3.71-.02-3.71-.02c-1.05,0-1.87.03-2.67.09-.52.04-1.05.08-1.59.13-1.35.12-2.74.24-4.13.24h-7.27c-.6,0-1.21,0-1.78-.02l-2.89-.13c-.65-.03-1.25-.04-1.86-.04-.29,0-.59,0-.89.01l-2.83.06c-2.97.05-5.89.12-8.72.2l-2.2.06-2.35.03c-2.67.04-6.05-.03-8.52-.02l-4.62.03-5.8-.04c-.67,0-1.33-.01-1.94-.01h-.43c-.91.01-1.8.04-2.66.07l-.77.03c-.91.03-1.8.05-2.65.05h-1.23c-.64,0-1.23,0-1.8.01-1.29.02-2.38.04-3.19.04h-.41Z"></path><path class="cls-1" d="M158.98,41.97c-13.22-1.26-26.88-1.14-40.4-1.12-14.76.02-29.59-.04-44.33.12-24.56.27-47.74,1.21-72.32-.11-1.39-.07-1.79.62-.7.84,19.49,3.88,47.38,1.68,68.46,1.64,29.43-.05,59.27.77,88.63.2,2.58-.05,3.48-1.31.66-1.57Z"></path><path class="cls-1" d="M32.45,43.9c-13.42,0-23.33-.73-31.2-2.29-.39-.08-.56-.22-.55-.31.01-.13.35-.33,1.02-.33.06,0,.13,0,.2,0,8.71.47,17.71.68,28.32.68,8.99,0,18.14-.16,26.99-.32,5.55-.1,11.28-.2,17.02-.26,10.73-.12,21.68-.12,32.26-.12,4.02,0,8.04,0,12.06,0h2.69c1.86,0,3.73-.01,5.59-.01,9.79,0,21.15.09,32.11,1.13,1.23.12,1.66.41,1.65.63-.01.3-.82.72-2.3.75-7.02.14-14.54.2-22.98.2h0c-10.47,0-21.14-.1-31.46-.2-10.3-.1-20.95-.2-31.37-.2h-2.81c-5.34.01-11.05.16-17.09.31-6.6.17-13.43.34-20.16.34Z"></path><path class="cls-1" d="M.35,28.03l-.35-2.56c1.41.8,3.17,1.29,4.73,1.29,1.96,0,2.93-.88,2.93-2.17,0-.88-.39-1.47-2.25-2.11l-.82-.27c-2.78-.94-4.07-1.94-4.07-4.34,0-2.78,1.84-4.28,4.97-4.28,1.49,0,2.89.39,3.79.82l.35,2.44c-.94-.51-2.6-.98-3.97-.98-1.74,0-2.52.76-2.52,1.88s.51,1.62,2.56,2.29l.72.27c2.97,1,3.89,2.17,3.89,4.2,0,2.78-2.09,4.48-5.63,4.48-1.53,0-3.11-.29-4.32-.96Z"></path><path class="cls-1" d="M23.54,22.67h-6.98v6.18h-2.56v-14.92h2.56v6.51h6.98v-6.51h2.56v14.92h-2.56v-6.18Z"></path><path class="cls-1" d="M30.59,13.93h9.21v2.23h-6.65v4.11h6v2.01h-6v4.34h6.88v2.23h-9.43v-14.92Z"></path><path class="cls-1" d="M43.85,13.93h9.21v2.23h-6.65v4.11h6v2.01h-6v4.34h6.88v2.23h-9.43v-14.92Z"></path><path class="cls-1" d="M57.11,13.93h4.4c3.38,0,5.71,1.97,5.71,5.36s-2.48,5.57-6.02,5.57h-1.53v3.99h-2.56v-14.92ZM61,22.67c2.41,0,3.54-1.17,3.54-3.17s-1.19-3.34-3.54-3.34h-1.33v6.51h1.33Z"></path><path class="cls-1" d="M81.32,28.85l-1.08-1.29c-.45.47-.99.85-1.61,1.16-.62.31-1.39.47-2.31.47-1.02,0-1.87-.19-2.55-.56-.68-.37-1.2-.87-1.53-1.48s-.51-1.28-.51-2c0-.79.2-1.55.61-2.28.41-.73,1.13-1.46,2.16-2.19l-.04-.06c-.37-.44-.63-.89-.79-1.34-.16-.46-.24-.93-.24-1.41,0-.62.16-1.2.48-1.74.32-.54.78-.97,1.38-1.29.6-.32,1.33-.49,2.19-.49.8,0,1.46.13,1.96.4.5.27.89.59,1.17.95.28.37.5.71.66,1.02l-1.86,1.19c-.35-.58-.67-.95-.95-1.12-.28-.17-.56-.25-.83-.25-.49,0-.88.13-1.14.38s-.4.57-.4.95c0,.31.08.62.25.93.17.31.38.61.64.89l3.39,4.11,1.82-2.22,1.86,1.5-2.14,2.6,2.65,3.17h-3.22ZM78.72,25.72l-2.77-3.3c-.63.48-1.06.91-1.28,1.3-.22.39-.33.82-.33,1.28,0,.52.17.96.52,1.31.35.35.88.53,1.6.53.51,0,.94-.11,1.29-.32.35-.21.68-.48.97-.8Z"></path><path class="cls-1" d="M92.36,28.85h-2.56v-14.92h4.46c3.27,0,5.65,1.88,5.65,5.32,0,1.94-.88,3.46-2.27,4.38l3.64,5.22h-3.23l-2.89-4.32c-.35.06-.72.08-1.08.08h-1.72v4.24ZM93.69,22.71c2.41,0,3.54-1.17,3.54-3.19s-1.19-3.36-3.54-3.36h-1.33v6.55h1.33Z"></path><path class="cls-1" d="M113.87,25.97h-6.26l-1.08,2.89h-2.66l5.57-14.92h2.48l5.98,14.92h-2.89l-1.13-2.89ZM113.13,23.98l-2.52-6.57-2.33,6.57h4.85Z"></path><path class="cls-1" d="M126.33,28.85h-2.39l-5.63-14.92h2.97l4.01,11.15,4.09-11.15h2.68l-5.73,14.92Z"></path><path class="cls-1" d="M135.2,13.93h9.21v2.23h-6.65v4.11h6v2.01h-6v4.34h6.88v2.23h-9.43v-14.92Z"></path><path class="cls-1" d="M150.6,18.68v10.17h-2.46v-14.92h1.39l9.15,10.13v-10.13h2.46v14.92h-1.39l-9.15-10.17Z"></path></g></svg> 