<svg width="181" height="36" viewBox="0 0 181 36" fill="none" xmlns="http://www.w3.org/2000/svg">
<path d="M92.0231 27.5216C91.8891 27.3358 91.6479 27.2031 91.4067 27.2031C91.1923 27.2031 90.9779 27.2827 90.8172 27.4685C90.0936 28.3177 89.7185 28.5831 88.7805 29.1935L88.6733 29.2466C86.0472 31.0248 83.0726 31.9271 79.8301 31.9271C76.5876 31.9271 77.4987 31.5821 77.1236 30.9186C76.9896 30.7063 76.7752 30.0694 76.7752 28.1585V18.4981C76.7752 18.3389 76.9092 18.2062 77.07 18.2062H78.5171H78.785C78.8922 18.2062 79.2942 18.2592 80.8216 18.4185C82.3223 18.5777 82.7779 18.7369 82.9387 18.8431C83.8766 19.3739 84.7073 20.1966 85.404 21.2582C85.5916 21.5501 85.94 21.6828 86.2884 21.6032C86.6367 21.5236 86.8511 21.2051 86.8779 20.8601L87.1459 13.8802C87.1459 13.5086 86.9315 13.1902 86.5831 13.0575C86.2348 12.9248 85.8596 13.0575 85.6184 13.3229C85.2165 13.8271 84.8145 14.1987 84.4661 14.4375C83.0727 15.3664 81.3308 15.8441 79.2942 15.8176L77.07 15.7645C76.9092 15.7645 76.7752 15.6318 76.7752 15.4726L76.9092 3.98094C76.9092 3.87478 77.0164 3.76862 77.1236 3.76862L79.1602 3.689H79.4014C81.438 3.689 83.2602 4.06056 84.8145 4.83021C86.9047 5.83871 88.3786 7.03299 89.2093 8.41305C90.04 9.79311 89.5309 8.73152 89.7453 8.75806C90.174 8.7846 90.4956 8.43959 90.4956 8.0415L90.2008 1.77815C90.2008 1.5393 90.0132 1.38006 89.7721 1.38006H89.4237L78.3563 1.56584L63.6444 1.45968C63.3228 1.45968 62.76 1.45968 61.8489 1.48622C60.7502 1.5393 59.0888 1.59238 56.8378 1.61891H37.3827H35.3997C34.0062 1.61891 33.0147 1.51276 32.4787 1.32698C32.4251 1.32698 32.3447 1.2739 32.2911 1.24736C31.9696 1.08812 31.5676 1.08812 31.246 1.24736C30.9245 1.38006 30.6833 1.64545 30.5761 1.99047C30.2813 2.94589 29.8258 4.14018 29.2094 5.49369C29.129 5.70601 28.8075 5.62639 28.8075 5.41408L28.8878 2.46818C28.8878 2.09663 28.6467 1.77815 28.2715 1.72507C28.2179 1.72507 28.0571 1.69853 27.3068 1.83123C26.3421 2.04355 25.6185 2.01701 25.0022 1.80469C23.0996 1.1412 21.8133 0.743108 21.0361 0.557331C19.4283 0.185777 17.5257 0 15.3818 0C12.3001 0 9.62035 0.424633 7.39615 1.2739C5.14514 2.12317 3.32291 3.39707 1.95623 5.12214C0.830727 6.5022 0.214381 8.17419 0.214381 9.92581C0.214381 11.6774 1.36668 14.5968 3.61768 16.6669C5.43992 18.3654 8.68243 19.9578 13.2648 21.4174C16.3198 22.3994 18.3564 23.3283 19.2943 24.2041C20.4198 25.2657 20.9825 26.3804 20.9825 27.5481C20.9825 28.7158 20.527 29.6182 19.5891 30.5471C18.4636 31.6086 16.8289 32.166 14.6851 32.166C12.5413 32.166 10.3707 31.6352 8.41446 30.6267C6.27065 29.4855 4.502 27.9196 3.18892 25.9026C3.08173 25.7699 3.00133 25.6107 2.89414 25.478C2.38499 24.7349 1.92943 24.0714 1.58106 23.0629C1.44707 22.7179 1.0987 22.479 0.723536 22.5321C0.294774 22.5587 0 22.9037 0 23.3283L0.0803929 30.0163C0.0803929 30.7063 0.482357 31.3167 1.0987 31.6352C1.84904 32.0067 2.57257 32.3252 3.26931 32.6172C7.10137 34.2095 11.255 35.0323 15.5694 35.0323C19.8838 35.0323 19.6159 34.8465 21.5453 34.4484C24.2519 33.8911 26.4225 33.0418 27.9767 31.9006C30.7637 29.9101 32.1572 27.3889 32.1572 24.3633C32.1572 21.3378 31.2192 19.8782 29.397 17.9673C27.6016 16.083 24.2787 14.3579 19.4819 12.8452C16.4805 11.8897 14.4707 11.067 13.506 10.4566C11.7642 9.31539 10.8798 8.0415 10.8798 6.6349C10.8798 5.2283 11.2818 4.85674 12.0589 4.06056C13.0504 3.10513 14.4975 2.62742 16.3734 2.62742C19.6159 2.62742 22.5904 3.98094 25.163 6.66144C25.2434 6.74106 25.3238 6.84721 25.4042 6.92683C26.2081 7.74956 26.7708 8.33343 27.3872 9.44809C27.548 9.71349 27.8427 9.87273 28.1375 9.81965C28.4859 9.76657 28.7539 9.47463 28.7539 9.10308V8.97038C30.1741 7.29839 31.782 6.07757 33.5506 5.28138C34.8905 4.64443 37.0075 4.27287 39.8213 4.16672L39.6873 28.7955C39.6873 30.1755 39.5533 30.7594 39.3389 31.2902C39.2317 31.6087 38.535 32.4579 37.6775 33.1745C37.4363 33.3868 37.3559 33.7053 37.4631 33.9972C37.5703 34.2892 37.8382 34.4749 38.1598 34.4749H52.0678C52.443 34.4749 52.8181 34.2361 52.9253 33.8911C53.0325 33.546 52.9253 33.1745 52.6573 32.9356C52.041 32.4314 51.6122 31.6883 51.3443 31.1309C51.2907 30.9186 51.1031 30.0694 50.8351 26.7784V26.5396V4.11364C51.907 4.03402 52.8181 4.00748 53.5149 4.00748C55.0155 4.00748 56.2482 4.35249 57.3201 4.69751C58.0973 4.93636 59.0352 5.73255 59.1156 8.12111C59.1156 8.35997 59.3032 8.54575 59.5443 8.54575H59.9463C60.1071 8.54575 60.2411 8.46613 60.3215 8.33343L63.3228 3.21129C63.564 2.78666 64.1535 2.6805 64.5287 2.97243C64.9843 3.31745 65.3326 3.74208 65.6006 4.24633C66.0026 4.9629 66.1901 6.42258 66.1901 8.59883C66.1901 9.12962 66.1901 9.58079 66.1901 9.95235L66.1097 21.8155C66.1097 21.8421 66.1097 22.2402 66.1097 22.2402L66.0294 27.9993C65.949 30.149 65.7078 31.0248 65.547 31.3963C65.3326 31.9006 64.8235 32.4314 64.0731 32.9887C63.832 33.1745 63.698 33.493 63.8052 33.7849C63.9123 34.0768 64.1803 34.2626 64.4751 34.2361C67.1281 34.1564 70.1026 34.1299 73.3183 34.1299C81.0092 34.1299 86.2348 34.2361 88.8609 34.4484C88.8877 34.4484 88.9145 34.4484 88.9413 34.4484C89.4237 34.4484 89.8792 34.1299 90.0668 33.6787L92.0767 28.185C92.157 27.9727 92.1302 27.7073 91.9963 27.5216H92.0231Z" fill="#231F20"/>
<path d="M116.646 26.0922C116.512 25.9327 116.324 25.8264 116.136 25.8264C115.867 25.8264 115.599 25.9593 115.464 26.1985C115.303 26.5174 115.169 26.7566 115.115 26.8894C114.283 28.3777 113.504 29.2812 112.403 30.0519C110.737 31.2212 108.75 31.8058 106.493 31.8058C104.237 31.8058 104.398 31.5932 103.915 31.1946C103.593 30.9023 103.431 30.2645 103.431 29.3875V28.3511V8.39316C103.512 6.02798 103.807 5.09785 104.049 4.7258C104.533 3.92854 105.15 3.23759 105.902 2.70609C106.171 2.49349 106.279 2.14801 106.171 1.82911C106.064 1.51021 105.768 1.29761 105.419 1.29761H90.9686C90.6194 1.29761 90.3239 1.51021 90.2165 1.82911C90.1091 2.14801 90.2165 2.49349 90.512 2.70609C91.1029 3.13129 91.5863 3.52992 91.9087 3.92854C92.419 4.59292 92.7144 5.5762 92.8219 6.79866C92.8756 7.56934 92.9025 8.41974 92.9293 9.34987L93.0368 27.0755C93.0368 30.5037 92.7682 31.2743 92.6607 31.4604C92.3921 32.0184 91.8818 32.5234 91.1566 33.0017C90.8611 33.1877 90.7537 33.5332 90.8343 33.8521C90.9417 34.171 91.2103 34.3836 91.5595 34.3836H114.766C114.981 34.3836 115.142 34.2508 115.196 34.0382L116.754 26.6237C116.807 26.4377 116.754 26.2251 116.619 26.0656L116.646 26.0922Z" fill="#231F20"/>
<path d="M180.729 32.8914C179.657 31.9322 178.559 30.307 177.193 27.5627L173.282 19.8361L173.068 19.4364C172.693 18.5838 172.425 18.0243 172.264 17.7579C172.157 17.5448 172.077 17.4382 172.05 17.3582L164.282 0.892554C164.202 0.732692 164.014 0.626118 163.827 0.652762C162.247 0.86591 160.961 1.02577 159.997 1.18563C159.943 1.18563 159.916 1.18563 159.863 1.21228C159.702 1.23892 158.979 1.31885 155.818 1.34549C155.657 1.34549 155.497 1.45207 155.416 1.58529C151.345 10.0579 148.024 16.6922 145.586 21.3281C143.041 26.2039 141.22 29.4544 140.175 30.9997C140.122 31.0797 139.988 31.0264 139.988 30.9198L140.845 26.497C140.872 26.3105 140.845 26.124 140.738 25.9907C140.631 25.8575 140.443 25.751 140.283 25.751C140.015 25.751 139.774 25.9108 139.64 26.124C139.506 26.3371 139.345 26.6835 139.265 26.8167C138.408 28.362 137.604 29.2679 136.533 30.0139C134.845 31.1862 132.836 31.7724 130.559 31.7724C128.283 31.7724 128.443 31.5592 127.961 31.1596C127.64 30.8665 127.479 30.2537 127.479 29.3478V28.3087V8.29945C127.559 5.92818 127.854 4.99566 128.095 4.62265C128.658 3.71677 129.381 2.97075 130.265 2.38459C130.506 2.22473 130.64 1.93165 130.559 1.63857C130.479 1.34549 130.238 1.18563 129.943 1.18563H115.051C114.702 1.18563 114.327 1.45207 114.22 1.77179C114.113 2.11816 114.22 2.46452 114.515 2.65103C115.077 3.05068 115.506 3.45033 115.827 3.7967C116.336 4.46278 116.658 5.44859 116.738 6.6742C116.792 7.44686 116.818 8.29945 116.845 9.23197L116.952 27.0032C116.952 30.4136 116.685 31.2129 116.577 31.3994C116.577 31.3994 116.577 31.3994 116.577 31.426C116.336 31.9056 115.935 32.3585 115.318 32.7848C114.997 32.998 114.863 33.3976 114.997 33.744C115.104 34.117 115.452 34.3568 115.827 34.3568H138.943C138.997 34.3568 139.024 34.3568 139.077 34.3568H148.131C148.479 34.3568 148.774 34.1437 148.881 33.7973C148.988 33.4776 148.881 33.1312 148.586 32.9447C147.407 32.1454 146.818 31.1329 146.818 29.8274C146.818 28.5219 147.059 27.7226 147.568 26.3371C147.943 25.3247 148.211 24.6319 148.345 24.2856L148.881 23.1932C148.988 23.0067 149.175 22.8735 149.416 22.8735H162.381C162.595 22.8735 162.809 23.0067 162.916 23.1932L166.077 29.8008L166.264 30.2537C166.586 31.0264 166.639 31.3727 166.639 31.506C166.639 32.1454 166.398 32.6516 165.889 33.0513C165.622 33.2378 165.514 33.5841 165.622 33.8772C165.729 34.1969 166.023 34.3834 166.345 34.3834H180.112C180.487 34.3834 180.809 34.1703 180.943 33.8239C181.077 33.5042 180.97 33.1312 180.702 32.8914H180.729ZM161.068 20.1292H150.541C150.407 20.1292 150.327 19.996 150.381 19.8894L155.657 8.21952C155.711 8.0863 155.925 8.0863 155.979 8.21952L161.229 19.8894C161.282 19.996 161.202 20.1292 161.068 20.1292Z" fill="#231F20"/>
</svg>
