<svg id="logo_blabck" xmlns="http://www.w3.org/2000/svg" xmlns:xlink="http://www.w3.org/1999/xlink" width="258.42" height="154.483" viewBox="0 0 258.42 154.483">
  <defs>
    <clipPath id="clip-path">
      <rect id="Rectangle_1" data-name="Rectangle 1" width="258.42" height="154.483" fill="none"/>
    </clipPath>
  </defs>
  <g id="Group_1" data-name="Group 1" clip-path="url(#clip-path)">
    <path id="Path_1" data-name="Path 1" d="M257.637,46.322a8.3,8.3,0,0,1-5.372-.8,6.3,6.3,0,0,1-2.556-2.331,8.1,8.1,0,0,1-1.125-6.309.733.733,0,0,0-.714-.9H10.551a.729.729,0,0,0-.712.9,8.111,8.111,0,0,1-1.13,6.311A6.313,6.313,0,0,1,6.15,45.525a8.318,8.318,0,0,1-5.369.8A.649.649,0,0,0,0,46.953V81.062a.647.647,0,0,0,.781.632,8.314,8.314,0,0,1,5.376.8A6.306,6.306,0,0,1,8.725,84.84a8.115,8.115,0,0,1,1.1,6.325.725.725,0,0,0,.707.9H95.979c4.8,9.182,17.863,15.771,33.232,15.771s28.43-6.589,33.229-15.771h85.445a.726.726,0,0,0,.705-.9,8.112,8.112,0,0,1,1.112-6.329,6.273,6.273,0,0,1,2.57-2.347,8.321,8.321,0,0,1,5.365-.795.647.647,0,0,0,.781-.632V46.953a.647.647,0,0,0-.781-.632m-2.8,30.689a1.2,1.2,0,0,1-.962,1.171,11.361,11.361,0,0,0-8.794,8.534c-.06.248-.113.505-.154.76a1.2,1.2,0,0,1-1.18,1h-81.3a3.573,3.573,0,0,0-3.176,1.925c-4.262,8.153-16.62,13.846-30.053,13.846S103.42,98.556,99.155,90.4a3.573,3.573,0,0,0-3.176-1.925H14.673a1.194,1.194,0,0,1-1.178-1c-.046-.255-.094-.51-.152-.76a11.37,11.37,0,0,0-8.8-8.534,1.2,1.2,0,0,1-.958-1.171V51a1.191,1.191,0,0,1,.958-1.171,11.377,11.377,0,0,0,8.789-8.5c.06-.257.11-.519.156-.776a1.194,1.194,0,0,1,1.178-1H243.749a1.2,1.2,0,0,1,1.18,1c.041.257.094.517.156.776a11.384,11.384,0,0,0,8.787,8.5A1.2,1.2,0,0,1,254.835,51Z" transform="translate(0 46.648)" fill="#1a1818"/>
    <path id="Path_2" data-name="Path 2" d="M26.682,32.625,18.391,30.5a11.378,11.378,0,0,1-6.378-4.221,12.086,12.086,0,0,1,.981-16.023,11.605,11.605,0,0,1,8.6-3.656A11.317,11.317,0,0,1,32.1,12.567l.184.326,5.762-3.24-.2-.331a18.867,18.867,0,0,0-6.881-6.775A18.475,18.475,0,0,0,21.595,0,18.158,18.158,0,0,0,8.316,5.475,18.162,18.162,0,0,0,2.841,18.754,18.435,18.435,0,0,0,6.69,30.191,18.122,18.122,0,0,0,16.722,36.86l8.286,2.127a15.118,15.118,0,0,1,6.782,25.132,14.433,14.433,0,0,1-10.725,4.4,14.916,14.916,0,0,1-9.331-3.213,14.73,14.73,0,0,1-5.388-8.5l-.09-.386L0,58.226l.09.354A21.7,21.7,0,0,0,7.762,70.466a20.873,20.873,0,0,0,13.3,4.651,21.072,21.072,0,0,0,15.242-6.272,20.779,20.779,0,0,0,6.38-15.353A21.189,21.189,0,0,0,38.2,40.3a20.916,20.916,0,0,0-11.52-7.678" transform="translate(0 -0.001)" fill="#1a1818"/>
    <path id="Path_3" data-name="Path 3" d="M19.024,6.814H33.768V75.073H40.55V6.814H55.294V.032H19.024Z" transform="translate(24.667 0.04)" fill="#1a1818"/>
    <path id="Path_4" data-name="Path 4" d="M81.776,38.707a26.657,26.657,0,0,0-.831-25.212A26.911,26.911,0,0,0,57.618.032H38.943l-4.07,6.782h9.253V75.073h6.782V53.887h5l17.8,21.051.117.136h8.989l-18.7-22a27.441,27.441,0,0,0,10.018-4.947,26.546,26.546,0,0,0,7.648-9.418M50.908,6.814h6.711A20.468,20.468,0,0,1,67.374,9.28a19.862,19.862,0,0,1,7.5,7.071A19.615,19.615,0,0,1,77.764,26.96a20.2,20.2,0,0,1-5.576,14.152c-3.691,3.978-8.594,5.994-14.57,5.994H50.908Z" transform="translate(45.216 0.041)" fill="#1a1818"/>
    <path id="Path_5" data-name="Path 5" d="M65.92,23.622H60.627L56.559,30.4H65.92V75.075h34.851V68.291H72.7V30.4h17.8V23.622H72.7V6.814h28.069V.032H65.92Z" transform="translate(73.334 0.04)" fill="#1a1818"/>
    <path id="Path_6" data-name="Path 6" d="M85.941,23.622H80.647L76.58,30.4h9.361V75.075h34.851V68.291H92.723V30.4h17.8V23.622h-17.8V6.814h28.069V.032H85.941Z" transform="translate(99.293 0.04)" fill="#1a1818"/>
    <path id="Path_7" data-name="Path 7" d="M96.73.032V6.814h14.744V75.075h6.782V6.814H133V.032Z" transform="translate(125.419 0.04)" fill="#1a1818"/>
    <path id="Path_8" data-name="Path 8" d="M24.6,59.485a9.176,9.176,0,0,1-3.211,2.733A9.174,9.174,0,0,1,9.247,49.474a8.9,8.9,0,0,1,3.346-3.36A9.079,9.079,0,0,1,17.168,44.9a9.4,9.4,0,0,1,2.9.443,9.164,9.164,0,0,1,2.565,1.321A8.723,8.723,0,0,1,24.6,48.612l.163.225,1.846-1.3-.161-.227a10.946,10.946,0,0,0-3.994-3.459,11.726,11.726,0,0,0-9.678-.388,11.233,11.233,0,0,0-3.7,2.464,11.465,11.465,0,0,0-3.358,8.123A11.261,11.261,0,0,0,7.26,59.822a11.582,11.582,0,0,0,4.15,4.166,11.159,11.159,0,0,0,5.758,1.543,11.306,11.306,0,0,0,5.3-1.284,11.459,11.459,0,0,0,4.005-3.422l.165-.227-1.879-1.337Z" transform="translate(7.415 55.234)" fill="#1a1818"/>
    <path id="Path_9" data-name="Path 9" d="M32.159,44.141A11.267,11.267,0,0,0,26.386,42.6a11.479,11.479,0,0,0-4.393.861,11.231,11.231,0,0,0-3.7,2.464,11.476,11.476,0,0,0-3.355,8.123,11.261,11.261,0,0,0,1.541,5.774,11.546,11.546,0,0,0,4.15,4.166,11.556,11.556,0,0,0,11.531,0,11.537,11.537,0,0,0,4.166-4.166,11.556,11.556,0,0,0,0-11.531,11.618,11.618,0,0,0-4.166-4.15M26.386,63.23a9.156,9.156,0,0,1-9.15-9.182,9.12,9.12,0,0,1,1.229-4.575,8.9,8.9,0,0,1,3.346-3.36,9.3,9.3,0,0,1,9.182,0,8.9,8.9,0,0,1,3.346,3.36A9.165,9.165,0,0,1,26.386,63.23" transform="translate(19.367 55.234)" fill="#1a1818"/>
    <path id="Path_10" data-name="Path 10" d="M27.835,49.6H26.372L25,51.927h2.836V64.868h2.3V51.927h5.158V49.6H30.134v-4.5h8.132v-2.3H27.835Z" transform="translate(32.413 55.484)" fill="#1a1818"/>
    <path id="Path_11" data-name="Path 11" d="M33.9,49.6H32.434l-1.373,2.331H33.9V64.868h2.3V51.927h5.158V49.6H36.2v-4.5h8.132v-2.3H33.9Z" transform="translate(40.273 55.484)" fill="#1a1818"/>
    <path id="Path_12" data-name="Path 12" d="M39.962,49.628H38.5l-1.38,2.3h2.841V64.868H50.393v-2.3H42.26V51.927h5.158v-2.3H42.26V45.092h8.132v-2.3H39.962Z" transform="translate(48.13 55.484)" fill="#1a1818"/>
    <path id="Path_13" data-name="Path 13" d="M46.024,49.628H44.563l-1.38,2.3h2.841V64.868H56.455v-2.3H48.322V51.927h5.158v-2.3H48.322V45.092h8.132v-2.3H46.024Z" transform="translate(55.99 55.484)" fill="#1a1818"/>
    <path id="Path_14" data-name="Path 14" d="M68.514,54.237a7.951,7.951,0,0,0-7.149-11.444h-5.5l-1.38,2.3h2.809V64.868h2.3V58.729h1.2l5.19,6.139h3.043l-5.482-6.451a8.146,8.146,0,0,0,2.708-1.392,7.846,7.846,0,0,0,2.264-2.788m-8.927-9.145h1.778a5.786,5.786,0,0,1,2.747.694,5.618,5.618,0,0,1,2.111,1.991,5.531,5.531,0,0,1,.811,2.983,5.691,5.691,0,0,1-1.571,3.987,5.354,5.354,0,0,1-4.1,1.683H59.588Z" transform="translate(70.638 55.484)" fill="#1a1818"/>
    <path id="Path_15" data-name="Path 15" d="M78.34,44.141A11.273,11.273,0,0,0,72.567,42.6a11.479,11.479,0,0,0-4.393.861,11.231,11.231,0,0,0-3.7,2.464,11.476,11.476,0,0,0-3.355,8.123,11.261,11.261,0,0,0,1.541,5.774,11.558,11.558,0,0,0,4.148,4.166,11.561,11.561,0,0,0,11.533,0,11.537,11.537,0,0,0,4.166-4.166,11.556,11.556,0,0,0,0-11.531,11.618,11.618,0,0,0-4.166-4.15M72.567,63.23a9.157,9.157,0,0,1-9.15-9.182,9.12,9.12,0,0,1,1.229-4.575,8.913,8.913,0,0,1,3.344-3.36,9.3,9.3,0,0,1,9.184,0,8.881,8.881,0,0,1,3.344,3.36A9.162,9.162,0,0,1,72.567,63.23" transform="translate(79.245 55.234)" fill="#1a1818"/>
    <path id="Path_16" data-name="Path 16" d="M82.445,43.4a5.755,5.755,0,0,0-5.852,0,5.938,5.938,0,0,0-2.157,2.157,5.714,5.714,0,0,0-.8,2.926v8.263H72.558l-1.38,2.3H73.64v6.074h2.3V59.044H83.1v6.074h2.3V48.482a5.736,5.736,0,0,0-.8-2.926A5.956,5.956,0,0,0,82.445,43.4m.655,5.082v8.263H75.939V48.482a3.567,3.567,0,0,1,1-2.5A3.316,3.316,0,0,1,79.519,44.9a3.65,3.65,0,0,1,1.734.441,3.516,3.516,0,0,1,1.334,1.263,3.473,3.473,0,0,1,.512,1.876" transform="translate(92.289 55.234)" fill="#1a1818"/>
    <path id="Path_17" data-name="Path 17" d="M85.926,52.377l-2.471-.634a3.186,3.186,0,0,1-1.807-1.2,3.389,3.389,0,0,1-.733-2.138,3.336,3.336,0,0,1,1.013-2.416,3.256,3.256,0,0,1,2.441-1.038,3.177,3.177,0,0,1,2.986,1.695l.138.241,2.01-1.132-.145-.246a5.81,5.81,0,0,0-2.111-2.076,5.662,5.662,0,0,0-2.878-.781,5.732,5.732,0,0,0-5.753,5.753,5.649,5.649,0,0,0,1.18,3.507,5.574,5.574,0,0,0,3.08,2.049l2.469.632a4.154,4.154,0,0,1,3.174,4.159A4.161,4.161,0,0,1,87.285,61.8a4.081,4.081,0,0,1-3.075,1.261,4.283,4.283,0,0,1-2.676-.921A4.221,4.221,0,0,1,79.991,59.7l-.069-.285-2.186.629.067.264a6.616,6.616,0,0,0,2.343,3.629A6.592,6.592,0,0,0,90.82,58.755a6.473,6.473,0,0,0-1.371-4.031,6.407,6.407,0,0,0-3.523-2.347" transform="translate(100.792 55.307)" fill="#1a1818"/>
    <path id="Path_18" data-name="Path 18" d="M83.6,45.092h4.272V64.868h2.3V45.092h4.272v-2.3H83.6Z" transform="translate(108.398 55.485)" fill="#1a1818"/>
    <path id="Path_19" data-name="Path 19" d="M91.24,49.628H89.78l-1.38,2.3H91.24V64.868h10.431v-2.3H93.539V51.927H98.7v-2.3H93.539V45.092h8.132v-2.3H91.24Z" transform="translate(114.618 55.484)" fill="#1a1818"/>
    <path id="Path_20" data-name="Path 20" d="M108.5,54.237a7.951,7.951,0,0,0-7.149-11.444h-5.5l-1.38,2.3h2.809V64.868h2.3V58.729h1.2l5.19,6.139h3.043l-5.482-6.451a8.145,8.145,0,0,0,2.708-1.392,7.87,7.87,0,0,0,2.264-2.788M99.57,45.092h1.778a5.786,5.786,0,0,1,2.747.694,5.618,5.618,0,0,1,2.111,1.991,5.531,5.531,0,0,1,.811,2.983,5.691,5.691,0,0,1-1.571,3.987,5.354,5.354,0,0,1-4.1,1.683H99.57Z" transform="translate(122.479 55.484)" fill="#1a1818"/>
    <path id="Path_21" data-name="Path 21" d="M112.8,54.725a6.4,6.4,0,0,0-3.523-2.347l-2.471-.634a3.193,3.193,0,0,1-1.807-1.2,3.4,3.4,0,0,1-.73-2.138,3.328,3.328,0,0,1,1.013-2.416,3.253,3.253,0,0,1,2.441-1.038,3.173,3.173,0,0,1,2.983,1.693l.138.243,2.01-1.132-.145-.246a5.8,5.8,0,0,0-2.111-2.078,5.68,5.68,0,0,0-2.875-.779,5.736,5.736,0,0,0-5.755,5.753,5.637,5.637,0,0,0,1.183,3.507,5.56,5.56,0,0,0,3.077,2.046l2.469.634A4.336,4.336,0,0,1,110.64,61.8a4.093,4.093,0,0,1-3.075,1.261,4.273,4.273,0,0,1-2.678-.923,4.208,4.208,0,0,1-1.543-2.437l-.067-.285-2.189.629.067.262a6.622,6.622,0,0,0,2.343,3.631,6.591,6.591,0,0,0,10.675-5.186,6.473,6.473,0,0,0-1.371-4.031" transform="translate(131.07 55.307)" fill="#1a1818"/>
    <path id="Path_22" data-name="Path 22" d="M82.241,58.926c-2.767.365-5.535.556-8.3.687s-5.535.193-8.3.2-5.535-.053-8.3-.193-5.535-.322-8.3-.689c2.767-.367,5.535-.56,8.3-.689s5.535-.193,8.3-.193,5.535.055,8.3.2,5.535.322,8.3.687" transform="translate(63.575 75.259)" fill="#1a1818"/>
    <path id="Path_23" data-name="Path 23" d="M71.41,61.832a35.1,35.1,0,0,1-4.841.691c-1.615.131-3.227.191-4.841.191s-3.227-.057-4.841-.188a34.766,34.766,0,0,1-4.841-.694,34.764,34.764,0,0,1,4.841-.694c1.615-.131,3.227-.191,4.841-.188s3.227.06,4.841.191a35.1,35.1,0,0,1,4.841.691" transform="translate(67.481 79.026)" fill="#1a1818"/>
  </g>
</svg>
