<svg width="1581" height="755" viewBox="0 0 1581 755" fill="none" xmlns="http://www.w3.org/2000/svg">
  <path
    d="M40 42C40 40.8954 40.8954 40 42 40H1539C1540.1 40 1541 40.8954 1541 42V713C1541 714.105 1540.1 715 1539 715H42C40.8955 715 40 714.105 40 713V42Z"
    fill="#F65F35" fill-opacity="0.988235" />
  <path
    d="M42 40V41H1539V40V39H42V40ZM1541 42H1540V713H1541H1542V42H1541ZM1539 715V714H42V715V716H1539V715ZM40 713H41V42H40H39V713H40ZM42 715V714C41.4477 714 41 713.552 41 713H40H39C39 714.657 40.3432 716 42 716V715ZM1541 713H1540C1540 713.552 1539.55 714 1539 714V715V716C1540.66 716 1542 714.657 1542 713H1541ZM1539 40V41C1539.55 41 1540 41.4477 1540 42H1541H1542C1542 40.3431 1540.66 39 1539 39V40ZM42 40V39C40.3432 39 39 40.3431 39 42H40H41C41 41.4477 41.4477 41 42 41V40Z"
    fill="white" fill-opacity="0.1" />
  <mask id="mask0_0_1" style="mask-type:luminance" maskUnits="userSpaceOnUse" x="270" y="268" width="1042" height="219">
    <path d="M1311.84 268.945H270.157V486.057H1311.84V268.945Z" fill="white" />
  </mask>
  <g mask="url(#mask0_0_1)">
    <path
      d="M1274.55 269.048C1256.22 270.481 1241.97 286.853 1242.74 305.455C1243.51 324.201 1258.55 338.915 1277.18 338.915C1296.99 338.915 1311.84 323.587 1311.84 303.225C1311.84 282.862 1294.68 267.493 1274.55 269.048ZM1277.18 335.314C1260.18 335.314 1246.58 321.438 1246.58 304.043C1246.58 286.648 1260.28 272.568 1277.18 272.568C1294.08 272.568 1307.97 286.341 1307.97 304.534C1307.97 321.357 1293.98 335.314 1277.18 335.314Z"
      fill="black" />
    <path
      d="M1290.78 296.757C1290.78 292.46 1288.9 288.653 1285.89 286.75C1283.36 285.174 1280.01 285.092 1277.06 285.092H1265.05V321.97H1272.63V307.992H1277.46L1282.62 321.97H1290.94L1284.58 306.662C1288.98 304.35 1290.78 301.464 1290.78 296.737V296.757ZM1277.38 301.567H1272.63V292.05H1277.63C1281.38 292.05 1283.1 293.544 1283.1 296.778C1283.1 300.011 1281.38 301.587 1277.38 301.587V301.567Z"
      fill="black" />
    <path
      d="M386.008 278.382H402.44C424.895 278.382 423.459 289.944 429.462 308.035L435.222 327.804C435.647 329.36 437.041 330.444 438.638 330.444H445.025C446.601 330.444 448.42 330.219 448.178 327.477L443.246 270.707C443.246 269.766 442.458 268.968 441.468 268.968H276.867C275.897 268.968 275.089 269.766 275.089 270.707L270.177 327.497C269.915 330.24 271.734 330.444 273.33 330.444H279.717C281.314 330.444 282.708 329.38 283.133 327.825L288.893 308.056C294.896 289.965 293.461 278.402 315.915 278.402H332.347C339.866 278.402 345.99 284.603 345.99 292.216V455.894C345.99 459.639 344.777 466.167 338.875 469.851C332.852 473.616 325.273 475.724 312.338 479.51C311.489 479.756 310.883 480.636 310.883 481.638V484.033C310.883 485.241 311.732 486.079 312.783 486.079H405.552C406.603 486.079 407.452 485.241 407.452 484.033V481.638C407.452 480.636 406.846 479.756 405.997 479.51C393.061 475.724 385.503 473.596 379.46 469.851C373.558 466.167 372.345 459.639 372.345 455.894V292.216C372.345 284.603 378.47 278.402 385.987 278.402L386.008 278.382Z"
      fill="black" />
    <path
      d="M1214.42 270.725C1214.42 269.783 1213.64 268.985 1212.64 268.985H1048.03C1047.05 268.985 1046.25 269.783 1046.25 270.725L1041.31 327.494C1041.05 330.237 1042.87 330.441 1044.47 330.441H1050.85C1052.45 330.441 1053.85 329.377 1054.27 327.822L1060.03 308.053C1066.03 289.962 1064.6 278.399 1087.05 278.399H1103.48C1111 278.399 1117.13 284.6 1117.13 292.213V455.891C1117.13 459.636 1115.91 466.164 1110.01 469.848C1103.99 473.614 1096.41 475.722 1083.48 479.508C1082.63 479.753 1082.02 480.633 1082.02 481.636V484.03C1082.02 485.237 1082.87 486.076 1083.92 486.076H1125.23H1130.3H1135.38H1176.69C1177.74 486.076 1178.59 485.217 1178.59 484.03V481.636C1178.59 480.633 1177.98 479.753 1177.13 479.508C1164.2 475.722 1156.64 473.593 1150.6 469.848C1144.69 466.164 1143.48 459.636 1143.48 455.891V292.213C1143.48 284.6 1149.61 278.399 1157.12 278.399H1173.56C1196.01 278.399 1194.58 289.962 1200.58 308.053L1206.34 327.822C1206.76 329.377 1208.16 330.462 1209.75 330.462H1216.14C1217.72 330.462 1219.54 330.237 1219.29 327.494L1214.36 270.725H1214.42Z"
      fill="black" />
    <path
      d="M1061.73 478.731C1054.33 476.827 1044.85 473.266 1041.82 467.638C1037.92 460.394 966.715 272.055 965.967 270.152C965.705 269.456 965.059 269.006 964.311 269.006H939.127C938.157 269.006 937.187 269.927 937.368 270.95L942.159 284.416C942.159 284.416 891.469 414.777 871.804 457.631C870.227 461.069 867.478 467.474 861.031 472.12C856.827 475.128 853.553 476.069 848.742 476.069C840.819 476.069 833.867 468.784 833.867 468.784C833.362 468.252 833.058 467.516 833.058 466.779V271.216C833.058 269.968 832.048 268.945 830.815 268.945H780.005C778.771 268.945 777.781 269.948 777.781 271.196V273.12C777.781 274.163 778.488 275.064 779.479 275.33C793.627 278.993 803.368 281.735 808.421 284.355C813.13 286.77 816.485 290.945 818.345 296.798C820.326 302.978 821.336 313.947 821.336 329.439V443.735C821.336 445.229 820.346 446.089 819.416 446.395C818.486 446.703 817.193 446.601 816.323 445.392L688.711 270.459C688.306 269.927 687.376 269.006 685.659 269.006L653.057 268.945C652.189 268.945 651.481 269.661 651.481 270.541V273.345C651.481 274.532 652.067 275.637 653.057 276.271L670.439 287.506V434.547C669.934 450.305 669.57 462.153 665.225 468.334C659.606 476.315 655.544 477.503 643.922 477.503C630.401 477.503 626.176 472.775 623.266 467.679C619.184 460.536 548.161 272.096 547.414 270.193C547.151 269.497 546.504 269.047 545.756 269.047H520.573C519.603 269.047 518.633 269.968 518.815 270.991L523.604 284.457C523.604 284.457 472.914 414.819 453.249 457.672C451.673 461.11 446.863 469.418 437.626 474.575C432.007 477.707 426.166 478.833 424.488 479.262C422.953 479.651 421.841 480.572 421.841 481.882V483.888C421.841 485.299 422.407 486.056 423.62 486.056H497.795C498.765 486.056 499.573 485.259 499.573 484.277V481.861C499.573 480.285 497.896 479.201 496.117 478.976C488.497 478.034 469.075 475.067 465.296 470.933C463.658 469.133 463.557 466.042 464.628 462.359C465.093 460.762 481.323 420.323 481.323 420.323C483.465 415.208 488.74 412.097 494.217 412.097H563.663C568.312 412.097 572.597 413.283 574.981 418.236L593.677 466.779C594.182 468.17 593.596 469.705 592.323 470.442C588.038 472.939 577.952 475.988 567.988 478.28C566.23 478.689 564.856 479.59 564.856 481.432V484.133C564.856 485.197 565.705 486.056 566.756 486.056H704.071H723.514C724.747 486.056 725.737 485.053 725.737 483.805V481.882C725.737 480.839 725.029 479.938 724.02 479.672C709.871 475.988 700.149 472.816 695.076 470.217C690.367 467.801 687.012 463.607 685.153 457.774C683.172 451.594 682.161 440.604 682.161 425.133V310.611C682.161 309.117 683.152 308.258 684.061 307.93C684.971 307.623 686.285 307.726 687.154 308.933L814.12 483.54C814.566 484.173 815.576 486.016 818.406 486.016L916.248 486.056C917.218 486.056 918.027 485.259 918.027 484.277V481.861C918.027 480.285 916.349 479.201 914.571 478.976C907.76 478.137 891.55 475.68 885.486 472.202C885.486 472.202 885.486 472.202 885.486 472.182C884.78 471.772 884.193 471.363 883.788 470.912C882.152 469.112 882.051 466.022 883.122 462.338C883.586 460.742 899.816 420.303 899.816 420.303C901.959 415.187 907.234 412.076 912.711 412.076H982.157C986.805 412.076 991.09 413.263 993.475 418.215L1012.17 466.758C1012.68 468.15 1012.09 469.685 1010.82 470.421C1006.41 472.979 995.92 476.111 985.714 478.423C984.34 478.731 983.349 479.958 983.349 481.391V484.092C983.349 485.156 984.198 486.016 985.249 486.016C985.249 486.016 1060.72 486.016 1063.12 486.016C1065.53 486.016 1066.13 485.402 1066.13 483.765V481.821C1066.13 479.426 1064.05 479.303 1061.69 478.689L1061.73 478.731ZM565.159 399.654C563.906 401.7 561.541 402.765 559.156 402.765H496.744C494.541 402.765 492.459 401.679 491.408 399.49C490.801 398.222 490.559 396.564 492.176 392.757C508.871 351.07 525.706 309.281 525.706 309.281C526.353 307.767 527.748 306.825 529.364 306.825H529.425C531.062 306.846 532.458 307.828 533.063 309.363L565.927 394.681C566.331 396.38 566.089 398.139 565.159 399.633V399.654ZM983.692 399.654C982.439 401.7 980.075 402.765 977.69 402.765H915.278C913.075 402.765 910.993 401.679 909.942 399.49C909.336 398.222 909.093 396.564 910.71 392.757C927.404 351.07 944.24 309.281 944.24 309.281C944.887 307.767 946.281 306.825 947.899 306.825H947.959C949.596 306.846 950.991 307.828 951.597 309.363L984.461 394.681C984.865 396.38 984.623 398.139 983.692 399.633V399.654Z"
      fill="black" />
  </g>
</svg>
