<?xml version="1.0" encoding="UTF-8" standalone="no"?>
<!DOCTYPE svg PUBLIC "-//W3C//DTD SVG 1.1//EN" "http://www.w3.org/Graphics/SVG/1.1/DTD/svg11.dtd">
<svg width="824px" height="200px" version="1.1" xmlns="http://www.w3.org/2000/svg" xmlns:xlink="http://www.w3.org/1999/xlink" xml:space="preserve" xmlns:serif="http://www.serif.com/" style="fill-rule:evenodd;clip-rule:evenodd;stroke-linejoin:round;stroke-miterlimit:2;">
    <g id="Warstwa-1" serif:id="Warstwa 1" transform="matrix(4.16667,0,0,4.16667,-43.4058,-58.6292)">
        <g transform="matrix(1,0,0,1,0,-0.4156)">
            <path d="M10.417,23.016L10.417,15.32L36.597,15.32L36.597,23.016L28.441,23.016L28.441,61.655L18.449,61.655L18.449,23.016L10.417,23.016Z" style="fill:rgb(35,31,32);fill-rule:nonzero;"/>
        </g>
        <g transform="matrix(1,0,0,1,0,-0.4164)">
            <path d="M48.391,36.053L50.695,35.99C52.23,35.949 53.475,35.313 54.43,34.083C55.385,32.854 55.862,31.229 55.862,29.207C55.862,27.31 55.364,25.748 54.368,24.518C53.372,23.288 52.168,22.653 50.757,22.611L48.391,22.548L48.391,36.053ZM38.523,61.656L38.523,15.321L51.521,15.321C52.93,15.321 54.324,15.494 55.703,15.838C57.081,16.183 58.397,16.716 59.652,17.437C60.906,18.159 62.01,19.016 62.963,20.008C63.917,21.001 64.679,22.198 65.249,23.598C65.819,24.999 66.104,26.503 66.104,28.113C66.104,33.532 63.414,37.544 58.035,40.148L67.841,61.656L57.011,61.656L48.92,41.805L48.391,41.805L48.453,61.656L38.523,61.656Z" style="fill:rgb(35,31,32);fill-rule:nonzero;"/>
        </g>
        <g transform="matrix(1,0,0,1,0,-0.4162)">
            <rect x="69.748" y="15.321" width="9.868" height="46.335" style="fill:rgb(35,31,32);"/>
        </g>
        <g transform="matrix(1,0,0,1,0,-0.4478)">
            <path d="M83.197,38.222C83.197,34.927 83.568,31.85 84.31,28.992C85.053,26.135 86.109,23.632 87.48,21.484C88.851,19.336 90.594,17.641 92.708,16.4C94.821,15.159 97.177,14.538 99.775,14.538C103.715,14.538 107.019,15.91 109.688,18.652C112.356,21.395 113.873,24.936 114.238,29.274L103.676,29.274C103.697,29.003 103.707,28.742 103.707,28.492C103.707,26.657 103.385,25.04 102.74,23.643C102.012,22.058 100.94,21.265 99.526,21.265C98.34,21.265 97.299,21.703 96.405,22.579C95.51,23.455 94.793,24.68 94.252,26.255C93.711,27.83 93.306,29.624 93.035,31.636C92.765,33.649 92.629,35.865 92.629,38.285C92.629,40.892 92.765,43.233 93.035,45.308C93.306,47.384 93.721,49.214 94.283,50.799C94.845,52.384 95.604,53.605 96.561,54.46C97.518,55.315 98.652,55.742 99.963,55.742C101.793,55.742 103.229,54.835 104.269,53.02C105.163,51.498 105.611,49.496 105.611,47.013C105.611,46.513 105.59,46.002 105.548,45.48L97.237,46.888L97.237,38.504L115.043,38.504C114.979,42.654 114.571,46.273 113.819,49.36C113.066,52.447 112.011,54.944 110.654,56.853C109.297,58.761 107.707,60.175 105.884,61.092C104.061,62.01 101.983,62.469 99.651,62.469C96.929,62.469 94.511,61.848 92.398,60.607C90.284,59.367 88.563,57.641 87.233,55.429C85.903,53.219 84.898,50.658 84.217,47.749C83.537,44.839 83.197,41.663 83.197,38.222" style="fill:rgb(35,31,32);fill-rule:nonzero;"/>
        </g>
        <g transform="matrix(1,0,0,1,0,-0.4478)">
            <path d="M116.697,38.222C116.697,34.927 117.068,31.85 117.81,28.992C118.553,26.135 119.609,23.632 120.98,21.484C122.351,19.336 124.094,17.641 126.208,16.4C128.321,15.159 130.677,14.538 133.275,14.538C137.215,14.538 140.519,15.91 143.188,18.652C145.856,21.395 147.373,24.936 147.738,29.274L137.176,29.274C137.197,29.003 137.207,28.742 137.207,28.492C137.207,26.657 136.885,25.04 136.24,23.643C135.512,22.058 134.44,21.265 133.026,21.265C131.84,21.265 130.799,21.703 129.905,22.579C129.01,23.455 128.293,24.68 127.752,26.255C127.211,27.83 126.806,29.624 126.535,31.636C126.265,33.649 126.129,35.865 126.129,38.285C126.129,40.892 126.265,43.233 126.535,45.308C126.806,47.384 127.221,49.214 127.783,50.799C128.345,52.384 129.104,53.605 130.061,54.46C131.018,55.315 132.152,55.742 133.463,55.742C135.293,55.742 136.729,54.835 137.769,53.02C138.663,51.498 139.111,49.496 139.111,47.013C139.111,46.513 139.09,46.002 139.048,45.48L130.737,46.888L130.737,38.504L148.543,38.504C148.479,42.654 148.071,46.273 147.319,49.36C146.566,52.447 145.511,54.944 144.154,56.853C142.797,58.761 141.207,60.175 139.384,61.092C137.561,62.01 135.483,62.469 133.151,62.469C130.429,62.469 128.011,61.848 125.898,60.607C123.784,59.367 122.063,57.641 120.733,55.429C119.403,53.219 118.398,50.658 117.717,47.749C117.037,44.839 116.697,41.663 116.697,38.222" style="fill:rgb(35,31,32);fill-rule:nonzero;"/>
        </g>
        <g transform="matrix(1,0,0,1,0,-0.4164)">
            <path d="M151.691,61.656L151.691,15.321L172.922,15.321L172.922,22.892L161.373,22.892L161.373,33.905L172.019,33.905L172.019,41.476L161.373,41.476L161.373,53.96L173.358,53.96L173.358,61.656L151.691,61.656Z" style="fill:rgb(35,31,32);fill-rule:nonzero;"/>
        </g>
        <g transform="matrix(1,0,0,1,0,-0.4164)">
            <path d="M186.379,36.053L188.683,35.99C190.218,35.949 191.463,35.313 192.418,34.083C193.373,32.854 193.85,31.229 193.85,29.207C193.85,27.31 193.352,25.748 192.356,24.518C191.36,23.288 190.156,22.653 188.745,22.611L186.379,22.548L186.379,36.053ZM176.511,61.656L176.511,15.321L189.509,15.321C190.918,15.321 192.312,15.494 193.691,15.838C195.069,16.183 196.385,16.716 197.64,17.437C198.894,18.159 199.998,19.016 200.951,20.008C201.905,21.001 202.667,22.198 203.237,23.598C203.807,24.999 204.092,26.503 204.092,28.113C204.092,33.532 201.402,37.544 196.023,40.148L205.829,61.656L194.999,61.656L186.908,41.805L186.379,41.805L186.441,61.656L176.511,61.656Z" style="fill:rgb(35,31,32);fill-rule:nonzero;"/>
        </g>
        <g transform="matrix(1,0,0,1,0,-43.4965)">
            <path d="M205.011,59.864L205.365,59.858C205.679,59.851 206.033,59.735 206.033,59.367C206.033,58.972 205.658,58.904 205.365,58.897L205.011,58.89L205.011,59.864ZM204.595,58.542L205.372,58.542C205.972,58.542 206.476,58.801 206.476,59.36C206.476,59.81 206.074,60.076 205.658,60.158L206.776,61.446L206.245,61.446L205.208,60.205L205.011,60.205L205.011,61.446L204.595,61.446L204.595,58.542ZM205.481,62.128C206.653,62.128 207.567,61.214 207.567,60.028C207.567,58.842 206.653,57.929 205.481,57.929C204.309,57.929 203.395,58.842 203.395,60.028C203.395,61.214 204.309,62.128 205.481,62.128M205.481,57.568C206.858,57.568 207.942,58.651 207.942,60.028C207.942,61.405 206.858,62.489 205.481,62.489C204.104,62.489 203.02,61.405 203.02,60.028C203.02,58.651 204.104,57.568 205.481,57.568" style="fill:rgb(35,31,32);fill-rule:nonzero;"/>
        </g>
    </g>
</svg>
