<?xml version="1.0" encoding="UTF-8"?><svg id="Layer_2" xmlns="http://www.w3.org/2000/svg" viewBox="0 0 125.31 156.58"><defs><style>.cls-1{fill:#1d1d1b;stroke-width:0px;}</style></defs><g id="Layer_1-2"><path class="cls-1" d="m125.31,15.88c-3.61.26-7.8,1.3-10.73,2.21,1.09-2.91,2.83-5.34,5.04-6.78l-3.13-4.84c-5.5,3.56-8.91,10.66-8.91,18.52v23.24c-2.37,2.85-5.1,5.28-8.24,7.06-5.35-6.07-12.14-9.52-20.23-10.06l-.86-3.42,27.4-15.12v-1.7c0-8.55,3.74-16.27,9.76-20.15l-3.12-4.85c-7.23,4.65-11.87,13.46-12.36,23.27l-28.35,15.64,3.01,12.02h2.25c7.09,0,12.55,2.6,16.77,6.73-2.19.6-4.53.95-7.03.95H24.01c-13.69,0-22.09,12.87-22.09,22.09,0,10.38,3.76,17.1,10.75,25.18L0,123.98v22.04c0,6.52,4.78,10.57,12.49,10.57h2.88v-26.49c1.73-1.41,5.4-4.41,9.6-7.83v23.75c0,6.52,4.78,10.57,12.49,10.57h2.88v-26.7l25.96-27.09h-18.85c2.53-3.83,3.19-8.13,1.74-12.19-1.9-5.35-7.01-8.94-12.7-8.94-7.41,0-13.45,6.03-13.45,13.45,0,6.38,4.23,11.6,10.11,13.05-9.21,7.51-22.49,18.34-22.49,18.34l-1.06.86v23.17c-2.55-.6-3.84-2.11-3.84-4.51v-20.22l14.24-20.34-1.53-1.7c-8.27-9.23-10.79-14.61-10.79-23.05,0-6.66,6.36-16.33,16.33-16.33h62.57c4.01,0,7.66-.68,11-1.89,8.71,13.06,10,33.94,10,45.12v42.93c-2.55-.6-3.84-2.11-3.84-4.51v-15.37c0-17.96-7.16-27.85-20.17-27.85h-15.56l3.7,4.67c1.27,1.61,5.14,6.49,5.14,23.18v15.37c0,6.52,4.78,10.57,12.49,10.57h2.88v-44.91c4.59,4.23,5.76,12.06,5.76,18.97v15.37c0,6.52,4.78,10.57,12.49,10.57h2.88V50.28c7.2-10.08,10.92-22.08,11.97-34.4ZM28.81,95.11c0-4.24,3.45-7.68,7.68-7.68,3.21,0,6.2,2.1,7.27,5.11,1.21,3.4-.26,7.14-4.04,10.26h-3.23c-4.99,0-7.68-3.96-7.68-7.68Zm1.92,22.46c4.17-3.4,8.25-6.73,11.05-9.01h11.01l-18.22,19.01v22.96c-2.55-.6-3.84-2.11-3.84-4.51v-28.45Zm55.71,32.96c-2.55-.6-3.84-2.11-3.84-4.51v-15.37c0-9.45-1.18-16.75-3.59-22.09h4.55c1.03,0,1.99.09,2.88.26v41.71Zm16.39-90.55c1.68-1,3.26-2.16,4.74-3.44v13.21c-1.3-3.63-2.93-6.96-4.74-9.77Zm10.5-20.85v-14.62c1.72-.68,3.71-1.3,5.22-1.57-.77,5.4-2.78,11.12-5.22,16.2Z"/><circle class="cls-1" cx="99.89" cy="37.48" r="3.84"/></g></svg>