<svg version="1.1" xmlns="http://www.w3.org/2000/svg" viewBox="0 0 256 256">
  <g>
    <g>
      <g>
        <path
          d="M166,79.4c-1.2,1.1-1.4,1.9-1.4,4.6v3.1h-10c-9.6,0-10-0.1-12-1.4c-1.1-0.7-2.8-1.5-3.9-1.7c-1-0.2-7.3,0.6-15.3,2L110,88.4l-10.5-1.8c-30.7-5.1-52.6-5.3-77.7-0.6c-6.8,1.3-8.7,2-10.5,4.6C10.1,92.4,10,93,10,101.4c0,8.4,0.1,8.9,1.4,10.8c2,2.8,4.9,3.8,15.4,5.4c12.8,1.9,26.8,2.8,38,2.4c11.6-0.4,17.3-1,32.7-3.5l12.4-2l14.1,1.8c15,1.9,16.6,1.8,18.7-0.6c1-1.1,1.8-1.1,11.3-1.1h10.3l4.3,8.3c3.1,6,4.7,8.5,5.8,9.1c1.1,0.6,3.8,0.8,10.3,0.8h8.8l1.1,5.2c0.7,3.4,1.5,5.8,2.3,6.7c1.3,1.4,1.5,1.4,8.4,1.4c8.3,0,9.1-0.4,10-4.9c0.3-1.5,0.9-4.1,1.3-5.6l0.6-2.8h8.4c4.7,0,9.2-0.3,10.2-0.6c1.6-0.5,2.3-1.7,6.1-9.1l4.3-8.5V97.4c0-16.4-0.1-17.2-1.1-18.3C243.7,78,243,78,205.6,78h-38.2L166,79.4z M237.5,99.7v12.5l-2.8,5.7l-2.8,5.7h-26.2h-26.2l-2.8-5.7l-2.8-5.7V99.7V87.1h31.9h31.9L237.5,99.7L237.5,99.7z M164.6,100.8v4.6h-9.1h-9.1v-4.6v-4.6h9.1h9.1V100.8z M207.9,133.6c0,2.6-0.7,3.6-2.3,3.6c-1.3,0-1.7-0.3-2-1.6c-0.2-0.9-0.4-1.9-0.6-2.3c-0.1-0.5,0.6-0.7,2.3-0.7C207.3,132.7,207.9,132.8,207.9,133.6z"
        />
        <path
          d="M202.2,159.2c-4.5,5.4-5.8,8-5.5,11c0.3,2.7,1.5,4.7,4,6.5c2.2,1.6,7.6,1.6,9.8,0c4-3,5.2-7.1,3.1-11.2c-1.1-2.3-6.9-9.6-7.9-9.9C205.5,155.5,203.9,157.2,202.2,159.2z"
        />
      </g>
    </g>
  </g>
</svg>
