<?xml version="1.0" encoding="utf-8"?>
<!-- Svg Vector Icons : http://www.onlinewebfonts.com/icon -->
<!DOCTYPE svg PUBLIC "-//W3C//DTD SVG 1.1//EN" "http://www.w3.org/Graphics/SVG/1.1/DTD/svg11.dtd">
<svg version="1.1" xmlns="http://www.w3.org/2000/svg" xmlns:xlink="http://www.w3.org/1999/xlink" x="0px" y="0px" viewBox="0 0 256 256" enable-background="new 0 0 256 256" xml:space="preserve">
<metadata> Svg Vector Icons : http://www.onlinewebfonts.com/icon </metadata>
<g><g><g><path fill="#000000" d="M53.6,10.3c0,0.1,1.4,2.7,3.2,5.7c6.3,10.7,10.3,22.2,10.9,31.5c0.4,5.5-0.8,16.3-3.6,32.9c-2.1,13-4.2,20.1-10.9,36.5c-7.2,17.8-10.7,28.4-12.9,38.1c-1.2,5.6-1.4,8.3-1.4,17.8c0.1,6.2,0.4,13.5,0.9,16.2c1.8,11.4,5.9,24.5,10.4,33.5c5.2,10.4,14.7,22.4,18.5,23.4c0.7,0.2,22.2,0.3,47.7,0.2l46.2-0.2l3.7-4.4c8.6-10.1,17.4-25.5,21.6-37.9c1.8-5.2,4-14.7,4.7-20.7c0.3-2,0.8-3.1,1.4-3.4c13.4-4.6,18.6-9.1,21.5-18.5c1.8-5.9,1.9-19.2,0.2-27.2c-2.7-12.7-8.3-25.9-13.7-32.6c-4.9-6.1-12.6-8.5-21.9-6.8c-2.1,0.4-4.7,0.8-6,1.1l-2.3,0.4l-0.7-3.9c-0.4-2.2-0.9-6.4-1.1-9.3c-0.6-7.1,0.8-33.7,2.2-43.3c0.6-4.2,1-7.7,0.9-7.8C173,31.1,55.8,10,54.6,10C54.1,10,53.6,10.1,53.6,10.3z M118,31.1l44,8l-0.2,3.1c-0.1,1.7-0.3,3.1-0.4,3.3c-0.3,0.3-77.5-4.1-81.9-4.6c-2.6-0.3-2.6-0.3-3.4-3.9c-0.4-1.9-1.6-5.8-2.6-8.5c-1-2.7-1.8-5.1-1.8-5.2C71.8,22.8,76.5,23.6,118,31.1z M191.6,104.6c4.9,2.6,11.8,17.5,14.7,32.2c1.4,6.7,1.1,19.1-0.6,22.9c-1.4,3.2-3.7,5.7-7.2,7.5c-5.6,2.8-5.4,2.9-5.9-2.9c-1-11.6-4.2-23.6-11.1-40.8c-4.5-11.3-6.9-17.9-6.6-18.1c0.1-0.1,1.4-0.4,3-0.8C182.3,103.5,189.6,103.6,191.6,104.6z"/></g></g></g>
</svg>