<svg width="32" height="32" viewBox="0 0 32 32" xmlns="http://www.w3.org/2000/svg">
  <mask id="path-1-outside-1_747_2602" maskUnits="userSpaceOnUse" x="2.00049" y="6" width="30" height="23" fill="black">
    <rect fill="white" x="2.00049" y="6" width="30" height="23" />
    <path
      d="M20.1499 8.00195C20.2921 7.99189 20.5757 8.02024 20.5757 8.21484C20.5756 8.2963 20.5473 8.35612 20.5083 8.39844C20.4302 8.48305 20.3325 8.57531 20.3325 8.69043C20.3328 8.84785 20.4602 8.97559 20.6177 8.97559H26.0229C26.3476 8.93501 27.04 9.01839 27.2104 9.67578C27.3814 10.3349 28.9247 15.5696 29.6753 18.1055C29.8072 18.7446 29.6815 20.2298 28.1235 21.0576C27.0463 21.6299 25.6838 22.3421 24.6538 22.8779C23.9843 23.2267 23.345 23.7951 23.02 24.3125C22.6232 24.8996 22.0811 25.5539 21.519 25.8662C20.4234 26.4749 16.6493 26.9922 13.8188 26.9922C10.9887 26.9922 7.48908 27.145 6.18018 26.0801C4.87154 25.0149 4.14083 23.2798 4.01904 22.6406C3.92165 22.1293 4.22196 20.9867 4.38428 20.4795L6.45361 12.2627C6.52463 11.9381 6.62405 11.2338 6.45361 11.0146C6.24055 10.7407 5.23742 9.37155 5.02393 9.24902C4.81095 9.12732 4.71903 8.94498 4.77979 8.82324C4.84063 8.70155 6.76399 8.12195 7.00146 8.0625C7.24494 8.00163 7.70184 8.00195 8.03662 8.00195H20.1499ZM21.0317 10.2227C20.6665 10.2227 20.3928 10.495 20.5366 10.8906C21.421 13.775 21.7874 14.9617 22.1274 16.0684C22.381 16.8937 23.0712 19.4082 23.5103 21.0254C23.6493 21.4209 24.0441 21.5672 24.2876 21.4658C25.6729 20.9016 26.9336 20.1465 27.7847 19.5645C28.2913 19.2297 28.4882 18.5908 28.2563 17.8301L26.0415 10.7695C25.9192 10.313 25.6878 10.2227 25.353 10.2227H21.0317Z"
    />
  </mask>
  <path
    d="M20.1499 8.00195V9.50195H20.2029L20.2558 9.49821L20.1499 8.00195ZM20.5757 8.21484L22.0757 8.21625V8.21484H20.5757ZM20.5083 8.39844L21.6108 9.41559L21.6108 9.41557L20.5083 8.39844ZM20.3325 8.69043L18.8325 8.69043L18.8325 8.69272L20.3325 8.69043ZM26.0229 8.97559V10.4756H26.1163L26.209 10.464L26.0229 8.97559ZM27.2104 9.67578L25.7585 10.0522L25.7585 10.0524L27.2104 9.67578ZM29.6753 18.1055L31.1443 17.8023L31.1316 17.7404L31.1136 17.6797L29.6753 18.1055ZM28.1235 21.0576L28.8273 22.3823L28.8274 22.3822L28.1235 21.0576ZM24.6538 22.8779L23.9616 21.5472L23.9609 21.5476L24.6538 22.8779ZM23.02 24.3125L24.2628 25.1524L24.2769 25.1316L24.2902 25.1104L23.02 24.3125ZM21.519 25.8662L22.2475 27.1774L22.2476 27.1774L21.519 25.8662ZM13.8188 26.9922L13.8188 25.4922L13.8188 25.4922L13.8188 26.9922ZM6.18018 26.0801L5.23327 27.2434L5.23354 27.2436L6.18018 26.0801ZM4.01904 22.6406L2.54554 22.9213L2.54555 22.9214L4.01904 22.6406ZM4.38428 20.4795L5.81291 20.9367L5.82732 20.8916L5.83886 20.8458L4.38428 20.4795ZM6.45361 12.2627L7.90819 12.629L7.91394 12.6062L7.91896 12.5832L6.45361 12.2627ZM6.45361 11.0146L5.26957 11.9355L5.26958 11.9356L6.45361 11.0146ZM5.02393 9.24902L5.7706 7.94807L5.76813 7.94666L5.02393 9.24902ZM4.77979 8.82324L3.43814 8.15242L3.43765 8.15341L4.77979 8.82324ZM7.00146 8.0625L6.63763 6.60729L6.63717 6.60741L7.00146 8.0625ZM20.5366 10.8906L21.9707 10.4509L21.9595 10.4143L21.9464 10.3783L20.5366 10.8906ZM22.1274 16.0684L23.5613 15.6278L23.5613 15.6277L22.1274 16.0684ZM23.5103 21.0254L22.0627 21.4184L22.077 21.4712L22.0951 21.5228L23.5103 21.0254ZM24.2876 21.4658L23.7218 20.0766L23.7111 20.081L24.2876 21.4658ZM27.7847 19.5645L26.9578 18.313L26.9478 18.3196L26.9379 18.3263L27.7847 19.5645ZM28.2563 17.8301L29.6912 17.3928L29.6876 17.3811L28.2563 17.8301ZM26.0415 10.7695L24.5926 11.1578L24.6008 11.1883L24.6103 11.2185L26.0415 10.7695ZM20.1499 8.00195L20.2558 9.49821C20.2094 9.5015 20.0984 9.50798 19.9332 9.45178C19.8448 9.42172 19.6438 9.34079 19.4496 9.13947C19.2227 8.90425 19.0757 8.57438 19.0757 8.21484H20.5757H22.0757C22.0757 7.15408 21.2227 6.72157 20.899 6.61152C20.5564 6.495 20.2326 6.49234 20.044 6.5057L20.1499 8.00195ZM20.5757 8.21484L19.0757 8.21344C19.076 7.91551 19.1916 7.61353 19.4058 7.3813L20.5083 8.39844L21.6108 9.41557C21.9031 9.09872 22.0753 8.67709 22.0757 8.21625L20.5757 8.21484ZM20.5083 8.39844L19.4059 7.38128C19.4007 7.38688 19.3972 7.39052 19.3828 7.40595C19.3713 7.41826 19.3533 7.43751 19.3336 7.45938C19.2957 7.5015 19.2336 7.57258 19.1691 7.66317C19.0463 7.83567 18.8325 8.19286 18.8325 8.69043H20.3325H21.8325C21.8325 9.07287 21.6676 9.32638 21.6132 9.40281C21.5971 9.42547 21.5837 9.44224 21.5754 9.45221C21.5712 9.45735 21.5679 9.46126 21.5657 9.46376C21.5635 9.46625 21.5623 9.46767 21.5622 9.46776C21.5621 9.46784 21.5629 9.46698 21.5649 9.4648C21.567 9.46255 21.5697 9.45962 21.5739 9.45516C21.5797 9.4489 21.5964 9.43115 21.6108 9.41559L20.5083 8.39844ZM20.3325 8.69043L18.8325 8.69272C18.834 9.6745 19.6295 10.4756 20.6177 10.4756V8.97559V7.47559C21.2909 7.47559 21.8315 8.0212 21.8325 8.68814L20.3325 8.69043ZM20.6177 8.97559V10.4756H26.0229V8.97559V7.47559H20.6177V8.97559ZM26.0229 8.97559L26.209 10.464C26.1716 10.4687 26.1585 10.4665 26.1584 10.4665C26.157 10.4664 26.1356 10.4644 26.0974 10.4485C26.0568 10.4315 25.9827 10.3923 25.9074 10.3125C25.8263 10.2265 25.7786 10.1298 25.7585 10.0522L27.2104 9.67578L28.6624 9.29934C28.4372 8.43063 27.8312 7.92099 27.2516 7.6794C26.7278 7.46106 26.2015 7.44159 25.8369 7.48717L26.0229 8.97559ZM27.2104 9.67578L25.7585 10.0524C25.9379 10.7441 27.4933 16.0189 28.237 18.5312L29.6753 18.1055L31.1136 17.6797C30.356 15.1204 28.8249 9.92573 28.6624 9.29918L27.2104 9.67578ZM29.6753 18.1055L28.2062 18.4086C28.2175 18.463 28.2344 18.7041 28.13 18.9804C28.0409 19.2161 27.8567 19.5008 27.4197 19.733L28.1235 21.0576L28.8274 22.3822C31.1366 21.1552 31.3694 18.893 31.1443 17.8023L29.6753 18.1055ZM28.1235 21.0576L27.4198 19.7329C26.3483 20.3022 24.9903 21.0121 23.9616 21.5472L24.6538 22.8779L25.346 24.2086C26.3773 23.6722 27.7443 22.9576 28.8273 22.3823L28.1235 21.0576ZM24.6538 22.8779L23.9609 21.5476C23.0986 21.9967 22.2405 22.7334 21.7498 23.5146L23.02 24.3125L24.2902 25.1104C24.4495 24.8568 24.87 24.4566 25.3468 24.2083L24.6538 22.8779ZM23.02 24.3125L21.7772 23.4726C21.4014 24.0287 21.0241 24.4252 20.7905 24.555L21.519 25.8662L22.2476 27.1774C23.1381 26.6826 23.845 25.7706 24.2628 25.1524L23.02 24.3125ZM21.519 25.8662L20.7906 24.555C20.7015 24.6045 20.4241 24.7134 19.8977 24.8413C19.4053 24.9609 18.7919 25.0745 18.1068 25.1726C16.7345 25.3691 15.1548 25.4922 13.8188 25.4922V26.9922V28.4922C15.3133 28.4922 17.0359 28.3566 18.5321 28.1423C19.2813 28.035 19.9939 27.9052 20.6057 27.7566C21.1835 27.6162 21.7887 27.4323 22.2475 27.1774L21.519 25.8662ZM13.8188 26.9922L13.8188 25.4922C12.3478 25.4922 10.8557 25.5292 9.53107 25.4389C8.87744 25.3944 8.32288 25.3216 7.88268 25.2144C7.4239 25.1027 7.20611 24.981 7.12682 24.9165L6.18018 26.0801L5.23354 27.2436C5.8087 27.7116 6.5192 27.9701 7.17317 28.1293C7.84572 28.293 8.58837 28.3816 9.32702 28.432C10.787 28.5315 12.4597 28.4922 13.8189 28.4922L13.8188 26.9922ZM6.18018 26.0801L7.12708 24.9167C6.66418 24.54 6.26572 24.0088 5.96394 23.4688C5.65276 22.912 5.51409 22.473 5.49254 22.3599L4.01904 22.6406L2.54555 22.9214C2.64578 23.4474 2.93336 24.1955 3.34515 24.9324C3.76632 25.686 4.38754 26.555 5.23327 27.2434L6.18018 26.0801ZM4.01904 22.6406L5.49255 22.36C5.50703 22.436 5.49356 22.4316 5.50604 22.2944C5.51654 22.1789 5.53964 22.0289 5.57473 21.8548C5.64506 21.5057 5.74543 21.1475 5.81291 20.9367L4.38428 20.4795L2.95564 20.0223C2.86081 20.3187 2.72987 20.7855 2.63381 21.2623C2.55408 21.6581 2.43509 22.3415 2.54554 22.9213L4.01904 22.6406ZM4.38428 20.4795L5.83886 20.8458L7.90819 12.629L6.45361 12.2627L4.99903 11.8964L2.9297 20.1132L4.38428 20.4795ZM6.45361 12.2627L7.91896 12.5832C7.96727 12.3624 8.0246 12.0213 8.04222 11.6754C8.05095 11.5039 8.05252 11.2854 8.02244 11.0589C7.99837 10.8777 7.92887 10.4682 7.63764 10.0937L6.45361 11.0146L5.26958 11.9356C5.15447 11.7876 5.10263 11.6536 5.08069 11.587C5.05734 11.516 5.05031 11.4671 5.04856 11.454C5.04647 11.4382 5.04724 11.4367 5.04759 11.4527C5.04791 11.4677 5.04772 11.491 5.0461 11.5228C5.04278 11.5879 5.03471 11.6657 5.02298 11.7469C5.01132 11.8275 4.99813 11.897 4.98826 11.9421L6.45361 12.2627ZM6.45361 11.0146L7.63766 10.0938C7.59341 10.0369 7.5032 9.91651 7.36782 9.73705C7.23947 9.56692 7.08245 9.35966 6.92394 9.1554C6.76759 8.95395 6.59945 8.74202 6.4503 8.56657C6.37672 8.48 6.29506 8.38727 6.21385 8.30368C6.17272 8.26133 6.00199 8.08088 5.7706 7.94807L5.02393 9.24902L4.27725 10.55C4.16214 10.4839 4.09096 10.4201 4.08207 10.4123C4.06195 10.3946 4.05423 10.386 4.06197 10.394C4.07733 10.4098 4.11073 10.4463 4.16453 10.5096C4.27018 10.6339 4.40617 10.8043 4.55393 10.9947C4.69951 11.1823 4.84657 11.3764 4.9729 11.5438C5.0922 11.7019 5.20728 11.8555 5.26957 11.9355L6.45361 11.0146ZM5.02393 9.24902L5.76813 7.94666C5.84832 7.99248 5.99467 8.09817 6.11207 8.31063C6.22363 8.51249 6.38035 8.97525 6.12192 9.49308L4.77979 8.82324L3.43765 8.15341C3.11846 8.79297 3.29077 9.40777 3.48634 9.76167C3.68776 10.1262 3.98655 10.3839 4.27972 10.5514L5.02393 9.24902ZM4.77979 8.82324L6.12143 9.49406C5.99156 9.7538 5.81943 9.90437 5.76851 9.94813C5.69653 10.01 5.63559 10.0495 5.60792 10.0668C5.57598 10.0868 5.55172 10.0999 5.54044 10.1058C5.52808 10.1123 5.52063 10.1158 5.51984 10.1161C5.51906 10.1165 5.52919 10.1118 5.55395 10.1017C5.57755 10.0921 5.60837 10.08 5.64691 10.0655C5.80662 10.0055 6.03406 9.92821 6.2859 9.84677C6.5336 9.76667 6.78827 9.6879 6.99496 9.6257C7.09819 9.59464 7.18749 9.5683 7.25632 9.54843C7.29081 9.53847 7.3186 9.53059 7.33951 9.52478C7.36289 9.51829 7.36972 9.5166 7.36576 9.51759L7.00146 8.0625L6.63717 6.60741C6.46502 6.65051 5.88281 6.82417 5.36288 6.9923C5.09659 7.0784 4.81694 7.17256 4.59148 7.25729C4.48275 7.29816 4.35849 7.34727 4.24611 7.39997C4.19332 7.42472 4.10777 7.46659 4.01639 7.52378C3.97123 7.55204 3.89601 7.60172 3.81317 7.67291C3.75139 7.72601 3.57182 7.88508 3.43814 8.15242L4.77979 8.82324ZM7.00146 8.0625L7.3653 9.51771C7.32996 9.52654 7.32648 9.52424 7.37347 9.51937C7.41432 9.51513 7.47129 9.51117 7.5453 9.50818C7.69627 9.50209 7.86339 9.50195 8.03662 9.50195V8.00195V6.50195C7.87507 6.50195 7.64635 6.50166 7.42431 6.51062C7.22978 6.51847 6.92082 6.53649 6.63763 6.60729L7.00146 8.0625ZM8.03662 8.00195V9.50195H20.1499V8.00195V6.50195H8.03662V8.00195ZM21.0317 10.2227V8.72266C20.495 8.72266 19.8687 8.9248 19.432 9.45884C18.956 10.041 18.9001 10.7791 19.1268 11.403L20.5366 10.8906L21.9464 10.3783C22.0294 10.6065 22.0384 11.0106 21.7546 11.3577C21.5102 11.6567 21.2033 11.7227 21.0317 11.7227V10.2227ZM20.5366 10.8906L19.1025 11.3303C19.987 14.2152 20.354 15.4038 20.6936 16.509L22.1274 16.0684L23.5613 15.6277C23.2207 14.5196 22.8549 13.3348 21.9707 10.4509L20.5366 10.8906ZM22.1274 16.0684L20.6936 16.5089C20.9381 17.3045 21.6202 19.7889 22.0627 21.4184L23.5103 21.0254L24.9579 20.6324C24.5221 19.0274 23.824 16.4829 23.5613 15.6278L22.1274 16.0684ZM23.5103 21.0254L22.0951 21.5228C22.4756 22.6052 23.7069 23.3323 24.8641 22.8506L24.2876 21.4658L23.7111 20.081C24.073 19.9304 24.3739 20.0119 24.5312 20.0906C24.7219 20.1861 24.8619 20.3474 24.9254 20.528L23.5103 21.0254ZM24.2876 21.4658L24.8534 22.855C26.365 22.2394 27.7207 21.4254 28.6315 20.8026L27.7847 19.5645L26.9379 18.3263C26.1464 18.8676 24.9809 19.5638 23.7218 20.0766L24.2876 21.4658ZM27.7847 19.5645L28.6116 20.816C29.8131 20.0221 30.0626 18.6117 29.6912 17.3928L28.2563 17.8301L26.8215 18.2673C26.8699 18.4262 26.8455 18.4791 26.8536 18.4503C26.8577 18.4358 26.8681 18.4094 26.8899 18.3794C26.9118 18.3491 26.9368 18.3268 26.9578 18.313L27.7847 19.5645ZM28.2563 17.8301L29.6876 17.3811L27.4727 10.3206L26.0415 10.7695L24.6103 11.2185L26.8251 18.279L28.2563 17.8301ZM26.0415 10.7695L27.4904 10.3813C27.378 9.96192 27.1456 9.44829 26.6311 9.09187C26.1381 8.75031 25.6219 8.72266 25.353 8.72266V10.2227V11.7227C25.419 11.7227 25.1858 11.7402 24.9227 11.5579C24.6382 11.3608 24.5827 11.1206 24.5926 11.1578L26.0415 10.7695ZM25.353 10.2227V8.72266H21.0317V10.2227V11.7227H25.353V10.2227Z"
    fill="currentColor"
    mask="url(#path-1-outside-1_747_2602)"
  />
  <path
    d="M13.819 26.992C16.6494 26.992 20.4233 26.4746 21.5189 25.8659C22.0811 25.5536 23.1032 24.5872 23.5 24C24.48 23.188 24.5 22.5 23.5 18.5L22.5 17H5.02336L4.38423 20.479C4.22192 20.9862 3.92163 22.1286 4.01902 22.6399C4.14076 23.279 4.87119 25.0138 6.17988 26.079C7.48856 27.1442 10.9885 26.992 13.819 26.992Z"
    fill="currentColor"
  />
</svg>
