<svg width="200" height="200" viewBox="0 0 200 200" xmlns="http://www.w3.org/2000/svg">
  <!-- Honduras flag colors: Blue, White, Blue with 5 stars -->
  <defs>
    <linearGradient id="hondurasBlue" x1="0%" y1="0%" x2="100%" y2="100%">
      <stop offset="0%" style="stop-color:#0EA5E9;stop-opacity:1" />
      <stop offset="100%" style="stop-color:#0284C7;stop-opacity:1" />
    </linearGradient>
  </defs>
  <!-- Simplified Honduras shape -->
  <path d="M60 70 Q80 65 100 70 Q120 75 140 80 Q150 90 145 100 Q140 110 135 120 Q125 130 105 135 Q85 130 65 125 Q50 115 45 105 Q40 95 45 85 Q50 75 60 70 Z" 
        fill="url(#hondurasBlue)" 
        stroke="#FFFFFF" 
        stroke-width="2"/>
  <!-- White center stripe -->
  <path d="M60 90 Q80 85 100 90 Q120 95 140 100 Q135 105 130 110 Q120 115 100 120 Q80 115 60 110 Q50 105 45 100 Q40 95 45 95 Q50 90 60 90 Z" 
        fill="#FFFFFF" 
        opacity="0.9"/>
  <!-- Five stars -->
  <polygon points="85,100 87,105 92,105 88,108 90,113 85,110 80,113 82,108 78,105 83,105" fill="#0284C7" opacity="0.8"/>
  <polygon points="100,95 102,100 107,100 103,103 105,108 100,105 95,108 97,103 93,100 98,100" fill="#0284C7" opacity="0.8"/>
  <polygon points="115,100 117,105 122,105 118,108 120,113 115,110 110,113 112,108 108,105 113,105" fill="#0284C7" opacity="0.8"/>
  <polygon points="92,110 94,115 99,115 95,118 97,123 92,120 87,123 89,118 85,115 90,115" fill="#0284C7" opacity="0.8"/>
  <polygon points="108,110 110,115 115,115 111,118 113,123 108,120 103,123 105,118 101,115 106,115" fill="#0284C7" opacity="0.8"/>
</svg>
