<svg width="200" height="200" viewBox="0 0 200 200" xmlns="http://www.w3.org/2000/svg">
  <!-- Mexico flag colors: Green, White, Red -->
  <defs>
    <linearGradient id="mexicoGreen" x1="0%" y1="0%" x2="100%" y2="100%">
      <stop offset="0%" style="stop-color:#22C55E;stop-opacity:1" />
      <stop offset="100%" style="stop-color:#16A34A;stop-opacity:1" />
    </linearGradient>
  </defs>
  <!-- Simplified Mexico shape -->
  <path d="M30 60 Q50 50 70 55 Q90 60 110 65 Q130 70 150 75 Q170 80 180 100 Q175 120 165 135 Q155 150 140 160 Q120 170 100 165 Q80 160 60 155 Q40 150 25 135 Q10 120 15 100 Q20 80 30 60 Z" 
        fill="url(#mexicoGreen)" 
        stroke="#FFFFFF" 
        stroke-width="2"/>
  <!-- White center stripe -->
  <path d="M60 80 Q80 75 100 80 Q120 85 140 90 Q160 95 170 110 Q165 125 155 135 Q145 145 130 150 Q110 155 90 150 Q70 145 50 140 Q30 135 25 120 Q20 105 30 95 Q40 85 60 80 Z" 
        fill="#FFFFFF" 
        opacity="0.9"/>
  <!-- Red stripe -->
  <path d="M90 110 Q110 105 130 110 Q150 115 170 120 Q175 130 170 140 Q165 150 155 160 Q145 170 130 175 Q110 180 90 175 Q70 170 50 165 Q30 160 25 150 Q20 140 30 130 Q40 120 60 115 Q75 110 90 110 Z" 
        fill="#DC2626" 
        opacity="0.8"/>
  <!-- Eagle and snake representation (simplified) -->
  <circle cx="100" cy="110" r="8" fill="#8B4513" opacity="0.7"/>
  <path d="M95 105 Q100 100 105 105 Q100 115 95 105" fill="#EAB308" opacity="0.8"/>
</svg>
