<svg width="200" height="200" viewBox="0 0 200 200" xmlns="http://www.w3.org/2000/svg">
  <!-- Costa Rica flag colors: Blue, White, Red, White, Blue -->
  <defs>
    <linearGradient id="costaRicaBlue" x1="0%" y1="0%" x2="100%" y2="100%">
      <stop offset="0%" style="stop-color:#1E40AF;stop-opacity:1" />
      <stop offset="100%" style="stop-color:#1E3A8A;stop-opacity:1" />
    </linearGradient>
  </defs>
  <!-- Simplified Costa Rica shape (narrow country) -->
  <path d="M80 40 Q85 35 90 40 Q95 45 100 50 Q105 55 110 60 Q115 70 120 80 Q125 100 120 120 Q115 140 110 150 Q105 155 100 160 Q95 165 90 160 Q85 155 80 150 Q75 140 70 120 Q65 100 70 80 Q75 60 80 50 Q82 45 80 40 Z" 
        fill="url(#costaRicaBlue)" 
        stroke="#FFFFFF" 
        stroke-width="2"/>
  <!-- White stripes -->
  <path d="M80 60 Q85 55 90 60 Q95 65 100 70 Q105 75 110 80 Q115 85 120 90 Q115 95 110 100 Q105 105 100 110 Q95 115 90 110 Q85 105 80 100 Q75 95 70 90 Q75 85 80 80 Q82 70 80 60 Z" 
        fill="#FFFFFF" 
        opacity="0.8"/>
  <!-- Red center stripe -->
  <path d="M80 90 Q85 85 90 90 Q95 95 100 100 Q105 105 110 110 Q115 115 120 120 Q115 125 110 130 Q105 135 100 140 Q95 145 90 140 Q85 135 80 130 Q75 125 70 120 Q75 115 80 110 Q82 100 80 90 Z" 
        fill="#DC2626" 
        opacity="0.9"/>
</svg>
