<svg xmlns="http://www.w3.org/2000/svg" viewBox="-15.840599999999997 -15.840599999999997 223.7111999999998 247.6011999999998">
		<path id="ID-SB" title="Sumatera Barat" class="land" d="M90.64,179.48l0.17,1.33l-1.47,0.37l1.37,2.66l-0.37,0.5l-0.6,-0.83l-0.63,-0.3l0.2,-0.17l-0.2,-0.33l-0.77,-0.27l0.03,-1.76l-0.6,-0.8l-0.6,0.07l-1.33,-2.02l0.27,-0.83l-0.4,-2.22l1.03,-0.37l1.37,1.73l0.9,0.53l1.7,1.89L90.64,179.48zM85.14,175.06l-0.03,0.4l-1.07,0.17l-0.53,-0.46l-0.4,0.63l-0.43,-0.37l0.13,-0.33l-0.37,-0.4l0.3,-1.89l-0.33,-1.36l-0.47,-0.3l0.4,-1.46l0.5,0.1l0.73,1.03l2.04,1.36l0.83,1.46l-0.17,0.76L85.14,175.06zM77.66,163.67l1.23,2.26l0.6,0.33l0.43,0.7l0.33,0.73l-0.17,0.36l-0.37,-0.73l-0.6,0.2l-0.23,-0.5h-0.8l-0.97,-0.83l-1.37,-0.1l-1.27,-2.19l0.27,-0.4l0.47,0.1l-0.3,-0.4l0.03,-1.26l0.53,-0.43h0.6l1.33,1.13L77.66,163.67zM64.16,143.1l0.33,0.99l-0.53,-0.33l0.4,1.29l1,0.8l0.1,0.76l1.1,1.86l-0.13,0.3l0.57,0.66l0.03,0.63l1.17,1.33l0.1,0.7l-0.6,-0.2l0.4,0.53l0.73,0.27l0.4,1.69l0.67,-0.23l0.47,0.66l0.1,1.46l-0.33,0.5l-0.73,-1.13l0.47,1.56l-0.43,0.4l-1.13,-0.33l-1.07,0.53l-4.1,-2.22l-0.8,-1.09l0.2,-0.33l-0.63,-1.23l-3.47,-5.14l-0.1,-0.43l1.17,-2.55l-0.03,-1.06l0.63,-0.66h1.97l1.47,-0.8L64.16,143.1zM80.68,111.16l0.39,0.35l0.67,-0.12l0.32,0.71l1.58,0.82l2.13,0.71l-0.2,-0.15l0,0l1.06,0.43l0.47,0.73l-0.83,1.29l-0.09,0.94l1.27,2.64l0.15,1.59l1.18,-0.47l0.38,0.15l0.38,0.26l0.77,1.73l2.84,0.79l1.09,0.03l1.33,-1.32l0.65,-0.23l0.53,0.32l0.38,1l-0.27,1.33l0.38,0.94l-0.09,0.85l-0.59,1.03l-0.53,-0.44l-0.5,0.73l0.65,3l0.86,0.79l0.27,0.94l1.03,0.47l0.21,-0.73l1.24,-0.21l0.8,0.59l-0.21,1.06l0.71,1.53l2.01,0.97l0.12,0.41l1.09,0.82l1.71,0.61l-0.09,0.41l0.92,0.41l0.09,0.56l1.69,1.23l1.57,0.71l1.01,1.06l-0.03,0.29l1.77,0.68h0.89l0,0l0.24,0.15l0,0l0.06,1.88l0.53,0.44l0.47,-0.18l-1.12,1.88l-1.57,0.35l-0.62,0.62l0.41,1.62l-0.41,0.68l0.41,0.59l-0.62,1.11l-2.01,1.23l-1.18,1.79l-1,0.26l-0.38,-0.35l-1.18,0.15l-1.6,0.24l-0.56,0.35l-0.68,-0.71l-0.33,0.38l-0.68,-0.32l0.21,3.64l0.77,1.41l1.06,0.73l0.38,0.73l0.74,3.32l0,0l-0.24,0.53l0,0l-0.8,0.97l-3.86,2.55l0,0l-2.28,-2.75l-0.4,-1.59l-0.84,-1.17l0.04,-0.46l1.04,-1.26l0.01,-1.18l-0.45,-1.67l-3.43,-4.62l-0.9,-2.38l-0.76,-0.78l0.41,-1.16l-0.43,-0.98l-1.15,-0.37l-0.8,-0.75l-0.4,0.29l-0.38,-0.11l0.13,-0.62l0.44,0.07l-1.22,-1.62l-0.02,-0.29l0.33,-0.02l-0.33,-0.73l0.3,-0.67l-1.09,-3.49l-3.27,-3.43l-1.38,-2.28l-2.3,-1.89l-0.49,-0.94l-1.13,-0.68l-0.38,-1.37l-0.91,-1.31l0.26,-1.34l-0.58,-0.87l-2.83,-1.96l-2.97,-1.1l-0.78,-1.27l-0.8,-0.1L69.42,123l-1.18,-0.42l0.93,-1.39l1.54,-0.43l1.5,-2.39l1.7,-0.9l1.06,0.43l1.46,-0.51l0.59,1.06l0.63,0.47l0.83,-0.43l1.54,0.31l1.22,-0.43l0.67,-0.82v-0.67l-0.67,-0.51l-0.08,-1.17l-1.26,-0.24l-0.28,-0.78l0.28,-0.63l-0.08,-2.08L80.68,111.16z"/>
		<path id="ID-SS" title="Sumatera Selatan" class="land" d="M147.97,209.18L147.69,208.25L146.31,208.03L146.7,207.54L146.22,206.24L145.58,205.74L144.8,205.7L145.51,205.08L144.42,204.04L145.25,202.98L144.93,201.76L144.37,201.58L143.39,201.94L142.5,201.03L140.8,200.9L139.58,199.9L137.67,199.59L137.66,197.96L136.7,195.92L136.01,195.63L133.81,195.71L132.94,194.92L132.33,195.21L131.57,195.01L129.15,193.03L128.58,192.23L127.91,192.03L129.94,191.02L130.06,189.88L131.18,188.81L131.25,187.36L131.94,187.62L132.83,188.82L133.72,188.13L134.4,187.18L134.69,185.07L134.48,184.62L133.69,184.53L132.87,184.85L132.75,183.98L132.19,184.23L131.36,184.09L130.79,183.17L128.24,184.32L127.36,183.97L125.69,182.45L125.89,181.95L125.66,181.8L125.77,180.58L125.48,179.84L124.85,179.26L123.88,179.04L122.73,179.44L121.64,178.86L120.94,177.03L119.49,176.07L119.35,175.36L118.5,174.82L118.29,174.23L118.29,174.23L118.81,174.38L118.81,174.38L119.21,173.65L120.83,173.17L121.24,172.73L121.32,172L121.88,171.76L122.73,172.28L123.22,172.08L124.31,172.93L125,173.09L125.85,173.25L126.86,172.73L127.34,172.93L128.15,171.76L129.85,170.68L130.41,170.8L130.86,170.44L132.4,168.3L131.79,167.3L132.36,166.46L134.98,167.06L135.27,166.54L136.68,167.18L138.22,166.58L138.06,165.85L137.37,165.17L138.58,163.48L139.39,163.92L139.47,164.69L140.28,165.69L142.34,167.22L142.3,164.28L144.08,163.52L143.52,163.04L143.84,159.42L144.93,158.46L147.11,157.65L148.77,157.57L149.06,157.05L149.78,156.69L151.24,157.29L152.49,157.11L153.57,157.38L155.84,156.63L157.83,156.47L158.15,156.04L158.05,155.29L158.53,154.86L159.07,154.75L160.35,155.27L160.35,155.27L160.99,156.26L161.15,157.16L160.18,158.79L160.41,159.93L161.13,158.65L161.54,158.72L164.88,161.07L166.25,161.13L167.2,162.27L167.46,164.31L166.41,165.41L166.09,165.35L165.5,165.83L164.38,167.62L165.26,167.77L166.56,166.15L167.61,165.92L168.05,166.72L169.18,166.78L171.2,167.55L172.68,166.72L175.09,167.56L179.78,167.88L180.06,168.48L179.6,170.21L179.87,171.64L180.76,172.66L182.6,172.99L182.81,173.61L182.62,175.61L183.25,176.9L183.96,177.52L186.02,177.47L187.26,178.21L187.28,180.43L188.06,182.4L186.05,183.7L184.94,184.86L183.42,188.49L183.27,189.62L183.51,190.52L185.26,191.72L185.67,192.69L185.46,193.54L183.95,196.22L183.73,197.87L183.45,198.23L183.45,198.23L182.64,197.41L182.08,197.87L181.32,197.79L180.95,196.85L180.3,196.85L180.52,196.26L179.58,196.39L180.03,195.56L179.28,194.62L179.66,194.62L179.55,194.3L178.88,194.22L178.93,193.77L178.58,193.5L178.58,193.5L178.04,193.5L178.04,193.5L178.18,192.69L176.62,192.48L176.51,191.76L176.19,191.68L175.32,192.02L174.81,190.82L173.95,192.16L174.22,192.77L174.01,193.26L173.31,193.9L172.63,193.66L172.09,193.93L171.99,194.44L171.61,194.38L171.34,195.45L170.91,195.88L171.21,196.23L170.53,196.61L170.21,197.57L169.22,198.51L167.98,198.72L166.85,199.29L166.77,199.63L165.29,199.88L163.08,199.77L162.46,199.21L159.96,200.76L159.34,200.71L158.03,201.86L157.41,203.15L157.71,205.85L157.06,206.5L156.79,207.27L157.33,207.6L157.39,208.43L158.17,209.39L157.41,210.68L155.5,210.33L153.99,211.32L152.81,210.76L151.17,211.14L150.66,210.76L150.2,212L149.1,211.27L149.53,210.65L149.53,210.12L149.15,209.63L148.72,209.61L148.67,209.1L148.02,209.15L148.02,209.15z"/>
		<path id="ID-SU" title="Sumatera Utara" class="land" d="M55.34,130.93l0.42,0.04l0.71,0.82l0.55,1.42l-0.33,0.36l0.15,1.48l-0.46,0.42l0.31,0.97l-0.59,0.17l0.13,-0.76l-0.84,0.17l-0.08,0.97l-0.9,-0.82L53,135.7l0.59,-0.25l0.38,0.21l0.21,-0.84l0.33,-0.23l0.15,-1.99l0.86,-0.55l0.17,-0.42L55.34,130.93zM54.8,126.68l0.1,0.23l0.32,-0.23v0.49l1.11,1.29l0.21,1.79l1.4,1.27l-0.08,0.91l-0.44,0.25l0.15,0.8l-0.5,-1.18l-2.64,-3.68l-0.32,-1.1l-0.96,-0.47l0.99,-0.46L54.8,126.68zM58.71,123.68l1.53,-0.03l0.29,0.32l1.26,-0.25l1.04,0.99l-0.04,0.56l-1.22,-0.23l-0.53,0.42h-1.67l-2.12,-0.55l-0.11,-0.67l0.79,-0.54L58.71,123.68zM39.79,102.22l2.79,4.11l1.77,0.62l2.11,1.87l0.46,1.18l-0.7,1.61l-0.16,4.02l-1.31,1.6l-1.93,-0.49l-1.51,-4.1l-2.06,-2.14l-1.42,-0.26l-2.77,-5.22l-2.35,-2.29l0.75,-0.31l1.63,-0.07l1.39,-1.24l1.11,-0.23l1.49,0.54L39.79,102.22zM56.65,98.17l0.68,0.12l0.3,-0.51l0.82,0.94l-1.96,0.03l-0.71,-0.26l-0.19,-0.49l0.48,-0.63l0.59,0.25V98.17zM20.9,86.43l-2.04,-0.35l-0.3,-1l-4.1,-2.69l-4.16,-1.31l-2.02,-1.93l-0.09,-0.89l1.62,-2.03l1.61,0.31l1.96,2.43l1.81,0.44l1.95,2.1l2.31,1.59l1.46,0.6l0.91,2.27L20.9,86.43zM50.64,89.71l0.61,-2.79l-0.53,-1.62l-0.83,-0.35l0.06,-0.71l-0.41,-0.56l-0.18,-1l0.24,-1.41l0.62,-0.21l-0.68,-1.41l0.38,-0.88l-0.21,-0.56l-0.95,-0.12l-0.59,-1.06l-0.92,-0.24l-0.44,-2.74l0.8,-0.06l0.09,-0.97l-0.62,-0.65l-0.06,-0.74l-1.18,-0.79l2.37,-0.65l0.24,-0.79l-0.38,-0.71l-0.27,0.12l-0.65,-0.44l-0.3,-1l0.33,-0.53l-0.56,-0.41l-0.21,-0.88l-0.74,-0.35l0.03,-0.74l-1.06,-1.83l1.92,-1.8l-0.21,-1.41l0.74,0.35l0.09,-0.65l1.21,-0.65l0.41,-2.59l0.47,-0.68l-0.15,-0.47l0.41,-0.24l-0.18,-1.12l0.95,-0.03l0.33,-0.44l0.77,-0.21l1.2,0.01l0,0l0.1,2.71l0.77,1.04l1.19,-0.04l2.61,1.3l0.82,1.3l1.74,0.44l0.35,0.59l0.13,1.36l2.14,1.41l2.23,0.73l1.77,0.98l3.96,2.5l1.18,1.06l1.21,0.47l0.92,0.65l1.08,1.63l3.74,1.76l3.74,3.46l0.23,2.53l-0.71,1.39l0.04,0.44l1.14,1.28l-0.27,0.26l0.51,-0.15l-0.31,-0.75l0.24,-0.46l-0.94,-0.5l0.94,-0.63l0.4,0.07l0.71,0.77l-0.07,1.39l0.73,1.7l-0.27,-2.39l0.89,-0.88l0.62,0.02l1.91,2.7l0.22,0.56l-0.4,1.27l0.12,2l0.87,2.51l-1.22,6.35l0.28,0.31l1.89,0.35l0.24,0.78l-0.35,0.71l0.59,0.12l0.12,1.02l-0.51,1.18l0.04,1.1l-0.83,0.71h-0.79l-0.32,0.55h-1.06v0.35l-3,0.16l-0.39,0.27l1.02,1.53l0.2,1.59l0.95,1.25l-1.18,0.39l-0.04,0.43l0.39,0.16l0.35,1.02l-0.39,0.9l-0.75,0.04v0.23l0.43,0.47l0.43,-0.04v1.14l-0.28,0.2l1.06,1.17l-3.71,-1.53l-0.32,-0.71l-0.67,0.12l-0.67,-0.39l-0.59,0.35l0.08,2.08l-0.28,0.63l0.28,0.78l1.26,0.24l0.08,1.17l0.67,0.51v0.67l-0.67,0.82l-1.22,0.43l-1.54,-0.31l-0.83,0.43l-0.63,-0.47l-0.59,-1.06l-1.46,0.51l-1.06,-0.43l-1.7,0.9l-1.5,2.39l-1.54,0.43l-0.93,1.39L68,122.48l-0.26,-0.21l0.32,-0.15l0,-0.87l-0.79,-0.48l0.42,-1.16l-0.58,-2.95l-4.58,-12.48l-1.33,-3.04l-0.83,-1.06l0.2,-0.32l0.45,0.48l0.38,-0.08l0.85,-1.33L62.28,98l-1.69,-1.97l-0.49,0.31l0.5,0.15l0.21,0.68l-1.15,-0.44l-2.59,-3.27L50.64,89.71z"/>
</svg>
