<svg width="200" height="200" viewBox="0 0 200 200" xmlns="http://www.w3.org/2000/svg">
  <!-- Burundi flag colors: Red, Green, White -->
  <defs>
    <linearGradient id="burundiRed" x1="0%" y1="0%" x2="100%" y2="100%">
      <stop offset="0%" style="stop-color:#CE1126;stop-opacity:1" />
      <stop offset="100%" style="stop-color:#B91C1C;stop-opacity:1" />
    </linearGradient>
    <linearGradient id="burundiGreen" x1="0%" y1="0%" x2="100%" y2="100%">
      <stop offset="0%" style="stop-color:#00CF00;stop-opacity:1" />
      <stop offset="100%" style="stop-color:#16A34A;stop-opacity:1" />
    </linearGradient>
  </defs>
  <!-- Simplified Burundi shape (small landlocked country in East Africa) -->
  <path d="M85 40 Q95 35 105 40 Q115 45 120 55 Q125 70 120 85 Q115 100 110 115 Q105 130 95 140 Q85 145 75 140 Q65 135 60 125 Q55 110 60 95 Q65 80 70 65 Q75 50 80 45 Q82 42 85 40 Z" 
        fill="url(#burundiRed)" 
        stroke="#FFFFFF" 
        stroke-width="2"/>
  <!-- Green diagonal sections -->
  <path d="M85 60 Q95 55 105 60 Q115 65 120 75 Q115 85 110 95 Q105 105 95 110 Q85 115 75 110 Q65 105 60 95 Q65 85 70 75 Q75 65 80 60 Q82 58 85 60 Z" 
        fill="url(#burundiGreen)" 
        opacity="0.7"/>
  <!-- White center circle with stars -->
  <circle cx="90" cy="90" r="12" fill="#FFFFFF" stroke="#CE1126" stroke-width="1"/>
  <!-- Three stars representing unity, work, and progress -->
  <polygon points="90,82 91,85 94,85 92,87 93,90 90,88 87,90 88,87 86,85 89,85" 
           fill="#CE1126" 
           opacity="0.8"/>
  <polygon points="84,94 85,97 88,97 86,99 87,102 84,100 81,102 82,99 80,97 83,97" 
           fill="#00CF00" 
           opacity="0.8"/>
  <polygon points="96,94 97,97 100,97 98,99 99,102 96,100 93,102 94,99 92,97 95,97" 
           fill="#00CF00" 
           opacity="0.8"/>
</svg>
