<svg width="200" height="200" viewBox="0 0 200 200" xmlns="http://www.w3.org/2000/svg">
  <!-- El Salvador flag colors: Blue, White, Blue -->
  <defs>
    <linearGradient id="salvadorBlue" x1="0%" y1="0%" x2="100%" y2="100%">
      <stop offset="0%" style="stop-color:#0EA5E9;stop-opacity:1" />
      <stop offset="100%" style="stop-color:#0284C7;stop-opacity:1" />
    </linearGradient>
  </defs>
  <!-- Simplified El Salvador shape -->
  <path d="M60 70 Q80 65 100 70 Q120 75 140 80 Q145 90 140 100 Q135 110 130 120 Q120 130 100 135 Q80 130 60 125 Q50 115 45 105 Q40 95 45 85 Q50 75 60 70 Z" 
        fill="url(#salvadorBlue)" 
        stroke="#FFFFFF" 
        stroke-width="2"/>
  <!-- White center stripe -->
  <path d="M60 90 Q80 85 100 90 Q120 95 140 100 Q135 105 130 110 Q120 115 100 120 Q80 115 60 110 Q50 105 45 100 Q40 95 45 95 Q50 90 60 90 Z" 
        fill="#FFFFFF" 
        opacity="0.9"/>
  <!-- Coat of arms representation (small triangle) -->
  <polygon points="100,95 105,105 95,105" 
           fill="#0284C7" 
           opacity="0.8"/>
</svg>
