<svg width="200" height="200" viewBox="0 0 200 200" xmlns="http://www.w3.org/2000/svg">
  <!-- Rwanda flag colors: Blue, Yellow, Green -->
  <defs>
    <linearGradient id="rwandaBlue" x1="0%" y1="0%" x2="100%" y2="100%">
      <stop offset="0%" style="stop-color:#0EA5E9;stop-opacity:1" />
      <stop offset="100%" style="stop-color:#0284C7;stop-opacity:1" />
    </linearGradient>
  </defs>
  <!-- Simplified Rwanda shape -->
  <path d="M70 60 Q90 55 110 60 Q130 65 140 80 Q145 100 140 120 Q135 140 125 150 Q115 160 100 165 Q85 170 70 165 Q55 160 45 150 Q35 140 40 120 Q45 100 50 80 Q55 65 65 60 Q68 58 70 60 Z" 
        fill="url(#rwandaBlue)" 
        stroke="#EAB308" 
        stroke-width="1"/>
  <!-- Yellow stripe -->
  <path d="M70 100 Q90 95 110 100 Q130 105 140 120 Q135 130 125 135 Q115 140 100 145 Q85 150 70 145 Q55 140 45 135 Q35 130 40 120 Q45 110 50 105 Q55 100 65 100 Q68 99 70 100 Z" 
        fill="#EAB308" 
        opacity="0.8"/>
  <!-- Green stripe -->
  <path d="M70 130 Q90 125 110 130 Q130 135 140 150 Q135 160 125 165 Q115 170 100 175 Q85 180 70 175 Q55 170 45 165 Q35 160 40 150 Q45 140 50 135 Q55 130 65 130 Q68 129 70 130 Z" 
        fill="#16A34A" 
        opacity="0.8"/>
  <!-- Sun representation -->
  <circle cx="120" cy="80" r="8" fill="#FFD700" opacity="0.9"/>
  <g transform="translate(120,80)">
    <path d="M0,-12 L2,-8 L0,-4 L-2,-8 Z" fill="#FFD700" opacity="0.7"/>
    <path d="M8.5,-8.5 L6,-6 L4,-4 L6.5,-6.5 Z" fill="#FFD700" opacity="0.7"/>
    <path d="M12,0 L8,2 L4,0 L8,-2 Z" fill="#FFD700" opacity="0.7"/>
    <path d="M8.5,8.5 L6,6 L4,4 L6.5,6.5 Z" fill="#FFD700" opacity="0.7"/>
  </g>
</svg>
