<svg
  width="91px"
  height="16px"
  viewBox="0 0 91 16"
  version="1.1"
  xmlns="http://www.w3.org/2000/svg"
  xmlns:xlink="http://www.w3.org/1999/xlink"
>
  <path
    d="M90.7087231,13.832846 C90.7087231,14.4092683 90.239287,14.8781929 89.6627312,14.8781929 C89.0861754,14.8781929 88.6170257,14.4092683 88.6170257,13.832846 C88.6170257,13.2565669 89.0861754,12.787356 89.6627312,12.787356 C90.239287,12.787356 90.7087231,13.2565669 90.7087231,13.832846 L90.7087231,13.832846 Z M89.6627312,15.049817 C90.3338043,15.049817 90.88,14.5037403 90.88,13.832846 C90.88,13.1618086 90.3338043,12.6161613 89.6627312,12.6161613 C88.9915149,12.6161613 88.4454624,13.1618086 88.4454624,13.832846 C88.4454624,14.5037403 88.9915149,15.049817 89.6627312,15.049817 L89.6627312,15.049817 Z M89.4775631,13.8158124 L89.4775631,13.4714191 L89.7397772,13.4714191 C89.8685212,13.4714191 89.9471425,13.5296768 89.9471425,13.6427569 L89.9471425,13.6460491 C89.9471425,13.7472487 89.8735335,13.8158124 89.7449326,13.8158124 L89.4775631,13.8158124 Z M89.2134874,14.4324569 L89.4775631,14.4324569 L89.4775631,14.0485571 L89.6849285,14.0485571 L89.941987,14.4324569 L90.2507436,14.4324569 L89.9574535,14.0041838 C90.1101133,13.9476438 90.214512,13.8259753 90.214512,13.632594 L90.214512,13.6290155 C90.214512,13.5157923 90.17871,13.4214635 90.1115454,13.3547605 C90.0329241,13.2758907 89.9147774,13.2332352 89.7621176,13.2332352 L89.2134874,13.2332352 L89.2134874,14.4324569 Z M83.7665675,9.14818056 L76.8736755,0.310612443 L74.3596574,0.310612443 L74.3596574,15.0495307 L77.4953419,15.0495307 L77.4953419,6.24016103 L84.4163027,15.0495307 L86.9306072,15.0495307 L86.9306072,0.310612443 L83.7665675,0.310612443 L83.7665675,9.14818056 Z M62.2925138,2.93636113 C64.3827791,2.93636113 66.0495781,5.08244977 66.0495781,7.68014314 C66.0495781,10.2778365 64.3827791,12.4236389 62.2925138,12.4236389 C60.2303172,12.4236389 58.5635182,10.2778365 58.5635182,7.68014314 C58.5635182,5.08244977 60.2303172,2.93636113 62.2925138,2.93636113 L62.2925138,2.93636113 Z M69.3264657,7.68014314 C69.3264657,3.41645059 66.1909245,7.10542736e-15 62.2925138,7.10542736e-15 C58.4224582,7.10542736e-15 55.2584186,3.41645059 55.2584186,7.68014314 C55.2584186,11.9436925 58.4224582,15.36 62.2925138,15.36 C66.1909245,15.36 69.3264657,11.9436925 69.3264657,7.68014314 L69.3264657,7.68014314 Z M44.9146411,8.4707019 L40.8183168,8.4707019 L40.8183168,3.44493533 L44.9146411,3.44493533 C46.2987473,3.44493533 47.4286592,4.57430499 47.4286592,5.95774705 C47.4286592,7.3411891 46.2987473,8.4707019 44.9146411,8.4707019 L44.9146411,8.4707019 Z M47.5982176,10.8992045 C49.349939,9.93873933 50.5643436,8.07535095 50.5643436,5.95774705 C50.5643436,2.8519089 48.0221135,0.310612443 44.9146411,0.310612443 L37.6827755,0.310612443 L37.6827755,15.049817 L40.8183168,15.049817 L40.8183168,11.6050248 L43.8975772,11.6050248 L47.3440232,15.049817 L51.7508227,15.049817 L47.5982176,10.8992045 Z M21.9767142,15.0495307 L31.3836243,15.0495307 L31.3836243,11.915351 L25.1123986,11.915351 L25.1123986,9.23306221 L31.3836243,9.23306221 L31.3836243,6.09888247 L25.1123986,6.09888247 L25.1123986,3.44479219 L31.3836243,3.44479219 L31.3836243,0.310612443 L21.9767142,0.310612443 L21.9767142,15.0495307 Z M15.706491,15.0496738 L12.5708065,15.0496738 L12.5708065,6.24001789 L7.8535319,10.9272599 L3.13554123,6.24001789 L3.13554123,15.0496738 L5.68434189e-14,15.0496738 L5.68434189e-14,0.310755582 L1.63844381,0.310755582 L7.8535319,6.49423342 L14.0680472,0.310755582 L15.706491,0.310755582 L15.706491,15.0496738 Z"
  ></path>
</svg>
